<?xml version="1.0" encoding="UTF-8" standalone="no"?>
<!DOCTYPE svg PUBLIC "-//W3C//DTD SVG 1.1//EN"
 "http://www.w3.org/Graphics/SVG/1.1/DTD/svg11.dtd">
<!-- Generated by graphviz version 2.38.0 (20140413.2041)
 -->
<!-- Title: gr::Match3pcs::initBase Pages: 1 -->
<svg width="334pt" height="57pt"
 viewBox="0.00 0.00 334.00 57.00" xmlns="http://www.w3.org/2000/svg" xmlns:xlink="http://www.w3.org/1999/xlink">
<g id="graph0" class="graph" transform="scale(1 1) rotate(0) translate(4 53)">
<title>gr::Match3pcs::initBase</title>
<polygon fill="white" stroke="none" points="-4,4 -4,-53 330,-53 330,4 -4,4"/>
<!-- Node1 -->
<g id="node1" class="node"><title>Node1</title>
<polygon fill="#bfbfbf" stroke="black" points="0,-6 0,-25 128,-25 128,-6 0,-6"/>
<text text-anchor="middle" x="64" y="-13" font-family="Helvetica,sans-Serif" font-size="10.00">gr::Match3pcs::initBase</text>
</g>
<!-- Node2 -->
<g id="node2" class="node"><title>Node2</title>
<g id="a_node2"><a xlink:href="a00017.html#af030215db30f18fbbab45034aa57fa8e" target="_top" xlink:title="gr::CongruentSetExploration\lBase::ComputeTransformation">
<polygon fill="white" stroke="black" points="164,-0.5 164,-30.5 326,-30.5 326,-0.5 164,-0.5"/>
<text text-anchor="start" x="172" y="-18.5" font-family="Helvetica,sans-Serif" font-size="10.00">gr::CongruentSetExploration</text>
<text text-anchor="middle" x="245" y="-7.5" font-family="Helvetica,sans-Serif" font-size="10.00">Base::ComputeTransformation</text>
</a>
</g>
</g>
<!-- Node1&#45;&gt;Node2 -->
<g id="edge1" class="edge"><title>Node1&#45;&gt;Node2</title>
<path fill="none" stroke="midnightblue" d="M128.109,-15.5C136.428,-15.5 145.082,-15.5 153.746,-15.5"/>
<polygon fill="midnightblue" stroke="midnightblue" points="153.9,-19.0001 163.9,-15.5 153.9,-12.0001 153.9,-19.0001"/>
</g>
<!-- Node2&#45;&gt;Node2 -->
<g id="edge2" class="edge"><title>Node2&#45;&gt;Node2</title>
<path fill="none" stroke="midnightblue" d="M213.631,-30.659C206.067,-40.0566 216.523,-49 245,-49 262.353,-49 273.014,-45.679 276.984,-40.9579"/>
<polygon fill="midnightblue" stroke="midnightblue" points="280.459,-40.4325 276.369,-30.659 273.471,-40.8499 280.459,-40.4325"/>
</g>
</g>
</svg>
