<?xml version="1.0" encoding="UTF-8" standalone="no"?>
<!DOCTYPE svg PUBLIC "-//W3C//DTD SVG 1.1//EN"
 "http://www.w3.org/Graphics/SVG/1.1/DTD/svg11.dtd">
<!-- Generated by graphviz version 2.38.0 (20140413.2041)
 -->
<!-- Title: gr::NdNode::rangeLength Pages: 1 -->
<svg width="344pt" height="57pt"
 viewBox="0.00 0.00 344.00 57.00" xmlns="http://www.w3.org/2000/svg" xmlns:xlink="http://www.w3.org/1999/xlink">
<g id="graph0" class="graph" transform="scale(1 1) rotate(0) translate(4 53)">
<title>gr::NdNode::rangeLength</title>
<polygon fill="white" stroke="none" points="-4,4 -4,-53 340,-53 340,4 -4,4"/>
<!-- Node1 -->
<g id="node1" class="node"><title>Node1</title>
<polygon fill="#bfbfbf" stroke="black" points="0,-6 0,-25 138,-25 138,-6 0,-6"/>
<text text-anchor="middle" x="69" y="-13" font-family="Helvetica,sans-Serif" font-size="10.00">gr::NdNode::rangeLength</text>
</g>
<!-- Node2 -->
<g id="node2" class="node"><title>Node2</title>
<g id="a_node2"><a xlink:href="a00017.html#af030215db30f18fbbab45034aa57fa8e" target="_top" xlink:title="gr::CongruentSetExploration\lBase::ComputeTransformation">
<polygon fill="white" stroke="black" points="174,-0.5 174,-30.5 336,-30.5 336,-0.5 174,-0.5"/>
<text text-anchor="start" x="182" y="-18.5" font-family="Helvetica,sans-Serif" font-size="10.00">gr::CongruentSetExploration</text>
<text text-anchor="middle" x="255" y="-7.5" font-family="Helvetica,sans-Serif" font-size="10.00">Base::ComputeTransformation</text>
</a>
</g>
</g>
<!-- Node1&#45;&gt;Node2 -->
<g id="edge1" class="edge"><title>Node1&#45;&gt;Node2</title>
<path fill="none" stroke="midnightblue" d="M138.253,-15.5C146.56,-15.5 155.144,-15.5 163.708,-15.5"/>
<polygon fill="midnightblue" stroke="midnightblue" points="163.735,-19.0001 173.735,-15.5 163.735,-12.0001 163.735,-19.0001"/>
</g>
<!-- Node2&#45;&gt;Node2 -->
<g id="edge2" class="edge"><title>Node2&#45;&gt;Node2</title>
<path fill="none" stroke="midnightblue" d="M222.586,-30.659C214.769,-40.0566 225.574,-49 255,-49 272.931,-49 283.948,-45.679 288.05,-40.9579"/>
<polygon fill="midnightblue" stroke="midnightblue" points="291.524,-40.4244 287.414,-30.659 284.537,-40.8556 291.524,-40.4244"/>
</g>
</g>
</svg>
