<?xml version="1.0" encoding="UTF-8" standalone="no"?>
<!DOCTYPE svg PUBLIC "-//W3C//DTD SVG 1.1//EN"
 "http://www.w3.org/Graphics/SVG/1.1/DTD/svg11.dtd">
<!-- Generated by graphviz version 2.38.0 (20140413.2041)
 -->
<!-- Title: gr::CongruentSetExplorationBase::CongruentSetExplorationBase Pages: 1 -->
<svg width="397pt" height="57pt"
 viewBox="0.00 0.00 397.00 57.00" xmlns="http://www.w3.org/2000/svg" xmlns:xlink="http://www.w3.org/1999/xlink">
<g id="graph0" class="graph" transform="scale(1 1) rotate(0) translate(4 53)">
<title>gr::CongruentSetExplorationBase::CongruentSetExplorationBase</title>
<polygon fill="white" stroke="none" points="-4,4 -4,-53 393,-53 393,4 -4,4"/>
<!-- Node1 -->
<g id="node1" class="node"><title>Node1</title>
<polygon fill="#bfbfbf" stroke="black" points="0,-0.5 0,-30.5 191,-30.5 191,-0.5 0,-0.5"/>
<text text-anchor="start" x="8" y="-18.5" font-family="Helvetica,sans-Serif" font-size="10.00">gr::CongruentSetExploration</text>
<text text-anchor="middle" x="95.5" y="-7.5" font-family="Helvetica,sans-Serif" font-size="10.00">Base::CongruentSetExplorationBase</text>
</g>
<!-- Node2 -->
<g id="node2" class="node"><title>Node2</title>
<g id="a_node2"><a xlink:href="a00017.html#af030215db30f18fbbab45034aa57fa8e" target="_top" xlink:title="gr::CongruentSetExploration\lBase::ComputeTransformation">
<polygon fill="white" stroke="black" points="227,-0.5 227,-30.5 389,-30.5 389,-0.5 227,-0.5"/>
<text text-anchor="start" x="235" y="-18.5" font-family="Helvetica,sans-Serif" font-size="10.00">gr::CongruentSetExploration</text>
<text text-anchor="middle" x="308" y="-7.5" font-family="Helvetica,sans-Serif" font-size="10.00">Base::ComputeTransformation</text>
</a>
</g>
</g>
<!-- Node1&#45;&gt;Node2 -->
<g id="edge1" class="edge"><title>Node1&#45;&gt;Node2</title>
<path fill="none" stroke="midnightblue" d="M191.282,-15.5C199.738,-15.5 208.285,-15.5 216.702,-15.5"/>
<polygon fill="midnightblue" stroke="midnightblue" points="216.89,-19.0001 226.89,-15.5 216.89,-12.0001 216.89,-19.0001"/>
</g>
<!-- Node2&#45;&gt;Node2 -->
<g id="edge2" class="edge"><title>Node2&#45;&gt;Node2</title>
<path fill="none" stroke="midnightblue" d="M271.055,-30.659C262.146,-40.0566 274.461,-49 308,-49 328.438,-49 340.994,-45.679 345.67,-40.9579"/>
<polygon fill="midnightblue" stroke="midnightblue" points="349.139,-40.3887 344.945,-30.659 342.156,-40.88 349.139,-40.3887"/>
</g>
</g>
</svg>
