<?xml version="1.0" encoding="UTF-8" standalone="no"?>
<!DOCTYPE svg PUBLIC "-//W3C//DTD SVG 1.1//EN"
 "http://www.w3.org/Graphics/SVG/1.1/DTD/svg11.dtd">
<!-- Generated by graphviz version 2.38.0 (20140413.2041)
 -->
<!-- Title: gr::IndexedNormalHealSet::getNeighbors Pages: 1 -->
<svg width="349pt" height="57pt"
 viewBox="0.00 0.00 349.00 57.00" xmlns="http://www.w3.org/2000/svg" xmlns:xlink="http://www.w3.org/1999/xlink">
<g id="graph0" class="graph" transform="scale(1 1) rotate(0) translate(4 53)">
<title>gr::IndexedNormalHealSet::getNeighbors</title>
<polygon fill="white" stroke="none" points="-4,4 -4,-53 345,-53 345,4 -4,4"/>
<!-- Node1 -->
<g id="node1" class="node"><title>Node1</title>
<polygon fill="#bfbfbf" stroke="black" points="0,-0.5 0,-30.5 143,-30.5 143,-0.5 0,-0.5"/>
<text text-anchor="start" x="8" y="-18.5" font-family="Helvetica,sans-Serif" font-size="10.00">gr::IndexedNormalHealSet</text>
<text text-anchor="middle" x="71.5" y="-7.5" font-family="Helvetica,sans-Serif" font-size="10.00">::getNeighbors</text>
</g>
<!-- Node2 -->
<g id="node2" class="node"><title>Node2</title>
<g id="a_node2"><a xlink:href="a00017.html#af030215db30f18fbbab45034aa57fa8e" target="_top" xlink:title="gr::CongruentSetExploration\lBase::ComputeTransformation">
<polygon fill="white" stroke="black" points="179,-0.5 179,-30.5 341,-30.5 341,-0.5 179,-0.5"/>
<text text-anchor="start" x="187" y="-18.5" font-family="Helvetica,sans-Serif" font-size="10.00">gr::CongruentSetExploration</text>
<text text-anchor="middle" x="260" y="-7.5" font-family="Helvetica,sans-Serif" font-size="10.00">Base::ComputeTransformation</text>
</a>
</g>
</g>
<!-- Node1&#45;&gt;Node2 -->
<g id="edge1" class="edge"><title>Node1&#45;&gt;Node2</title>
<path fill="none" stroke="midnightblue" d="M143.008,-15.5C151.385,-15.5 160.024,-15.5 168.63,-15.5"/>
<polygon fill="midnightblue" stroke="midnightblue" points="168.7,-19.0001 178.7,-15.5 168.7,-12.0001 168.7,-19.0001"/>
</g>
<!-- Node2&#45;&gt;Node2 -->
<g id="edge2" class="edge"><title>Node2&#45;&gt;Node2</title>
<path fill="none" stroke="midnightblue" d="M227.237,-30.659C219.337,-40.0566 230.258,-49 260,-49 278.124,-49 289.259,-45.679 293.405,-40.9579"/>
<polygon fill="midnightblue" stroke="midnightblue" points="296.879,-40.4217 292.763,-30.659 289.892,-40.8575 296.879,-40.4217"/>
</g>
</g>
</svg>
