<?xml version="1.0" encoding="UTF-8" standalone="no"?>
<!DOCTYPE svg PUBLIC "-//W3C//DTD SVG 1.1//EN"
 "http://www.w3.org/Graphics/SVG/1.1/DTD/svg11.dtd">
<!-- Generated by graphviz version 2.38.0 (20140413.2041)
 -->
<!-- Title: gr::NdNode::split Pages: 1 -->
<svg width="303pt" height="57pt"
 viewBox="0.00 0.00 303.00 57.00" xmlns="http://www.w3.org/2000/svg" xmlns:xlink="http://www.w3.org/1999/xlink">
<g id="graph0" class="graph" transform="scale(1 1) rotate(0) translate(4 53)">
<title>gr::NdNode::split</title>
<polygon fill="white" stroke="none" points="-4,4 -4,-53 299,-53 299,4 -4,4"/>
<!-- Node1 -->
<g id="node1" class="node"><title>Node1</title>
<polygon fill="#bfbfbf" stroke="black" points="0,-6 0,-25 97,-25 97,-6 0,-6"/>
<text text-anchor="middle" x="48.5" y="-13" font-family="Helvetica,sans-Serif" font-size="10.00">gr::NdNode::split</text>
</g>
<!-- Node2 -->
<g id="node2" class="node"><title>Node2</title>
<g id="a_node2"><a xlink:href="a00017.html#af030215db30f18fbbab45034aa57fa8e" target="_top" xlink:title="gr::CongruentSetExploration\lBase::ComputeTransformation">
<polygon fill="white" stroke="black" points="133,-0.5 133,-30.5 295,-30.5 295,-0.5 133,-0.5"/>
<text text-anchor="start" x="141" y="-18.5" font-family="Helvetica,sans-Serif" font-size="10.00">gr::CongruentSetExploration</text>
<text text-anchor="middle" x="214" y="-7.5" font-family="Helvetica,sans-Serif" font-size="10.00">Base::ComputeTransformation</text>
</a>
</g>
</g>
<!-- Node1&#45;&gt;Node2 -->
<g id="edge1" class="edge"><title>Node1&#45;&gt;Node2</title>
<path fill="none" stroke="midnightblue" d="M97.2305,-15.5C105.38,-15.5 114.078,-15.5 122.908,-15.5"/>
<polygon fill="midnightblue" stroke="midnightblue" points="122.911,-19.0001 132.911,-15.5 122.91,-12.0001 122.911,-19.0001"/>
</g>
<!-- Node2&#45;&gt;Node2 -->
<g id="edge2" class="edge"><title>Node2&#45;&gt;Node2</title>
<path fill="none" stroke="midnightblue" d="M185.42,-30.659C178.528,-40.0566 188.055,-49 214,-49 229.81,-49 239.524,-45.679 243.141,-40.9579"/>
<polygon fill="midnightblue" stroke="midnightblue" points="246.619,-40.454 242.58,-30.659 239.629,-40.8344 246.619,-40.454"/>
</g>
</g>
</svg>
