<?xml version="1.0" encoding="UTF-8" standalone="no"?>
<!DOCTYPE svg PUBLIC "-//W3C//DTD SVG 1.1//EN"
 "http://www.w3.org/Graphics/SVG/1.1/DTD/svg11.dtd">
<!-- Generated by graphviz version 2.38.0 (20140413.2041)
 -->
<!-- Title: gr::KdTree::createTree Pages: 1 -->
<svg width="253pt" height="46pt"
 viewBox="0.00 0.00 253.00 46.00" xmlns="http://www.w3.org/2000/svg" xmlns:xlink="http://www.w3.org/1999/xlink">
<g id="graph0" class="graph" transform="scale(1 1) rotate(0) translate(4 42)">
<title>gr::KdTree::createTree</title>
<polygon fill="white" stroke="none" points="-4,4 -4,-42 249,-42 249,4 -4,4"/>
<!-- Node1 -->
<g id="node1" class="node"><title>Node1</title>
<polygon fill="#bfbfbf" stroke="black" points="0,-0.5 0,-19.5 120,-19.5 120,-0.5 0,-0.5"/>
<text text-anchor="middle" x="60" y="-7.5" font-family="Helvetica,sans-Serif" font-size="10.00">gr::KdTree::createTree</text>
</g>
<!-- Node1&#45;&gt;Node1 -->
<g id="edge2" class="edge"><title>Node1&#45;&gt;Node1</title>
<path fill="none" stroke="midnightblue" d="M38.4219,-19.7571C27.9245,-28.5653 35.1172,-38 60,-38 75.9406,-38 84.6211,-34.128 86.0416,-29.0292"/>
<polygon fill="midnightblue" stroke="midnightblue" points="89.0692,-27.2493 81.5781,-19.7571 82.762,-30.2855 89.0692,-27.2493"/>
</g>
<!-- Node2 -->
<g id="node2" class="node"><title>Node2</title>
<g id="a_node2"><a xlink:href="a00031.html#a16bcf56cc682369cb33981bae3b9ca49" target="_top" xlink:title="Used to build the tree: split the subset [start..end[ according to dim and splitValue, and returns the index of the first element of the second subset. ">
<polygon fill="white" stroke="black" points="156,-0.5 156,-19.5 245,-19.5 245,-0.5 156,-0.5"/>
<text text-anchor="middle" x="200.5" y="-7.5" font-family="Helvetica,sans-Serif" font-size="10.00">gr::KdTree::split</text>
</a>
</g>
</g>
<!-- Node1&#45;&gt;Node2 -->
<g id="edge1" class="edge"><title>Node1&#45;&gt;Node2</title>
<path fill="none" stroke="midnightblue" d="M120.138,-10C128.606,-10 137.28,-10 145.639,-10"/>
<polygon fill="midnightblue" stroke="midnightblue" points="145.644,-13.5001 155.644,-10 145.644,-6.5001 145.644,-13.5001"/>
</g>
</g>
</svg>
