<?xml version="1.0" encoding="UTF-8" standalone="no"?>
<!DOCTYPE svg PUBLIC "-//W3C//DTD SVG 1.1//EN"
 "http://www.w3.org/Graphics/SVG/1.1/DTD/svg11.dtd">
<!-- Generated by graphviz version 2.38.0 (20140413.2041)
 -->
<!-- Title: gr::NdNode::idInRange Pages: 1 -->
<svg width="330pt" height="57pt"
 viewBox="0.00 0.00 330.00 57.00" xmlns="http://www.w3.org/2000/svg" xmlns:xlink="http://www.w3.org/1999/xlink">
<g id="graph0" class="graph" transform="scale(1 1) rotate(0) translate(4 53)">
<title>gr::NdNode::idInRange</title>
<polygon fill="white" stroke="none" points="-4,4 -4,-53 326,-53 326,4 -4,4"/>
<!-- Node1 -->
<g id="node1" class="node"><title>Node1</title>
<polygon fill="#bfbfbf" stroke="black" points="0,-6 0,-25 124,-25 124,-6 0,-6"/>
<text text-anchor="middle" x="62" y="-13" font-family="Helvetica,sans-Serif" font-size="10.00">gr::NdNode::idInRange</text>
</g>
<!-- Node2 -->
<g id="node2" class="node"><title>Node2</title>
<g id="a_node2"><a xlink:href="a00017.html#af030215db30f18fbbab45034aa57fa8e" target="_top" xlink:title="gr::CongruentSetExploration\lBase::ComputeTransformation">
<polygon fill="white" stroke="black" points="160,-0.5 160,-30.5 322,-30.5 322,-0.5 160,-0.5"/>
<text text-anchor="start" x="168" y="-18.5" font-family="Helvetica,sans-Serif" font-size="10.00">gr::CongruentSetExploration</text>
<text text-anchor="middle" x="241" y="-7.5" font-family="Helvetica,sans-Serif" font-size="10.00">Base::ComputeTransformation</text>
</a>
</g>
</g>
<!-- Node1&#45;&gt;Node2 -->
<g id="edge1" class="edge"><title>Node1&#45;&gt;Node2</title>
<path fill="none" stroke="midnightblue" d="M124.409,-15.5C132.662,-15.5 141.263,-15.5 149.884,-15.5"/>
<polygon fill="midnightblue" stroke="midnightblue" points="149.995,-19.0001 159.995,-15.5 149.995,-12.0001 149.995,-19.0001"/>
</g>
<!-- Node2&#45;&gt;Node2 -->
<g id="edge2" class="edge"><title>Node2&#45;&gt;Node2</title>
<path fill="none" stroke="midnightblue" d="M209.98,-30.659C202.5,-40.0566 212.84,-49 241,-49 258.16,-49 268.703,-45.679 272.628,-40.9579"/>
<polygon fill="midnightblue" stroke="midnightblue" points="276.104,-40.4352 272.02,-30.659 269.116,-40.848 276.104,-40.4352"/>
</g>
</g>
</svg>
