<?xml version="1.0" encoding="UTF-8" standalone="no"?>
<!DOCTYPE svg PUBLIC "-//W3C//DTD SVG 1.1//EN"
 "http://www.w3.org/Graphics/SVG/1.1/DTD/svg11.dtd">
<!-- Generated by graphviz version 2.38.0 (20140413.2041)
 -->
<!-- Title: gr::FunctorSuper4PCS::FindCongruentQuadrilaterals Pages: 1 -->
<svg width="522pt" height="79pt"
 viewBox="0.00 0.00 522.00 79.00" xmlns="http://www.w3.org/2000/svg" xmlns:xlink="http://www.w3.org/1999/xlink">
<g id="graph0" class="graph" transform="scale(1 1) rotate(0) translate(4 75)">
<title>gr::FunctorSuper4PCS::FindCongruentQuadrilaterals</title>
<polygon fill="white" stroke="none" points="-4,4 -4,-75 518,-75 518,4 -4,4"/>
<!-- Node1 -->
<g id="node1" class="node"><title>Node1</title>
<polygon fill="#bfbfbf" stroke="black" points="0,-22.5 0,-52.5 158,-52.5 158,-22.5 0,-22.5"/>
<text text-anchor="start" x="8" y="-40.5" font-family="Helvetica,sans-Serif" font-size="10.00">gr::FunctorSuper4PCS</text>
<text text-anchor="middle" x="79" y="-29.5" font-family="Helvetica,sans-Serif" font-size="10.00">::FindCongruentQuadrilaterals</text>
</g>
<!-- Node2 -->
<g id="node2" class="node"><title>Node2</title>
<g id="a_node2"><a xlink:href="a00017.html#af030215db30f18fbbab45034aa57fa8e" target="_top" xlink:title="gr::CongruentSetExploration\lBase::ComputeTransformation">
<polygon fill="white" stroke="black" points="352,-22.5 352,-52.5 514,-52.5 514,-22.5 352,-22.5"/>
<text text-anchor="start" x="360" y="-40.5" font-family="Helvetica,sans-Serif" font-size="10.00">gr::CongruentSetExploration</text>
<text text-anchor="middle" x="433" y="-29.5" font-family="Helvetica,sans-Serif" font-size="10.00">Base::ComputeTransformation</text>
</a>
</g>
</g>
<!-- Node1&#45;&gt;Node2 -->
<g id="edge1" class="edge"><title>Node1&#45;&gt;Node2</title>
<path fill="none" stroke="midnightblue" d="M158.183,-39.8296C170.178,-40.1083 182.419,-40.3476 194,-40.5 248.218,-41.2133 261.782,-41.201 316,-40.5 324.325,-40.3924 332.985,-40.2413 341.656,-40.0636"/>
<polygon fill="midnightblue" stroke="midnightblue" points="341.897,-43.5593 351.819,-39.8438 341.746,-36.561 341.897,-43.5593"/>
</g>
<!-- Node3 -->
<g id="node3" class="node"><title>Node3</title>
<g id="a_node3"><a xlink:href="a00028.html#ae478b7a081c6a89837f295b78591d430" target="_top" xlink:title="Get closest poitns in euclidean an normal space with angular deviation. ">
<polygon fill="white" stroke="black" points="194,-0.5 194,-30.5 316,-30.5 316,-0.5 194,-0.5"/>
<text text-anchor="start" x="202" y="-18.5" font-family="Helvetica,sans-Serif" font-size="10.00">gr::IndexedNormalSet</text>
<text text-anchor="middle" x="255" y="-7.5" font-family="Helvetica,sans-Serif" font-size="10.00">::getNeighbors</text>
</a>
</g>
</g>
<!-- Node1&#45;&gt;Node3 -->
<g id="edge3" class="edge"><title>Node1&#45;&gt;Node3</title>
<path fill="none" stroke="midnightblue" d="M158.093,-27.6262C166.636,-26.5461 175.294,-25.4514 183.734,-24.3842"/>
<polygon fill="midnightblue" stroke="midnightblue" points="184.416,-27.826 193.898,-23.0991 183.538,-20.8812 184.416,-27.826"/>
</g>
<!-- Node2&#45;&gt;Node2 -->
<g id="edge2" class="edge"><title>Node2&#45;&gt;Node2</title>
<path fill="none" stroke="midnightblue" d="M401.98,-52.659C394.5,-62.0566 404.84,-71 433,-71 450.16,-71 460.703,-67.679 464.628,-62.9579"/>
<polygon fill="midnightblue" stroke="midnightblue" points="468.104,-62.4352 464.02,-52.659 461.116,-62.848 468.104,-62.4352"/>
</g>
<!-- Node3&#45;&gt;Node2 -->
<g id="edge4" class="edge"><title>Node3&#45;&gt;Node2</title>
<path fill="none" stroke="midnightblue" d="M316.077,-23.0096C324.47,-24.0587 333.241,-25.1551 342.038,-26.2547"/>
<polygon fill="midnightblue" stroke="midnightblue" points="341.605,-29.7278 351.962,-27.4953 342.474,-22.7819 341.605,-29.7278"/>
</g>
</g>
</svg>
