<?xml version="1.0" encoding="UTF-8" standalone="no"?>
<!DOCTYPE svg PUBLIC "-//W3C//DTD SVG 1.1//EN"
 "http://www.w3.org/Graphics/SVG/1.1/DTD/svg11.dtd">
<!-- Generated by graphviz version 2.38.0 (20140413.2041)
 -->
<!-- Title: /home/travis/build/STORM&#45;IRIT/OpenGR/src/gr/shared.h Pages: 1 -->
<svg width="579pt" height="106pt"
 viewBox="0.00 0.00 578.50 106.00" xmlns="http://www.w3.org/2000/svg" xmlns:xlink="http://www.w3.org/1999/xlink">
<g id="graph0" class="graph" transform="scale(1 1) rotate(0) translate(4 102)">
<title>/home/travis/build/STORM&#45;IRIT/OpenGR/src/gr/shared.h</title>
<polygon fill="white" stroke="none" points="-4,4 -4,-102 574.5,-102 574.5,4 -4,4"/>
<!-- Node1 -->
<g id="node1" class="node"><title>Node1</title>
<polygon fill="#bfbfbf" stroke="black" points="270.5,-56.5 270.5,-97.5 402.5,-97.5 402.5,-56.5 270.5,-56.5"/>
<text text-anchor="start" x="278.5" y="-85.5" font-family="Helvetica,sans-Serif" font-size="10.00">/home/travis/build</text>
<text text-anchor="start" x="278.5" y="-74.5" font-family="Helvetica,sans-Serif" font-size="10.00">/STORM&#45;IRIT/OpenGR/src</text>
<text text-anchor="middle" x="336.5" y="-63.5" font-family="Helvetica,sans-Serif" font-size="10.00">/gr/shared.h</text>
</g>
<!-- Node2 -->
<g id="node2" class="node"><title>Node2</title>
<g id="a_node2"><a xlink:href="a00095.html" target="_top" xlink:title="gr/utils/disablewarnings.h">
<polygon fill="white" stroke="black" points="0,-0.5 0,-19.5 137,-19.5 137,-0.5 0,-0.5"/>
<text text-anchor="middle" x="68.5" y="-7.5" font-family="Helvetica,sans-Serif" font-size="10.00">gr/utils/disablewarnings.h</text>
</a>
</g>
</g>
<!-- Node1&#45;&gt;Node2 -->
<g id="edge1" class="edge"><title>Node1&#45;&gt;Node2</title>
<path fill="none" stroke="midnightblue" d="M270.253,-59.9326C221.463,-48.0991 156.41,-32.3215 113.531,-21.9216"/>
<polygon fill="midnightblue" stroke="midnightblue" points="114.209,-18.4846 103.665,-19.5289 112.559,-25.2874 114.209,-18.4846"/>
</g>
<!-- Node3 -->
<g id="node3" class="node"><title>Node3</title>
<polygon fill="white" stroke="#bfbfbf" points="155.5,-0.5 155.5,-19.5 223.5,-19.5 223.5,-0.5 155.5,-0.5"/>
<text text-anchor="middle" x="189.5" y="-7.5" font-family="Helvetica,sans-Serif" font-size="10.00">Eigen/Core</text>
</g>
<!-- Node1&#45;&gt;Node3 -->
<g id="edge2" class="edge"><title>Node1&#45;&gt;Node3</title>
<path fill="none" stroke="midnightblue" d="M292.395,-56.4979C268.449,-45.9093 239.518,-33.1169 218.44,-23.7968"/>
<polygon fill="midnightblue" stroke="midnightblue" points="219.629,-20.4956 209.068,-19.6525 216.798,-26.8976 219.629,-20.4956"/>
</g>
<!-- Node4 -->
<g id="node4" class="node"><title>Node4</title>
<polygon fill="white" stroke="#bfbfbf" points="242,-0.5 242,-19.5 289,-19.5 289,-0.5 242,-0.5"/>
<text text-anchor="middle" x="265.5" y="-7.5" font-family="Helvetica,sans-Serif" font-size="10.00">vector</text>
</g>
<!-- Node1&#45;&gt;Node4 -->
<g id="edge3" class="edge"><title>Node1&#45;&gt;Node4</title>
<path fill="none" stroke="midnightblue" d="M315.198,-56.4979C304.731,-46.9154 292.292,-35.5281 282.478,-26.5428"/>
<polygon fill="midnightblue" stroke="midnightblue" points="284.69,-23.8235 274.951,-19.6525 279.964,-28.9866 284.69,-23.8235"/>
</g>
<!-- Node5 -->
<g id="node5" class="node"><title>Node5</title>
<polygon fill="white" stroke="#bfbfbf" points="307,-0.5 307,-19.5 366,-19.5 366,-0.5 307,-0.5"/>
<text text-anchor="middle" x="336.5" y="-7.5" font-family="Helvetica,sans-Serif" font-size="10.00">iostream</text>
</g>
<!-- Node1&#45;&gt;Node5 -->
<g id="edge4" class="edge"><title>Node1&#45;&gt;Node5</title>
<path fill="none" stroke="midnightblue" d="M336.5,-56.4979C336.5,-48.0653 336.5,-38.2351 336.5,-29.874"/>
<polygon fill="midnightblue" stroke="midnightblue" points="340,-29.6525 336.5,-19.6525 333,-29.6525 340,-29.6525"/>
</g>
<!-- Node6 -->
<g id="node6" class="node"><title>Node6</title>
<polygon fill="white" stroke="#bfbfbf" points="384.5,-0.5 384.5,-19.5 438.5,-19.5 438.5,-0.5 384.5,-0.5"/>
<text text-anchor="middle" x="411.5" y="-7.5" font-family="Helvetica,sans-Serif" font-size="10.00">fstream</text>
</g>
<!-- Node1&#45;&gt;Node6 -->
<g id="edge5" class="edge"><title>Node1&#45;&gt;Node6</title>
<path fill="none" stroke="midnightblue" d="M359.002,-56.4979C370.17,-46.8196 383.461,-35.3002 393.876,-26.274"/>
<polygon fill="midnightblue" stroke="midnightblue" points="396.252,-28.8468 401.516,-19.6525 391.667,-23.5569 396.252,-28.8468"/>
</g>
<!-- Node7 -->
<g id="node7" class="node"><title>Node7</title>
<polygon fill="white" stroke="#bfbfbf" points="457,-0.5 457,-19.5 498,-19.5 498,-0.5 457,-0.5"/>
<text text-anchor="middle" x="477.5" y="-7.5" font-family="Helvetica,sans-Serif" font-size="10.00">array</text>
</g>
<!-- Node1&#45;&gt;Node7 -->
<g id="edge6" class="edge"><title>Node1&#45;&gt;Node7</title>
<path fill="none" stroke="midnightblue" d="M378.805,-56.4979C401.67,-45.9572 429.272,-33.2326 449.466,-23.9235"/>
<polygon fill="midnightblue" stroke="midnightblue" points="451.115,-27.0176 458.731,-19.6525 448.184,-20.6605 451.115,-27.0176"/>
</g>
<!-- Node8 -->
<g id="node8" class="node"><title>Node8</title>
<polygon fill="white" stroke="#bfbfbf" points="516.5,-0.5 516.5,-19.5 570.5,-19.5 570.5,-0.5 516.5,-0.5"/>
<text text-anchor="middle" x="543.5" y="-7.5" font-family="Helvetica,sans-Serif" font-size="10.00">random</text>
</g>
<!-- Node1&#45;&gt;Node8 -->
<g id="edge7" class="edge"><title>Node1&#45;&gt;Node8</title>
<path fill="none" stroke="midnightblue" d="M398.607,-56.4979C433.915,-45.4109 476.917,-31.9077 506.863,-22.5044"/>
<polygon fill="midnightblue" stroke="midnightblue" points="507.996,-25.8172 516.488,-19.482 505.899,-19.1387 507.996,-25.8172"/>
</g>
</g>
</svg>
