<?xml version="1.0" encoding="UTF-8" standalone="no"?>
<!DOCTYPE svg PUBLIC "-//W3C//DTD SVG 1.1//EN"
 "http://www.w3.org/Graphics/SVG/1.1/DTD/svg11.dtd">
<!-- Generated by graphviz version 2.38.0 (20140413.2041)
 -->
<!-- Title: /home/travis/build/STORM&#45;IRIT/OpenGR/src/gr/accelerators/pairExtraction/intersectionFunctor.h Pages: 1 -->
<svg width="295pt" height="240pt"
 viewBox="0.00 0.00 294.50 240.00" xmlns="http://www.w3.org/2000/svg" xmlns:xlink="http://www.w3.org/1999/xlink">
<g id="graph0" class="graph" transform="scale(1 1) rotate(0) translate(4 236)">
<title>/home/travis/build/STORM&#45;IRIT/OpenGR/src/gr/accelerators/pairExtraction/intersectionFunctor.h</title>
<polygon fill="white" stroke="none" points="-4,4 -4,-236 290.5,-236 290.5,4 -4,4"/>
<!-- Node1 -->
<g id="node1" class="node"><title>Node1</title>
<polygon fill="#bfbfbf" stroke="black" points="50.5,-179.5 50.5,-231.5 211.5,-231.5 211.5,-179.5 50.5,-179.5"/>
<text text-anchor="start" x="58.5" y="-219.5" font-family="Helvetica,sans-Serif" font-size="10.00">/home/travis/build</text>
<text text-anchor="start" x="58.5" y="-208.5" font-family="Helvetica,sans-Serif" font-size="10.00">/STORM&#45;IRIT/OpenGR/src</text>
<text text-anchor="start" x="58.5" y="-197.5" font-family="Helvetica,sans-Serif" font-size="10.00">/gr/accelerators/pairExtraction</text>
<text text-anchor="middle" x="131" y="-186.5" font-family="Helvetica,sans-Serif" font-size="10.00">/intersectionFunctor.h</text>
</g>
<!-- Node2 -->
<g id="node2" class="node"><title>Node2</title>
<g id="a_node2"><a xlink:href="a00076.html" target="_top" xlink:title="gr/accelerators/pairExtraction\l/intersectionNode.h">
<polygon fill="white" stroke="black" points="52,-112.5 52,-142.5 210,-142.5 210,-112.5 52,-112.5"/>
<text text-anchor="start" x="60" y="-130.5" font-family="Helvetica,sans-Serif" font-size="10.00">gr/accelerators/pairExtraction</text>
<text text-anchor="middle" x="131" y="-119.5" font-family="Helvetica,sans-Serif" font-size="10.00">/intersectionNode.h</text>
</a>
</g>
</g>
<!-- Node1&#45;&gt;Node2 -->
<g id="edge1" class="edge"><title>Node1&#45;&gt;Node2</title>
<path fill="none" stroke="midnightblue" d="M131,-179.193C131,-170.786 131,-161.443 131,-153.091"/>
<polygon fill="midnightblue" stroke="midnightblue" points="134.5,-152.845 131,-142.845 127.5,-152.845 134.5,-152.845"/>
</g>
<!-- Node3 -->
<g id="node3" class="node"><title>Node3</title>
<polygon fill="white" stroke="#bfbfbf" points="16,-56.5 16,-75.5 46,-75.5 46,-56.5 16,-56.5"/>
<text text-anchor="middle" x="31" y="-63.5" font-family="Helvetica,sans-Serif" font-size="10.00">list</text>
</g>
<!-- Node1&#45;&gt;Node3 -->
<g id="edge8" class="edge"><title>Node1&#45;&gt;Node3</title>
<path fill="none" stroke="midnightblue" d="M80.5787,-179.329C66.3151,-169.834 52.1889,-157.698 43,-143 32.2878,-125.865 30.0456,-102.441 30.0037,-86.1453"/>
<polygon fill="midnightblue" stroke="midnightblue" points="33.5132,-85.8179 30.2724,-75.7309 26.5156,-85.6372 33.5132,-85.8179"/>
</g>
<!-- Node9 -->
<g id="node9" class="node"><title>Node9</title>
<polygon fill="white" stroke="#bfbfbf" points="227.5,-118 227.5,-137 286.5,-137 286.5,-118 227.5,-118"/>
<text text-anchor="middle" x="257" y="-125" font-family="Helvetica,sans-Serif" font-size="10.00">iostream</text>
</g>
<!-- Node1&#45;&gt;Node9 -->
<g id="edge9" class="edge"><title>Node1&#45;&gt;Node9</title>
<path fill="none" stroke="midnightblue" d="M172.606,-179.404C193.049,-167.074 216.902,-152.686 234.024,-142.359"/>
<polygon fill="midnightblue" stroke="midnightblue" points="236.024,-145.24 242.779,-137.078 232.408,-139.246 236.024,-145.24"/>
</g>
<!-- Node2&#45;&gt;Node3 -->
<g id="edge2" class="edge"><title>Node2&#45;&gt;Node3</title>
<path fill="none" stroke="midnightblue" d="M107.301,-112.399C91.2721,-102.862 70.2013,-90.3248 54.2642,-80.8422"/>
<polygon fill="midnightblue" stroke="midnightblue" points="55.9344,-77.7633 45.5509,-75.6578 52.355,-83.779 55.9344,-77.7633"/>
</g>
<!-- Node4 -->
<g id="node4" class="node"><title>Node4</title>
<g id="a_node4"><a xlink:href="a00078.html" target="_top" xlink:title="gr/accelerators/utils.h">
<polygon fill="white" stroke="black" points="71,-56.5 71,-75.5 191,-75.5 191,-56.5 71,-56.5"/>
<text text-anchor="middle" x="131" y="-63.5" font-family="Helvetica,sans-Serif" font-size="10.00">gr/accelerators/utils.h</text>
</a>
</g>
</g>
<!-- Node2&#45;&gt;Node4 -->
<g id="edge3" class="edge"><title>Node2&#45;&gt;Node4</title>
<path fill="none" stroke="midnightblue" d="M131,-112.399C131,-104.466 131,-94.458 131,-85.8583"/>
<polygon fill="midnightblue" stroke="midnightblue" points="134.5,-85.6577 131,-75.6578 127.5,-85.6578 134.5,-85.6577"/>
</g>
<!-- Node5 -->
<g id="node5" class="node"><title>Node5</title>
<polygon fill="white" stroke="#bfbfbf" points="0,-0.5 0,-19.5 44,-19.5 44,-0.5 0,-0.5"/>
<text text-anchor="middle" x="22" y="-7.5" font-family="Helvetica,sans-Serif" font-size="10.00">string</text>
</g>
<!-- Node4&#45;&gt;Node5 -->
<g id="edge4" class="edge"><title>Node4&#45;&gt;Node5</title>
<path fill="none" stroke="midnightblue" d="M113.487,-56.324C95.9276,-47.6247 68.6686,-34.1202 48.4688,-24.113"/>
<polygon fill="midnightblue" stroke="midnightblue" points="49.9837,-20.9575 39.4693,-19.6545 46.8762,-27.23 49.9837,-20.9575"/>
</g>
<!-- Node6 -->
<g id="node6" class="node"><title>Node6</title>
<polygon fill="white" stroke="#bfbfbf" points="62,-0.5 62,-19.5 126,-19.5 126,-0.5 62,-0.5"/>
<text text-anchor="middle" x="94" y="-7.5" font-family="Helvetica,sans-Serif" font-size="10.00">stdexcept</text>
</g>
<!-- Node4&#45;&gt;Node6 -->
<g id="edge5" class="edge"><title>Node4&#45;&gt;Node6</title>
<path fill="none" stroke="midnightblue" d="M124.89,-56.083C119.718,-48.5341 112.154,-37.4948 105.806,-28.2298"/>
<polygon fill="midnightblue" stroke="midnightblue" points="108.536,-26.0221 99.9961,-19.7511 102.761,-29.9787 108.536,-26.0221"/>
</g>
<!-- Node7 -->
<g id="node7" class="node"><title>Node7</title>
<polygon fill="white" stroke="#bfbfbf" points="144.5,-0.5 144.5,-19.5 191.5,-19.5 191.5,-0.5 144.5,-0.5"/>
<text text-anchor="middle" x="168" y="-7.5" font-family="Helvetica,sans-Serif" font-size="10.00">cmath</text>
</g>
<!-- Node4&#45;&gt;Node7 -->
<g id="edge6" class="edge"><title>Node4&#45;&gt;Node7</title>
<path fill="none" stroke="midnightblue" d="M137.11,-56.083C142.282,-48.5341 149.846,-37.4948 156.194,-28.2298"/>
<polygon fill="midnightblue" stroke="midnightblue" points="159.239,-29.9787 162.004,-19.7511 153.464,-26.0221 159.239,-29.9787"/>
</g>
<!-- Node8 -->
<g id="node8" class="node"><title>Node8</title>
<polygon fill="white" stroke="#bfbfbf" points="209.5,-0.5 209.5,-19.5 250.5,-19.5 250.5,-0.5 209.5,-0.5"/>
<text text-anchor="middle" x="230" y="-7.5" font-family="Helvetica,sans-Serif" font-size="10.00">array</text>
</g>
<!-- Node4&#45;&gt;Node8 -->
<g id="edge7" class="edge"><title>Node4&#45;&gt;Node8</title>
<path fill="none" stroke="midnightblue" d="M146.906,-56.324C162.638,-47.7428 186.942,-34.486 205.209,-24.5224"/>
<polygon fill="midnightblue" stroke="midnightblue" points="207.03,-27.5157 214.133,-19.6545 203.678,-21.3704 207.03,-27.5157"/>
</g>
</g>
</svg>
