<?xml version="1.0" encoding="UTF-8" standalone="no"?>
<!DOCTYPE svg PUBLIC "-//W3C//DTD SVG 1.1//EN"
 "http://www.w3.org/Graphics/SVG/1.1/DTD/svg11.dtd">
<!-- Generated by graphviz version 2.38.0 (20140413.2041)
 -->
<!-- Title: /home/travis/build/STORM&#45;IRIT/OpenGR/src/gr/sampling.h Pages: 1 -->
<svg width="578pt" height="162pt"
 viewBox="0.00 0.00 578.00 162.00" xmlns="http://www.w3.org/2000/svg" xmlns:xlink="http://www.w3.org/1999/xlink">
<g id="graph0" class="graph" transform="scale(1 1) rotate(0) translate(4 158)">
<title>/home/travis/build/STORM&#45;IRIT/OpenGR/src/gr/sampling.h</title>
<polygon fill="white" stroke="none" points="-4,4 -4,-158 574,-158 574,4 -4,4"/>
<!-- Node1 -->
<g id="node1" class="node"><title>Node1</title>
<polygon fill="#bfbfbf" stroke="black" points="19.5,-112.5 19.5,-153.5 151.5,-153.5 151.5,-112.5 19.5,-112.5"/>
<text text-anchor="start" x="27.5" y="-141.5" font-family="Helvetica,sans-Serif" font-size="10.00">/home/travis/build</text>
<text text-anchor="start" x="27.5" y="-130.5" font-family="Helvetica,sans-Serif" font-size="10.00">/STORM&#45;IRIT/OpenGR/src</text>
<text text-anchor="middle" x="85.5" y="-119.5" font-family="Helvetica,sans-Serif" font-size="10.00">/gr/sampling.h</text>
</g>
<!-- Node2 -->
<g id="node2" class="node"><title>Node2</title>
<polygon fill="white" stroke="#bfbfbf" points="0,-0.5 0,-19.5 47,-19.5 47,-0.5 0,-0.5"/>
<text text-anchor="middle" x="23.5" y="-7.5" font-family="Helvetica,sans-Serif" font-size="10.00">vector</text>
</g>
<!-- Node1&#45;&gt;Node2 -->
<g id="edge1" class="edge"><title>Node1&#45;&gt;Node2</title>
<path fill="none" stroke="midnightblue" d="M75.4006,-112.29C63.4982,-89.061 43.9013,-50.8154 32.4989,-28.5624"/>
<polygon fill="midnightblue" stroke="midnightblue" points="35.5688,-26.8784 27.8937,-19.5748 29.339,-30.0706 35.5688,-26.8784"/>
</g>
<!-- Node3 -->
<g id="node3" class="node"><title>Node3</title>
<polygon fill="white" stroke="#bfbfbf" points="65,-0.5 65,-19.5 106,-19.5 106,-0.5 65,-0.5"/>
<text text-anchor="middle" x="85.5" y="-7.5" font-family="Helvetica,sans-Serif" font-size="10.00">array</text>
</g>
<!-- Node1&#45;&gt;Node3 -->
<g id="edge2" class="edge"><title>Node1&#45;&gt;Node3</title>
<path fill="none" stroke="midnightblue" d="M85.5,-112.29C85.5,-89.4795 85.5,-52.1888 85.5,-29.7807"/>
<polygon fill="midnightblue" stroke="midnightblue" points="89.0001,-29.5748 85.5,-19.5748 82.0001,-29.5748 89.0001,-29.5748"/>
</g>
<!-- Node4 -->
<g id="node4" class="node"><title>Node4</title>
<g id="a_node4"><a xlink:href="a00093.html" target="_top" xlink:title="gr/shared.h">
<polygon fill="white" stroke="black" points="164,-56.5 164,-75.5 235,-75.5 235,-56.5 164,-56.5"/>
<text text-anchor="middle" x="199.5" y="-63.5" font-family="Helvetica,sans-Serif" font-size="10.00">gr/shared.h</text>
</a>
</g>
</g>
<!-- Node1&#45;&gt;Node4 -->
<g id="edge3" class="edge"><title>Node1&#45;&gt;Node4</title>
<path fill="none" stroke="midnightblue" d="M119.704,-112.498C137.686,-102.245 159.293,-89.925 175.485,-80.6927"/>
<polygon fill="midnightblue" stroke="midnightblue" points="177.371,-83.6462 184.325,-75.6525 173.904,-77.5652 177.371,-83.6462"/>
</g>
<!-- Node4&#45;&gt;Node2 -->
<g id="edge6" class="edge"><title>Node4&#45;&gt;Node2</title>
<path fill="none" stroke="midnightblue" d="M171.612,-56.4435C140.429,-46.8758 89.9544,-31.3894 56.7446,-21.2001"/>
<polygon fill="midnightblue" stroke="midnightblue" points="57.6197,-17.8076 47.0329,-18.2203 55.5664,-24.4997 57.6197,-17.8076"/>
</g>
<!-- Node4&#45;&gt;Node3 -->
<g id="edge9" class="edge"><title>Node4&#45;&gt;Node3</title>
<path fill="none" stroke="midnightblue" d="M181.436,-56.4435C162.925,-47.6751 133.919,-33.9355 112.645,-23.8579"/>
<polygon fill="midnightblue" stroke="midnightblue" points="114.015,-20.6343 103.479,-19.5164 111.018,-26.9604 114.015,-20.6343"/>
</g>
<!-- Node5 -->
<g id="node5" class="node"><title>Node5</title>
<g id="a_node5"><a xlink:href="a00095.html" target="_top" xlink:title="gr/utils/disablewarnings.h">
<polygon fill="white" stroke="black" points="433,-0.5 433,-19.5 570,-19.5 570,-0.5 433,-0.5"/>
<text text-anchor="middle" x="501.5" y="-7.5" font-family="Helvetica,sans-Serif" font-size="10.00">gr/utils/disablewarnings.h</text>
</a>
</g>
</g>
<!-- Node4&#45;&gt;Node5 -->
<g id="edge4" class="edge"><title>Node4&#45;&gt;Node5</title>
<path fill="none" stroke="midnightblue" d="M235.031,-58.6467C286.504,-49.443 382.379,-32.2998 443.999,-21.2816"/>
<polygon fill="midnightblue" stroke="midnightblue" points="444.731,-24.7064 453.959,-19.5008 443.499,-17.8157 444.731,-24.7064"/>
</g>
<!-- Node6 -->
<g id="node6" class="node"><title>Node6</title>
<polygon fill="white" stroke="#bfbfbf" points="124.5,-0.5 124.5,-19.5 192.5,-19.5 192.5,-0.5 124.5,-0.5"/>
<text text-anchor="middle" x="158.5" y="-7.5" font-family="Helvetica,sans-Serif" font-size="10.00">Eigen/Core</text>
</g>
<!-- Node4&#45;&gt;Node6 -->
<g id="edge5" class="edge"><title>Node4&#45;&gt;Node6</title>
<path fill="none" stroke="midnightblue" d="M192.73,-56.083C186.938,-48.4554 178.442,-37.2645 171.362,-27.9408"/>
<polygon fill="midnightblue" stroke="midnightblue" points="173.979,-25.5991 165.144,-19.7511 168.404,-29.8321 173.979,-25.5991"/>
</g>
<!-- Node7 -->
<g id="node7" class="node"><title>Node7</title>
<polygon fill="white" stroke="#bfbfbf" points="211,-0.5 211,-19.5 270,-19.5 270,-0.5 211,-0.5"/>
<text text-anchor="middle" x="240.5" y="-7.5" font-family="Helvetica,sans-Serif" font-size="10.00">iostream</text>
</g>
<!-- Node4&#45;&gt;Node7 -->
<g id="edge7" class="edge"><title>Node4&#45;&gt;Node7</title>
<path fill="none" stroke="midnightblue" d="M206.27,-56.083C212.062,-48.4554 220.558,-37.2645 227.638,-27.9408"/>
<polygon fill="midnightblue" stroke="midnightblue" points="230.596,-29.8321 233.856,-19.7511 225.021,-25.5991 230.596,-29.8321"/>
</g>
<!-- Node8 -->
<g id="node8" class="node"><title>Node8</title>
<polygon fill="white" stroke="#bfbfbf" points="288.5,-0.5 288.5,-19.5 342.5,-19.5 342.5,-0.5 288.5,-0.5"/>
<text text-anchor="middle" x="315.5" y="-7.5" font-family="Helvetica,sans-Serif" font-size="10.00">fstream</text>
</g>
<!-- Node4&#45;&gt;Node8 -->
<g id="edge8" class="edge"><title>Node4&#45;&gt;Node8</title>
<path fill="none" stroke="midnightblue" d="M217.881,-56.4435C236.716,-47.6751 266.231,-33.9355 287.879,-23.8579"/>
<polygon fill="midnightblue" stroke="midnightblue" points="289.617,-26.9098 297.205,-19.5164 286.662,-20.5637 289.617,-26.9098"/>
</g>
<!-- Node9 -->
<g id="node9" class="node"><title>Node9</title>
<polygon fill="white" stroke="#bfbfbf" points="360.5,-0.5 360.5,-19.5 414.5,-19.5 414.5,-0.5 360.5,-0.5"/>
<text text-anchor="middle" x="387.5" y="-7.5" font-family="Helvetica,sans-Serif" font-size="10.00">random</text>
</g>
<!-- Node4&#45;&gt;Node9 -->
<g id="edge10" class="edge"><title>Node4&#45;&gt;Node9</title>
<path fill="none" stroke="midnightblue" d="M229.289,-56.4435C262.083,-47.0241 314.849,-31.8679 350.327,-21.6774"/>
<polygon fill="midnightblue" stroke="midnightblue" points="351.647,-24.9399 360.292,-18.8151 349.714,-18.2119 351.647,-24.9399"/>
</g>
</g>
</svg>
