<?xml version="1.0" encoding="UTF-8" standalone="no"?>
<!DOCTYPE svg PUBLIC "-//W3C//DTD SVG 1.1//EN"
 "http://www.w3.org/Graphics/SVG/1.1/DTD/svg11.dtd">
<!-- Generated by graphviz version 2.38.0 (20140413.2041)
 -->
<!-- Title: /home/travis/build/STORM&#45;IRIT/OpenGR/src/gr/accelerators/utils.h Pages: 1 -->
<svg width="259pt" height="106pt"
 viewBox="0.00 0.00 258.50 106.00" xmlns="http://www.w3.org/2000/svg" xmlns:xlink="http://www.w3.org/1999/xlink">
<g id="graph0" class="graph" transform="scale(1 1) rotate(0) translate(4 102)">
<title>/home/travis/build/STORM&#45;IRIT/OpenGR/src/gr/accelerators/utils.h</title>
<polygon fill="white" stroke="none" points="-4,4 -4,-102 254.5,-102 254.5,4 -4,4"/>
<!-- Node1 -->
<g id="node1" class="node"><title>Node1</title>
<polygon fill="#bfbfbf" stroke="black" points="65,-56.5 65,-97.5 197,-97.5 197,-56.5 65,-56.5"/>
<text text-anchor="start" x="73" y="-85.5" font-family="Helvetica,sans-Serif" font-size="10.00">/home/travis/build</text>
<text text-anchor="start" x="73" y="-74.5" font-family="Helvetica,sans-Serif" font-size="10.00">/STORM&#45;IRIT/OpenGR/src</text>
<text text-anchor="middle" x="131" y="-63.5" font-family="Helvetica,sans-Serif" font-size="10.00">/gr/accelerators/utils.h</text>
</g>
<!-- Node2 -->
<g id="node2" class="node"><title>Node2</title>
<polygon fill="white" stroke="#bfbfbf" points="0,-0.5 0,-19.5 44,-19.5 44,-0.5 0,-0.5"/>
<text text-anchor="middle" x="22" y="-7.5" font-family="Helvetica,sans-Serif" font-size="10.00">string</text>
</g>
<!-- Node1&#45;&gt;Node2 -->
<g id="edge1" class="edge"><title>Node1&#45;&gt;Node2</title>
<path fill="none" stroke="midnightblue" d="M98.2964,-56.4979C81.2633,-46.3405 60.8294,-34.1551 45.397,-24.9523"/>
<polygon fill="midnightblue" stroke="midnightblue" points="46.891,-21.7682 36.5096,-19.6525 43.3057,-27.7804 46.891,-21.7682"/>
</g>
<!-- Node3 -->
<g id="node3" class="node"><title>Node3</title>
<polygon fill="white" stroke="#bfbfbf" points="62,-0.5 62,-19.5 126,-19.5 126,-0.5 62,-0.5"/>
<text text-anchor="middle" x="94" y="-7.5" font-family="Helvetica,sans-Serif" font-size="10.00">stdexcept</text>
</g>
<!-- Node1&#45;&gt;Node3 -->
<g id="edge2" class="edge"><title>Node1&#45;&gt;Node3</title>
<path fill="none" stroke="midnightblue" d="M119.899,-56.4979C114.826,-47.5862 108.865,-37.1135 103.941,-28.4636"/>
<polygon fill="midnightblue" stroke="midnightblue" points="106.914,-26.6117 98.9253,-19.6525 100.831,-30.0746 106.914,-26.6117"/>
</g>
<!-- Node4 -->
<g id="node4" class="node"><title>Node4</title>
<polygon fill="white" stroke="#bfbfbf" points="144.5,-0.5 144.5,-19.5 191.5,-19.5 191.5,-0.5 144.5,-0.5"/>
<text text-anchor="middle" x="168" y="-7.5" font-family="Helvetica,sans-Serif" font-size="10.00">cmath</text>
</g>
<!-- Node1&#45;&gt;Node4 -->
<g id="edge3" class="edge"><title>Node1&#45;&gt;Node4</title>
<path fill="none" stroke="midnightblue" d="M142.101,-56.4979C147.174,-47.5862 153.135,-37.1135 158.059,-28.4636"/>
<polygon fill="midnightblue" stroke="midnightblue" points="161.169,-30.0746 163.075,-19.6525 155.086,-26.6117 161.169,-30.0746"/>
</g>
<!-- Node5 -->
<g id="node5" class="node"><title>Node5</title>
<polygon fill="white" stroke="#bfbfbf" points="209.5,-0.5 209.5,-19.5 250.5,-19.5 250.5,-0.5 209.5,-0.5"/>
<text text-anchor="middle" x="230" y="-7.5" font-family="Helvetica,sans-Serif" font-size="10.00">array</text>
</g>
<!-- Node1&#45;&gt;Node5 -->
<g id="edge4" class="edge"><title>Node1&#45;&gt;Node5</title>
<path fill="none" stroke="midnightblue" d="M160.703,-56.4979C176.028,-46.4363 194.383,-34.3849 208.352,-25.2136"/>
<polygon fill="midnightblue" stroke="midnightblue" points="210.383,-28.0667 216.822,-19.6525 206.541,-22.2152 210.383,-28.0667"/>
</g>
</g>
</svg>
