<?xml version="1.0" encoding="UTF-8" standalone="no"?>
<!DOCTYPE svg PUBLIC "-//W3C//DTD SVG 1.1//EN"
 "http://www.w3.org/Graphics/SVG/1.1/DTD/svg11.dtd">
<!-- Generated by graphviz version 2.38.0 (20140413.2041)
 -->
<!-- Title: /home/travis/build/STORM&#45;IRIT/OpenGR/src/gr/accelerators/normalHealSet.h Pages: 1 -->
<svg width="600pt" height="162pt"
 viewBox="0.00 0.00 599.50 162.00" xmlns="http://www.w3.org/2000/svg" xmlns:xlink="http://www.w3.org/1999/xlink">
<g id="graph0" class="graph" transform="scale(1 1) rotate(0) translate(4 158)">
<title>/home/travis/build/STORM&#45;IRIT/OpenGR/src/gr/accelerators/normalHealSet.h</title>
<polygon fill="white" stroke="none" points="-4,4 -4,-158 595.5,-158 595.5,4 -4,4"/>
<!-- Node1 -->
<g id="node1" class="node"><title>Node1</title>
<polygon fill="#bfbfbf" stroke="black" points="268.5,-112.5 268.5,-153.5 444.5,-153.5 444.5,-112.5 268.5,-112.5"/>
<text text-anchor="start" x="276.5" y="-141.5" font-family="Helvetica,sans-Serif" font-size="10.00">/home/travis/build</text>
<text text-anchor="start" x="276.5" y="-130.5" font-family="Helvetica,sans-Serif" font-size="10.00">/STORM&#45;IRIT/OpenGR/src</text>
<text text-anchor="middle" x="356.5" y="-119.5" font-family="Helvetica,sans-Serif" font-size="10.00">/gr/accelerators/normalHealSet.h</text>
</g>
<!-- Node2 -->
<g id="node2" class="node"><title>Node2</title>
<g id="a_node2"><a xlink:href="a00095.html" target="_top" xlink:title="../utils/disablewarnings.h">
<polygon fill="white" stroke="black" points="0,-56.5 0,-75.5 133,-75.5 133,-56.5 0,-56.5"/>
<text text-anchor="middle" x="66.5" y="-63.5" font-family="Helvetica,sans-Serif" font-size="10.00">../utils/disablewarnings.h</text>
</a>
</g>
</g>
<!-- Node1&#45;&gt;Node2 -->
<g id="edge1" class="edge"><title>Node1&#45;&gt;Node2</title>
<path fill="none" stroke="midnightblue" d="M269.49,-112.498C218.782,-101.132 156.744,-87.2271 114.698,-77.8029"/>
<polygon fill="midnightblue" stroke="midnightblue" points="115.246,-74.339 104.722,-75.5671 113.715,-81.1695 115.246,-74.339"/>
</g>
<!-- Node3 -->
<g id="node3" class="node"><title>Node3</title>
<g id="a_node3"><a xlink:href="a00078.html" target="_top" xlink:title="../accelerators/utils.h">
<polygon fill="white" stroke="black" points="151.5,-56.5 151.5,-75.5 267.5,-75.5 267.5,-56.5 151.5,-56.5"/>
<text text-anchor="middle" x="209.5" y="-63.5" font-family="Helvetica,sans-Serif" font-size="10.00">../accelerators/utils.h</text>
</a>
</g>
</g>
<!-- Node1&#45;&gt;Node3 -->
<g id="edge2" class="edge"><title>Node1&#45;&gt;Node3</title>
<path fill="none" stroke="midnightblue" d="M312.395,-112.498C288.449,-101.909 259.518,-89.1169 238.44,-79.7968"/>
<polygon fill="midnightblue" stroke="midnightblue" points="239.629,-76.4956 229.068,-75.6525 236.798,-82.8976 239.629,-76.4956"/>
</g>
<!-- Node6 -->
<g id="node6" class="node"><title>Node6</title>
<polygon fill="white" stroke="#bfbfbf" points="272,-0.5 272,-19.5 319,-19.5 319,-0.5 272,-0.5"/>
<text text-anchor="middle" x="295.5" y="-7.5" font-family="Helvetica,sans-Serif" font-size="10.00">cmath</text>
</g>
<!-- Node1&#45;&gt;Node6 -->
<g id="edge11" class="edge"><title>Node1&#45;&gt;Node6</title>
<path fill="none" stroke="midnightblue" d="M339.573,-112.32C331.401,-102.035 321.987,-88.9225 315.5,-76 308.051,-61.1613 302.751,-43.0112 299.486,-29.6653"/>
<polygon fill="midnightblue" stroke="midnightblue" points="302.863,-28.7302 297.221,-19.7629 296.039,-30.2916 302.863,-28.7302"/>
</g>
<!-- Node8 -->
<g id="node8" class="node"><title>Node8</title>
<polygon fill="white" stroke="#bfbfbf" points="324,-56.5 324,-75.5 389,-75.5 389,-56.5 324,-56.5"/>
<text text-anchor="middle" x="356.5" y="-63.5" font-family="Helvetica,sans-Serif" font-size="10.00">chealpix.h</text>
</g>
<!-- Node1&#45;&gt;Node8 -->
<g id="edge7" class="edge"><title>Node1&#45;&gt;Node8</title>
<path fill="none" stroke="midnightblue" d="M356.5,-112.498C356.5,-104.065 356.5,-94.2351 356.5,-85.874"/>
<polygon fill="midnightblue" stroke="midnightblue" points="360,-85.6525 356.5,-75.6525 353,-85.6525 360,-85.6525"/>
</g>
<!-- Node9 -->
<g id="node9" class="node"><title>Node9</title>
<polygon fill="white" stroke="#bfbfbf" points="407.5,-56.5 407.5,-75.5 475.5,-75.5 475.5,-56.5 407.5,-56.5"/>
<text text-anchor="middle" x="441.5" y="-63.5" font-family="Helvetica,sans-Serif" font-size="10.00">Eigen/Core</text>
</g>
<!-- Node1&#45;&gt;Node9 -->
<g id="edge8" class="edge"><title>Node1&#45;&gt;Node9</title>
<path fill="none" stroke="midnightblue" d="M382.003,-112.498C394.91,-102.628 410.32,-90.8432 422.224,-81.7407"/>
<polygon fill="midnightblue" stroke="midnightblue" points="424.368,-84.5073 430.185,-75.6525 420.116,-78.9468 424.368,-84.5073"/>
</g>
<!-- Node10 -->
<g id="node10" class="node"><title>Node10</title>
<polygon fill="white" stroke="#bfbfbf" points="494,-56.5 494,-75.5 541,-75.5 541,-56.5 494,-56.5"/>
<text text-anchor="middle" x="517.5" y="-63.5" font-family="Helvetica,sans-Serif" font-size="10.00">vector</text>
</g>
<!-- Node1&#45;&gt;Node10 -->
<g id="edge9" class="edge"><title>Node1&#45;&gt;Node10</title>
<path fill="none" stroke="midnightblue" d="M404.805,-112.498C431.388,-101.766 463.579,-88.7691 486.739,-79.4192"/>
<polygon fill="midnightblue" stroke="midnightblue" points="488.106,-82.6417 496.068,-75.6525 485.485,-76.1507 488.106,-82.6417"/>
</g>
<!-- Node11 -->
<g id="node11" class="node"><title>Node11</title>
<polygon fill="white" stroke="#bfbfbf" points="559.5,-56.5 559.5,-75.5 591.5,-75.5 591.5,-56.5 559.5,-56.5"/>
<text text-anchor="middle" x="575.5" y="-63.5" font-family="Helvetica,sans-Serif" font-size="10.00">set</text>
</g>
<!-- Node1&#45;&gt;Node11 -->
<g id="edge10" class="edge"><title>Node1&#45;&gt;Node11</title>
<path fill="none" stroke="midnightblue" d="M428.241,-112.484C462.537,-102.872 504.331,-90.755 549.684,-76.1236"/>
<polygon fill="midnightblue" stroke="midnightblue" points="550.985,-79.3812 559.415,-72.9633 548.822,-72.7235 550.985,-79.3812"/>
</g>
<!-- Node4 -->
<g id="node4" class="node"><title>Node4</title>
<polygon fill="white" stroke="#bfbfbf" points="68.5,-0.5 68.5,-19.5 112.5,-19.5 112.5,-0.5 68.5,-0.5"/>
<text text-anchor="middle" x="90.5" y="-7.5" font-family="Helvetica,sans-Serif" font-size="10.00">string</text>
</g>
<!-- Node3&#45;&gt;Node4 -->
<g id="edge3" class="edge"><title>Node3&#45;&gt;Node4</title>
<path fill="none" stroke="midnightblue" d="M190.644,-56.4435C171.234,-47.6356 140.77,-33.8116 118.535,-23.722"/>
<polygon fill="midnightblue" stroke="midnightblue" points="119.82,-20.4615 109.268,-19.5164 116.928,-26.836 119.82,-20.4615"/>
</g>
<!-- Node5 -->
<g id="node5" class="node"><title>Node5</title>
<polygon fill="white" stroke="#bfbfbf" points="130.5,-0.5 130.5,-19.5 194.5,-19.5 194.5,-0.5 130.5,-0.5"/>
<text text-anchor="middle" x="162.5" y="-7.5" font-family="Helvetica,sans-Serif" font-size="10.00">stdexcept</text>
</g>
<!-- Node3&#45;&gt;Node5 -->
<g id="edge4" class="edge"><title>Node3&#45;&gt;Node5</title>
<path fill="none" stroke="midnightblue" d="M201.739,-56.083C194.963,-48.2982 184.957,-36.8015 176.745,-27.3665"/>
<polygon fill="midnightblue" stroke="midnightblue" points="179.322,-24.9963 170.117,-19.7511 174.042,-29.592 179.322,-24.9963"/>
</g>
<!-- Node3&#45;&gt;Node6 -->
<g id="edge5" class="edge"><title>Node3&#45;&gt;Node6</title>
<path fill="none" stroke="midnightblue" d="M223.317,-56.324C236.733,-47.9002 257.324,-34.9709 273.086,-25.0741"/>
<polygon fill="midnightblue" stroke="midnightblue" points="275.109,-27.9364 281.717,-19.6545 271.387,-22.0081 275.109,-27.9364"/>
</g>
<!-- Node7 -->
<g id="node7" class="node"><title>Node7</title>
<polygon fill="white" stroke="#bfbfbf" points="213,-0.5 213,-19.5 254,-19.5 254,-0.5 213,-0.5"/>
<text text-anchor="middle" x="233.5" y="-7.5" font-family="Helvetica,sans-Serif" font-size="10.00">array</text>
</g>
<!-- Node3&#45;&gt;Node7 -->
<g id="edge6" class="edge"><title>Node3&#45;&gt;Node7</title>
<path fill="none" stroke="midnightblue" d="M213.463,-56.083C216.713,-48.77 221.419,-38.1814 225.454,-29.1034"/>
<polygon fill="midnightblue" stroke="midnightblue" points="228.748,-30.3107 229.611,-19.7511 222.351,-27.4677 228.748,-30.3107"/>
</g>
</g>
</svg>
