<?xml version="1.0" encoding="UTF-8" standalone="no"?>
<!DOCTYPE svg PUBLIC "-//W3C//DTD SVG 1.1//EN"
 "http://www.w3.org/Graphics/SVG/1.1/DTD/svg11.dtd">
<!-- Generated by graphviz version 2.38.0 (20140413.2041)
 -->
<!-- Title: /home/travis/build/STORM&#45;IRIT/OpenGR/src/gr/algorithms/PointPairFilter.h Pages: 1 -->
<svg width="579pt" height="162pt"
 viewBox="0.00 0.00 578.50 162.00" xmlns="http://www.w3.org/2000/svg" xmlns:xlink="http://www.w3.org/1999/xlink">
<g id="graph0" class="graph" transform="scale(1 1) rotate(0) translate(4 158)">
<title>/home/travis/build/STORM&#45;IRIT/OpenGR/src/gr/algorithms/PointPairFilter.h</title>
<polygon fill="white" stroke="none" points="-4,4 -4,-158 574.5,-158 574.5,4 -4,4"/>
<!-- Node1 -->
<g id="node1" class="node"><title>Node1</title>
<polygon fill="#bfbfbf" stroke="black" points="142.5,-112.5 142.5,-153.5 300.5,-153.5 300.5,-112.5 142.5,-112.5"/>
<text text-anchor="start" x="150.5" y="-141.5" font-family="Helvetica,sans-Serif" font-size="10.00">/home/travis/build</text>
<text text-anchor="start" x="150.5" y="-130.5" font-family="Helvetica,sans-Serif" font-size="10.00">/STORM&#45;IRIT/OpenGR/src</text>
<text text-anchor="middle" x="221.5" y="-119.5" font-family="Helvetica,sans-Serif" font-size="10.00">/gr/algorithms/PointPairFilter.h</text>
</g>
<!-- Node2 -->
<g id="node2" class="node"><title>Node2</title>
<g id="a_node2"><a xlink:href="a00093.html" target="_top" xlink:title="gr/shared.h">
<polygon fill="white" stroke="black" points="260,-56.5 260,-75.5 331,-75.5 331,-56.5 260,-56.5"/>
<text text-anchor="middle" x="295.5" y="-63.5" font-family="Helvetica,sans-Serif" font-size="10.00">gr/shared.h</text>
</a>
</g>
</g>
<!-- Node1&#45;&gt;Node2 -->
<g id="edge1" class="edge"><title>Node1&#45;&gt;Node2</title>
<path fill="none" stroke="midnightblue" d="M243.702,-112.498C254.721,-102.82 267.835,-91.3002 278.111,-82.274"/>
<polygon fill="midnightblue" stroke="midnightblue" points="280.446,-84.8816 285.649,-75.6525 275.826,-79.6223 280.446,-84.8816"/>
</g>
<!-- Node5 -->
<g id="node5" class="node"><title>Node5</title>
<polygon fill="white" stroke="#bfbfbf" points="0,-0.5 0,-19.5 47,-19.5 47,-0.5 0,-0.5"/>
<text text-anchor="middle" x="23.5" y="-7.5" font-family="Helvetica,sans-Serif" font-size="10.00">vector</text>
</g>
<!-- Node1&#45;&gt;Node5 -->
<g id="edge9" class="edge"><title>Node1&#45;&gt;Node5</title>
<path fill="none" stroke="midnightblue" d="M189.247,-112.29C149.01,-87.7007 81.2387,-46.2847 46.1208,-24.8238"/>
<polygon fill="midnightblue" stroke="midnightblue" points="47.8894,-21.8029 37.5315,-19.5748 44.2392,-27.7758 47.8894,-21.8029"/>
</g>
<!-- Node3 -->
<g id="node3" class="node"><title>Node3</title>
<g id="a_node3"><a xlink:href="a00095.html" target="_top" xlink:title="gr/utils/disablewarnings.h">
<polygon fill="white" stroke="black" points="65,-0.5 65,-19.5 202,-19.5 202,-0.5 65,-0.5"/>
<text text-anchor="middle" x="133.5" y="-7.5" font-family="Helvetica,sans-Serif" font-size="10.00">gr/utils/disablewarnings.h</text>
</a>
</g>
</g>
<!-- Node2&#45;&gt;Node3 -->
<g id="edge2" class="edge"><title>Node2&#45;&gt;Node3</title>
<path fill="none" stroke="midnightblue" d="M269.831,-56.4435C242.577,-47.3591 199.316,-32.9388 168.849,-22.7831"/>
<polygon fill="midnightblue" stroke="midnightblue" points="169.643,-19.3584 159.049,-19.5164 167.429,-25.9992 169.643,-19.3584"/>
</g>
<!-- Node4 -->
<g id="node4" class="node"><title>Node4</title>
<polygon fill="white" stroke="#bfbfbf" points="220.5,-0.5 220.5,-19.5 288.5,-19.5 288.5,-0.5 220.5,-0.5"/>
<text text-anchor="middle" x="254.5" y="-7.5" font-family="Helvetica,sans-Serif" font-size="10.00">Eigen/Core</text>
</g>
<!-- Node2&#45;&gt;Node4 -->
<g id="edge3" class="edge"><title>Node2&#45;&gt;Node4</title>
<path fill="none" stroke="midnightblue" d="M288.73,-56.083C282.938,-48.4554 274.442,-37.2645 267.362,-27.9408"/>
<polygon fill="midnightblue" stroke="midnightblue" points="269.979,-25.5991 261.144,-19.7511 264.404,-29.8321 269.979,-25.5991"/>
</g>
<!-- Node2&#45;&gt;Node5 -->
<g id="edge4" class="edge"><title>Node2&#45;&gt;Node5</title>
<path fill="none" stroke="midnightblue" d="M259.916,-59.3439C214.805,-51.9517 134.468,-38.0485 57.1112,-20.2279"/>
<polygon fill="midnightblue" stroke="midnightblue" points="57.7382,-16.7803 47.2049,-17.92 56.1499,-23.5977 57.7382,-16.7803"/>
</g>
<!-- Node6 -->
<g id="node6" class="node"><title>Node6</title>
<polygon fill="white" stroke="#bfbfbf" points="307,-0.5 307,-19.5 366,-19.5 366,-0.5 307,-0.5"/>
<text text-anchor="middle" x="336.5" y="-7.5" font-family="Helvetica,sans-Serif" font-size="10.00">iostream</text>
</g>
<!-- Node2&#45;&gt;Node6 -->
<g id="edge5" class="edge"><title>Node2&#45;&gt;Node6</title>
<path fill="none" stroke="midnightblue" d="M302.27,-56.083C308.062,-48.4554 316.558,-37.2645 323.638,-27.9408"/>
<polygon fill="midnightblue" stroke="midnightblue" points="326.596,-29.8321 329.856,-19.7511 321.021,-25.5991 326.596,-29.8321"/>
</g>
<!-- Node7 -->
<g id="node7" class="node"><title>Node7</title>
<polygon fill="white" stroke="#bfbfbf" points="384.5,-0.5 384.5,-19.5 438.5,-19.5 438.5,-0.5 384.5,-0.5"/>
<text text-anchor="middle" x="411.5" y="-7.5" font-family="Helvetica,sans-Serif" font-size="10.00">fstream</text>
</g>
<!-- Node2&#45;&gt;Node7 -->
<g id="edge6" class="edge"><title>Node2&#45;&gt;Node7</title>
<path fill="none" stroke="midnightblue" d="M313.881,-56.4435C332.716,-47.6751 362.231,-33.9355 383.879,-23.8579"/>
<polygon fill="midnightblue" stroke="midnightblue" points="385.617,-26.9098 393.205,-19.5164 382.662,-20.5637 385.617,-26.9098"/>
</g>
<!-- Node8 -->
<g id="node8" class="node"><title>Node8</title>
<polygon fill="white" stroke="#bfbfbf" points="457,-0.5 457,-19.5 498,-19.5 498,-0.5 457,-0.5"/>
<text text-anchor="middle" x="477.5" y="-7.5" font-family="Helvetica,sans-Serif" font-size="10.00">array</text>
</g>
<!-- Node2&#45;&gt;Node8 -->
<g id="edge7" class="edge"><title>Node2&#45;&gt;Node8</title>
<path fill="none" stroke="midnightblue" d="M324.366,-56.488C353.037,-48.0262 398.504,-34.587 447.091,-20.1141"/>
<polygon fill="midnightblue" stroke="midnightblue" points="448.262,-23.4172 456.846,-17.2069 446.263,-16.7088 448.262,-23.4172"/>
</g>
<!-- Node9 -->
<g id="node9" class="node"><title>Node9</title>
<polygon fill="white" stroke="#bfbfbf" points="516.5,-0.5 516.5,-19.5 570.5,-19.5 570.5,-0.5 516.5,-0.5"/>
<text text-anchor="middle" x="543.5" y="-7.5" font-family="Helvetica,sans-Serif" font-size="10.00">random</text>
</g>
<!-- Node2&#45;&gt;Node9 -->
<g id="edge8" class="edge"><title>Node2&#45;&gt;Node9</title>
<path fill="none" stroke="midnightblue" d="M331.221,-57.8245C371.45,-49.6539 439.016,-35.6628 506.453,-20.1805"/>
<polygon fill="midnightblue" stroke="midnightblue" points="507.441,-23.5445 516.398,-17.8859 505.867,-16.7237 507.441,-23.5445"/>
</g>
</g>
</svg>
