<?xml version="1.0" encoding="UTF-8" standalone="no"?>
<!DOCTYPE svg PUBLIC "-//W3C//DTD SVG 1.1//EN"
 "http://www.w3.org/Graphics/SVG/1.1/DTD/svg11.dtd">
<!-- Generated by graphviz version 2.38.0 (20140413.2041)
 -->
<!-- Title: /home/travis/build/STORM&#45;IRIT/OpenGR/src/gr/utils/logger.h Pages: 1 -->
<svg width="776pt" height="462pt"
 viewBox="0.00 0.00 776.00 462.00" xmlns="http://www.w3.org/2000/svg" xmlns:xlink="http://www.w3.org/1999/xlink">
<g id="graph0" class="graph" transform="scale(1 1) rotate(0) translate(4 458)">
<title>/home/travis/build/STORM&#45;IRIT/OpenGR/src/gr/utils/logger.h</title>
<polygon fill="white" stroke="none" points="-4,4 -4,-458 772,-458 772,4 -4,4"/>
<!-- Node1 -->
<g id="node1" class="node"><title>Node1</title>
<polygon fill="#bfbfbf" stroke="black" points="378.5,-412.5 378.5,-453.5 510.5,-453.5 510.5,-412.5 378.5,-412.5"/>
<text text-anchor="start" x="386.5" y="-441.5" font-family="Helvetica,sans-Serif" font-size="10.00">/home/travis/build</text>
<text text-anchor="start" x="386.5" y="-430.5" font-family="Helvetica,sans-Serif" font-size="10.00">/STORM&#45;IRIT/OpenGR/src</text>
<text text-anchor="middle" x="444.5" y="-419.5" font-family="Helvetica,sans-Serif" font-size="10.00">/gr/utils/logger.h</text>
</g>
<!-- Node2 -->
<g id="node2" class="node"><title>Node2</title>
<g id="a_node2"><a xlink:href="a00080.html" target="_top" xlink:title="/home/travis/build\l/STORM&#45;IRIT/OpenGR/src\l/gr/algorithms/congruentSetExploration\lBase.hpp">
<polygon fill="white" stroke="black" points="96,-323.5 96,-375.5 301,-375.5 301,-323.5 96,-323.5"/>
<text text-anchor="start" x="104" y="-363.5" font-family="Helvetica,sans-Serif" font-size="10.00">/home/travis/build</text>
<text text-anchor="start" x="104" y="-352.5" font-family="Helvetica,sans-Serif" font-size="10.00">/STORM&#45;IRIT/OpenGR/src</text>
<text text-anchor="start" x="104" y="-341.5" font-family="Helvetica,sans-Serif" font-size="10.00">/gr/algorithms/congruentSetExploration</text>
<text text-anchor="middle" x="198.5" y="-330.5" font-family="Helvetica,sans-Serif" font-size="10.00">Base.hpp</text>
</a>
</g>
</g>
<!-- Node1&#45;&gt;Node2 -->
<g id="edge1" class="edge"><title>Node1&#45;&gt;Node2</title>
<path fill="none" stroke="midnightblue" d="M375.964,-409.294C344.326,-398.812 306.663,-386.335 274.191,-375.576"/>
<polygon fill="midnightblue" stroke="midnightblue" points="374.984,-412.656 385.577,-412.479 377.185,-406.011 374.984,-412.656"/>
</g>
<!-- Node5 -->
<g id="node5" class="node"><title>Node5</title>
<g id="a_node5"><a xlink:href="a00085.html" target="_top" xlink:title="/home/travis/build\l/STORM&#45;IRIT/OpenGR/src\l/gr/algorithms/match3pcs.hpp">
<polygon fill="white" stroke="black" points="0,-78.5 0,-119.5 161,-119.5 161,-78.5 0,-78.5"/>
<text text-anchor="start" x="8" y="-107.5" font-family="Helvetica,sans-Serif" font-size="10.00">/home/travis/build</text>
<text text-anchor="start" x="8" y="-96.5" font-family="Helvetica,sans-Serif" font-size="10.00">/STORM&#45;IRIT/OpenGR/src</text>
<text text-anchor="middle" x="80.5" y="-85.5" font-family="Helvetica,sans-Serif" font-size="10.00">/gr/algorithms/match3pcs.hpp</text>
</a>
</g>
</g>
<!-- Node1&#45;&gt;Node5 -->
<g id="edge19" class="edge"><title>Node1&#45;&gt;Node5</title>
<path fill="none" stroke="midnightblue" d="M368.397,-431.107C274.397,-428.219 122.466,-417.117 86.5,-376 21.8113,-302.048 56.8781,-169.55 73.4174,-119.692"/>
<polygon fill="midnightblue" stroke="midnightblue" points="368.338,-434.607 378.434,-431.391 368.537,-427.61 368.338,-434.607"/>
</g>
<!-- Node6 -->
<g id="node6" class="node"><title>Node6</title>
<g id="a_node6"><a xlink:href="a00086.html" target="_top" xlink:title="/home/travis/build\l/STORM&#45;IRIT/OpenGR/src\l/gr/algorithms/match4pcsBase.h">
<polygon fill="white" stroke="black" points="409,-156.5 409,-197.5 582,-197.5 582,-156.5 409,-156.5"/>
<text text-anchor="start" x="417" y="-185.5" font-family="Helvetica,sans-Serif" font-size="10.00">/home/travis/build</text>
<text text-anchor="start" x="417" y="-174.5" font-family="Helvetica,sans-Serif" font-size="10.00">/STORM&#45;IRIT/OpenGR/src</text>
<text text-anchor="middle" x="495.5" y="-163.5" font-family="Helvetica,sans-Serif" font-size="10.00">/gr/algorithms/match4pcsBase.h</text>
</a>
</g>
</g>
<!-- Node1&#45;&gt;Node6 -->
<g id="edge20" class="edge"><title>Node1&#45;&gt;Node6</title>
<path fill="none" stroke="midnightblue" d="M472.081,-405.12C480.046,-396.364 488.262,-386.246 494.5,-376 516.52,-339.832 520.817,-328.641 528.5,-287 532.774,-263.835 534.698,-256.726 528.5,-234 524.937,-220.935 517.463,-207.814 510.528,-197.56"/>
<polygon fill="midnightblue" stroke="midnightblue" points="469.504,-402.752 465.203,-412.434 474.603,-407.547 469.504,-402.752"/>
</g>
<!-- Node8 -->
<g id="node8" class="node"><title>Node8</title>
<g id="a_node8"><a xlink:href="a00087.html" target="_top" xlink:title="/home/travis/build\l/STORM&#45;IRIT/OpenGR/src\l/gr/algorithms/match4pcsBase.hpp">
<polygon fill="white" stroke="black" points="583,-78.5 583,-119.5 768,-119.5 768,-78.5 583,-78.5"/>
<text text-anchor="start" x="591" y="-107.5" font-family="Helvetica,sans-Serif" font-size="10.00">/home/travis/build</text>
<text text-anchor="start" x="591" y="-96.5" font-family="Helvetica,sans-Serif" font-size="10.00">/STORM&#45;IRIT/OpenGR/src</text>
<text text-anchor="middle" x="675.5" y="-85.5" font-family="Helvetica,sans-Serif" font-size="10.00">/gr/algorithms/match4pcsBase.hpp</text>
</a>
</g>
</g>
<!-- Node1&#45;&gt;Node8 -->
<g id="edge21" class="edge"><title>Node1&#45;&gt;Node8</title>
<path fill="none" stroke="midnightblue" d="M486.142,-406.684C498.454,-397.952 511.342,-387.455 521.5,-376 595.587,-292.456 649.2,-167.329 668.074,-119.521"/>
<polygon fill="midnightblue" stroke="midnightblue" points="484.019,-403.896 477.751,-412.438 487.978,-409.669 484.019,-403.896"/>
</g>
<!-- Node11 -->
<g id="node11" class="node"><title>Node11</title>
<g id="a_node11"><a xlink:href="a00088.html" target="_top" xlink:title="/home/travis/build\l/STORM&#45;IRIT/OpenGR/src\l/gr/algorithms/matchBase.h">
<polygon fill="white" stroke="black" points="318.5,-329 318.5,-370 468.5,-370 468.5,-329 318.5,-329"/>
<text text-anchor="start" x="326.5" y="-358" font-family="Helvetica,sans-Serif" font-size="10.00">/home/travis/build</text>
<text text-anchor="start" x="326.5" y="-347" font-family="Helvetica,sans-Serif" font-size="10.00">/STORM&#45;IRIT/OpenGR/src</text>
<text text-anchor="middle" x="393.5" y="-336" font-family="Helvetica,sans-Serif" font-size="10.00">/gr/algorithms/matchBase.h</text>
</a>
</g>
</g>
<!-- Node1&#45;&gt;Node11 -->
<g id="edge13" class="edge"><title>Node1&#45;&gt;Node11</title>
<path fill="none" stroke="midnightblue" d="M426.806,-403.725C419.852,-392.612 412.041,-380.129 405.732,-370.047"/>
<polygon fill="midnightblue" stroke="midnightblue" points="423.883,-405.651 432.154,-412.271 429.817,-401.937 423.883,-405.651"/>
</g>
<!-- Node12 -->
<g id="node12" class="node"><title>Node12</title>
<g id="a_node12"><a xlink:href="a00089.html" target="_top" xlink:title="/home/travis/build\l/STORM&#45;IRIT/OpenGR/src\l/gr/algorithms/matchBase.hpp">
<polygon fill="white" stroke="black" points="357.5,-240 357.5,-281 519.5,-281 519.5,-240 357.5,-240"/>
<text text-anchor="start" x="365.5" y="-269" font-family="Helvetica,sans-Serif" font-size="10.00">/home/travis/build</text>
<text text-anchor="start" x="365.5" y="-258" font-family="Helvetica,sans-Serif" font-size="10.00">/STORM&#45;IRIT/OpenGR/src</text>
<text text-anchor="middle" x="438.5" y="-247" font-family="Helvetica,sans-Serif" font-size="10.00">/gr/algorithms/matchBase.hpp</text>
</a>
</g>
</g>
<!-- Node1&#45;&gt;Node12 -->
<g id="edge18" class="edge"><title>Node1&#45;&gt;Node12</title>
<path fill="none" stroke="midnightblue" d="M464.923,-403.987C470.057,-395.424 474.856,-385.696 477.5,-376 483.698,-353.274 484.068,-345.621 477.5,-323 473.058,-307.702 463.541,-292.564 455.021,-281.136"/>
<polygon fill="midnightblue" stroke="midnightblue" points="461.958,-402.127 459.528,-412.44 467.859,-405.894 461.958,-402.127"/>
</g>
<!-- Node3 -->
<g id="node3" class="node"><title>Node3</title>
<g id="a_node3"><a xlink:href="a00079.html" target="_top" xlink:title="/home/travis/build\l/STORM&#45;IRIT/OpenGR/src\l/gr/algorithms/congruentSetExploration\lBase.h">
<polygon fill="white" stroke="black" points="96,-234.5 96,-286.5 301,-286.5 301,-234.5 96,-234.5"/>
<text text-anchor="start" x="104" y="-274.5" font-family="Helvetica,sans-Serif" font-size="10.00">/home/travis/build</text>
<text text-anchor="start" x="104" y="-263.5" font-family="Helvetica,sans-Serif" font-size="10.00">/STORM&#45;IRIT/OpenGR/src</text>
<text text-anchor="start" x="104" y="-252.5" font-family="Helvetica,sans-Serif" font-size="10.00">/gr/algorithms/congruentSetExploration</text>
<text text-anchor="middle" x="198.5" y="-241.5" font-family="Helvetica,sans-Serif" font-size="10.00">Base.h</text>
</a>
</g>
</g>
<!-- Node2&#45;&gt;Node3 -->
<g id="edge2" class="edge"><title>Node2&#45;&gt;Node3</title>
<path fill="none" stroke="midnightblue" d="M191.858,-313.191C191.621,-304.282 191.775,-294.899 192.318,-286.607"/>
<polygon fill="midnightblue" stroke="midnightblue" points="188.368,-313.503 192.314,-323.336 195.361,-313.189 188.368,-313.503"/>
</g>
<!-- Node3&#45;&gt;Node2 -->
<g id="edge3" class="edge"><title>Node3&#45;&gt;Node2</title>
<path fill="none" stroke="midnightblue" d="M205.141,-296.749C205.379,-305.655 205.227,-315.04 204.686,-323.336"/>
<polygon fill="midnightblue" stroke="midnightblue" points="208.631,-296.439 204.682,-286.607 201.638,-296.755 208.631,-296.439"/>
</g>
<!-- Node4 -->
<g id="node4" class="node"><title>Node4</title>
<g id="a_node4"><a xlink:href="a00084.html" target="_top" xlink:title="/home/travis/build\l/STORM&#45;IRIT/OpenGR/src\l/gr/algorithms/match3pcs.h">
<polygon fill="white" stroke="black" points="110,-156.5 110,-197.5 259,-197.5 259,-156.5 110,-156.5"/>
<text text-anchor="start" x="118" y="-185.5" font-family="Helvetica,sans-Serif" font-size="10.00">/home/travis/build</text>
<text text-anchor="start" x="118" y="-174.5" font-family="Helvetica,sans-Serif" font-size="10.00">/STORM&#45;IRIT/OpenGR/src</text>
<text text-anchor="middle" x="184.5" y="-163.5" font-family="Helvetica,sans-Serif" font-size="10.00">/gr/algorithms/match3pcs.h</text>
</a>
</g>
</g>
<!-- Node3&#45;&gt;Node4 -->
<g id="edge4" class="edge"><title>Node3&#45;&gt;Node4</title>
<path fill="none" stroke="midnightblue" d="M192.427,-224.147C190.865,-215.055 189.241,-205.597 187.872,-197.628"/>
<polygon fill="midnightblue" stroke="midnightblue" points="189.005,-224.897 194.147,-234.16 195.903,-223.711 189.005,-224.897"/>
</g>
<!-- Node3&#45;&gt;Node6 -->
<g id="edge7" class="edge"><title>Node3&#45;&gt;Node6</title>
<path fill="none" stroke="midnightblue" d="M299.391,-231.814C340.452,-220.547 386.944,-207.789 424.351,-197.524"/>
<polygon fill="midnightblue" stroke="midnightblue" points="298.345,-228.472 289.628,-234.493 300.198,-235.222 298.345,-228.472"/>
</g>
<!-- Node4&#45;&gt;Node5 -->
<g id="edge5" class="edge"><title>Node4&#45;&gt;Node5</title>
<path fill="none" stroke="midnightblue" d="M143.384,-150.635C128.925,-140.487 113.323,-128.982 101.21,-119.506"/>
<polygon fill="midnightblue" stroke="midnightblue" points="141.518,-153.601 151.729,-156.428 145.51,-147.851 141.518,-153.601"/>
</g>
<!-- Node5&#45;&gt;Node4 -->
<g id="edge6" class="edge"><title>Node5&#45;&gt;Node4</title>
<path fill="none" stroke="midnightblue" d="M121.515,-125.294C135.968,-135.436 151.576,-146.943 163.706,-156.428"/>
<polygon fill="midnightblue" stroke="midnightblue" points="123.385,-122.331 113.174,-119.506 119.394,-128.082 123.385,-122.331"/>
</g>
<!-- Node7 -->
<g id="node7" class="node"><title>Node7</title>
<g id="a_node7"><a xlink:href="a00082.html" target="_top" xlink:title="/home/travis/build\l/STORM&#45;IRIT/OpenGR/src\l/gr/algorithms/FunctorBrute4pcs.h">
<polygon fill="white" stroke="black" points="179,-78.5 179,-119.5 358,-119.5 358,-78.5 179,-78.5"/>
<text text-anchor="start" x="187" y="-107.5" font-family="Helvetica,sans-Serif" font-size="10.00">/home/travis/build</text>
<text text-anchor="start" x="187" y="-96.5" font-family="Helvetica,sans-Serif" font-size="10.00">/STORM&#45;IRIT/OpenGR/src</text>
<text text-anchor="middle" x="268.5" y="-85.5" font-family="Helvetica,sans-Serif" font-size="10.00">/gr/algorithms/FunctorBrute4pcs.h</text>
</a>
</g>
</g>
<!-- Node6&#45;&gt;Node7 -->
<g id="edge8" class="edge"><title>Node6&#45;&gt;Node7</title>
<path fill="none" stroke="midnightblue" d="M427.296,-153.165C395.251,-142.437 357.444,-129.779 326.76,-119.506"/>
<polygon fill="midnightblue" stroke="midnightblue" points="426.448,-156.572 437.042,-156.428 428.67,-149.934 426.448,-156.572"/>
</g>
<!-- Node6&#45;&gt;Node8 -->
<g id="edge9" class="edge"><title>Node6&#45;&gt;Node8</title>
<path fill="none" stroke="midnightblue" d="M545.259,-152.329C569.548,-141.783 598.717,-129.513 623.32,-119.506"/>
<polygon fill="midnightblue" stroke="midnightblue" points="543.631,-149.22 535.866,-156.428 546.431,-155.636 543.631,-149.22"/>
</g>
<!-- Node9 -->
<g id="node9" class="node"><title>Node9</title>
<g id="a_node9"><a xlink:href="a00090.html" target="_top" xlink:title="/home/travis/build\l/STORM&#45;IRIT/OpenGR/src\l/gr/algorithms/pairCreationFunctor.h">
<polygon fill="white" stroke="black" points="376.5,-78.5 376.5,-119.5 564.5,-119.5 564.5,-78.5 376.5,-78.5"/>
<text text-anchor="start" x="384.5" y="-107.5" font-family="Helvetica,sans-Serif" font-size="10.00">/home/travis/build</text>
<text text-anchor="start" x="384.5" y="-96.5" font-family="Helvetica,sans-Serif" font-size="10.00">/STORM&#45;IRIT/OpenGR/src</text>
<text text-anchor="middle" x="470.5" y="-85.5" font-family="Helvetica,sans-Serif" font-size="10.00">/gr/algorithms/pairCreationFunctor.h</text>
</a>
</g>
</g>
<!-- Node6&#45;&gt;Node9 -->
<g id="edge11" class="edge"><title>Node6&#45;&gt;Node9</title>
<path fill="none" stroke="midnightblue" d="M485.922,-146.882C482.908,-137.721 479.655,-127.83 476.916,-119.506"/>
<polygon fill="midnightblue" stroke="midnightblue" points="482.612,-148.023 489.062,-156.428 489.262,-145.835 482.612,-148.023"/>
</g>
<!-- Node8&#45;&gt;Node6 -->
<g id="edge10" class="edge"><title>Node8&#45;&gt;Node6</title>
<path fill="none" stroke="midnightblue" d="M625.902,-123.601C601.635,-134.139 572.466,-146.411 547.843,-156.428"/>
<polygon fill="midnightblue" stroke="midnightblue" points="627.52,-126.714 635.285,-119.506 624.72,-120.298 627.52,-126.714"/>
</g>
<!-- Node10 -->
<g id="node10" class="node"><title>Node10</title>
<g id="a_node10"><a xlink:href="a00083.html" target="_top" xlink:title="/home/travis/build\l/STORM&#45;IRIT/OpenGR/src\l/gr/algorithms/FunctorSuper4pcs.h">
<polygon fill="white" stroke="black" points="379.5,-0.5 379.5,-41.5 561.5,-41.5 561.5,-0.5 379.5,-0.5"/>
<text text-anchor="start" x="387.5" y="-29.5" font-family="Helvetica,sans-Serif" font-size="10.00">/home/travis/build</text>
<text text-anchor="start" x="387.5" y="-18.5" font-family="Helvetica,sans-Serif" font-size="10.00">/STORM&#45;IRIT/OpenGR/src</text>
<text text-anchor="middle" x="470.5" y="-7.5" font-family="Helvetica,sans-Serif" font-size="10.00">/gr/algorithms/FunctorSuper4pcs.h</text>
</a>
</g>
</g>
<!-- Node9&#45;&gt;Node10 -->
<g id="edge12" class="edge"><title>Node9&#45;&gt;Node10</title>
<path fill="none" stroke="midnightblue" d="M470.5,-68.2965C470.5,-59.3009 470.5,-49.6532 470.5,-41.5056"/>
<polygon fill="midnightblue" stroke="midnightblue" points="467,-68.4281 470.5,-78.4281 474,-68.4281 467,-68.4281"/>
</g>
<!-- Node11&#45;&gt;Node3 -->
<g id="edge14" class="edge"><title>Node11&#45;&gt;Node3</title>
<path fill="none" stroke="midnightblue" d="M340.585,-324.892C313.993,-313.028 281.762,-298.648 254.724,-286.585"/>
<polygon fill="midnightblue" stroke="midnightblue" points="339.18,-328.097 349.738,-328.976 342.032,-321.705 339.18,-328.097"/>
</g>
<!-- Node11&#45;&gt;Node4 -->
<g id="edge15" class="edge"><title>Node11&#45;&gt;Node4</title>
<path fill="none" stroke="midnightblue" d="M373.23,-320.78C348.539,-287.029 310.021,-234.421 309.5,-234 290.448,-218.608 266.491,-206.536 244.662,-197.605"/>
<polygon fill="midnightblue" stroke="midnightblue" points="370.449,-322.907 379.178,-328.912 376.099,-318.774 370.449,-322.907"/>
</g>
<!-- Node11&#45;&gt;Node12 -->
<g id="edge16" class="edge"><title>Node11&#45;&gt;Node12</title>
<path fill="none" stroke="midnightblue" d="M402.068,-319.558C407.965,-306.949 415.658,-292.495 422.576,-281.164"/>
<polygon fill="midnightblue" stroke="midnightblue" points="398.841,-318.201 397.95,-328.758 405.23,-321.06 398.841,-318.201"/>
</g>
<!-- Node12&#45;&gt;Node11 -->
<g id="edge17" class="edge"><title>Node12&#45;&gt;Node11</title>
<path fill="none" stroke="midnightblue" d="M429.973,-290.355C424.083,-302.956 416.394,-317.412 409.472,-328.758"/>
<polygon fill="midnightblue" stroke="midnightblue" points="433.196,-291.721 434.083,-281.164 426.806,-288.864 433.196,-291.721"/>
</g>
</g>
</svg>
