<?xml version="1.0" encoding="UTF-8" standalone="no"?>
<!DOCTYPE svg PUBLIC "-//W3C//DTD SVG 1.1//EN"
 "http://www.w3.org/Graphics/SVG/1.1/DTD/svg11.dtd">
<!-- Generated by graphviz version 2.38.0 (20140413.2041)
 -->
<!-- Title: /home/travis/build/STORM&#45;IRIT/OpenGR/src/gr/accelerators/pairExtraction/intersectionNode.h Pages: 1 -->
<svg width="348pt" height="306pt"
 viewBox="0.00 0.00 348.00 306.00" xmlns="http://www.w3.org/2000/svg" xmlns:xlink="http://www.w3.org/1999/xlink">
<g id="graph0" class="graph" transform="scale(1 1) rotate(0) translate(4 302)">
<title>/home/travis/build/STORM&#45;IRIT/OpenGR/src/gr/accelerators/pairExtraction/intersectionNode.h</title>
<polygon fill="white" stroke="none" points="-4,4 -4,-302 344,-302 344,4 -4,4"/>
<!-- Node1 -->
<g id="node1" class="node"><title>Node1</title>
<polygon fill="#bfbfbf" stroke="black" points="89,-245.5 89,-297.5 250,-297.5 250,-245.5 89,-245.5"/>
<text text-anchor="start" x="97" y="-285.5" font-family="Helvetica,sans-Serif" font-size="10.00">/home/travis/build</text>
<text text-anchor="start" x="97" y="-274.5" font-family="Helvetica,sans-Serif" font-size="10.00">/STORM&#45;IRIT/OpenGR/src</text>
<text text-anchor="start" x="97" y="-263.5" font-family="Helvetica,sans-Serif" font-size="10.00">/gr/accelerators/pairExtraction</text>
<text text-anchor="middle" x="169.5" y="-252.5" font-family="Helvetica,sans-Serif" font-size="10.00">/intersectionNode.h</text>
</g>
<!-- Node2 -->
<g id="node2" class="node"><title>Node2</title>
<g id="a_node2"><a xlink:href="a00074.html" target="_top" xlink:title="/home/travis/build\l/STORM&#45;IRIT/OpenGR/src\l/gr/accelerators/pairExtraction\l/bruteForceFunctor.h">
<polygon fill="white" stroke="black" points="0,-156.5 0,-208.5 161,-208.5 161,-156.5 0,-156.5"/>
<text text-anchor="start" x="8" y="-196.5" font-family="Helvetica,sans-Serif" font-size="10.00">/home/travis/build</text>
<text text-anchor="start" x="8" y="-185.5" font-family="Helvetica,sans-Serif" font-size="10.00">/STORM&#45;IRIT/OpenGR/src</text>
<text text-anchor="start" x="8" y="-174.5" font-family="Helvetica,sans-Serif" font-size="10.00">/gr/accelerators/pairExtraction</text>
<text text-anchor="middle" x="80.5" y="-163.5" font-family="Helvetica,sans-Serif" font-size="10.00">/bruteForceFunctor.h</text>
</a>
</g>
</g>
<!-- Node1&#45;&gt;Node2 -->
<g id="edge1" class="edge"><title>Node1&#45;&gt;Node2</title>
<path fill="none" stroke="midnightblue" d="M136.331,-238.077C126.366,-228.335 115.588,-217.8 106.185,-208.607"/>
<polygon fill="midnightblue" stroke="midnightblue" points="134.16,-240.849 143.758,-245.336 139.053,-235.843 134.16,-240.849"/>
</g>
<!-- Node5 -->
<g id="node5" class="node"><title>Node5</title>
<g id="a_node5"><a xlink:href="a00075.html" target="_top" xlink:title="/home/travis/build\l/STORM&#45;IRIT/OpenGR/src\l/gr/accelerators/pairExtraction\l/intersectionFunctor.h">
<polygon fill="white" stroke="black" points="179,-156.5 179,-208.5 340,-208.5 340,-156.5 179,-156.5"/>
<text text-anchor="start" x="187" y="-196.5" font-family="Helvetica,sans-Serif" font-size="10.00">/home/travis/build</text>
<text text-anchor="start" x="187" y="-185.5" font-family="Helvetica,sans-Serif" font-size="10.00">/STORM&#45;IRIT/OpenGR/src</text>
<text text-anchor="start" x="187" y="-174.5" font-family="Helvetica,sans-Serif" font-size="10.00">/gr/accelerators/pairExtraction</text>
<text text-anchor="middle" x="259.5" y="-163.5" font-family="Helvetica,sans-Serif" font-size="10.00">/intersectionFunctor.h</text>
</a>
</g>
</g>
<!-- Node1&#45;&gt;Node5 -->
<g id="edge4" class="edge"><title>Node1&#45;&gt;Node5</title>
<path fill="none" stroke="midnightblue" d="M202.745,-238.363C212.905,-228.542 223.924,-217.89 233.527,-208.607"/>
<polygon fill="midnightblue" stroke="midnightblue" points="200.289,-235.869 195.532,-245.336 205.154,-240.902 200.289,-235.869"/>
</g>
<!-- Node3 -->
<g id="node3" class="node"><title>Node3</title>
<g id="a_node3"><a xlink:href="a00090.html" target="_top" xlink:title="/home/travis/build\l/STORM&#45;IRIT/OpenGR/src\l/gr/algorithms/pairCreationFunctor.h">
<polygon fill="white" stroke="black" points="75.5,-78.5 75.5,-119.5 263.5,-119.5 263.5,-78.5 75.5,-78.5"/>
<text text-anchor="start" x="83.5" y="-107.5" font-family="Helvetica,sans-Serif" font-size="10.00">/home/travis/build</text>
<text text-anchor="start" x="83.5" y="-96.5" font-family="Helvetica,sans-Serif" font-size="10.00">/STORM&#45;IRIT/OpenGR/src</text>
<text text-anchor="middle" x="169.5" y="-85.5" font-family="Helvetica,sans-Serif" font-size="10.00">/gr/algorithms/pairCreationFunctor.h</text>
</a>
</g>
</g>
<!-- Node2&#45;&gt;Node3 -->
<g id="edge2" class="edge"><title>Node2&#45;&gt;Node3</title>
<path fill="none" stroke="midnightblue" d="M115.603,-149.356C126.57,-139.313 138.334,-128.539 148.065,-119.628"/>
<polygon fill="midnightblue" stroke="midnightblue" points="113.184,-146.825 108.172,-156.16 117.911,-151.987 113.184,-146.825"/>
</g>
<!-- Node4 -->
<g id="node4" class="node"><title>Node4</title>
<g id="a_node4"><a xlink:href="a00083.html" target="_top" xlink:title="/home/travis/build\l/STORM&#45;IRIT/OpenGR/src\l/gr/algorithms/FunctorSuper4pcs.h">
<polygon fill="white" stroke="black" points="78.5,-0.5 78.5,-41.5 260.5,-41.5 260.5,-0.5 78.5,-0.5"/>
<text text-anchor="start" x="86.5" y="-29.5" font-family="Helvetica,sans-Serif" font-size="10.00">/home/travis/build</text>
<text text-anchor="start" x="86.5" y="-18.5" font-family="Helvetica,sans-Serif" font-size="10.00">/STORM&#45;IRIT/OpenGR/src</text>
<text text-anchor="middle" x="169.5" y="-7.5" font-family="Helvetica,sans-Serif" font-size="10.00">/gr/algorithms/FunctorSuper4pcs.h</text>
</a>
</g>
</g>
<!-- Node3&#45;&gt;Node4 -->
<g id="edge3" class="edge"><title>Node3&#45;&gt;Node4</title>
<path fill="none" stroke="midnightblue" d="M169.5,-68.2965C169.5,-59.3009 169.5,-49.6532 169.5,-41.5056"/>
<polygon fill="midnightblue" stroke="midnightblue" points="166,-68.4281 169.5,-78.4281 173,-68.4281 166,-68.4281"/>
</g>
<!-- Node5&#45;&gt;Node3 -->
<g id="edge5" class="edge"><title>Node5&#45;&gt;Node3</title>
<path fill="none" stroke="midnightblue" d="M224.003,-149.356C212.913,-139.313 201.016,-128.539 191.175,-119.628"/>
<polygon fill="midnightblue" stroke="midnightblue" points="221.755,-152.042 231.517,-156.16 226.454,-146.853 221.755,-152.042"/>
</g>
</g>
</svg>
