<?xml version="1.0" encoding="UTF-8" standalone="no"?>
<!DOCTYPE svg PUBLIC "-//W3C//DTD SVG 1.1//EN"
 "http://www.w3.org/Graphics/SVG/1.1/DTD/svg11.dtd">
<!-- Generated by graphviz version 2.38.0 (20140413.2041)
 -->
<!-- Title: /home/travis/build/STORM&#45;IRIT/OpenGR/src/gr/algorithms/congruentSetExplorationBase.hpp Pages: 1 -->
<svg width="776pt" height="384pt"
 viewBox="0.00 0.00 775.50 384.00" xmlns="http://www.w3.org/2000/svg" xmlns:xlink="http://www.w3.org/1999/xlink">
<g id="graph0" class="graph" transform="scale(1 1) rotate(0) translate(4 380)">
<title>/home/travis/build/STORM&#45;IRIT/OpenGR/src/gr/algorithms/congruentSetExplorationBase.hpp</title>
<polygon fill="white" stroke="none" points="-4,4 -4,-380 771.5,-380 771.5,4 -4,4"/>
<!-- Node1 -->
<g id="node1" class="node"><title>Node1</title>
<polygon fill="#bfbfbf" stroke="black" points="172,-323.5 172,-375.5 377,-375.5 377,-323.5 172,-323.5"/>
<text text-anchor="start" x="180" y="-363.5" font-family="Helvetica,sans-Serif" font-size="10.00">/home/travis/build</text>
<text text-anchor="start" x="180" y="-352.5" font-family="Helvetica,sans-Serif" font-size="10.00">/STORM&#45;IRIT/OpenGR/src</text>
<text text-anchor="start" x="180" y="-341.5" font-family="Helvetica,sans-Serif" font-size="10.00">/gr/algorithms/congruentSetExploration</text>
<text text-anchor="middle" x="274.5" y="-330.5" font-family="Helvetica,sans-Serif" font-size="10.00">Base.hpp</text>
</g>
<!-- Node2 -->
<g id="node2" class="node"><title>Node2</title>
<g id="a_node2"><a xlink:href="a00079.html" target="_top" xlink:title="/home/travis/build\l/STORM&#45;IRIT/OpenGR/src\l/gr/algorithms/congruentSetExploration\lBase.h">
<polygon fill="white" stroke="black" points="172,-234.5 172,-286.5 377,-286.5 377,-234.5 172,-234.5"/>
<text text-anchor="start" x="180" y="-274.5" font-family="Helvetica,sans-Serif" font-size="10.00">/home/travis/build</text>
<text text-anchor="start" x="180" y="-263.5" font-family="Helvetica,sans-Serif" font-size="10.00">/STORM&#45;IRIT/OpenGR/src</text>
<text text-anchor="start" x="180" y="-252.5" font-family="Helvetica,sans-Serif" font-size="10.00">/gr/algorithms/congruentSetExploration</text>
<text text-anchor="middle" x="274.5" y="-241.5" font-family="Helvetica,sans-Serif" font-size="10.00">Base.h</text>
</a>
</g>
</g>
<!-- Node1&#45;&gt;Node2 -->
<g id="edge1" class="edge"><title>Node1&#45;&gt;Node2</title>
<path fill="none" stroke="midnightblue" d="M267.858,-313.191C267.621,-304.282 267.775,-294.899 268.318,-286.607"/>
<polygon fill="midnightblue" stroke="midnightblue" points="264.368,-313.503 268.314,-323.336 271.361,-313.189 264.368,-313.503"/>
</g>
<!-- Node2&#45;&gt;Node1 -->
<g id="edge2" class="edge"><title>Node2&#45;&gt;Node1</title>
<path fill="none" stroke="midnightblue" d="M281.141,-296.749C281.379,-305.655 281.227,-315.04 280.686,-323.336"/>
<polygon fill="midnightblue" stroke="midnightblue" points="284.631,-296.439 280.682,-286.607 277.638,-296.755 284.631,-296.439"/>
</g>
<!-- Node3 -->
<g id="node3" class="node"><title>Node3</title>
<g id="a_node3"><a xlink:href="a00084.html" target="_top" xlink:title="/home/travis/build\l/STORM&#45;IRIT/OpenGR/src\l/gr/algorithms/match3pcs.h">
<polygon fill="white" stroke="black" points="6,-156.5 6,-197.5 155,-197.5 155,-156.5 6,-156.5"/>
<text text-anchor="start" x="14" y="-185.5" font-family="Helvetica,sans-Serif" font-size="10.00">/home/travis/build</text>
<text text-anchor="start" x="14" y="-174.5" font-family="Helvetica,sans-Serif" font-size="10.00">/STORM&#45;IRIT/OpenGR/src</text>
<text text-anchor="middle" x="80.5" y="-163.5" font-family="Helvetica,sans-Serif" font-size="10.00">/gr/algorithms/match3pcs.h</text>
</a>
</g>
</g>
<!-- Node2&#45;&gt;Node3 -->
<g id="edge3" class="edge"><title>Node2&#45;&gt;Node3</title>
<path fill="none" stroke="midnightblue" d="M205.528,-230.524C179.479,-219.581 150.481,-207.399 126.975,-197.524"/>
<polygon fill="midnightblue" stroke="midnightblue" points="204.4,-233.847 214.975,-234.493 207.111,-227.393 204.4,-233.847"/>
</g>
<!-- Node5 -->
<g id="node5" class="node"><title>Node5</title>
<g id="a_node5"><a xlink:href="a00086.html" target="_top" xlink:title="/home/travis/build\l/STORM&#45;IRIT/OpenGR/src\l/gr/algorithms/match4pcsBase.h">
<polygon fill="white" stroke="black" points="382,-156.5 382,-197.5 555,-197.5 555,-156.5 382,-156.5"/>
<text text-anchor="start" x="390" y="-185.5" font-family="Helvetica,sans-Serif" font-size="10.00">/home/travis/build</text>
<text text-anchor="start" x="390" y="-174.5" font-family="Helvetica,sans-Serif" font-size="10.00">/STORM&#45;IRIT/OpenGR/src</text>
<text text-anchor="middle" x="468.5" y="-163.5" font-family="Helvetica,sans-Serif" font-size="10.00">/gr/algorithms/match4pcsBase.h</text>
</a>
</g>
</g>
<!-- Node2&#45;&gt;Node5 -->
<g id="edge6" class="edge"><title>Node2&#45;&gt;Node5</title>
<path fill="none" stroke="midnightblue" d="M343.472,-230.524C369.521,-219.581 398.519,-207.399 422.025,-197.524"/>
<polygon fill="midnightblue" stroke="midnightblue" points="341.889,-227.393 334.025,-234.493 344.6,-233.847 341.889,-227.393"/>
</g>
<!-- Node4 -->
<g id="node4" class="node"><title>Node4</title>
<g id="a_node4"><a xlink:href="a00085.html" target="_top" xlink:title="/home/travis/build\l/STORM&#45;IRIT/OpenGR/src\l/gr/algorithms/match3pcs.hpp">
<polygon fill="white" stroke="black" points="0,-78.5 0,-119.5 161,-119.5 161,-78.5 0,-78.5"/>
<text text-anchor="start" x="8" y="-107.5" font-family="Helvetica,sans-Serif" font-size="10.00">/home/travis/build</text>
<text text-anchor="start" x="8" y="-96.5" font-family="Helvetica,sans-Serif" font-size="10.00">/STORM&#45;IRIT/OpenGR/src</text>
<text text-anchor="middle" x="80.5" y="-85.5" font-family="Helvetica,sans-Serif" font-size="10.00">/gr/algorithms/match3pcs.hpp</text>
</a>
</g>
</g>
<!-- Node3&#45;&gt;Node4 -->
<g id="edge4" class="edge"><title>Node3&#45;&gt;Node4</title>
<path fill="none" stroke="midnightblue" d="M73.8951,-146.297C73.5759,-137.301 73.7834,-127.653 74.5177,-119.506"/>
<polygon fill="midnightblue" stroke="midnightblue" points="70.4106,-146.659 74.5118,-156.428 77.3977,-146.234 70.4106,-146.659"/>
</g>
<!-- Node4&#45;&gt;Node3 -->
<g id="edge5" class="edge"><title>Node4&#45;&gt;Node3</title>
<path fill="none" stroke="midnightblue" d="M87.1023,-129.63C87.4244,-138.622 87.2197,-148.272 86.4882,-156.428"/>
<polygon fill="midnightblue" stroke="midnightblue" points="90.5871,-129.273 86.4823,-119.506 83.6002,-129.701 90.5871,-129.273"/>
</g>
<!-- Node6 -->
<g id="node6" class="node"><title>Node6</title>
<g id="a_node6"><a xlink:href="a00082.html" target="_top" xlink:title="/home/travis/build\l/STORM&#45;IRIT/OpenGR/src\l/gr/algorithms/FunctorBrute4pcs.h">
<polygon fill="white" stroke="black" points="179,-78.5 179,-119.5 358,-119.5 358,-78.5 179,-78.5"/>
<text text-anchor="start" x="187" y="-107.5" font-family="Helvetica,sans-Serif" font-size="10.00">/home/travis/build</text>
<text text-anchor="start" x="187" y="-96.5" font-family="Helvetica,sans-Serif" font-size="10.00">/STORM&#45;IRIT/OpenGR/src</text>
<text text-anchor="middle" x="268.5" y="-85.5" font-family="Helvetica,sans-Serif" font-size="10.00">/gr/algorithms/FunctorBrute4pcs.h</text>
</a>
</g>
</g>
<!-- Node5&#45;&gt;Node6 -->
<g id="edge7" class="edge"><title>Node5&#45;&gt;Node6</title>
<path fill="none" stroke="midnightblue" d="M407.311,-152.748C379.315,-142.11 346.515,-129.646 319.83,-119.506"/>
<polygon fill="midnightblue" stroke="midnightblue" points="406.404,-156.148 416.995,-156.428 408.89,-149.604 406.404,-156.148"/>
</g>
<!-- Node7 -->
<g id="node7" class="node"><title>Node7</title>
<g id="a_node7"><a xlink:href="a00087.html" target="_top" xlink:title="/home/travis/build\l/STORM&#45;IRIT/OpenGR/src\l/gr/algorithms/match4pcsBase.hpp">
<polygon fill="white" stroke="black" points="376,-78.5 376,-119.5 561,-119.5 561,-78.5 376,-78.5"/>
<text text-anchor="start" x="384" y="-107.5" font-family="Helvetica,sans-Serif" font-size="10.00">/home/travis/build</text>
<text text-anchor="start" x="384" y="-96.5" font-family="Helvetica,sans-Serif" font-size="10.00">/STORM&#45;IRIT/OpenGR/src</text>
<text text-anchor="middle" x="468.5" y="-85.5" font-family="Helvetica,sans-Serif" font-size="10.00">/gr/algorithms/match4pcsBase.hpp</text>
</a>
</g>
</g>
<!-- Node5&#45;&gt;Node7 -->
<g id="edge8" class="edge"><title>Node5&#45;&gt;Node7</title>
<path fill="none" stroke="midnightblue" d="M461.895,-146.297C461.576,-137.301 461.783,-127.653 462.518,-119.506"/>
<polygon fill="midnightblue" stroke="midnightblue" points="458.411,-146.659 462.512,-156.428 465.398,-146.234 458.411,-146.659"/>
</g>
<!-- Node8 -->
<g id="node8" class="node"><title>Node8</title>
<g id="a_node8"><a xlink:href="a00090.html" target="_top" xlink:title="/home/travis/build\l/STORM&#45;IRIT/OpenGR/src\l/gr/algorithms/pairCreationFunctor.h">
<polygon fill="white" stroke="black" points="579.5,-78.5 579.5,-119.5 767.5,-119.5 767.5,-78.5 579.5,-78.5"/>
<text text-anchor="start" x="587.5" y="-107.5" font-family="Helvetica,sans-Serif" font-size="10.00">/home/travis/build</text>
<text text-anchor="start" x="587.5" y="-96.5" font-family="Helvetica,sans-Serif" font-size="10.00">/STORM&#45;IRIT/OpenGR/src</text>
<text text-anchor="middle" x="673.5" y="-85.5" font-family="Helvetica,sans-Serif" font-size="10.00">/gr/algorithms/pairCreationFunctor.h</text>
</a>
</g>
</g>
<!-- Node5&#45;&gt;Node8 -->
<g id="edge10" class="edge"><title>Node5&#45;&gt;Node8</title>
<path fill="none" stroke="midnightblue" d="M530.843,-152.887C559.621,-142.219 593.415,-129.69 620.886,-119.506"/>
<polygon fill="midnightblue" stroke="midnightblue" points="529.452,-149.67 521.293,-156.428 531.886,-156.234 529.452,-149.67"/>
</g>
<!-- Node7&#45;&gt;Node5 -->
<g id="edge9" class="edge"><title>Node7&#45;&gt;Node5</title>
<path fill="none" stroke="midnightblue" d="M475.102,-129.63C475.424,-138.622 475.22,-148.272 474.488,-156.428"/>
<polygon fill="midnightblue" stroke="midnightblue" points="478.587,-129.273 474.482,-119.506 471.6,-129.701 478.587,-129.273"/>
</g>
<!-- Node9 -->
<g id="node9" class="node"><title>Node9</title>
<g id="a_node9"><a xlink:href="a00083.html" target="_top" xlink:title="/home/travis/build\l/STORM&#45;IRIT/OpenGR/src\l/gr/algorithms/FunctorSuper4pcs.h">
<polygon fill="white" stroke="black" points="582.5,-0.5 582.5,-41.5 764.5,-41.5 764.5,-0.5 582.5,-0.5"/>
<text text-anchor="start" x="590.5" y="-29.5" font-family="Helvetica,sans-Serif" font-size="10.00">/home/travis/build</text>
<text text-anchor="start" x="590.5" y="-18.5" font-family="Helvetica,sans-Serif" font-size="10.00">/STORM&#45;IRIT/OpenGR/src</text>
<text text-anchor="middle" x="673.5" y="-7.5" font-family="Helvetica,sans-Serif" font-size="10.00">/gr/algorithms/FunctorSuper4pcs.h</text>
</a>
</g>
</g>
<!-- Node8&#45;&gt;Node9 -->
<g id="edge11" class="edge"><title>Node8&#45;&gt;Node9</title>
<path fill="none" stroke="midnightblue" d="M673.5,-68.2965C673.5,-59.3009 673.5,-49.6532 673.5,-41.5056"/>
<polygon fill="midnightblue" stroke="midnightblue" points="670,-68.4281 673.5,-78.4281 677,-68.4281 670,-68.4281"/>
</g>
</g>
</svg>
