<?xml version="1.0" encoding="UTF-8" standalone="no"?>
<!DOCTYPE svg PUBLIC "-//W3C//DTD SVG 1.1//EN"
 "http://www.w3.org/Graphics/SVG/1.1/DTD/svg11.dtd">
<!-- Generated by graphviz version 2.38.0 (20140413.2041)
 -->
<!-- Title: TBase Pages: 1 -->
<!--zoomable 237 -->
<svg id="main" version="1.1" xmlns="http://www.w3.org/2000/svg" xmlns:xlink="http://www.w3.org/1999/xlink" xml:space="preserve" onload="init(evt)">
<style type="text/css"><![CDATA[
.edge:hover path { stroke: red; }
.edge:hover polygon { stroke: red; fill: red; }
]]></style>
<script type="text/javascript"><![CDATA[
var edges = document.getElementsByTagName('g');
if (edges && edges.length) {
  for (var i=0;i<edges.length;i++) {
    if (edges[i].id.substr(0,4)=='edge') {
      edges[i].setAttribute('class','edge');
    }
  }
}
]]></script>
        <defs>
                <circle id="rim" cx="0" cy="0" r="7"/>
                <circle id="rim2" cx="0" cy="0" r="3.5"/>
                <g id="zoomPlus">
                        <use xlink:href="#rim" fill="#404040">
                                <set attributeName="fill" to="#808080" begin="zoomplus.mouseover" end="zoomplus.mouseout"/>
                        </use>
                        <path d="M-4,0h8M0,-4v8" fill="none" stroke="white" stroke-width="1.5" pointer-events="none"/>
                </g>
                <g id="zoomMin">
                        <use xlink:href="#rim" fill="#404040">
                                <set attributeName="fill" to="#808080" begin="zoomminus.mouseover" end="zoomminus.mouseout"/>
                        </use>
                        <path d="M-4,0h8" fill="none" stroke="white" stroke-width="1.5" pointer-events="none"/>
                </g>
                <g id="dirArrow">
                        <path fill="none" stroke="white" stroke-width="1.5" d="M0,-3.0v7 M-2.5,-0.5L0,-3.0L2.5,-0.5"/>
                </g>
               <g id="resetDef">
                       <use xlink:href="#rim2" fill="#404040">
                               <set attributeName="fill" to="#808080" begin="reset.mouseover" end="reset.mouseout"/>
                       </use>
               </g>
        </defs>

<script type="text/javascript">
var viewWidth = 860;
var viewHeight = 237;
var sectionId = 'dynsection-0';
</script>
<script xlink:href="svgpan.js"/>
<svg id="graph" class="graph">
<g id="viewport">
<title>TBase</title>
<polygon fill="white" stroke="none" points="-4,4 -4,-233 856,-233 856,4 -4,4"/>
<!-- Node1 -->
<g id="node1" class="node"><title>Node1</title>
<polygon fill="#bfbfbf" stroke="black" points="396,-171.5 396,-228.5 442,-228.5 442,-171.5 396,-171.5"/>
<text text-anchor="middle" x="419" y="-216.5" font-family="Helvetica,sans-Serif" font-size="10.00">TBase</text>
<polyline fill="none" stroke="black" points="396,-209.5 442,-209.5 "/>
<text text-anchor="middle" x="419" y="-197.5" font-family="Helvetica,sans-Serif" font-size="10.00"> </text>
<polyline fill="none" stroke="black" points="396,-190.5 442,-190.5 "/>
<text text-anchor="middle" x="419" y="-178.5" font-family="Helvetica,sans-Serif" font-size="10.00"> </text>
</g>
<!-- Node2 -->
<g id="node2" class="node"><title>Node2</title>
<g id="a_node2"><a xlink:href="a00040.html" target="_top" xlink:title="{gr::AdaptivePointFilter\l::Options\&lt; Derived, TBase \&gt;\n|+ max_color_distance\l+ max_normal_difference\l|}">
<polygon fill="white" stroke="black" points="0,-28 0,-107 154,-107 154,-28 0,-28"/>
<text text-anchor="start" x="8" y="-95" font-family="Helvetica,sans-Serif" font-size="10.00">gr::AdaptivePointFilter</text>
<text text-anchor="middle" x="77" y="-84" font-family="Helvetica,sans-Serif" font-size="10.00">::Options&lt; Derived, TBase &gt;</text>
<polyline fill="none" stroke="black" points="0,-77 154,-77 "/>
<text text-anchor="start" x="8" y="-65" font-family="Helvetica,sans-Serif" font-size="10.00">+ max_color_distance</text>
<text text-anchor="start" x="8" y="-54" font-family="Helvetica,sans-Serif" font-size="10.00">+ max_normal_difference</text>
<polyline fill="none" stroke="black" points="0,-47 154,-47 "/>
<text text-anchor="middle" x="77" y="-35" font-family="Helvetica,sans-Serif" font-size="10.00"> </text>
</a>
</g>
</g>
<!-- Node1&#45;&gt;Node2 -->
<g id="edge1" class="edge"><title>Node1&#45;&gt;Node2</title>
<path fill="none" stroke="midnightblue" d="M385.655,-195.123C335.315,-188.306 237.848,-171.304 163,-135 147.886,-127.669 132.887,-117.398 119.749,-107.118"/>
<polygon fill="none" stroke="midnightblue" points="385.288,-198.605 395.656,-196.426 386.192,-191.663 385.288,-198.605"/>
</g>
<!-- Node3 -->
<g id="node3" class="node"><title>Node3</title>
<g id="a_node3"><a xlink:href="a00018.html" target="_top" xlink:title="{gr::CongruentSetExploration\lOptions\&lt; Derived, TBase \&gt;\n||+ configureOverlap()\l+ getOverlapEstimation()\l+ getTerminateThreshold()\l}">
<polygon fill="white" stroke="black" points="172,-22.5 172,-112.5 324,-112.5 324,-22.5 172,-22.5"/>
<text text-anchor="start" x="180" y="-100.5" font-family="Helvetica,sans-Serif" font-size="10.00">gr::CongruentSetExploration</text>
<text text-anchor="middle" x="248" y="-89.5" font-family="Helvetica,sans-Serif" font-size="10.00">Options&lt; Derived, TBase &gt;</text>
<polyline fill="none" stroke="black" points="172,-82.5 324,-82.5 "/>
<text text-anchor="middle" x="248" y="-70.5" font-family="Helvetica,sans-Serif" font-size="10.00"> </text>
<polyline fill="none" stroke="black" points="172,-63.5 324,-63.5 "/>
<text text-anchor="start" x="180" y="-51.5" font-family="Helvetica,sans-Serif" font-size="10.00">+ configureOverlap()</text>
<text text-anchor="start" x="180" y="-40.5" font-family="Helvetica,sans-Serif" font-size="10.00">+ getOverlapEstimation()</text>
<text text-anchor="start" x="180" y="-29.5" font-family="Helvetica,sans-Serif" font-size="10.00">+ getTerminateThreshold()</text>
</a>
</g>
</g>
<!-- Node1&#45;&gt;Node3 -->
<g id="edge2" class="edge"><title>Node1&#45;&gt;Node3</title>
<path fill="none" stroke="midnightblue" d="M387.724,-176.006C371.353,-163.899 351.017,-148.749 333,-135 323.616,-127.839 313.703,-120.175 304.09,-112.69"/>
<polygon fill="none" stroke="midnightblue" points="385.767,-178.912 395.891,-182.036 389.926,-173.281 385.767,-178.912"/>
</g>
<!-- Node4 -->
<g id="node4" class="node"><title>Node4</title>
<g id="a_node4"><a xlink:href="a00041.html" target="_top" xlink:title="{gr::DummyPointFilter\l::Options\&lt; Derived, TBase \&gt;\n|+ dummyFilteringResponse\l|}">
<polygon fill="white" stroke="black" points="342,-33.5 342,-101.5 496,-101.5 496,-33.5 342,-33.5"/>
<text text-anchor="start" x="350" y="-89.5" font-family="Helvetica,sans-Serif" font-size="10.00">gr::DummyPointFilter</text>
<text text-anchor="middle" x="419" y="-78.5" font-family="Helvetica,sans-Serif" font-size="10.00">::Options&lt; Derived, TBase &gt;</text>
<polyline fill="none" stroke="black" points="342,-71.5 496,-71.5 "/>
<text text-anchor="start" x="350" y="-59.5" font-family="Helvetica,sans-Serif" font-size="10.00">+ dummyFilteringResponse</text>
<polyline fill="none" stroke="black" points="342,-52.5 496,-52.5 "/>
<text text-anchor="middle" x="419" y="-40.5" font-family="Helvetica,sans-Serif" font-size="10.00"> </text>
</a>
</g>
</g>
<!-- Node1&#45;&gt;Node4 -->
<g id="edge3" class="edge"><title>Node1&#45;&gt;Node4</title>
<path fill="none" stroke="midnightblue" d="M419,-161.295C419,-142.454 419,-119.86 419,-101.684"/>
<polygon fill="none" stroke="midnightblue" points="415.5,-161.324 419,-171.324 422.5,-161.324 415.5,-161.324"/>
</g>
<!-- Node5 -->
<g id="node5" class="node"><title>Node5</title>
<g id="a_node5"><a xlink:href="a00039.html" target="_top" xlink:title="{gr::MatchBase\&lt; PointType,\l _TransformVisitor, OptExts\l \&gt;::Options\&lt; Derived, TBase \&gt;\n|+ delta\l+ max_angle\l+ max_time_seconds\l+ max_translation_distance\l+ randomSeed\l+ sample_size\l|}">
<polygon fill="white" stroke="black" points="514.5,-0.5 514.5,-134.5 679.5,-134.5 679.5,-0.5 514.5,-0.5"/>
<text text-anchor="start" x="522.5" y="-122.5" font-family="Helvetica,sans-Serif" font-size="10.00">gr::MatchBase&lt; PointType,</text>
<text text-anchor="start" x="522.5" y="-111.5" font-family="Helvetica,sans-Serif" font-size="10.00"> _TransformVisitor, OptExts</text>
<text text-anchor="middle" x="597" y="-100.5" font-family="Helvetica,sans-Serif" font-size="10.00"> &gt;::Options&lt; Derived, TBase &gt;</text>
<polyline fill="none" stroke="black" points="514.5,-93.5 679.5,-93.5 "/>
<text text-anchor="start" x="522.5" y="-81.5" font-family="Helvetica,sans-Serif" font-size="10.00">+ delta</text>
<text text-anchor="start" x="522.5" y="-70.5" font-family="Helvetica,sans-Serif" font-size="10.00">+ max_angle</text>
<text text-anchor="start" x="522.5" y="-59.5" font-family="Helvetica,sans-Serif" font-size="10.00">+ max_time_seconds</text>
<text text-anchor="start" x="522.5" y="-48.5" font-family="Helvetica,sans-Serif" font-size="10.00">+ max_translation_distance</text>
<text text-anchor="start" x="522.5" y="-37.5" font-family="Helvetica,sans-Serif" font-size="10.00">+ randomSeed</text>
<text text-anchor="start" x="522.5" y="-26.5" font-family="Helvetica,sans-Serif" font-size="10.00">+ sample_size</text>
<polyline fill="none" stroke="black" points="514.5,-19.5 679.5,-19.5 "/>
<text text-anchor="middle" x="597" y="-7.5" font-family="Helvetica,sans-Serif" font-size="10.00"> </text>
</a>
</g>
</g>
<!-- Node1&#45;&gt;Node5 -->
<g id="edge4" class="edge"><title>Node1&#45;&gt;Node5</title>
<path fill="none" stroke="midnightblue" d="M450.588,-175.842C468.466,-162.734 491.736,-145.674 514.444,-129.025"/>
<polygon fill="none" stroke="midnightblue" points="448.266,-173.204 442.27,-181.939 452.405,-178.849 448.266,-173.204"/>
</g>
<!-- Node6 -->
<g id="node6" class="node"><title>Node6</title>
<g id="a_node6"><a xlink:href="a00042.html" target="_top" xlink:title="{gr::PairFilterConcept\l::Options\&lt; Derived, TBase \&gt;\n||}">
<polygon fill="white" stroke="black" points="698,-33.5 698,-101.5 852,-101.5 852,-33.5 698,-33.5"/>
<text text-anchor="start" x="706" y="-89.5" font-family="Helvetica,sans-Serif" font-size="10.00">gr::PairFilterConcept</text>
<text text-anchor="middle" x="775" y="-78.5" font-family="Helvetica,sans-Serif" font-size="10.00">::Options&lt; Derived, TBase &gt;</text>
<polyline fill="none" stroke="black" points="698,-71.5 852,-71.5 "/>
<text text-anchor="middle" x="775" y="-59.5" font-family="Helvetica,sans-Serif" font-size="10.00"> </text>
<polyline fill="none" stroke="black" points="698,-52.5 852,-52.5 "/>
<text text-anchor="middle" x="775" y="-40.5" font-family="Helvetica,sans-Serif" font-size="10.00"> </text>
</a>
</g>
</g>
<!-- Node1&#45;&gt;Node6 -->
<g id="edge5" class="edge"><title>Node1&#45;&gt;Node6</title>
<path fill="none" stroke="midnightblue" d="M452.218,-195.707C504.711,-189.517 609.083,-173.16 689,-135 706.883,-126.461 724.564,-113.739 739.2,-101.703"/>
<polygon fill="none" stroke="midnightblue" points="451.677,-192.246 442.133,-196.846 452.462,-199.202 451.677,-192.246"/>
</g>
</g>
</svg>
        <g id="navigator" transform="translate(0 0)" fill="#404254">
                <rect fill="#f2f5e9" fill-opacity="0.5" stroke="#606060" stroke-width=".5" x="0" y="0" width="60" height="60"/>
                <use id="zoomplus" xlink:href="#zoomPlus" x="17" y="9" onmousedown="handleZoom(evt,'in')"/>
                <use id="zoomminus" xlink:href="#zoomMin" x="42" y="9" onmousedown="handleZoom(evt,'out')"/>
                <use id="reset" xlink:href="#resetDef" x="30" y="36" onmousedown="handleReset()"/>
                <g id="arrowUp" xlink:href="#dirArrow" transform="translate(30 24)" onmousedown="handlePan(0,-1)">
                  <use xlink:href="#rim" fill="#404040">
                        <set attributeName="fill" to="#808080" begin="arrowUp.mouseover" end="arrowUp.mouseout"/>
                  </use>
                  <path fill="none" stroke="white" stroke-width="1.5" d="M0,-3.0v7 M-2.5,-0.5L0,-3.0L2.5,-0.5"/>
                </g>
                <g id="arrowRight" xlink:href="#dirArrow" transform="rotate(90) translate(36 -43)" onmousedown="handlePan(1,0)">
                  <use xlink:href="#rim" fill="#404040">
                        <set attributeName="fill" to="#808080" begin="arrowRight.mouseover" end="arrowRight.mouseout"/>
                  </use>
                  <path fill="none" stroke="white" stroke-width="1.5" d="M0,-3.0v7 M-2.5,-0.5L0,-3.0L2.5,-0.5"/>
                </g>
                <g id="arrowDown" xlink:href="#dirArrow" transform="rotate(180) translate(-30 -48)" onmousedown="handlePan(0,1)">
                  <use xlink:href="#rim" fill="#404040">
                        <set attributeName="fill" to="#808080" begin="arrowDown.mouseover" end="arrowDown.mouseout"/>
                  </use>
                  <path fill="none" stroke="white" stroke-width="1.5" d="M0,-3.0v7 M-2.5,-0.5L0,-3.0L2.5,-0.5"/>
                </g>
                <g id="arrowLeft" xlink:href="#dirArrow" transform="rotate(270) translate(-36 17)" onmousedown="handlePan(-1,0)">
                  <use xlink:href="#rim" fill="#404040">
                        <set attributeName="fill" to="#808080" begin="arrowLeft.mouseover" end="arrowLeft.mouseout"/>
                  </use>
                  <path fill="none" stroke="white" stroke-width="1.5" d="M0,-3.0v7 M-2.5,-0.5L0,-3.0L2.5,-0.5"/>
                </g>
        </g>
        <svg viewBox="0 0 15 15" width="100%" height="30px" preserveAspectRatio="xMaxYMin meet">
         <g id="arrow_out" transform="scale(0.3 0.3)">
          <a xlink:href="a00154_org.svg" target="_base">
           <rect id="button" ry="5" rx="5" y="6" x="6" height="38" width="38"
                fill="#f2f5e9" fill-opacity="0.5" stroke="#606060" stroke-width="1.0"/>
           <path id="arrow"
             d="M 11.500037,31.436501 C 11.940474,20.09759 22.043105,11.32322 32.158766,21.979434 L 37.068811,17.246167 C 37.068811,17.246167 37.088388,32 37.088388,32 L 22.160133,31.978069 C 22.160133,31.978069 26.997745,27.140456 26.997745,27.140456 C 18.528582,18.264221 13.291696,25.230495 11.500037,31.436501 z"
             style="fill:#404040;"/>
          </a>
         </g>
        </svg>
</svg>
