<?xml version="1.0" encoding="UTF-8" standalone="no"?>
<!DOCTYPE svg PUBLIC "-//W3C//DTD SVG 1.1//EN"
 "http://www.w3.org/Graphics/SVG/1.1/DTD/svg11.dtd">
<!-- Generated by graphviz version 2.38.0 (20140413.2041)
 -->
<!-- Title: /home/travis/build/STORM&#45;IRIT/OpenGR/src/gr/accelerators/normalset.h Pages: 1 -->
<svg width="604pt" height="218pt"
 viewBox="0.00 0.00 604.00 218.00" xmlns="http://www.w3.org/2000/svg" xmlns:xlink="http://www.w3.org/1999/xlink">
<g id="graph0" class="graph" transform="scale(1 1) rotate(0) translate(4 214)">
<title>/home/travis/build/STORM&#45;IRIT/OpenGR/src/gr/accelerators/normalset.h</title>
<polygon fill="white" stroke="none" points="-4,4 -4,-214 600,-214 600,4 -4,4"/>
<!-- Node1 -->
<g id="node1" class="node"><title>Node1</title>
<polygon fill="#bfbfbf" stroke="black" points="233.5,-168.5 233.5,-209.5 385.5,-209.5 385.5,-168.5 233.5,-168.5"/>
<text text-anchor="start" x="241.5" y="-197.5" font-family="Helvetica,sans-Serif" font-size="10.00">/home/travis/build</text>
<text text-anchor="start" x="241.5" y="-186.5" font-family="Helvetica,sans-Serif" font-size="10.00">/STORM&#45;IRIT/OpenGR/src</text>
<text text-anchor="middle" x="309.5" y="-175.5" font-family="Helvetica,sans-Serif" font-size="10.00">/gr/accelerators/normalset.h</text>
</g>
<!-- Node2 -->
<g id="node2" class="node"><title>Node2</title>
<g id="a_node2"><a xlink:href="a00095.html" target="_top" xlink:title="gr/utils/disablewarnings.h">
<polygon fill="white" stroke="black" points="0,-112.5 0,-131.5 137,-131.5 137,-112.5 0,-112.5"/>
<text text-anchor="middle" x="68.5" y="-119.5" font-family="Helvetica,sans-Serif" font-size="10.00">gr/utils/disablewarnings.h</text>
</a>
</g>
</g>
<!-- Node1&#45;&gt;Node2 -->
<g id="edge1" class="edge"><title>Node1&#45;&gt;Node2</title>
<path fill="none" stroke="midnightblue" d="M237.192,-168.498C195.675,-157.3 145.02,-143.638 110.116,-134.224"/>
<polygon fill="midnightblue" stroke="midnightblue" points="110.831,-130.792 100.264,-131.567 109.008,-137.55 110.831,-130.792"/>
</g>
<!-- Node3 -->
<g id="node3" class="node"><title>Node3</title>
<g id="a_node3"><a xlink:href="a00078.html" target="_top" xlink:title="gr/accelerators/utils.h">
<polygon fill="white" stroke="black" points="193.5,-56.5 193.5,-75.5 313.5,-75.5 313.5,-56.5 193.5,-56.5"/>
<text text-anchor="middle" x="253.5" y="-63.5" font-family="Helvetica,sans-Serif" font-size="10.00">gr/accelerators/utils.h</text>
</a>
</g>
</g>
<!-- Node1&#45;&gt;Node3 -->
<g id="edge2" class="edge"><title>Node1&#45;&gt;Node3</title>
<path fill="none" stroke="midnightblue" d="M300.378,-168.29C289.676,-145.166 272.086,-107.16 261.768,-84.8641"/>
<polygon fill="midnightblue" stroke="midnightblue" points="264.845,-83.18 257.469,-75.5748 258.492,-86.1201 264.845,-83.18"/>
</g>
<!-- Node6 -->
<g id="node6" class="node"><title>Node6</title>
<polygon fill="white" stroke="#bfbfbf" points="127,-0.5 127,-19.5 174,-19.5 174,-0.5 127,-0.5"/>
<text text-anchor="middle" x="150.5" y="-7.5" font-family="Helvetica,sans-Serif" font-size="10.00">cmath</text>
</g>
<!-- Node1&#45;&gt;Node6 -->
<g id="edge9" class="edge"><title>Node1&#45;&gt;Node6</title>
<path fill="none" stroke="midnightblue" d="M282.534,-168.475C255.317,-147.782 213.302,-113.03 184.5,-76 173.16,-61.4208 163.756,-42.4986 157.735,-28.8336"/>
<polygon fill="midnightblue" stroke="midnightblue" points="160.934,-27.4126 153.813,-19.5676 154.488,-30.1409 160.934,-27.4126"/>
</g>
<!-- Node7 -->
<g id="node7" class="node"><title>Node7</title>
<polygon fill="white" stroke="#bfbfbf" points="337,-0.5 337,-19.5 378,-19.5 378,-0.5 337,-0.5"/>
<text text-anchor="middle" x="357.5" y="-7.5" font-family="Helvetica,sans-Serif" font-size="10.00">array</text>
</g>
<!-- Node1&#45;&gt;Node7 -->
<g id="edge8" class="edge"><title>Node1&#45;&gt;Node7</title>
<path fill="none" stroke="midnightblue" d="M314.82,-168.382C324.162,-133.932 343.387,-63.0422 352.499,-29.4424"/>
<polygon fill="midnightblue" stroke="midnightblue" points="355.933,-30.1513 355.172,-19.5838 349.177,-28.3191 355.933,-30.1513"/>
</g>
<!-- Node8 -->
<g id="node8" class="node"><title>Node8</title>
<polygon fill="white" stroke="#bfbfbf" points="549,-112.5 549,-131.5 596,-131.5 596,-112.5 549,-112.5"/>
<text text-anchor="middle" x="572.5" y="-119.5" font-family="Helvetica,sans-Serif" font-size="10.00">vector</text>
</g>
<!-- Node1&#45;&gt;Node8 -->
<g id="edge7" class="edge"><title>Node1&#45;&gt;Node8</title>
<path fill="none" stroke="midnightblue" d="M385.624,-170.28C428.281,-160.178 482.67,-147.013 538.972,-132.341"/>
<polygon fill="midnightblue" stroke="midnightblue" points="539.972,-135.698 548.76,-129.78 538.2,-128.925 539.972,-135.698"/>
</g>
<!-- Node9 -->
<g id="node9" class="node"><title>Node9</title>
<g id="a_node9"><a xlink:href="a00073.html" target="_top" xlink:title="gr/accelerators/normalset.hpp">
<polygon fill="white" stroke="black" points="370,-112.5 370,-131.5 531,-131.5 531,-112.5 370,-112.5"/>
<text text-anchor="middle" x="450.5" y="-119.5" font-family="Helvetica,sans-Serif" font-size="10.00">gr/accelerators/normalset.hpp</text>
</a>
</g>
</g>
<!-- Node1&#45;&gt;Node9 -->
<g id="edge10" class="edge"><title>Node1&#45;&gt;Node9</title>
<path fill="none" stroke="midnightblue" d="M351.805,-168.498C374.67,-157.957 402.272,-145.233 422.466,-135.923"/>
<polygon fill="midnightblue" stroke="midnightblue" points="424.115,-139.018 431.731,-131.652 421.184,-132.661 424.115,-139.018"/>
</g>
<!-- Node4 -->
<g id="node4" class="node"><title>Node4</title>
<polygon fill="white" stroke="#bfbfbf" points="192.5,-0.5 192.5,-19.5 236.5,-19.5 236.5,-0.5 192.5,-0.5"/>
<text text-anchor="middle" x="214.5" y="-7.5" font-family="Helvetica,sans-Serif" font-size="10.00">string</text>
</g>
<!-- Node3&#45;&gt;Node4 -->
<g id="edge3" class="edge"><title>Node3&#45;&gt;Node4</title>
<path fill="none" stroke="midnightblue" d="M247.06,-56.083C241.551,-48.4554 233.469,-37.2645 226.735,-27.9408"/>
<polygon fill="midnightblue" stroke="midnightblue" points="229.513,-25.8087 220.82,-19.7511 223.838,-29.9071 229.513,-25.8087"/>
</g>
<!-- Node5 -->
<g id="node5" class="node"><title>Node5</title>
<polygon fill="white" stroke="#bfbfbf" points="254.5,-0.5 254.5,-19.5 318.5,-19.5 318.5,-0.5 254.5,-0.5"/>
<text text-anchor="middle" x="286.5" y="-7.5" font-family="Helvetica,sans-Serif" font-size="10.00">stdexcept</text>
</g>
<!-- Node3&#45;&gt;Node5 -->
<g id="edge4" class="edge"><title>Node3&#45;&gt;Node5</title>
<path fill="none" stroke="midnightblue" d="M258.949,-56.083C263.514,-48.6127 270.168,-37.7244 275.793,-28.5199"/>
<polygon fill="midnightblue" stroke="midnightblue" points="278.924,-30.109 281.152,-19.7511 272.951,-26.4588 278.924,-30.109"/>
</g>
<!-- Node3&#45;&gt;Node6 -->
<g id="edge5" class="edge"><title>Node3&#45;&gt;Node6</title>
<path fill="none" stroke="midnightblue" d="M236.951,-56.324C220.508,-47.7034 195.065,-34.3643 176.032,-24.3855"/>
<polygon fill="midnightblue" stroke="midnightblue" points="177.489,-21.198 167.008,-19.6545 174.239,-27.3977 177.489,-21.198"/>
</g>
<!-- Node3&#45;&gt;Node7 -->
<g id="edge6" class="edge"><title>Node3&#45;&gt;Node7</title>
<path fill="none" stroke="midnightblue" d="M270.209,-56.324C286.812,-47.7034 312.502,-34.3643 331.72,-24.3855"/>
<polygon fill="midnightblue" stroke="midnightblue" points="333.57,-27.3689 340.832,-19.6545 330.344,-21.1565 333.57,-27.3689"/>
</g>
<!-- Node9&#45;&gt;Node3 -->
<g id="edge14" class="edge"><title>Node9&#45;&gt;Node3</title>
<path fill="none" stroke="midnightblue" d="M419.285,-112.444C385.567,-103.201 331.7,-88.4356 294.568,-78.2572"/>
<polygon fill="midnightblue" stroke="midnightblue" points="295.139,-74.7846 284.569,-75.5164 293.288,-81.5356 295.139,-74.7846"/>
</g>
<!-- Node10 -->
<g id="node10" class="node"><title>Node10</title>
<polygon fill="white" stroke="#bfbfbf" points="370,-56.5 370,-75.5 421,-75.5 421,-56.5 370,-56.5"/>
<text text-anchor="middle" x="395.5" y="-63.5" font-family="Helvetica,sans-Serif" font-size="10.00">math.h</text>
</g>
<!-- Node9&#45;&gt;Node10 -->
<g id="edge11" class="edge"><title>Node9&#45;&gt;Node10</title>
<path fill="none" stroke="midnightblue" d="M441.418,-112.083C433.329,-104.141 421.305,-92.3354 411.59,-82.7973"/>
<polygon fill="midnightblue" stroke="midnightblue" points="414.001,-80.2595 404.413,-75.7511 409.097,-85.2545 414.001,-80.2595"/>
</g>
<!-- Node11 -->
<g id="node11" class="node"><title>Node11</title>
<polygon fill="white" stroke="#bfbfbf" points="439.5,-56.5 439.5,-75.5 471.5,-75.5 471.5,-56.5 439.5,-56.5"/>
<text text-anchor="middle" x="455.5" y="-63.5" font-family="Helvetica,sans-Serif" font-size="10.00">set</text>
</g>
<!-- Node9&#45;&gt;Node11 -->
<g id="edge12" class="edge"><title>Node9&#45;&gt;Node11</title>
<path fill="none" stroke="midnightblue" d="M451.326,-112.083C451.981,-105.006 452.92,-94.8611 453.742,-85.9865"/>
<polygon fill="midnightblue" stroke="midnightblue" points="457.253,-86.0312 454.69,-75.7511 450.283,-85.3858 457.253,-86.0312"/>
</g>
<!-- Node12 -->
<g id="node12" class="node"><title>Node12</title>
<polygon fill="white" stroke="#bfbfbf" points="489.5,-56.5 489.5,-75.5 583.5,-75.5 583.5,-56.5 489.5,-56.5"/>
<text text-anchor="middle" x="536.5" y="-63.5" font-family="Helvetica,sans-Serif" font-size="10.00">Eigen/Geometry</text>
</g>
<!-- Node9&#45;&gt;Node12 -->
<g id="edge13" class="edge"><title>Node9&#45;&gt;Node12</title>
<path fill="none" stroke="midnightblue" d="M464.317,-112.324C477.733,-103.9 498.324,-90.9709 514.086,-81.0741"/>
<polygon fill="midnightblue" stroke="midnightblue" points="516.109,-83.9364 522.717,-75.6545 512.387,-78.0081 516.109,-83.9364"/>
</g>
</g>
</svg>
