<?xml version="1.0" encoding="UTF-8" standalone="no"?>
<!DOCTYPE svg PUBLIC "-//W3C//DTD SVG 1.1//EN"
 "http://www.w3.org/Graphics/SVG/1.1/DTD/svg11.dtd">
<!-- Generated by graphviz version 2.38.0 (20140413.2041)
 -->
<!-- Title: /home/travis/build/STORM&#45;IRIT/OpenGR/src/gr/accelerators/normalset.hpp Pages: 1 -->
<svg width="419pt" height="162pt"
 viewBox="0.00 0.00 419.00 162.00" xmlns="http://www.w3.org/2000/svg" xmlns:xlink="http://www.w3.org/1999/xlink">
<g id="graph0" class="graph" transform="scale(1 1) rotate(0) translate(4 158)">
<title>/home/travis/build/STORM&#45;IRIT/OpenGR/src/gr/accelerators/normalset.hpp</title>
<polygon fill="white" stroke="none" points="-4,4 -4,-158 415,-158 415,4 -4,4"/>
<!-- Node1 -->
<g id="node1" class="node"><title>Node1</title>
<polygon fill="#bfbfbf" stroke="black" points="43.5,-112.5 43.5,-153.5 207.5,-153.5 207.5,-112.5 43.5,-112.5"/>
<text text-anchor="start" x="51.5" y="-141.5" font-family="Helvetica,sans-Serif" font-size="10.00">/home/travis/build</text>
<text text-anchor="start" x="51.5" y="-130.5" font-family="Helvetica,sans-Serif" font-size="10.00">/STORM&#45;IRIT/OpenGR/src</text>
<text text-anchor="middle" x="125.5" y="-119.5" font-family="Helvetica,sans-Serif" font-size="10.00">/gr/accelerators/normalset.hpp</text>
</g>
<!-- Node2 -->
<g id="node2" class="node"><title>Node2</title>
<polygon fill="white" stroke="#bfbfbf" points="-3.55271e-15,-56.5 -3.55271e-15,-75.5 51,-75.5 51,-56.5 -3.55271e-15,-56.5"/>
<text text-anchor="middle" x="25.5" y="-63.5" font-family="Helvetica,sans-Serif" font-size="10.00">math.h</text>
</g>
<!-- Node1&#45;&gt;Node2 -->
<g id="edge1" class="edge"><title>Node1&#45;&gt;Node2</title>
<path fill="none" stroke="midnightblue" d="M95.4967,-112.498C80.0174,-102.436 61.4767,-90.3849 47.367,-81.2136"/>
<polygon fill="midnightblue" stroke="midnightblue" points="49.1035,-78.1679 38.8115,-75.6525 45.2885,-84.037 49.1035,-78.1679"/>
</g>
<!-- Node3 -->
<g id="node3" class="node"><title>Node3</title>
<polygon fill="white" stroke="#bfbfbf" points="69.5,-56.5 69.5,-75.5 101.5,-75.5 101.5,-56.5 69.5,-56.5"/>
<text text-anchor="middle" x="85.5" y="-63.5" font-family="Helvetica,sans-Serif" font-size="10.00">set</text>
</g>
<!-- Node1&#45;&gt;Node3 -->
<g id="edge2" class="edge"><title>Node1&#45;&gt;Node3</title>
<path fill="none" stroke="midnightblue" d="M113.499,-112.498C107.956,-103.49 101.431,-92.8881 96.0755,-84.1852"/>
<polygon fill="midnightblue" stroke="midnightblue" points="99.0464,-82.3347 90.8246,-75.6525 93.0848,-86.0034 99.0464,-82.3347"/>
</g>
<!-- Node4 -->
<g id="node4" class="node"><title>Node4</title>
<polygon fill="white" stroke="#bfbfbf" points="119.5,-56.5 119.5,-75.5 213.5,-75.5 213.5,-56.5 119.5,-56.5"/>
<text text-anchor="middle" x="166.5" y="-63.5" font-family="Helvetica,sans-Serif" font-size="10.00">Eigen/Geometry</text>
</g>
<!-- Node1&#45;&gt;Node4 -->
<g id="edge3" class="edge"><title>Node1&#45;&gt;Node4</title>
<path fill="none" stroke="midnightblue" d="M137.801,-112.498C143.483,-103.49 150.171,-92.8881 155.66,-84.1852"/>
<polygon fill="midnightblue" stroke="midnightblue" points="158.667,-85.9778 161.042,-75.6525 152.747,-82.2432 158.667,-85.9778"/>
</g>
<!-- Node5 -->
<g id="node5" class="node"><title>Node5</title>
<g id="a_node5"><a xlink:href="a00078.html" target="_top" xlink:title="gr/accelerators/utils.h">
<polygon fill="white" stroke="black" points="231.5,-56.5 231.5,-75.5 351.5,-75.5 351.5,-56.5 231.5,-56.5"/>
<text text-anchor="middle" x="291.5" y="-63.5" font-family="Helvetica,sans-Serif" font-size="10.00">gr/accelerators/utils.h</text>
</a>
</g>
</g>
<!-- Node1&#45;&gt;Node5 -->
<g id="edge4" class="edge"><title>Node1&#45;&gt;Node5</title>
<path fill="none" stroke="midnightblue" d="M175.305,-112.498C202.714,-101.766 235.905,-88.7691 259.783,-79.4192"/>
<polygon fill="midnightblue" stroke="midnightblue" points="261.367,-82.5577 269.403,-75.6525 258.815,-76.0396 261.367,-82.5577"/>
</g>
<!-- Node6 -->
<g id="node6" class="node"><title>Node6</title>
<polygon fill="white" stroke="#bfbfbf" points="160.5,-0.5 160.5,-19.5 204.5,-19.5 204.5,-0.5 160.5,-0.5"/>
<text text-anchor="middle" x="182.5" y="-7.5" font-family="Helvetica,sans-Serif" font-size="10.00">string</text>
</g>
<!-- Node5&#45;&gt;Node6 -->
<g id="edge5" class="edge"><title>Node5&#45;&gt;Node6</title>
<path fill="none" stroke="midnightblue" d="M273.987,-56.324C256.428,-47.6247 229.169,-34.1202 208.969,-24.113"/>
<polygon fill="midnightblue" stroke="midnightblue" points="210.484,-20.9575 199.969,-19.6545 207.376,-27.23 210.484,-20.9575"/>
</g>
<!-- Node7 -->
<g id="node7" class="node"><title>Node7</title>
<polygon fill="white" stroke="#bfbfbf" points="222.5,-0.5 222.5,-19.5 286.5,-19.5 286.5,-0.5 222.5,-0.5"/>
<text text-anchor="middle" x="254.5" y="-7.5" font-family="Helvetica,sans-Serif" font-size="10.00">stdexcept</text>
</g>
<!-- Node5&#45;&gt;Node7 -->
<g id="edge6" class="edge"><title>Node5&#45;&gt;Node7</title>
<path fill="none" stroke="midnightblue" d="M285.39,-56.083C280.218,-48.5341 272.654,-37.4948 266.306,-28.2298"/>
<polygon fill="midnightblue" stroke="midnightblue" points="269.036,-26.0221 260.496,-19.7511 263.261,-29.9787 269.036,-26.0221"/>
</g>
<!-- Node8 -->
<g id="node8" class="node"><title>Node8</title>
<polygon fill="white" stroke="#bfbfbf" points="305,-0.5 305,-19.5 352,-19.5 352,-0.5 305,-0.5"/>
<text text-anchor="middle" x="328.5" y="-7.5" font-family="Helvetica,sans-Serif" font-size="10.00">cmath</text>
</g>
<!-- Node5&#45;&gt;Node8 -->
<g id="edge7" class="edge"><title>Node5&#45;&gt;Node8</title>
<path fill="none" stroke="midnightblue" d="M297.61,-56.083C302.782,-48.5341 310.346,-37.4948 316.694,-28.2298"/>
<polygon fill="midnightblue" stroke="midnightblue" points="319.739,-29.9787 322.504,-19.7511 313.964,-26.0221 319.739,-29.9787"/>
</g>
<!-- Node9 -->
<g id="node9" class="node"><title>Node9</title>
<polygon fill="white" stroke="#bfbfbf" points="370,-0.5 370,-19.5 411,-19.5 411,-0.5 370,-0.5"/>
<text text-anchor="middle" x="390.5" y="-7.5" font-family="Helvetica,sans-Serif" font-size="10.00">array</text>
</g>
<!-- Node5&#45;&gt;Node9 -->
<g id="edge8" class="edge"><title>Node5&#45;&gt;Node9</title>
<path fill="none" stroke="midnightblue" d="M307.406,-56.324C323.138,-47.7428 347.442,-34.486 365.709,-24.5224"/>
<polygon fill="midnightblue" stroke="midnightblue" points="367.53,-27.5157 374.633,-19.6545 364.178,-21.3704 367.53,-27.5157"/>
</g>
</g>
</svg>
