<?xml version="1.0" encoding="UTF-8" standalone="no"?>
<!DOCTYPE svg PUBLIC "-//W3C//DTD SVG 1.1//EN"
 "http://www.w3.org/Graphics/SVG/1.1/DTD/svg11.dtd">
<!-- Generated by graphviz version 2.38.0 (20140413.2041)
 -->
<!-- Title: /home/travis/build/STORM&#45;IRIT/OpenGR/src/gr/utils/disablewarnings.h Pages: 1 -->
<!--zoomable 618 -->
<svg id="main" version="1.1" xmlns="http://www.w3.org/2000/svg" xmlns:xlink="http://www.w3.org/1999/xlink" xml:space="preserve" onload="init(evt)">
<style type="text/css"><![CDATA[
.edge:hover path { stroke: red; }
.edge:hover polygon { stroke: red; fill: red; }
]]></style>
<script type="text/javascript"><![CDATA[
var edges = document.getElementsByTagName('g');
if (edges && edges.length) {
  for (var i=0;i<edges.length;i++) {
    if (edges[i].id.substr(0,4)=='edge') {
      edges[i].setAttribute('class','edge');
    }
  }
}
]]></script>
        <defs>
                <circle id="rim" cx="0" cy="0" r="7"/>
                <circle id="rim2" cx="0" cy="0" r="3.5"/>
                <g id="zoomPlus">
                        <use xlink:href="#rim" fill="#404040">
                                <set attributeName="fill" to="#808080" begin="zoomplus.mouseover" end="zoomplus.mouseout"/>
                        </use>
                        <path d="M-4,0h8M0,-4v8" fill="none" stroke="white" stroke-width="1.5" pointer-events="none"/>
                </g>
                <g id="zoomMin">
                        <use xlink:href="#rim" fill="#404040">
                                <set attributeName="fill" to="#808080" begin="zoomminus.mouseover" end="zoomminus.mouseout"/>
                        </use>
                        <path d="M-4,0h8" fill="none" stroke="white" stroke-width="1.5" pointer-events="none"/>
                </g>
                <g id="dirArrow">
                        <path fill="none" stroke="white" stroke-width="1.5" d="M0,-3.0v7 M-2.5,-0.5L0,-3.0L2.5,-0.5"/>
                </g>
               <g id="resetDef">
                       <use xlink:href="#rim2" fill="#404040">
                               <set attributeName="fill" to="#808080" begin="reset.mouseover" end="reset.mouseout"/>
                       </use>
               </g>
        </defs>

<script type="text/javascript">
var viewWidth = 1900;
var viewHeight = 618;
var sectionId = 'dynsection-0';
</script>
<script xlink:href="svgpan.js"/>
<svg id="graph" class="graph">
<g id="viewport">
<title>/home/travis/build/STORM&#45;IRIT/OpenGR/src/gr/utils/disablewarnings.h</title>
<polygon fill="white" stroke="none" points="-4,4 -4,-614 1895.87,-614 1895.87,4 -4,4"/>
<!-- Node1 -->
<g id="node1" class="node"><title>Node1</title>
<polygon fill="#bfbfbf" stroke="black" points="1375.87,-568.5 1375.87,-609.5 1515.87,-609.5 1515.87,-568.5 1375.87,-568.5"/>
<text text-anchor="start" x="1383.87" y="-597.5" font-family="Helvetica,sans-Serif" font-size="10.00">/home/travis/build</text>
<text text-anchor="start" x="1383.87" y="-586.5" font-family="Helvetica,sans-Serif" font-size="10.00">/STORM&#45;IRIT/OpenGR/src</text>
<text text-anchor="middle" x="1445.87" y="-575.5" font-family="Helvetica,sans-Serif" font-size="10.00">/gr/utils/disablewarnings.h</text>
</g>
<!-- Node2 -->
<g id="node2" class="node"><title>Node2</title>
<g id="a_node2"><a xlink:href="a00070.html" target="_top" xlink:title="/home/travis/build\l/STORM&#45;IRIT/OpenGR/src\l/gr/accelerators/kdtree.h">
<polygon fill="white" stroke="black" points="67.8724,-412.5 67.8724,-453.5 201.872,-453.5 201.872,-412.5 67.8724,-412.5"/>
<text text-anchor="start" x="75.8724" y="-441.5" font-family="Helvetica,sans-Serif" font-size="10.00">/home/travis/build</text>
<text text-anchor="start" x="75.8724" y="-430.5" font-family="Helvetica,sans-Serif" font-size="10.00">/STORM&#45;IRIT/OpenGR/src</text>
<text text-anchor="middle" x="134.872" y="-419.5" font-family="Helvetica,sans-Serif" font-size="10.00">/gr/accelerators/kdtree.h</text>
</a>
</g>
</g>
<!-- Node1&#45;&gt;Node2 -->
<g id="edge1" class="edge"><title>Node1&#45;&gt;Node2</title>
<path fill="none" stroke="midnightblue" d="M1365.59,-583.813C1168.34,-572.541 644.767,-536.643 215.872,-454 211.321,-453.123 206.642,-452.153 201.938,-451.126"/>
<polygon fill="midnightblue" stroke="midnightblue" points="1365.4,-587.308 1375.58,-584.379 1365.79,-580.319 1365.4,-587.308"/>
</g>
<!-- Node14 -->
<g id="node14" class="node"><title>Node14</title>
<g id="a_node14"><a xlink:href="a00071.html" target="_top" xlink:title="/home/travis/build\l/STORM&#45;IRIT/OpenGR/src\l/gr/accelerators/normalHealSet.h">
<polygon fill="white" stroke="black" points="1415.87,-490.5 1415.87,-531.5 1591.87,-531.5 1591.87,-490.5 1415.87,-490.5"/>
<text text-anchor="start" x="1423.87" y="-519.5" font-family="Helvetica,sans-Serif" font-size="10.00">/home/travis/build</text>
<text text-anchor="start" x="1423.87" y="-508.5" font-family="Helvetica,sans-Serif" font-size="10.00">/STORM&#45;IRIT/OpenGR/src</text>
<text text-anchor="middle" x="1503.87" y="-497.5" font-family="Helvetica,sans-Serif" font-size="10.00">/gr/accelerators/normalHealSet.h</text>
</a>
</g>
</g>
<!-- Node1&#45;&gt;Node14 -->
<g id="edge22" class="edge"><title>Node1&#45;&gt;Node14</title>
<path fill="none" stroke="midnightblue" d="M1466.98,-560.338C1474.28,-550.778 1482.3,-540.273 1488.99,-531.506"/>
<polygon fill="midnightblue" stroke="midnightblue" points="1464.09,-558.355 1460.81,-568.428 1469.66,-562.602 1464.09,-558.355"/>
</g>
<!-- Node15 -->
<g id="node15" class="node"><title>Node15</title>
<g id="a_node15"><a xlink:href="a00072.html" target="_top" xlink:title="/home/travis/build\l/STORM&#45;IRIT/OpenGR/src\l/gr/accelerators/normalset.h">
<polygon fill="white" stroke="black" points="1377.87,-329 1377.87,-370 1529.87,-370 1529.87,-329 1377.87,-329"/>
<text text-anchor="start" x="1385.87" y="-358" font-family="Helvetica,sans-Serif" font-size="10.00">/home/travis/build</text>
<text text-anchor="start" x="1385.87" y="-347" font-family="Helvetica,sans-Serif" font-size="10.00">/STORM&#45;IRIT/OpenGR/src</text>
<text text-anchor="middle" x="1453.87" y="-336" font-family="Helvetica,sans-Serif" font-size="10.00">/gr/accelerators/normalset.h</text>
</a>
</g>
</g>
<!-- Node1&#45;&gt;Node15 -->
<g id="edge23" class="edge"><title>Node1&#45;&gt;Node15</title>
<path fill="none" stroke="midnightblue" d="M1421.67,-560.299C1415.64,-551.784 1410.01,-542.004 1406.87,-532 1388.59,-473.771 1422.3,-403.474 1441.65,-370.023"/>
<polygon fill="midnightblue" stroke="midnightblue" points="1418.93,-562.478 1427.74,-568.353 1424.51,-558.262 1418.93,-562.478"/>
</g>
<!-- Node16 -->
<g id="node16" class="node"><title>Node16</title>
<g id="a_node16"><a xlink:href="a00093.html" target="_top" xlink:title="/home/travis/build\l/STORM&#45;IRIT/OpenGR/src\l/gr/shared.h">
<polygon fill="white" stroke="black" points="783.872,-490.5 783.872,-531.5 915.872,-531.5 915.872,-490.5 783.872,-490.5"/>
<text text-anchor="start" x="791.872" y="-519.5" font-family="Helvetica,sans-Serif" font-size="10.00">/home/travis/build</text>
<text text-anchor="start" x="791.872" y="-508.5" font-family="Helvetica,sans-Serif" font-size="10.00">/STORM&#45;IRIT/OpenGR/src</text>
<text text-anchor="middle" x="849.872" y="-497.5" font-family="Helvetica,sans-Serif" font-size="10.00">/gr/shared.h</text>
</a>
</g>
</g>
<!-- Node1&#45;&gt;Node16 -->
<g id="edge25" class="edge"><title>Node1&#45;&gt;Node16</title>
<path fill="none" stroke="midnightblue" d="M1365.63,-577.767C1246.79,-562.614 1026.24,-534.49 916.079,-520.442"/>
<polygon fill="midnightblue" stroke="midnightblue" points="1365.39,-581.265 1375.75,-579.058 1366.27,-574.321 1365.39,-581.265"/>
</g>
<!-- Node20 -->
<g id="node20" class="node"><title>Node20</title>
<g id="a_node20"><a xlink:href="a00096.html" target="_top" xlink:title="/home/travis/build\l/STORM&#45;IRIT/OpenGR/src\l/gr/utils/geometry.h">
<polygon fill="white" stroke="black" points="1609.87,-490.5 1609.87,-531.5 1741.87,-531.5 1741.87,-490.5 1609.87,-490.5"/>
<text text-anchor="start" x="1617.87" y="-519.5" font-family="Helvetica,sans-Serif" font-size="10.00">/home/travis/build</text>
<text text-anchor="start" x="1617.87" y="-508.5" font-family="Helvetica,sans-Serif" font-size="10.00">/STORM&#45;IRIT/OpenGR/src</text>
<text text-anchor="middle" x="1675.87" y="-497.5" font-family="Helvetica,sans-Serif" font-size="10.00">/gr/utils/geometry.h</text>
</a>
</g>
</g>
<!-- Node1&#45;&gt;Node20 -->
<g id="edge47" class="edge"><title>Node1&#45;&gt;Node20</title>
<path fill="none" stroke="midnightblue" d="M1514.98,-565.165C1547.45,-554.437 1585.75,-541.779 1616.84,-531.506"/>
<polygon fill="midnightblue" stroke="midnightblue" points="1513.5,-561.967 1505.1,-568.428 1515.7,-568.614 1513.5,-561.967"/>
</g>
<!-- Node21 -->
<g id="node21" class="node"><title>Node21</title>
<g id="a_node21"><a xlink:href="a00098.html" target="_top" xlink:title="/home/travis/build\l/STORM&#45;IRIT/OpenGR/src\l/gr/utils/timer.h">
<polygon fill="white" stroke="black" points="1759.87,-490.5 1759.87,-531.5 1891.87,-531.5 1891.87,-490.5 1759.87,-490.5"/>
<text text-anchor="start" x="1767.87" y="-519.5" font-family="Helvetica,sans-Serif" font-size="10.00">/home/travis/build</text>
<text text-anchor="start" x="1767.87" y="-508.5" font-family="Helvetica,sans-Serif" font-size="10.00">/STORM&#45;IRIT/OpenGR/src</text>
<text text-anchor="middle" x="1825.87" y="-497.5" font-family="Helvetica,sans-Serif" font-size="10.00">/gr/utils/timer.h</text>
</a>
</g>
</g>
<!-- Node1&#45;&gt;Node21 -->
<g id="edge48" class="edge"><title>Node1&#45;&gt;Node21</title>
<path fill="none" stroke="midnightblue" d="M1526.21,-575.033C1587.92,-564.642 1675.12,-549.027 1750.87,-532 1753.76,-531.35 1756.71,-530.664 1759.69,-529.953"/>
<polygon fill="midnightblue" stroke="midnightblue" points="1525.43,-571.614 1516.15,-576.719 1526.59,-578.518 1525.43,-571.614"/>
</g>
<!-- Node3 -->
<g id="node3" class="node"><title>Node3</title>
<g id="a_node3"><a xlink:href="a00080.html" target="_top" xlink:title="/home/travis/build\l/STORM&#45;IRIT/OpenGR/src\l/gr/algorithms/congruentSetExploration\lBase.hpp">
<polygon fill="white" stroke="black" points="540.372,-323.5 540.372,-375.5 745.372,-375.5 745.372,-323.5 540.372,-323.5"/>
<text text-anchor="start" x="548.372" y="-363.5" font-family="Helvetica,sans-Serif" font-size="10.00">/home/travis/build</text>
<text text-anchor="start" x="548.372" y="-352.5" font-family="Helvetica,sans-Serif" font-size="10.00">/STORM&#45;IRIT/OpenGR/src</text>
<text text-anchor="start" x="548.372" y="-341.5" font-family="Helvetica,sans-Serif" font-size="10.00">/gr/algorithms/congruentSetExploration</text>
<text text-anchor="middle" x="642.872" y="-330.5" font-family="Helvetica,sans-Serif" font-size="10.00">Base.hpp</text>
</a>
</g>
</g>
<!-- Node2&#45;&gt;Node3 -->
<g id="edge2" class="edge"><title>Node2&#45;&gt;Node3</title>
<path fill="none" stroke="midnightblue" d="M211.951,-419.634C299.629,-405.568 443.188,-382.536 540.276,-366.96"/>
<polygon fill="midnightblue" stroke="midnightblue" points="211.388,-416.18 202.069,-421.219 212.497,-423.091 211.388,-416.18"/>
</g>
<!-- Node7 -->
<g id="node7" class="node"><title>Node7</title>
<g id="a_node7"><a xlink:href="a00086.html" target="_top" xlink:title="/home/travis/build\l/STORM&#45;IRIT/OpenGR/src\l/gr/algorithms/match4pcsBase.h">
<polygon fill="white" stroke="black" points="603.372,-156.5 603.372,-197.5 776.372,-197.5 776.372,-156.5 603.372,-156.5"/>
<text text-anchor="start" x="611.372" y="-185.5" font-family="Helvetica,sans-Serif" font-size="10.00">/home/travis/build</text>
<text text-anchor="start" x="611.372" y="-174.5" font-family="Helvetica,sans-Serif" font-size="10.00">/STORM&#45;IRIT/OpenGR/src</text>
<text text-anchor="middle" x="689.872" y="-163.5" font-family="Helvetica,sans-Serif" font-size="10.00">/gr/algorithms/match4pcsBase.h</text>
</a>
</g>
</g>
<!-- Node2&#45;&gt;Node7 -->
<g id="edge20" class="edge"><title>Node2&#45;&gt;Node7</title>
<path fill="none" stroke="midnightblue" d="M124.125,-402.851C110.42,-360.012 93.1461,-280.148 134.872,-234 165.643,-199.969 454.969,-185.635 603.207,-180.484"/>
<polygon fill="midnightblue" stroke="midnightblue" points="120.829,-404.03 127.321,-412.404 127.468,-401.81 120.829,-404.03"/>
</g>
<!-- Node9 -->
<g id="node9" class="node"><title>Node9</title>
<g id="a_node9"><a xlink:href="a00087.html" target="_top" xlink:title="/home/travis/build\l/STORM&#45;IRIT/OpenGR/src\l/gr/algorithms/match4pcsBase.hpp">
<polygon fill="white" stroke="black" points="551.372,-78.5 551.372,-119.5 736.372,-119.5 736.372,-78.5 551.372,-78.5"/>
<text text-anchor="start" x="559.372" y="-107.5" font-family="Helvetica,sans-Serif" font-size="10.00">/home/travis/build</text>
<text text-anchor="start" x="559.372" y="-96.5" font-family="Helvetica,sans-Serif" font-size="10.00">/STORM&#45;IRIT/OpenGR/src</text>
<text text-anchor="middle" x="643.872" y="-85.5" font-family="Helvetica,sans-Serif" font-size="10.00">/gr/algorithms/match4pcsBase.hpp</text>
</a>
</g>
</g>
<!-- Node2&#45;&gt;Node9 -->
<g id="edge21" class="edge"><title>Node2&#45;&gt;Node9</title>
<path fill="none" stroke="midnightblue" d="M116.873,-403.645C112.373,-395.09 108.175,-385.452 105.872,-376 100.894,-355.559 100.109,-242.558 106.872,-234 134.556,-198.967 405.137,-144.164 551.297,-116.77"/>
<polygon fill="midnightblue" stroke="midnightblue" points="113.86,-405.428 121.8,-412.444 119.968,-402.008 113.86,-405.428"/>
</g>
<!-- Node12 -->
<g id="node12" class="node"><title>Node12</title>
<g id="a_node12"><a xlink:href="a00088.html" target="_top" xlink:title="/home/travis/build\l/STORM&#45;IRIT/OpenGR/src\l/gr/algorithms/matchBase.h">
<polygon fill="white" stroke="black" points="257.872,-329 257.872,-370 407.872,-370 407.872,-329 257.872,-329"/>
<text text-anchor="start" x="265.872" y="-358" font-family="Helvetica,sans-Serif" font-size="10.00">/home/travis/build</text>
<text text-anchor="start" x="265.872" y="-347" font-family="Helvetica,sans-Serif" font-size="10.00">/STORM&#45;IRIT/OpenGR/src</text>
<text text-anchor="middle" x="332.872" y="-336" font-family="Helvetica,sans-Serif" font-size="10.00">/gr/algorithms/matchBase.h</text>
</a>
</g>
</g>
<!-- Node2&#45;&gt;Node12 -->
<g id="edge14" class="edge"><title>Node2&#45;&gt;Node12</title>
<path fill="none" stroke="midnightblue" d="M191.703,-408.608C221.397,-396.385 257.316,-381.6 285.491,-370.003"/>
<polygon fill="midnightblue" stroke="midnightblue" points="190.213,-405.436 182.298,-412.479 192.878,-411.909 190.213,-405.436"/>
</g>
<!-- Node13 -->
<g id="node13" class="node"><title>Node13</title>
<g id="a_node13"><a xlink:href="a00089.html" target="_top" xlink:title="/home/travis/build\l/STORM&#45;IRIT/OpenGR/src\l/gr/algorithms/matchBase.hpp">
<polygon fill="white" stroke="black" points="143.872,-240 143.872,-281 305.872,-281 305.872,-240 143.872,-240"/>
<text text-anchor="start" x="151.872" y="-269" font-family="Helvetica,sans-Serif" font-size="10.00">/home/travis/build</text>
<text text-anchor="start" x="151.872" y="-258" font-family="Helvetica,sans-Serif" font-size="10.00">/STORM&#45;IRIT/OpenGR/src</text>
<text text-anchor="middle" x="224.872" y="-247" font-family="Helvetica,sans-Serif" font-size="10.00">/gr/algorithms/matchBase.hpp</text>
</a>
</g>
</g>
<!-- Node2&#45;&gt;Node13 -->
<g id="edge19" class="edge"><title>Node2&#45;&gt;Node13</title>
<path fill="none" stroke="midnightblue" d="M143.961,-402.696C151.527,-380.163 163.384,-348.652 177.872,-323 186.332,-308.023 198.082,-292.648 207.717,-281.017"/>
<polygon fill="midnightblue" stroke="midnightblue" points="140.581,-401.77 140.792,-412.363 147.233,-403.951 140.581,-401.77"/>
</g>
<!-- Node4 -->
<g id="node4" class="node"><title>Node4</title>
<g id="a_node4"><a xlink:href="a00079.html" target="_top" xlink:title="/home/travis/build\l/STORM&#45;IRIT/OpenGR/src\l/gr/algorithms/congruentSetExploration\lBase.h">
<polygon fill="white" stroke="black" points="540.372,-234.5 540.372,-286.5 745.372,-286.5 745.372,-234.5 540.372,-234.5"/>
<text text-anchor="start" x="548.372" y="-274.5" font-family="Helvetica,sans-Serif" font-size="10.00">/home/travis/build</text>
<text text-anchor="start" x="548.372" y="-263.5" font-family="Helvetica,sans-Serif" font-size="10.00">/STORM&#45;IRIT/OpenGR/src</text>
<text text-anchor="start" x="548.372" y="-252.5" font-family="Helvetica,sans-Serif" font-size="10.00">/gr/algorithms/congruentSetExploration</text>
<text text-anchor="middle" x="642.872" y="-241.5" font-family="Helvetica,sans-Serif" font-size="10.00">Base.h</text>
</a>
</g>
</g>
<!-- Node3&#45;&gt;Node4 -->
<g id="edge3" class="edge"><title>Node3&#45;&gt;Node4</title>
<path fill="none" stroke="midnightblue" d="M636.23,-313.191C635.994,-304.282 636.147,-294.899 636.69,-286.607"/>
<polygon fill="midnightblue" stroke="midnightblue" points="632.74,-313.503 636.686,-323.336 639.733,-313.189 632.74,-313.503"/>
</g>
<!-- Node4&#45;&gt;Node3 -->
<g id="edge4" class="edge"><title>Node4&#45;&gt;Node3</title>
<path fill="none" stroke="midnightblue" d="M649.513,-296.749C649.751,-305.655 649.6,-315.04 649.058,-323.336"/>
<polygon fill="midnightblue" stroke="midnightblue" points="653.003,-296.439 649.055,-286.607 646.01,-296.755 653.003,-296.439"/>
</g>
<!-- Node5 -->
<g id="node5" class="node"><title>Node5</title>
<g id="a_node5"><a xlink:href="a00084.html" target="_top" xlink:title="/home/travis/build\l/STORM&#45;IRIT/OpenGR/src\l/gr/algorithms/match3pcs.h">
<polygon fill="white" stroke="black" points="29.3724,-156.5 29.3724,-197.5 178.372,-197.5 178.372,-156.5 29.3724,-156.5"/>
<text text-anchor="start" x="37.3724" y="-185.5" font-family="Helvetica,sans-Serif" font-size="10.00">/home/travis/build</text>
<text text-anchor="start" x="37.3724" y="-174.5" font-family="Helvetica,sans-Serif" font-size="10.00">/STORM&#45;IRIT/OpenGR/src</text>
<text text-anchor="middle" x="103.872" y="-163.5" font-family="Helvetica,sans-Serif" font-size="10.00">/gr/algorithms/match3pcs.h</text>
</a>
</g>
</g>
<!-- Node4&#45;&gt;Node5 -->
<g id="edge5" class="edge"><title>Node4&#45;&gt;Node5</title>
<path fill="none" stroke="midnightblue" d="M530.153,-242.456C424.473,-226.477 269.483,-203.041 178.407,-189.27"/>
<polygon fill="midnightblue" stroke="midnightblue" points="529.811,-245.944 540.222,-243.979 530.858,-239.023 529.811,-245.944"/>
</g>
<!-- Node4&#45;&gt;Node7 -->
<g id="edge8" class="edge"><title>Node4&#45;&gt;Node7</title>
<path fill="none" stroke="midnightblue" d="M662.584,-225.319C668.033,-215.871 673.76,-205.94 678.553,-197.628"/>
<polygon fill="midnightblue" stroke="midnightblue" points="659.45,-223.748 657.486,-234.16 665.514,-227.245 659.45,-223.748"/>
</g>
<!-- Node6 -->
<g id="node6" class="node"><title>Node6</title>
<g id="a_node6"><a xlink:href="a00085.html" target="_top" xlink:title="/home/travis/build\l/STORM&#45;IRIT/OpenGR/src\l/gr/algorithms/match3pcs.hpp">
<polygon fill="white" stroke="black" points="23.3724,-78.5 23.3724,-119.5 184.372,-119.5 184.372,-78.5 23.3724,-78.5"/>
<text text-anchor="start" x="31.3724" y="-107.5" font-family="Helvetica,sans-Serif" font-size="10.00">/home/travis/build</text>
<text text-anchor="start" x="31.3724" y="-96.5" font-family="Helvetica,sans-Serif" font-size="10.00">/STORM&#45;IRIT/OpenGR/src</text>
<text text-anchor="middle" x="103.872" y="-85.5" font-family="Helvetica,sans-Serif" font-size="10.00">/gr/algorithms/match3pcs.hpp</text>
</a>
</g>
</g>
<!-- Node5&#45;&gt;Node6 -->
<g id="edge6" class="edge"><title>Node5&#45;&gt;Node6</title>
<path fill="none" stroke="midnightblue" d="M97.2674,-146.297C96.9482,-137.301 97.1558,-127.653 97.8901,-119.506"/>
<polygon fill="midnightblue" stroke="midnightblue" points="93.783,-146.659 97.8841,-156.428 100.77,-146.234 93.783,-146.659"/>
</g>
<!-- Node6&#45;&gt;Node5 -->
<g id="edge7" class="edge"><title>Node6&#45;&gt;Node5</title>
<path fill="none" stroke="midnightblue" d="M110.475,-129.63C110.797,-138.622 110.592,-148.272 109.861,-156.428"/>
<polygon fill="midnightblue" stroke="midnightblue" points="113.959,-129.273 109.855,-119.506 106.973,-129.701 113.959,-129.273"/>
</g>
<!-- Node8 -->
<g id="node8" class="node"><title>Node8</title>
<g id="a_node8"><a xlink:href="a00082.html" target="_top" xlink:title="/home/travis/build\l/STORM&#45;IRIT/OpenGR/src\l/gr/algorithms/FunctorBrute4pcs.h">
<polygon fill="white" stroke="black" points="754.372,-78.5 754.372,-119.5 933.372,-119.5 933.372,-78.5 754.372,-78.5"/>
<text text-anchor="start" x="762.372" y="-107.5" font-family="Helvetica,sans-Serif" font-size="10.00">/home/travis/build</text>
<text text-anchor="start" x="762.372" y="-96.5" font-family="Helvetica,sans-Serif" font-size="10.00">/STORM&#45;IRIT/OpenGR/src</text>
<text text-anchor="middle" x="843.872" y="-85.5" font-family="Helvetica,sans-Serif" font-size="10.00">/gr/algorithms/FunctorBrute4pcs.h</text>
</a>
</g>
</g>
<!-- Node7&#45;&gt;Node8 -->
<g id="edge9" class="edge"><title>Node7&#45;&gt;Node8</title>
<path fill="none" stroke="midnightblue" d="M738.69,-151.908C759.865,-141.458 784.339,-129.38 804.348,-119.506"/>
<polygon fill="midnightblue" stroke="midnightblue" points="736.95,-148.864 729.531,-156.428 740.048,-155.141 736.95,-148.864"/>
</g>
<!-- Node7&#45;&gt;Node9 -->
<g id="edge10" class="edge"><title>Node7&#45;&gt;Node9</title>
<path fill="none" stroke="midnightblue" d="M666.418,-148.048C660.266,-138.566 654.167,-128.185 649.696,-119.506"/>
<polygon fill="midnightblue" stroke="midnightblue" points="663.561,-150.072 672.038,-156.428 669.375,-146.173 663.561,-150.072"/>
</g>
<!-- Node10 -->
<g id="node10" class="node"><title>Node10</title>
<g id="a_node10"><a xlink:href="a00090.html" target="_top" xlink:title="/home/travis/build\l/STORM&#45;IRIT/OpenGR/src\l/gr/algorithms/pairCreationFunctor.h">
<polygon fill="white" stroke="black" points="951.872,-78.5 951.872,-119.5 1139.87,-119.5 1139.87,-78.5 951.872,-78.5"/>
<text text-anchor="start" x="959.872" y="-107.5" font-family="Helvetica,sans-Serif" font-size="10.00">/home/travis/build</text>
<text text-anchor="start" x="959.872" y="-96.5" font-family="Helvetica,sans-Serif" font-size="10.00">/STORM&#45;IRIT/OpenGR/src</text>
<text text-anchor="middle" x="1045.87" y="-85.5" font-family="Helvetica,sans-Serif" font-size="10.00">/gr/algorithms/pairCreationFunctor.h</text>
</a>
</g>
</g>
<!-- Node7&#45;&gt;Node10 -->
<g id="edge12" class="edge"><title>Node7&#45;&gt;Node10</title>
<path fill="none" stroke="midnightblue" d="M786.461,-155.38C838.763,-144.214 903.017,-130.497 954.492,-119.508"/>
<polygon fill="midnightblue" stroke="midnightblue" points="785.553,-151.995 776.505,-157.505 787.015,-158.84 785.553,-151.995"/>
</g>
<!-- Node9&#45;&gt;Node7 -->
<g id="edge11" class="edge"><title>Node9&#45;&gt;Node7</title>
<path fill="none" stroke="midnightblue" d="M667.28,-127.88C673.432,-137.357 679.535,-147.74 684.014,-156.428"/>
<polygon fill="midnightblue" stroke="midnightblue" points="670.139,-125.859 661.661,-119.506 664.326,-129.76 670.139,-125.859"/>
</g>
<!-- Node11 -->
<g id="node11" class="node"><title>Node11</title>
<g id="a_node11"><a xlink:href="a00083.html" target="_top" xlink:title="/home/travis/build\l/STORM&#45;IRIT/OpenGR/src\l/gr/algorithms/FunctorSuper4pcs.h">
<polygon fill="white" stroke="black" points="1258.87,-0.5 1258.87,-41.5 1440.87,-41.5 1440.87,-0.5 1258.87,-0.5"/>
<text text-anchor="start" x="1266.87" y="-29.5" font-family="Helvetica,sans-Serif" font-size="10.00">/home/travis/build</text>
<text text-anchor="start" x="1266.87" y="-18.5" font-family="Helvetica,sans-Serif" font-size="10.00">/STORM&#45;IRIT/OpenGR/src</text>
<text text-anchor="middle" x="1349.87" y="-7.5" font-family="Helvetica,sans-Serif" font-size="10.00">/gr/algorithms/FunctorSuper4pcs.h</text>
</a>
</g>
</g>
<!-- Node10&#45;&gt;Node11 -->
<g id="edge13" class="edge"><title>Node10&#45;&gt;Node11</title>
<path fill="none" stroke="midnightblue" d="M1133.9,-75.9937C1177.5,-65.0929 1229.7,-52.0443 1271.85,-41.5056"/>
<polygon fill="midnightblue" stroke="midnightblue" points="1133.01,-72.6072 1124.16,-78.4281 1134.71,-79.3982 1133.01,-72.6072"/>
</g>
<!-- Node12&#45;&gt;Node4 -->
<g id="edge15" class="edge"><title>Node12&#45;&gt;Node4</title>
<path fill="none" stroke="midnightblue" d="M412.071,-326.273C455.337,-314.131 509.055,-299.055 553.778,-286.504"/>
<polygon fill="midnightblue" stroke="midnightblue" points="411.125,-322.904 402.442,-328.976 413.016,-329.643 411.125,-322.904"/>
</g>
<!-- Node12&#45;&gt;Node5 -->
<g id="edge16" class="edge"><title>Node12&#45;&gt;Node5</title>
<path fill="none" stroke="midnightblue" d="M336.507,-318.537C337.866,-292.943 335.386,-256.755 314.872,-234 296.505,-213.627 231.45,-198.389 178.376,-188.993"/>
<polygon fill="midnightblue" stroke="midnightblue" points="332.996,-318.552 335.731,-328.787 339.976,-319.08 332.996,-318.552"/>
</g>
<!-- Node12&#45;&gt;Node13 -->
<g id="edge17" class="edge"><title>Node12&#45;&gt;Node13</title>
<path fill="none" stroke="midnightblue" d="M294.625,-322.705C277.334,-309.444 257.739,-293.534 243.64,-281.26"/>
<polygon fill="midnightblue" stroke="midnightblue" points="292.811,-325.722 302.895,-328.976 297.041,-320.145 292.811,-325.722"/>
</g>
<!-- Node13&#45;&gt;Node12 -->
<g id="edge18" class="edge"><title>Node13&#45;&gt;Node12</title>
<path fill="none" stroke="midnightblue" d="M263.292,-287.427C280.55,-300.669 300.073,-316.523 314.126,-328.758"/>
<polygon fill="midnightblue" stroke="midnightblue" points="265.118,-284.419 255.036,-281.164 260.887,-289.996 265.118,-284.419"/>
</g>
<!-- Node15&#45;&gt;Node11 -->
<g id="edge24" class="edge"><title>Node15&#45;&gt;Node11</title>
<path fill="none" stroke="midnightblue" d="M1444.42,-318.83C1423.49,-253.126 1373.7,-96.8142 1356.14,-41.6717"/>
<polygon fill="midnightblue" stroke="midnightblue" points="1441.15,-320.101 1447.52,-328.567 1447.82,-317.977 1441.15,-320.101"/>
</g>
<!-- Node16&#45;&gt;Node3 -->
<g id="edge27" class="edge"><title>Node16&#45;&gt;Node3</title>
<path fill="none" stroke="midnightblue" d="M806.542,-485.064C791.412,-475.832 774.551,-464.939 759.872,-454 726.819,-429.368 691.769,-397.499 668.747,-375.67"/>
<polygon fill="midnightblue" stroke="midnightblue" points="804.85,-488.13 815.221,-490.295 808.463,-482.135 804.85,-488.13"/>
</g>
<!-- Node16&#45;&gt;Node4 -->
<g id="edge26" class="edge"><title>Node16&#45;&gt;Node4</title>
<path fill="none" stroke="midnightblue" d="M840.843,-480.567C827.383,-440.723 798.723,-369.294 753.872,-323 739.616,-308.285 721.068,-296.145 703.229,-286.651"/>
<polygon fill="midnightblue" stroke="midnightblue" points="837.567,-481.809 844.014,-490.217 844.218,-479.624 837.567,-481.809"/>
</g>
<!-- Node16&#45;&gt;Node5 -->
<g id="edge31" class="edge"><title>Node16&#45;&gt;Node5</title>
<path fill="none" stroke="midnightblue" d="M773.529,-510.365C584.593,-510.471 106.935,-505.586 58.8724,-454 -8.97285,-381.182 60.6966,-248.001 91.1481,-197.827"/>
<polygon fill="midnightblue" stroke="midnightblue" points="773.664,-513.864 783.66,-510.354 773.656,-506.864 773.664,-513.864"/>
</g>
<!-- Node16&#45;&gt;Node6 -->
<g id="edge34" class="edge"><title>Node16&#45;&gt;Node6</title>
<path fill="none" stroke="midnightblue" d="M773.784,-509.682C581.783,-508.2 88.8248,-499.915 31.8724,-454 -5.41298,-423.94 1.87237,-398.393 1.87237,-350.5 1.87237,-350.5 1.87237,-350.5 1.87237,-259.5 1.87237,-212.81 -5.61711,-195.119 19.8724,-156 29.8235,-140.728 45.5526,-128.622 60.7228,-119.631"/>
<polygon fill="midnightblue" stroke="midnightblue" points="773.772,-513.182 783.797,-509.755 773.823,-506.182 773.772,-513.182"/>
</g>
<!-- Node16&#45;&gt;Node7 -->
<g id="edge35" class="edge"><title>Node16&#45;&gt;Node7</title>
<path fill="none" stroke="midnightblue" d="M859.663,-480.452C864.786,-460.885 869.022,-434.733 863.872,-412 844.505,-326.498 837.162,-299.483 778.872,-234 765.763,-219.273 747.875,-207.005 731.573,-197.743"/>
<polygon fill="midnightblue" stroke="midnightblue" points="856.23,-479.731 856.865,-490.307 862.964,-481.643 856.23,-479.731"/>
</g>
<!-- Node16&#45;&gt;Node8 -->
<g id="edge29" class="edge"><title>Node16&#45;&gt;Node8</title>
<path fill="none" stroke="midnightblue" d="M872.421,-482.285C894.827,-451.876 925.872,-400.688 925.872,-350.5 925.872,-350.5 925.872,-350.5 925.872,-259.5 925.872,-204.078 886.229,-148.615 862.071,-119.963"/>
<polygon fill="midnightblue" stroke="midnightblue" points="869.605,-480.206 866.363,-490.293 875.188,-484.429 869.605,-480.206"/>
</g>
<!-- Node16&#45;&gt;Node9 -->
<g id="edge36" class="edge"><title>Node16&#45;&gt;Node9</title>
<path fill="none" stroke="midnightblue" d="M849.872,-480.319C849.872,-448.288 849.872,-395.779 849.872,-350.5 849.872,-350.5 849.872,-350.5 849.872,-259.5 849.872,-205.181 826.626,-190.745 784.872,-156 765.639,-139.995 741.263,-128.156 718.21,-119.597"/>
<polygon fill="midnightblue" stroke="midnightblue" points="846.372,-480.356 849.872,-490.356 853.372,-480.356 846.372,-480.356"/>
</g>
<!-- Node16&#45;&gt;Node10 -->
<g id="edge45" class="edge"><title>Node16&#45;&gt;Node10</title>
<path fill="none" stroke="midnightblue" d="M886.86,-484.063C897.485,-475.373 908.46,-465.056 916.872,-454 947.464,-413.794 963.872,-401.021 963.872,-350.5 963.872,-350.5 963.872,-350.5 963.872,-259.5 963.872,-204.078 1003.52,-148.615 1027.67,-119.963"/>
<polygon fill="midnightblue" stroke="midnightblue" points="884.537,-481.436 878.851,-490.376 888.871,-486.934 884.537,-481.436"/>
</g>
<!-- Node16&#45;&gt;Node11 -->
<g id="edge30" class="edge"><title>Node16&#45;&gt;Node11</title>
<path fill="none" stroke="midnightblue" d="M926.239,-506.038C1054.46,-498.669 1301.93,-481.1 1330.87,-454 1365.01,-422.033 1349.87,-397.269 1349.87,-350.5 1349.87,-350.5 1349.87,-350.5 1349.87,-176 1349.87,-127.875 1349.87,-71.2905 1349.87,-41.935"/>
<polygon fill="midnightblue" stroke="midnightblue" points="925.876,-502.553 916.091,-506.614 926.273,-509.541 925.876,-502.553"/>
</g>
<!-- Node16&#45;&gt;Node12 -->
<g id="edge32" class="edge"><title>Node16&#45;&gt;Node12</title>
<path fill="none" stroke="midnightblue" d="M773.466,-506.82C666.17,-501.229 477.307,-486.94 417.872,-454 382.892,-434.614 356.546,-394.556 343.023,-370.356"/>
<polygon fill="midnightblue" stroke="midnightblue" points="773.423,-510.322 783.588,-507.334 773.778,-503.331 773.423,-510.322"/>
</g>
<!-- Node16&#45;&gt;Node13 -->
<g id="edge33" class="edge"><title>Node16&#45;&gt;Node13</title>
<path fill="none" stroke="midnightblue" d="M773.639,-504.582C657.636,-495.754 442.505,-476.928 368.872,-454 298.256,-432.011 259.992,-439.381 221.872,-376 204.347,-346.861 211.573,-305.562 218.303,-281.349"/>
<polygon fill="midnightblue" stroke="midnightblue" points="773.63,-508.091 783.865,-505.354 774.156,-501.111 773.63,-508.091"/>
</g>
<!-- Node17 -->
<g id="node17" class="node"><title>Node17</title>
<g id="a_node17"><a xlink:href="a00081.html" target="_top" xlink:title="/home/travis/build\l/STORM&#45;IRIT/OpenGR/src\l/gr/algorithms/Functor4pcs.h">
<polygon fill="white" stroke="black" points="992.372,-412.5 992.372,-453.5 1145.37,-453.5 1145.37,-412.5 992.372,-412.5"/>
<text text-anchor="start" x="1000.37" y="-441.5" font-family="Helvetica,sans-Serif" font-size="10.00">/home/travis/build</text>
<text text-anchor="start" x="1000.37" y="-430.5" font-family="Helvetica,sans-Serif" font-size="10.00">/STORM&#45;IRIT/OpenGR/src</text>
<text text-anchor="middle" x="1068.87" y="-419.5" font-family="Helvetica,sans-Serif" font-size="10.00">/gr/algorithms/Functor4pcs.h</text>
</a>
</g>
</g>
<!-- Node16&#45;&gt;Node17 -->
<g id="edge28" class="edge"><title>Node16&#45;&gt;Node17</title>
<path fill="none" stroke="midnightblue" d="M916.073,-487.026C946.902,-476.328 983.191,-463.734 1012.67,-453.506"/>
<polygon fill="midnightblue" stroke="midnightblue" points="914.57,-483.843 906.27,-490.428 916.865,-490.456 914.57,-483.843"/>
</g>
<!-- Node18 -->
<g id="node18" class="node"><title>Node18</title>
<g id="a_node18"><a xlink:href="a00092.html" target="_top" xlink:title="/home/travis/build\l/STORM&#45;IRIT/OpenGR/src\l/gr/sampling.h">
<polygon fill="white" stroke="black" points="426.872,-412.5 426.872,-453.5 558.872,-453.5 558.872,-412.5 426.872,-412.5"/>
<text text-anchor="start" x="434.872" y="-441.5" font-family="Helvetica,sans-Serif" font-size="10.00">/home/travis/build</text>
<text text-anchor="start" x="434.872" y="-430.5" font-family="Helvetica,sans-Serif" font-size="10.00">/STORM&#45;IRIT/OpenGR/src</text>
<text text-anchor="middle" x="492.872" y="-419.5" font-family="Helvetica,sans-Serif" font-size="10.00">/gr/sampling.h</text>
</a>
</g>
</g>
<!-- Node16&#45;&gt;Node18 -->
<g id="edge37" class="edge"><title>Node16&#45;&gt;Node18</title>
<path fill="none" stroke="midnightblue" d="M773.565,-493.755C709.831,-480.187 619.886,-461.039 559.132,-448.106"/>
<polygon fill="midnightblue" stroke="midnightblue" points="773.05,-497.224 783.56,-495.883 774.508,-490.378 773.05,-497.224"/>
</g>
<!-- Node19 -->
<g id="node19" class="node"><title>Node19</title>
<g id="a_node19"><a xlink:href="a00091.html" target="_top" xlink:title="/home/travis/build\l/STORM&#45;IRIT/OpenGR/src\l/gr/algorithms/PointPairFilter.h">
<polygon fill="white" stroke="black" points="1163.87,-412.5 1163.87,-453.5 1321.87,-453.5 1321.87,-412.5 1163.87,-412.5"/>
<text text-anchor="start" x="1171.87" y="-441.5" font-family="Helvetica,sans-Serif" font-size="10.00">/home/travis/build</text>
<text text-anchor="start" x="1171.87" y="-430.5" font-family="Helvetica,sans-Serif" font-size="10.00">/STORM&#45;IRIT/OpenGR/src</text>
<text text-anchor="middle" x="1242.87" y="-419.5" font-family="Helvetica,sans-Serif" font-size="10.00">/gr/algorithms/PointPairFilter.h</text>
</a>
</g>
</g>
<!-- Node16&#45;&gt;Node19 -->
<g id="edge46" class="edge"><title>Node16&#45;&gt;Node19</title>
<path fill="none" stroke="midnightblue" d="M926.127,-496.913C987.927,-486.086 1077.19,-469.951 1154.87,-454 1157.79,-453.401 1160.76,-452.781 1163.75,-452.146"/>
<polygon fill="midnightblue" stroke="midnightblue" points="925.316,-493.501 916.068,-498.67 926.521,-500.397 925.316,-493.501"/>
</g>
<!-- Node18&#45;&gt;Node3 -->
<g id="edge38" class="edge"><title>Node18&#45;&gt;Node3</title>
<path fill="none" stroke="midnightblue" d="M537.685,-407.652C556.322,-397.526 577.943,-385.778 596.719,-375.576"/>
<polygon fill="midnightblue" stroke="midnightblue" points="535.917,-404.629 528.801,-412.479 539.259,-410.78 535.917,-404.629"/>
</g>
<!-- Node18&#45;&gt;Node5 -->
<g id="edge39" class="edge"><title>Node18&#45;&gt;Node5</title>
<path fill="none" stroke="midnightblue" d="M474.727,-403.7C442.461,-354.274 375.188,-255.423 339.872,-234 290.908,-204.297 227.363,-190.349 178.548,-183.799"/>
<polygon fill="midnightblue" stroke="midnightblue" points="471.946,-405.845 480.329,-412.325 477.817,-402.032 471.946,-405.845"/>
</g>
<!-- Node18&#45;&gt;Node6 -->
<g id="edge42" class="edge"><title>Node18&#45;&gt;Node6</title>
<path fill="none" stroke="midnightblue" d="M484.622,-402.559C477.63,-379.953 466.421,-348.41 451.872,-323 426.592,-278.846 419.711,-265.646 379.872,-234 312.618,-180.576 220.585,-141.289 161.672,-119.526"/>
<polygon fill="midnightblue" stroke="midnightblue" points="481.307,-403.69 487.535,-412.262 488.012,-401.678 481.307,-403.69"/>
</g>
<!-- Node18&#45;&gt;Node7 -->
<g id="edge43" class="edge"><title>Node18&#45;&gt;Node7</title>
<path fill="none" stroke="midnightblue" d="M569.285,-426.072C637.805,-418.98 730.978,-404.327 753.872,-376 793.542,-326.915 779.951,-291.471 753.872,-234 747.223,-219.345 734.633,-207.018 722.367,-197.692"/>
<polygon fill="midnightblue" stroke="midnightblue" points="568.543,-422.628 558.94,-427.105 569.239,-429.594 568.543,-422.628"/>
</g>
<!-- Node18&#45;&gt;Node9 -->
<g id="edge44" class="edge"><title>Node18&#45;&gt;Node9</title>
<path fill="none" stroke="midnightblue" d="M494.094,-402.363C496.715,-362.407 504.957,-289.84 530.872,-234 552.523,-187.35 594.834,-143.894 621.092,-119.746"/>
<polygon fill="midnightblue" stroke="midnightblue" points="490.591,-402.306 493.505,-412.492 497.579,-402.712 490.591,-402.306"/>
</g>
<!-- Node18&#45;&gt;Node12 -->
<g id="edge40" class="edge"><title>Node18&#45;&gt;Node12</title>
<path fill="none" stroke="midnightblue" d="M445.384,-407.81C421.7,-395.747 393.435,-381.349 371.161,-370.003"/>
<polygon fill="midnightblue" stroke="midnightblue" points="444.049,-411.059 454.548,-412.479 447.226,-404.821 444.049,-411.059"/>
</g>
<!-- Node18&#45;&gt;Node13 -->
<g id="edge41" class="edge"><title>Node18&#45;&gt;Node13</title>
<path fill="none" stroke="midnightblue" d="M416.574,-423.502C353.982,-414.954 272.048,-399.62 248.872,-376 223.979,-350.63 221.904,-306.439 223.084,-281.015"/>
<polygon fill="midnightblue" stroke="midnightblue" points="416.46,-427.018 426.834,-424.867 417.383,-420.079 416.46,-427.018"/>
</g>
</g>
</svg>
        <g id="navigator" transform="translate(0 0)" fill="#404254">
                <rect fill="#f2f5e9" fill-opacity="0.5" stroke="#606060" stroke-width=".5" x="0" y="0" width="60" height="60"/>
                <use id="zoomplus" xlink:href="#zoomPlus" x="17" y="9" onmousedown="handleZoom(evt,'in')"/>
                <use id="zoomminus" xlink:href="#zoomMin" x="42" y="9" onmousedown="handleZoom(evt,'out')"/>
                <use id="reset" xlink:href="#resetDef" x="30" y="36" onmousedown="handleReset()"/>
                <g id="arrowUp" xlink:href="#dirArrow" transform="translate(30 24)" onmousedown="handlePan(0,-1)">
                  <use xlink:href="#rim" fill="#404040">
                        <set attributeName="fill" to="#808080" begin="arrowUp.mouseover" end="arrowUp.mouseout"/>
                  </use>
                  <path fill="none" stroke="white" stroke-width="1.5" d="M0,-3.0v7 M-2.5,-0.5L0,-3.0L2.5,-0.5"/>
                </g>
                <g id="arrowRight" xlink:href="#dirArrow" transform="rotate(90) translate(36 -43)" onmousedown="handlePan(1,0)">
                  <use xlink:href="#rim" fill="#404040">
                        <set attributeName="fill" to="#808080" begin="arrowRight.mouseover" end="arrowRight.mouseout"/>
                  </use>
                  <path fill="none" stroke="white" stroke-width="1.5" d="M0,-3.0v7 M-2.5,-0.5L0,-3.0L2.5,-0.5"/>
                </g>
                <g id="arrowDown" xlink:href="#dirArrow" transform="rotate(180) translate(-30 -48)" onmousedown="handlePan(0,1)">
                  <use xlink:href="#rim" fill="#404040">
                        <set attributeName="fill" to="#808080" begin="arrowDown.mouseover" end="arrowDown.mouseout"/>
                  </use>
                  <path fill="none" stroke="white" stroke-width="1.5" d="M0,-3.0v7 M-2.5,-0.5L0,-3.0L2.5,-0.5"/>
                </g>
                <g id="arrowLeft" xlink:href="#dirArrow" transform="rotate(270) translate(-36 17)" onmousedown="handlePan(-1,0)">
                  <use xlink:href="#rim" fill="#404040">
                        <set attributeName="fill" to="#808080" begin="arrowLeft.mouseover" end="arrowLeft.mouseout"/>
                  </use>
                  <path fill="none" stroke="white" stroke-width="1.5" d="M0,-3.0v7 M-2.5,-0.5L0,-3.0L2.5,-0.5"/>
                </g>
        </g>
        <svg viewBox="0 0 15 15" width="100%" height="30px" preserveAspectRatio="xMaxYMin meet">
         <g id="arrow_out" transform="scale(0.3 0.3)">
          <a xlink:href="a00148_org.svg" target="_base">
           <rect id="button" ry="5" rx="5" y="6" x="6" height="38" width="38"
                fill="#f2f5e9" fill-opacity="0.5" stroke="#606060" stroke-width="1.0"/>
           <path id="arrow"
             d="M 11.500037,31.436501 C 11.940474,20.09759 22.043105,11.32322 32.158766,21.979434 L 37.068811,17.246167 C 37.068811,17.246167 37.088388,32 37.088388,32 L 22.160133,31.978069 C 22.160133,31.978069 26.997745,27.140456 26.997745,27.140456 C 18.528582,18.264221 13.291696,25.230495 11.500037,31.436501 z"
             style="fill:#404040;"/>
          </a>
         </g>
        </svg>
</svg>
