<?xml version="1.0" encoding="UTF-8" standalone="no"?>
<!DOCTYPE svg PUBLIC "-//W3C//DTD SVG 1.1//EN"
 "http://www.w3.org/Graphics/SVG/1.1/DTD/svg11.dtd">
<!-- Generated by graphviz version 2.38.0 (20140413.2041)
 -->
<!-- Title: /home/travis/build/STORM&#45;IRIT/OpenGR/src/gr/sampling.h Pages: 1 -->
<!--zoomable 462 -->
<svg id="main" version="1.1" xmlns="http://www.w3.org/2000/svg" xmlns:xlink="http://www.w3.org/1999/xlink" xml:space="preserve" onload="init(evt)">
<style type="text/css"><![CDATA[
.edge:hover path { stroke: red; }
.edge:hover polygon { stroke: red; fill: red; }
]]></style>
<script type="text/javascript"><![CDATA[
var edges = document.getElementsByTagName('g');
if (edges && edges.length) {
  for (var i=0;i<edges.length;i++) {
    if (edges[i].id.substr(0,4)=='edge') {
      edges[i].setAttribute('class','edge');
    }
  }
}
]]></script>
        <defs>
                <circle id="rim" cx="0" cy="0" r="7"/>
                <circle id="rim2" cx="0" cy="0" r="3.5"/>
                <g id="zoomPlus">
                        <use xlink:href="#rim" fill="#404040">
                                <set attributeName="fill" to="#808080" begin="zoomplus.mouseover" end="zoomplus.mouseout"/>
                        </use>
                        <path d="M-4,0h8M0,-4v8" fill="none" stroke="white" stroke-width="1.5" pointer-events="none"/>
                </g>
                <g id="zoomMin">
                        <use xlink:href="#rim" fill="#404040">
                                <set attributeName="fill" to="#808080" begin="zoomminus.mouseover" end="zoomminus.mouseout"/>
                        </use>
                        <path d="M-4,0h8" fill="none" stroke="white" stroke-width="1.5" pointer-events="none"/>
                </g>
                <g id="dirArrow">
                        <path fill="none" stroke="white" stroke-width="1.5" d="M0,-3.0v7 M-2.5,-0.5L0,-3.0L2.5,-0.5"/>
                </g>
               <g id="resetDef">
                       <use xlink:href="#rim2" fill="#404040">
                               <set attributeName="fill" to="#808080" begin="reset.mouseover" end="reset.mouseout"/>
                       </use>
               </g>
        </defs>

<script type="text/javascript">
var viewWidth = 776;
var viewHeight = 462;
var sectionId = 'dynsection-1';
</script>
<script xlink:href="svgpan.js"/>
<svg id="graph" class="graph">
<g id="viewport">
<title>/home/travis/build/STORM&#45;IRIT/OpenGR/src/gr/sampling.h</title>
<polygon fill="white" stroke="none" points="-4,4 -4,-458 772,-458 772,4 -4,4"/>
<!-- Node1 -->
<g id="node1" class="node"><title>Node1</title>
<polygon fill="#bfbfbf" stroke="black" points="361.5,-412.5 361.5,-453.5 493.5,-453.5 493.5,-412.5 361.5,-412.5"/>
<text text-anchor="start" x="369.5" y="-441.5" font-family="Helvetica,sans-Serif" font-size="10.00">/home/travis/build</text>
<text text-anchor="start" x="369.5" y="-430.5" font-family="Helvetica,sans-Serif" font-size="10.00">/STORM&#45;IRIT/OpenGR/src</text>
<text text-anchor="middle" x="427.5" y="-419.5" font-family="Helvetica,sans-Serif" font-size="10.00">/gr/sampling.h</text>
</g>
<!-- Node2 -->
<g id="node2" class="node"><title>Node2</title>
<g id="a_node2"><a xlink:href="a00080.html" target="_top" xlink:title="/home/travis/build\l/STORM&#45;IRIT/OpenGR/src\l/gr/algorithms/congruentSetExploration\lBase.hpp">
<polygon fill="white" stroke="black" points="130,-323.5 130,-375.5 335,-375.5 335,-323.5 130,-323.5"/>
<text text-anchor="start" x="138" y="-363.5" font-family="Helvetica,sans-Serif" font-size="10.00">/home/travis/build</text>
<text text-anchor="start" x="138" y="-352.5" font-family="Helvetica,sans-Serif" font-size="10.00">/STORM&#45;IRIT/OpenGR/src</text>
<text text-anchor="start" x="138" y="-341.5" font-family="Helvetica,sans-Serif" font-size="10.00">/gr/algorithms/congruentSetExploration</text>
<text text-anchor="middle" x="232.5" y="-330.5" font-family="Helvetica,sans-Serif" font-size="10.00">Base.hpp</text>
</a>
</g>
</g>
<!-- Node1&#45;&gt;Node2 -->
<g id="edge1" class="edge"><title>Node1&#45;&gt;Node2</title>
<path fill="none" stroke="midnightblue" d="M371.545,-408.613C346.809,-398.275 317.684,-386.103 292.499,-375.576"/>
<polygon fill="midnightblue" stroke="midnightblue" points="370.216,-411.852 380.793,-412.479 372.916,-405.393 370.216,-411.852"/>
</g>
<!-- Node4 -->
<g id="node4" class="node"><title>Node4</title>
<g id="a_node4"><a xlink:href="a00084.html" target="_top" xlink:title="/home/travis/build\l/STORM&#45;IRIT/OpenGR/src\l/gr/algorithms/match3pcs.h">
<polygon fill="white" stroke="black" points="91,-156.5 91,-197.5 240,-197.5 240,-156.5 91,-156.5"/>
<text text-anchor="start" x="99" y="-185.5" font-family="Helvetica,sans-Serif" font-size="10.00">/home/travis/build</text>
<text text-anchor="start" x="99" y="-174.5" font-family="Helvetica,sans-Serif" font-size="10.00">/STORM&#45;IRIT/OpenGR/src</text>
<text text-anchor="middle" x="165.5" y="-163.5" font-family="Helvetica,sans-Serif" font-size="10.00">/gr/algorithms/match3pcs.h</text>
</a>
</g>
</g>
<!-- Node1&#45;&gt;Node4 -->
<g id="edge13" class="edge"><title>Node1&#45;&gt;Node4</title>
<path fill="none" stroke="midnightblue" d="M351.238,-428.92C270.046,-423.85 149.328,-410.562 120.5,-376 80.0756,-327.535 99.5451,-293.531 120.5,-234 125.304,-220.353 134.994,-207.576 144.155,-197.682"/>
<polygon fill="midnightblue" stroke="midnightblue" points="351.239,-432.426 361.429,-429.526 351.655,-425.438 351.239,-432.426"/>
</g>
<!-- Node5 -->
<g id="node5" class="node"><title>Node5</title>
<g id="a_node5"><a xlink:href="a00085.html" target="_top" xlink:title="/home/travis/build\l/STORM&#45;IRIT/OpenGR/src\l/gr/algorithms/match3pcs.hpp">
<polygon fill="white" stroke="black" points="0,-78.5 0,-119.5 161,-119.5 161,-78.5 0,-78.5"/>
<text text-anchor="start" x="8" y="-107.5" font-family="Helvetica,sans-Serif" font-size="10.00">/home/travis/build</text>
<text text-anchor="start" x="8" y="-96.5" font-family="Helvetica,sans-Serif" font-size="10.00">/STORM&#45;IRIT/OpenGR/src</text>
<text text-anchor="middle" x="80.5" y="-85.5" font-family="Helvetica,sans-Serif" font-size="10.00">/gr/algorithms/match3pcs.hpp</text>
</a>
</g>
</g>
<!-- Node1&#45;&gt;Node5 -->
<g id="edge20" class="edge"><title>Node1&#45;&gt;Node5</title>
<path fill="none" stroke="midnightblue" d="M351.133,-429.829C263.358,-425.584 127.054,-413.044 93.5,-376 27.4832,-303.115 58.8602,-169.975 73.982,-119.819"/>
<polygon fill="midnightblue" stroke="midnightblue" points="351.171,-433.334 361.321,-430.295 351.491,-426.341 351.171,-433.334"/>
</g>
<!-- Node6 -->
<g id="node6" class="node"><title>Node6</title>
<g id="a_node6"><a xlink:href="a00086.html" target="_top" xlink:title="/home/travis/build\l/STORM&#45;IRIT/OpenGR/src\l/gr/algorithms/match4pcsBase.h">
<polygon fill="white" stroke="black" points="419,-156.5 419,-197.5 592,-197.5 592,-156.5 419,-156.5"/>
<text text-anchor="start" x="427" y="-185.5" font-family="Helvetica,sans-Serif" font-size="10.00">/home/travis/build</text>
<text text-anchor="start" x="427" y="-174.5" font-family="Helvetica,sans-Serif" font-size="10.00">/STORM&#45;IRIT/OpenGR/src</text>
<text text-anchor="middle" x="505.5" y="-163.5" font-family="Helvetica,sans-Serif" font-size="10.00">/gr/algorithms/match4pcsBase.h</text>
</a>
</g>
</g>
<!-- Node1&#45;&gt;Node6 -->
<g id="edge21" class="edge"><title>Node1&#45;&gt;Node6</title>
<path fill="none" stroke="midnightblue" d="M487.601,-407.616C502.484,-399.34 517.346,-388.854 528.5,-376 556.252,-344.019 554.817,-328.641 562.5,-287 566.774,-263.835 571.611,-255.722 562.5,-234 556.491,-219.672 544.829,-207.162 533.612,-197.622"/>
<polygon fill="midnightblue" stroke="midnightblue" points="485.578,-404.726 478.363,-412.485 488.842,-410.918 485.578,-404.726"/>
</g>
<!-- Node8 -->
<g id="node8" class="node"><title>Node8</title>
<g id="a_node8"><a xlink:href="a00087.html" target="_top" xlink:title="/home/travis/build\l/STORM&#45;IRIT/OpenGR/src\l/gr/algorithms/match4pcsBase.hpp">
<polygon fill="white" stroke="black" points="583,-78.5 583,-119.5 768,-119.5 768,-78.5 583,-78.5"/>
<text text-anchor="start" x="591" y="-107.5" font-family="Helvetica,sans-Serif" font-size="10.00">/home/travis/build</text>
<text text-anchor="start" x="591" y="-96.5" font-family="Helvetica,sans-Serif" font-size="10.00">/STORM&#45;IRIT/OpenGR/src</text>
<text text-anchor="middle" x="675.5" y="-85.5" font-family="Helvetica,sans-Serif" font-size="10.00">/gr/algorithms/match4pcsBase.hpp</text>
</a>
</g>
</g>
<!-- Node1&#45;&gt;Node8 -->
<g id="edge22" class="edge"><title>Node1&#45;&gt;Node8</title>
<path fill="none" stroke="midnightblue" d="M503.031,-410.361C522.276,-402.047 541.682,-390.855 556.5,-376 631.861,-300.451 662.758,-169.481 672.139,-119.843"/>
<polygon fill="midnightblue" stroke="midnightblue" points="501.546,-407.187 493.618,-414.215 504.199,-413.665 501.546,-407.187"/>
</g>
<!-- Node11 -->
<g id="node11" class="node"><title>Node11</title>
<g id="a_node11"><a xlink:href="a00088.html" target="_top" xlink:title="/home/travis/build\l/STORM&#45;IRIT/OpenGR/src\l/gr/algorithms/matchBase.h">
<polygon fill="white" stroke="black" points="352.5,-329 352.5,-370 502.5,-370 502.5,-329 352.5,-329"/>
<text text-anchor="start" x="360.5" y="-358" font-family="Helvetica,sans-Serif" font-size="10.00">/home/travis/build</text>
<text text-anchor="start" x="360.5" y="-347" font-family="Helvetica,sans-Serif" font-size="10.00">/STORM&#45;IRIT/OpenGR/src</text>
<text text-anchor="middle" x="427.5" y="-336" font-family="Helvetica,sans-Serif" font-size="10.00">/gr/algorithms/matchBase.h</text>
</a>
</g>
</g>
<!-- Node1&#45;&gt;Node11 -->
<g id="edge14" class="edge"><title>Node1&#45;&gt;Node11</title>
<path fill="none" stroke="midnightblue" d="M427.5,-402.065C427.5,-391.382 427.5,-379.63 427.5,-370.047"/>
<polygon fill="midnightblue" stroke="midnightblue" points="424,-402.271 427.5,-412.271 431,-402.271 424,-402.271"/>
</g>
<!-- Node12 -->
<g id="node12" class="node"><title>Node12</title>
<g id="a_node12"><a xlink:href="a00089.html" target="_top" xlink:title="/home/travis/build\l/STORM&#45;IRIT/OpenGR/src\l/gr/algorithms/matchBase.hpp">
<polygon fill="white" stroke="black" points="391.5,-240 391.5,-281 553.5,-281 553.5,-240 391.5,-240"/>
<text text-anchor="start" x="399.5" y="-269" font-family="Helvetica,sans-Serif" font-size="10.00">/home/travis/build</text>
<text text-anchor="start" x="399.5" y="-258" font-family="Helvetica,sans-Serif" font-size="10.00">/STORM&#45;IRIT/OpenGR/src</text>
<text text-anchor="middle" x="472.5" y="-247" font-family="Helvetica,sans-Serif" font-size="10.00">/gr/algorithms/matchBase.hpp</text>
</a>
</g>
</g>
<!-- Node1&#45;&gt;Node12 -->
<g id="edge19" class="edge"><title>Node1&#45;&gt;Node12</title>
<path fill="none" stroke="midnightblue" d="M482.083,-406.901C493.858,-398.788 504.778,-388.559 511.5,-376 528.246,-344.709 505.886,-304.832 488.754,-281.342"/>
<polygon fill="midnightblue" stroke="midnightblue" points="479.954,-404.108 473.406,-412.437 483.719,-410.009 479.954,-404.108"/>
</g>
<!-- Node3 -->
<g id="node3" class="node"><title>Node3</title>
<g id="a_node3"><a xlink:href="a00079.html" target="_top" xlink:title="/home/travis/build\l/STORM&#45;IRIT/OpenGR/src\l/gr/algorithms/congruentSetExploration\lBase.h">
<polygon fill="white" stroke="black" points="130,-234.5 130,-286.5 335,-286.5 335,-234.5 130,-234.5"/>
<text text-anchor="start" x="138" y="-274.5" font-family="Helvetica,sans-Serif" font-size="10.00">/home/travis/build</text>
<text text-anchor="start" x="138" y="-263.5" font-family="Helvetica,sans-Serif" font-size="10.00">/STORM&#45;IRIT/OpenGR/src</text>
<text text-anchor="start" x="138" y="-252.5" font-family="Helvetica,sans-Serif" font-size="10.00">/gr/algorithms/congruentSetExploration</text>
<text text-anchor="middle" x="232.5" y="-241.5" font-family="Helvetica,sans-Serif" font-size="10.00">Base.h</text>
</a>
</g>
</g>
<!-- Node2&#45;&gt;Node3 -->
<g id="edge2" class="edge"><title>Node2&#45;&gt;Node3</title>
<path fill="none" stroke="midnightblue" d="M225.858,-313.191C225.621,-304.282 225.775,-294.899 226.318,-286.607"/>
<polygon fill="midnightblue" stroke="midnightblue" points="222.368,-313.503 226.314,-323.336 229.361,-313.189 222.368,-313.503"/>
</g>
<!-- Node3&#45;&gt;Node2 -->
<g id="edge3" class="edge"><title>Node3&#45;&gt;Node2</title>
<path fill="none" stroke="midnightblue" d="M239.141,-296.749C239.379,-305.655 239.227,-315.04 238.686,-323.336"/>
<polygon fill="midnightblue" stroke="midnightblue" points="242.631,-296.439 238.682,-286.607 235.638,-296.755 242.631,-296.439"/>
</g>
<!-- Node3&#45;&gt;Node4 -->
<g id="edge4" class="edge"><title>Node3&#45;&gt;Node4</title>
<path fill="none" stroke="midnightblue" d="M205.119,-226.194C197.139,-216.487 188.68,-206.197 181.636,-197.628"/>
<polygon fill="midnightblue" stroke="midnightblue" points="202.614,-228.658 211.668,-234.16 208.021,-224.212 202.614,-228.658"/>
</g>
<!-- Node3&#45;&gt;Node6 -->
<g id="edge7" class="edge"><title>Node3&#45;&gt;Node6</title>
<path fill="none" stroke="midnightblue" d="M326.195,-231.529C363.702,-220.332 406.006,-207.702 440.1,-197.524"/>
<polygon fill="midnightblue" stroke="midnightblue" points="324.845,-228.279 316.264,-234.493 326.848,-234.987 324.845,-228.279"/>
</g>
<!-- Node4&#45;&gt;Node5 -->
<g id="edge5" class="edge"><title>Node4&#45;&gt;Node5</title>
<path fill="none" stroke="midnightblue" d="M129.72,-149.779C118.092,-139.843 105.804,-128.716 96.3332,-119.506"/>
<polygon fill="midnightblue" stroke="midnightblue" points="127.717,-152.667 137.622,-156.428 132.224,-147.311 127.717,-152.667"/>
</g>
<!-- Node5&#45;&gt;Node4 -->
<g id="edge6" class="edge"><title>Node5&#45;&gt;Node4</title>
<path fill="none" stroke="midnightblue" d="M116.196,-126.15C127.821,-136.08 140.114,-147.209 149.599,-156.428"/>
<polygon fill="midnightblue" stroke="midnightblue" points="118.203,-123.265 108.298,-119.506 113.697,-128.621 118.203,-123.265"/>
</g>
<!-- Node7 -->
<g id="node7" class="node"><title>Node7</title>
<g id="a_node7"><a xlink:href="a00082.html" target="_top" xlink:title="/home/travis/build\l/STORM&#45;IRIT/OpenGR/src\l/gr/algorithms/FunctorBrute4pcs.h">
<polygon fill="white" stroke="black" points="179,-78.5 179,-119.5 358,-119.5 358,-78.5 179,-78.5"/>
<text text-anchor="start" x="187" y="-107.5" font-family="Helvetica,sans-Serif" font-size="10.00">/home/travis/build</text>
<text text-anchor="start" x="187" y="-96.5" font-family="Helvetica,sans-Serif" font-size="10.00">/STORM&#45;IRIT/OpenGR/src</text>
<text text-anchor="middle" x="268.5" y="-85.5" font-family="Helvetica,sans-Serif" font-size="10.00">/gr/algorithms/FunctorBrute4pcs.h</text>
</a>
</g>
</g>
<!-- Node6&#45;&gt;Node7 -->
<g id="edge8" class="edge"><title>Node6&#45;&gt;Node7</title>
<path fill="none" stroke="midnightblue" d="M434.724,-153.304C401.176,-142.546 361.5,-129.823 329.327,-119.506"/>
<polygon fill="midnightblue" stroke="midnightblue" points="433.875,-156.707 444.467,-156.428 436.013,-150.042 433.875,-156.707"/>
</g>
<!-- Node6&#45;&gt;Node8 -->
<g id="edge9" class="edge"><title>Node6&#45;&gt;Node8</title>
<path fill="none" stroke="midnightblue" d="M552.448,-152.189C575.289,-141.675 602.703,-129.469 625.887,-119.506"/>
<polygon fill="midnightblue" stroke="midnightblue" points="550.895,-149.051 543.291,-156.428 553.836,-155.403 550.895,-149.051"/>
</g>
<!-- Node9 -->
<g id="node9" class="node"><title>Node9</title>
<g id="a_node9"><a xlink:href="a00090.html" target="_top" xlink:title="/home/travis/build\l/STORM&#45;IRIT/OpenGR/src\l/gr/algorithms/pairCreationFunctor.h">
<polygon fill="white" stroke="black" points="376.5,-78.5 376.5,-119.5 564.5,-119.5 564.5,-78.5 376.5,-78.5"/>
<text text-anchor="start" x="384.5" y="-107.5" font-family="Helvetica,sans-Serif" font-size="10.00">/home/travis/build</text>
<text text-anchor="start" x="384.5" y="-96.5" font-family="Helvetica,sans-Serif" font-size="10.00">/STORM&#45;IRIT/OpenGR/src</text>
<text text-anchor="middle" x="470.5" y="-85.5" font-family="Helvetica,sans-Serif" font-size="10.00">/gr/algorithms/pairCreationFunctor.h</text>
</a>
</g>
</g>
<!-- Node6&#45;&gt;Node9 -->
<g id="edge11" class="edge"><title>Node6&#45;&gt;Node9</title>
<path fill="none" stroke="midnightblue" d="M492.225,-147.174C487.969,-137.932 483.357,-127.919 479.483,-119.506"/>
<polygon fill="midnightblue" stroke="midnightblue" points="489.124,-148.809 496.487,-156.428 495.483,-145.881 489.124,-148.809"/>
</g>
<!-- Node8&#45;&gt;Node6 -->
<g id="edge10" class="edge"><title>Node8&#45;&gt;Node6</title>
<path fill="none" stroke="midnightblue" d="M628.703,-123.741C605.883,-134.248 578.47,-146.455 555.267,-156.428"/>
<polygon fill="midnightblue" stroke="midnightblue" points="630.247,-126.883 637.851,-119.506 627.306,-120.531 630.247,-126.883"/>
</g>
<!-- Node10 -->
<g id="node10" class="node"><title>Node10</title>
<g id="a_node10"><a xlink:href="a00083.html" target="_top" xlink:title="/home/travis/build\l/STORM&#45;IRIT/OpenGR/src\l/gr/algorithms/FunctorSuper4pcs.h">
<polygon fill="white" stroke="black" points="379.5,-0.5 379.5,-41.5 561.5,-41.5 561.5,-0.5 379.5,-0.5"/>
<text text-anchor="start" x="387.5" y="-29.5" font-family="Helvetica,sans-Serif" font-size="10.00">/home/travis/build</text>
<text text-anchor="start" x="387.5" y="-18.5" font-family="Helvetica,sans-Serif" font-size="10.00">/STORM&#45;IRIT/OpenGR/src</text>
<text text-anchor="middle" x="470.5" y="-7.5" font-family="Helvetica,sans-Serif" font-size="10.00">/gr/algorithms/FunctorSuper4pcs.h</text>
</a>
</g>
</g>
<!-- Node9&#45;&gt;Node10 -->
<g id="edge12" class="edge"><title>Node9&#45;&gt;Node10</title>
<path fill="none" stroke="midnightblue" d="M470.5,-68.2965C470.5,-59.3009 470.5,-49.6532 470.5,-41.5056"/>
<polygon fill="midnightblue" stroke="midnightblue" points="467,-68.4281 470.5,-78.4281 474,-68.4281 467,-68.4281"/>
</g>
<!-- Node11&#45;&gt;Node3 -->
<g id="edge15" class="edge"><title>Node11&#45;&gt;Node3</title>
<path fill="none" stroke="midnightblue" d="M374.585,-324.892C347.993,-313.028 315.762,-298.648 288.724,-286.585"/>
<polygon fill="midnightblue" stroke="midnightblue" points="373.18,-328.097 383.738,-328.976 376.032,-321.705 373.18,-328.097"/>
</g>
<!-- Node11&#45;&gt;Node4 -->
<g id="edge16" class="edge"><title>Node11&#45;&gt;Node4</title>
<path fill="none" stroke="midnightblue" d="M407.153,-320.711C382.38,-286.884 343.772,-234.195 343.5,-234 313.076,-212.219 273.872,-198.692 240.003,-190.406"/>
<polygon fill="midnightblue" stroke="midnightblue" points="404.389,-322.861 413.121,-328.861 410.037,-318.725 404.389,-322.861"/>
</g>
<!-- Node11&#45;&gt;Node12 -->
<g id="edge17" class="edge"><title>Node11&#45;&gt;Node12</title>
<path fill="none" stroke="midnightblue" d="M436.068,-319.558C441.965,-306.949 449.658,-292.495 456.576,-281.164"/>
<polygon fill="midnightblue" stroke="midnightblue" points="432.841,-318.201 431.95,-328.758 439.23,-321.06 432.841,-318.201"/>
</g>
<!-- Node12&#45;&gt;Node11 -->
<g id="edge18" class="edge"><title>Node12&#45;&gt;Node11</title>
<path fill="none" stroke="midnightblue" d="M463.973,-290.355C458.083,-302.956 450.394,-317.412 443.472,-328.758"/>
<polygon fill="midnightblue" stroke="midnightblue" points="467.196,-291.721 468.083,-281.164 460.806,-288.864 467.196,-291.721"/>
</g>
</g>
</svg>
        <g id="navigator" transform="translate(0 0)" fill="#404254">
                <rect fill="#f2f5e9" fill-opacity="0.5" stroke="#606060" stroke-width=".5" x="0" y="0" width="60" height="60"/>
                <use id="zoomplus" xlink:href="#zoomPlus" x="17" y="9" onmousedown="handleZoom(evt,'in')"/>
                <use id="zoomminus" xlink:href="#zoomMin" x="42" y="9" onmousedown="handleZoom(evt,'out')"/>
                <use id="reset" xlink:href="#resetDef" x="30" y="36" onmousedown="handleReset()"/>
                <g id="arrowUp" xlink:href="#dirArrow" transform="translate(30 24)" onmousedown="handlePan(0,-1)">
                  <use xlink:href="#rim" fill="#404040">
                        <set attributeName="fill" to="#808080" begin="arrowUp.mouseover" end="arrowUp.mouseout"/>
                  </use>
                  <path fill="none" stroke="white" stroke-width="1.5" d="M0,-3.0v7 M-2.5,-0.5L0,-3.0L2.5,-0.5"/>
                </g>
                <g id="arrowRight" xlink:href="#dirArrow" transform="rotate(90) translate(36 -43)" onmousedown="handlePan(1,0)">
                  <use xlink:href="#rim" fill="#404040">
                        <set attributeName="fill" to="#808080" begin="arrowRight.mouseover" end="arrowRight.mouseout"/>
                  </use>
                  <path fill="none" stroke="white" stroke-width="1.5" d="M0,-3.0v7 M-2.5,-0.5L0,-3.0L2.5,-0.5"/>
                </g>
                <g id="arrowDown" xlink:href="#dirArrow" transform="rotate(180) translate(-30 -48)" onmousedown="handlePan(0,1)">
                  <use xlink:href="#rim" fill="#404040">
                        <set attributeName="fill" to="#808080" begin="arrowDown.mouseover" end="arrowDown.mouseout"/>
                  </use>
                  <path fill="none" stroke="white" stroke-width="1.5" d="M0,-3.0v7 M-2.5,-0.5L0,-3.0L2.5,-0.5"/>
                </g>
                <g id="arrowLeft" xlink:href="#dirArrow" transform="rotate(270) translate(-36 17)" onmousedown="handlePan(-1,0)">
                  <use xlink:href="#rim" fill="#404040">
                        <set attributeName="fill" to="#808080" begin="arrowLeft.mouseover" end="arrowLeft.mouseout"/>
                  </use>
                  <path fill="none" stroke="white" stroke-width="1.5" d="M0,-3.0v7 M-2.5,-0.5L0,-3.0L2.5,-0.5"/>
                </g>
        </g>
        <svg viewBox="0 0 15 15" width="100%" height="30px" preserveAspectRatio="xMaxYMin meet">
         <g id="arrow_out" transform="scale(0.3 0.3)">
          <a xlink:href="a00144_org.svg" target="_base">
           <rect id="button" ry="5" rx="5" y="6" x="6" height="38" width="38"
                fill="#f2f5e9" fill-opacity="0.5" stroke="#606060" stroke-width="1.0"/>
           <path id="arrow"
             d="M 11.500037,31.436501 C 11.940474,20.09759 22.043105,11.32322 32.158766,21.979434 L 37.068811,17.246167 C 37.068811,17.246167 37.088388,32 37.088388,32 L 22.160133,31.978069 C 22.160133,31.978069 26.997745,27.140456 26.997745,27.140456 C 18.528582,18.264221 13.291696,25.230495 11.500037,31.436501 z"
             style="fill:#404040;"/>
          </a>
         </g>
        </svg>
</svg>
