<?xml version="1.0" encoding="UTF-8" standalone="no"?>
<!DOCTYPE svg PUBLIC "-//W3C//DTD SVG 1.1//EN"
 "http://www.w3.org/Graphics/SVG/1.1/DTD/svg11.dtd">
<!-- Generated by graphviz version 2.38.0 (20140413.2041)
 -->
<!-- Title: /home/travis/build/STORM&#45;IRIT/OpenGR/src/gr/accelerators/utils.h Pages: 1 -->
<svg width="801pt" height="384pt"
 viewBox="0.00 0.00 800.50 384.00" xmlns="http://www.w3.org/2000/svg" xmlns:xlink="http://www.w3.org/1999/xlink">
<g id="graph0" class="graph" transform="scale(1 1) rotate(0) translate(4 380)">
<title>/home/travis/build/STORM&#45;IRIT/OpenGR/src/gr/accelerators/utils.h</title>
<polygon fill="white" stroke="none" points="-4,4 -4,-380 796.5,-380 796.5,4 -4,4"/>
<!-- Node1 -->
<g id="node1" class="node"><title>Node1</title>
<polygon fill="#bfbfbf" stroke="black" points="248,-334.5 248,-375.5 380,-375.5 380,-334.5 248,-334.5"/>
<text text-anchor="start" x="256" y="-363.5" font-family="Helvetica,sans-Serif" font-size="10.00">/home/travis/build</text>
<text text-anchor="start" x="256" y="-352.5" font-family="Helvetica,sans-Serif" font-size="10.00">/STORM&#45;IRIT/OpenGR/src</text>
<text text-anchor="middle" x="314" y="-341.5" font-family="Helvetica,sans-Serif" font-size="10.00">/gr/accelerators/utils.h</text>
</g>
<!-- Node2 -->
<g id="node2" class="node"><title>Node2</title>
<g id="a_node2"><a xlink:href="a00071.html" target="_top" xlink:title="/home/travis/build\l/STORM&#45;IRIT/OpenGR/src\l/gr/accelerators/normalHealSet.h">
<polygon fill="white" stroke="black" points="0,-251 0,-292 176,-292 176,-251 0,-251"/>
<text text-anchor="start" x="8" y="-280" font-family="Helvetica,sans-Serif" font-size="10.00">/home/travis/build</text>
<text text-anchor="start" x="8" y="-269" font-family="Helvetica,sans-Serif" font-size="10.00">/STORM&#45;IRIT/OpenGR/src</text>
<text text-anchor="middle" x="88" y="-258" font-family="Helvetica,sans-Serif" font-size="10.00">/gr/accelerators/normalHealSet.h</text>
</a>
</g>
</g>
<!-- Node1&#45;&gt;Node2 -->
<g id="edge1" class="edge"><title>Node1&#45;&gt;Node2</title>
<path fill="none" stroke="midnightblue" d="M250.45,-331.083C216.306,-318.77 174.659,-303.751 142.082,-292.003"/>
<polygon fill="midnightblue" stroke="midnightblue" points="249.273,-334.379 259.867,-334.479 251.648,-327.794 249.273,-334.379"/>
</g>
<!-- Node3 -->
<g id="node3" class="node"><title>Node3</title>
<g id="a_node3"><a xlink:href="a00072.html" target="_top" xlink:title="/home/travis/build\l/STORM&#45;IRIT/OpenGR/src\l/gr/accelerators/normalset.h">
<polygon fill="white" stroke="black" points="238,-162 238,-203 390,-203 390,-162 238,-162"/>
<text text-anchor="start" x="246" y="-191" font-family="Helvetica,sans-Serif" font-size="10.00">/home/travis/build</text>
<text text-anchor="start" x="246" y="-180" font-family="Helvetica,sans-Serif" font-size="10.00">/STORM&#45;IRIT/OpenGR/src</text>
<text text-anchor="middle" x="314" y="-169" font-family="Helvetica,sans-Serif" font-size="10.00">/gr/accelerators/normalset.h</text>
</a>
</g>
</g>
<!-- Node1&#45;&gt;Node3 -->
<g id="edge2" class="edge"><title>Node1&#45;&gt;Node3</title>
<path fill="none" stroke="midnightblue" d="M254.195,-329.244C241.732,-321.185 230.205,-310.894 223,-298 211.51,-277.437 211.951,-265.803 223,-245 232.66,-226.813 250.365,-213.025 267.609,-203.162"/>
<polygon fill="midnightblue" stroke="midnightblue" points="252.553,-332.34 262.931,-334.472 256.147,-326.334 252.553,-332.34"/>
</g>
<!-- Node4 -->
<g id="node4" class="node"><title>Node4</title>
<g id="a_node4"><a xlink:href="a00083.html" target="_top" xlink:title="/home/travis/build\l/STORM&#45;IRIT/OpenGR/src\l/gr/algorithms/FunctorSuper4pcs.h">
<polygon fill="white" stroke="black" points="333,-0.5 333,-41.5 515,-41.5 515,-0.5 333,-0.5"/>
<text text-anchor="start" x="341" y="-29.5" font-family="Helvetica,sans-Serif" font-size="10.00">/home/travis/build</text>
<text text-anchor="start" x="341" y="-18.5" font-family="Helvetica,sans-Serif" font-size="10.00">/STORM&#45;IRIT/OpenGR/src</text>
<text text-anchor="middle" x="424" y="-7.5" font-family="Helvetica,sans-Serif" font-size="10.00">/gr/algorithms/FunctorSuper4pcs.h</text>
</a>
</g>
</g>
<!-- Node1&#45;&gt;Node4 -->
<g id="edge12" class="edge"><title>Node1&#45;&gt;Node4</title>
<path fill="none" stroke="midnightblue" d="M372.798,-329.127C385.424,-321.041 397.278,-310.768 405,-298 455.582,-214.365 437.753,-89.292 428.312,-41.5099"/>
<polygon fill="midnightblue" stroke="midnightblue" points="370.777,-326.256 363.975,-334.378 374.358,-332.271 370.777,-326.256"/>
</g>
<!-- Node5 -->
<g id="node5" class="node"><title>Node5</title>
<g id="a_node5"><a xlink:href="a00073.html" target="_top" xlink:title="/home/travis/build\l/STORM&#45;IRIT/OpenGR/src\l/gr/accelerators/normalset.hpp">
<polygon fill="white" stroke="black" points="232,-251 232,-292 396,-292 396,-251 232,-251"/>
<text text-anchor="start" x="240" y="-280" font-family="Helvetica,sans-Serif" font-size="10.00">/home/travis/build</text>
<text text-anchor="start" x="240" y="-269" font-family="Helvetica,sans-Serif" font-size="10.00">/STORM&#45;IRIT/OpenGR/src</text>
<text text-anchor="middle" x="314" y="-258" font-family="Helvetica,sans-Serif" font-size="10.00">/gr/accelerators/normalset.hpp</text>
</a>
</g>
</g>
<!-- Node1&#45;&gt;Node5 -->
<g id="edge4" class="edge"><title>Node1&#45;&gt;Node5</title>
<path fill="none" stroke="midnightblue" d="M314,-324.065C314,-313.382 314,-301.63 314,-292.047"/>
<polygon fill="midnightblue" stroke="midnightblue" points="310.5,-324.271 314,-334.271 317.5,-324.271 310.5,-324.271"/>
</g>
<!-- Node6 -->
<g id="node6" class="node"><title>Node6</title>
<g id="a_node6"><a xlink:href="a00076.html" target="_top" xlink:title="/home/travis/build\l/STORM&#45;IRIT/OpenGR/src\l/gr/accelerators/pairExtraction\l/intersectionNode.h">
<polygon fill="white" stroke="black" points="452.5,-245.5 452.5,-297.5 613.5,-297.5 613.5,-245.5 452.5,-245.5"/>
<text text-anchor="start" x="460.5" y="-285.5" font-family="Helvetica,sans-Serif" font-size="10.00">/home/travis/build</text>
<text text-anchor="start" x="460.5" y="-274.5" font-family="Helvetica,sans-Serif" font-size="10.00">/STORM&#45;IRIT/OpenGR/src</text>
<text text-anchor="start" x="460.5" y="-263.5" font-family="Helvetica,sans-Serif" font-size="10.00">/gr/accelerators/pairExtraction</text>
<text text-anchor="middle" x="533" y="-252.5" font-family="Helvetica,sans-Serif" font-size="10.00">/intersectionNode.h</text>
</a>
</g>
</g>
<!-- Node1&#45;&gt;Node6 -->
<g id="edge6" class="edge"><title>Node1&#45;&gt;Node6</title>
<path fill="none" stroke="midnightblue" d="M376.109,-330.886C404.046,-320.49 437.082,-308.195 465.617,-297.576"/>
<polygon fill="midnightblue" stroke="midnightblue" points="374.607,-327.711 366.456,-334.479 377.049,-334.271 374.607,-327.711"/>
</g>
<!-- Node3&#45;&gt;Node4 -->
<g id="edge3" class="edge"><title>Node3&#45;&gt;Node4</title>
<path fill="none" stroke="midnightblue" d="M333.339,-153.459C355.438,-121.414 391.042,-69.7892 410.402,-41.7178"/>
<polygon fill="midnightblue" stroke="midnightblue" points="330.284,-151.723 327.488,-161.942 336.047,-155.697 330.284,-151.723"/>
</g>
<!-- Node5&#45;&gt;Node3 -->
<g id="edge5" class="edge"><title>Node5&#45;&gt;Node3</title>
<path fill="none" stroke="midnightblue" d="M314,-240.441C314,-228.101 314,-214.162 314,-203.164"/>
<polygon fill="midnightblue" stroke="midnightblue" points="310.5,-240.758 314,-250.758 317.5,-240.758 310.5,-240.758"/>
</g>
<!-- Node7 -->
<g id="node7" class="node"><title>Node7</title>
<g id="a_node7"><a xlink:href="a00074.html" target="_top" xlink:title="/home/travis/build\l/STORM&#45;IRIT/OpenGR/src\l/gr/accelerators/pairExtraction\l/bruteForceFunctor.h">
<polygon fill="white" stroke="black" points="452.5,-156.5 452.5,-208.5 613.5,-208.5 613.5,-156.5 452.5,-156.5"/>
<text text-anchor="start" x="460.5" y="-196.5" font-family="Helvetica,sans-Serif" font-size="10.00">/home/travis/build</text>
<text text-anchor="start" x="460.5" y="-185.5" font-family="Helvetica,sans-Serif" font-size="10.00">/STORM&#45;IRIT/OpenGR/src</text>
<text text-anchor="start" x="460.5" y="-174.5" font-family="Helvetica,sans-Serif" font-size="10.00">/gr/accelerators/pairExtraction</text>
<text text-anchor="middle" x="533" y="-163.5" font-family="Helvetica,sans-Serif" font-size="10.00">/bruteForceFunctor.h</text>
</a>
</g>
</g>
<!-- Node6&#45;&gt;Node7 -->
<g id="edge7" class="edge"><title>Node6&#45;&gt;Node7</title>
<path fill="none" stroke="midnightblue" d="M533,-235.191C533,-226.282 533,-216.899 533,-208.607"/>
<polygon fill="midnightblue" stroke="midnightblue" points="529.5,-235.336 533,-245.336 536.5,-235.336 529.5,-235.336"/>
</g>
<!-- Node9 -->
<g id="node9" class="node"><title>Node9</title>
<g id="a_node9"><a xlink:href="a00075.html" target="_top" xlink:title="/home/travis/build\l/STORM&#45;IRIT/OpenGR/src\l/gr/accelerators/pairExtraction\l/intersectionFunctor.h">
<polygon fill="white" stroke="black" points="631.5,-156.5 631.5,-208.5 792.5,-208.5 792.5,-156.5 631.5,-156.5"/>
<text text-anchor="start" x="639.5" y="-196.5" font-family="Helvetica,sans-Serif" font-size="10.00">/home/travis/build</text>
<text text-anchor="start" x="639.5" y="-185.5" font-family="Helvetica,sans-Serif" font-size="10.00">/STORM&#45;IRIT/OpenGR/src</text>
<text text-anchor="start" x="639.5" y="-174.5" font-family="Helvetica,sans-Serif" font-size="10.00">/gr/accelerators/pairExtraction</text>
<text text-anchor="middle" x="712" y="-163.5" font-family="Helvetica,sans-Serif" font-size="10.00">/intersectionFunctor.h</text>
</a>
</g>
</g>
<!-- Node6&#45;&gt;Node9 -->
<g id="edge10" class="edge"><title>Node6&#45;&gt;Node9</title>
<path fill="none" stroke="midnightblue" d="M593.866,-240.917C615.476,-230.414 639.575,-218.701 660.342,-208.607"/>
<polygon fill="midnightblue" stroke="midnightblue" points="592.238,-237.817 584.774,-245.336 595.298,-244.112 592.238,-237.817"/>
</g>
<!-- Node8 -->
<g id="node8" class="node"><title>Node8</title>
<g id="a_node8"><a xlink:href="a00090.html" target="_top" xlink:title="/home/travis/build\l/STORM&#45;IRIT/OpenGR/src\l/gr/algorithms/pairCreationFunctor.h">
<polygon fill="white" stroke="black" points="452,-78.5 452,-119.5 640,-119.5 640,-78.5 452,-78.5"/>
<text text-anchor="start" x="460" y="-107.5" font-family="Helvetica,sans-Serif" font-size="10.00">/home/travis/build</text>
<text text-anchor="start" x="460" y="-96.5" font-family="Helvetica,sans-Serif" font-size="10.00">/STORM&#45;IRIT/OpenGR/src</text>
<text text-anchor="middle" x="546" y="-85.5" font-family="Helvetica,sans-Serif" font-size="10.00">/gr/algorithms/pairCreationFunctor.h</text>
</a>
</g>
</g>
<!-- Node7&#45;&gt;Node8 -->
<g id="edge8" class="edge"><title>Node7&#45;&gt;Node8</title>
<path fill="none" stroke="midnightblue" d="M538.639,-146.147C540.089,-137.055 541.598,-127.597 542.869,-119.628"/>
<polygon fill="midnightblue" stroke="midnightblue" points="535.161,-145.733 537.042,-156.16 542.074,-146.836 535.161,-145.733"/>
</g>
<!-- Node8&#45;&gt;Node4 -->
<g id="edge9" class="edge"><title>Node8&#45;&gt;Node4</title>
<path fill="none" stroke="midnightblue" d="M505.739,-72.9194C489.337,-62.702 470.665,-51.0701 455.312,-41.5056"/>
<polygon fill="midnightblue" stroke="midnightblue" points="504.244,-76.1113 514.582,-78.4281 507.945,-70.1699 504.244,-76.1113"/>
</g>
<!-- Node9&#45;&gt;Node8 -->
<g id="edge11" class="edge"><title>Node9&#45;&gt;Node8</title>
<path fill="none" stroke="midnightblue" d="M651.624,-151.857C629.749,-141.118 605.604,-129.263 585.927,-119.603"/>
<polygon fill="midnightblue" stroke="midnightblue" points="650.321,-155.117 660.84,-156.382 653.406,-148.833 650.321,-155.117"/>
</g>
</g>
</svg>
