<?xml version="1.0" encoding="UTF-8" standalone="no"?>
<!DOCTYPE svg PUBLIC "-//W3C//DTD SVG 1.1//EN"
 "http://www.w3.org/Graphics/SVG/1.1/DTD/svg11.dtd">
<!-- Generated by graphviz version 2.38.0 (20140413.2041)
 -->
<!-- Title: /home/travis/build/STORM&#45;IRIT/OpenGR/src/gr/accelerators/pairExtraction/intersectionNode.h Pages: 1 -->
<svg width="259pt" height="173pt"
 viewBox="0.00 0.00 258.50 173.00" xmlns="http://www.w3.org/2000/svg" xmlns:xlink="http://www.w3.org/1999/xlink">
<g id="graph0" class="graph" transform="scale(1 1) rotate(0) translate(4 169)">
<title>/home/travis/build/STORM&#45;IRIT/OpenGR/src/gr/accelerators/pairExtraction/intersectionNode.h</title>
<polygon fill="white" stroke="none" points="-4,4 -4,-169 254.5,-169 254.5,4 -4,4"/>
<!-- Node1 -->
<g id="node1" class="node"><title>Node1</title>
<polygon fill="#bfbfbf" stroke="black" points="3.5,-112.5 3.5,-164.5 164.5,-164.5 164.5,-112.5 3.5,-112.5"/>
<text text-anchor="start" x="11.5" y="-152.5" font-family="Helvetica,sans-Serif" font-size="10.00">/home/travis/build</text>
<text text-anchor="start" x="11.5" y="-141.5" font-family="Helvetica,sans-Serif" font-size="10.00">/STORM&#45;IRIT/OpenGR/src</text>
<text text-anchor="start" x="11.5" y="-130.5" font-family="Helvetica,sans-Serif" font-size="10.00">/gr/accelerators/pairExtraction</text>
<text text-anchor="middle" x="84" y="-119.5" font-family="Helvetica,sans-Serif" font-size="10.00">/intersectionNode.h</text>
</g>
<!-- Node2 -->
<g id="node2" class="node"><title>Node2</title>
<polygon fill="white" stroke="#bfbfbf" points="23,-56.5 23,-75.5 53,-75.5 53,-56.5 23,-56.5"/>
<text text-anchor="middle" x="38" y="-63.5" font-family="Helvetica,sans-Serif" font-size="10.00">list</text>
</g>
<!-- Node1&#45;&gt;Node2 -->
<g id="edge1" class="edge"><title>Node1&#45;&gt;Node2</title>
<path fill="none" stroke="midnightblue" d="M67.6526,-112.446C61.5735,-103.129 54.8161,-92.7725 49.2891,-84.3018"/>
<polygon fill="midnightblue" stroke="midnightblue" points="52.0694,-82.1578 43.6736,-75.6955 46.207,-85.983 52.0694,-82.1578"/>
</g>
<!-- Node3 -->
<g id="node3" class="node"><title>Node3</title>
<g id="a_node3"><a xlink:href="a00078.html" target="_top" xlink:title="gr/accelerators/utils.h">
<polygon fill="white" stroke="black" points="71,-56.5 71,-75.5 191,-75.5 191,-56.5 71,-56.5"/>
<text text-anchor="middle" x="131" y="-63.5" font-family="Helvetica,sans-Serif" font-size="10.00">gr/accelerators/utils.h</text>
</a>
</g>
</g>
<!-- Node1&#45;&gt;Node3 -->
<g id="edge2" class="edge"><title>Node1&#45;&gt;Node3</title>
<path fill="none" stroke="midnightblue" d="M100.703,-112.446C106.981,-103.029 113.967,-92.5496 119.647,-84.0293"/>
<polygon fill="midnightblue" stroke="midnightblue" points="122.568,-85.9575 125.203,-75.6955 116.744,-82.0745 122.568,-85.9575"/>
</g>
<!-- Node4 -->
<g id="node4" class="node"><title>Node4</title>
<polygon fill="white" stroke="#bfbfbf" points="0,-0.5 0,-19.5 44,-19.5 44,-0.5 0,-0.5"/>
<text text-anchor="middle" x="22" y="-7.5" font-family="Helvetica,sans-Serif" font-size="10.00">string</text>
</g>
<!-- Node3&#45;&gt;Node4 -->
<g id="edge3" class="edge"><title>Node3&#45;&gt;Node4</title>
<path fill="none" stroke="midnightblue" d="M113.487,-56.324C95.9276,-47.6247 68.6686,-34.1202 48.4688,-24.113"/>
<polygon fill="midnightblue" stroke="midnightblue" points="49.9837,-20.9575 39.4693,-19.6545 46.8762,-27.23 49.9837,-20.9575"/>
</g>
<!-- Node5 -->
<g id="node5" class="node"><title>Node5</title>
<polygon fill="white" stroke="#bfbfbf" points="62,-0.5 62,-19.5 126,-19.5 126,-0.5 62,-0.5"/>
<text text-anchor="middle" x="94" y="-7.5" font-family="Helvetica,sans-Serif" font-size="10.00">stdexcept</text>
</g>
<!-- Node3&#45;&gt;Node5 -->
<g id="edge4" class="edge"><title>Node3&#45;&gt;Node5</title>
<path fill="none" stroke="midnightblue" d="M124.89,-56.083C119.718,-48.5341 112.154,-37.4948 105.806,-28.2298"/>
<polygon fill="midnightblue" stroke="midnightblue" points="108.536,-26.0221 99.9961,-19.7511 102.761,-29.9787 108.536,-26.0221"/>
</g>
<!-- Node6 -->
<g id="node6" class="node"><title>Node6</title>
<polygon fill="white" stroke="#bfbfbf" points="144.5,-0.5 144.5,-19.5 191.5,-19.5 191.5,-0.5 144.5,-0.5"/>
<text text-anchor="middle" x="168" y="-7.5" font-family="Helvetica,sans-Serif" font-size="10.00">cmath</text>
</g>
<!-- Node3&#45;&gt;Node6 -->
<g id="edge5" class="edge"><title>Node3&#45;&gt;Node6</title>
<path fill="none" stroke="midnightblue" d="M137.11,-56.083C142.282,-48.5341 149.846,-37.4948 156.194,-28.2298"/>
<polygon fill="midnightblue" stroke="midnightblue" points="159.239,-29.9787 162.004,-19.7511 153.464,-26.0221 159.239,-29.9787"/>
</g>
<!-- Node7 -->
<g id="node7" class="node"><title>Node7</title>
<polygon fill="white" stroke="#bfbfbf" points="209.5,-0.5 209.5,-19.5 250.5,-19.5 250.5,-0.5 209.5,-0.5"/>
<text text-anchor="middle" x="230" y="-7.5" font-family="Helvetica,sans-Serif" font-size="10.00">array</text>
</g>
<!-- Node3&#45;&gt;Node7 -->
<g id="edge6" class="edge"><title>Node3&#45;&gt;Node7</title>
<path fill="none" stroke="midnightblue" d="M146.906,-56.324C162.638,-47.7428 186.942,-34.486 205.209,-24.5224"/>
<polygon fill="midnightblue" stroke="midnightblue" points="207.03,-27.5157 214.133,-19.6545 203.678,-21.3704 207.03,-27.5157"/>
</g>
</g>
</svg>
