<?xml version="1.0" encoding="UTF-8" standalone="no"?>
<!DOCTYPE svg PUBLIC "-//W3C//DTD SVG 1.1//EN"
 "http://www.w3.org/Graphics/SVG/1.1/DTD/svg11.dtd">
<!-- Generated by graphviz version 2.38.0 (20140413.2041)
 -->
<!-- Title: /home/travis/build/STORM&#45;IRIT/OpenGR/src/gr/shared.h Pages: 1 -->
<!--zoomable 540 -->
<svg id="main" version="1.1" xmlns="http://www.w3.org/2000/svg" xmlns:xlink="http://www.w3.org/1999/xlink" xml:space="preserve" onload="init(evt)">
<style type="text/css"><![CDATA[
.edge:hover path { stroke: red; }
.edge:hover polygon { stroke: red; fill: red; }
]]></style>
<script type="text/javascript"><![CDATA[
var edges = document.getElementsByTagName('g');
if (edges && edges.length) {
  for (var i=0;i<edges.length;i++) {
    if (edges[i].id.substr(0,4)=='edge') {
      edges[i].setAttribute('class','edge');
    }
  }
}
]]></script>
        <defs>
                <circle id="rim" cx="0" cy="0" r="7"/>
                <circle id="rim2" cx="0" cy="0" r="3.5"/>
                <g id="zoomPlus">
                        <use xlink:href="#rim" fill="#404040">
                                <set attributeName="fill" to="#808080" begin="zoomplus.mouseover" end="zoomplus.mouseout"/>
                        </use>
                        <path d="M-4,0h8M0,-4v8" fill="none" stroke="white" stroke-width="1.5" pointer-events="none"/>
                </g>
                <g id="zoomMin">
                        <use xlink:href="#rim" fill="#404040">
                                <set attributeName="fill" to="#808080" begin="zoomminus.mouseover" end="zoomminus.mouseout"/>
                        </use>
                        <path d="M-4,0h8" fill="none" stroke="white" stroke-width="1.5" pointer-events="none"/>
                </g>
                <g id="dirArrow">
                        <path fill="none" stroke="white" stroke-width="1.5" d="M0,-3.0v7 M-2.5,-0.5L0,-3.0L2.5,-0.5"/>
                </g>
               <g id="resetDef">
                       <use xlink:href="#rim2" fill="#404040">
                               <set attributeName="fill" to="#808080" begin="reset.mouseover" end="reset.mouseout"/>
                       </use>
               </g>
        </defs>

<script type="text/javascript">
var viewWidth = 1514;
var viewHeight = 540;
var sectionId = 'dynsection-1';
</script>
<script xlink:href="svgpan.js"/>
<svg id="graph" class="graph">
<g id="viewport">
<title>/home/travis/build/STORM&#45;IRIT/OpenGR/src/gr/shared.h</title>
<polygon fill="white" stroke="none" points="-4,4 -4,-536 1509.5,-536 1509.5,4 -4,4"/>
<!-- Node1 -->
<g id="node1" class="node"><title>Node1</title>
<polygon fill="#bfbfbf" stroke="black" points="642.5,-490.5 642.5,-531.5 774.5,-531.5 774.5,-490.5 642.5,-490.5"/>
<text text-anchor="start" x="650.5" y="-519.5" font-family="Helvetica,sans-Serif" font-size="10.00">/home/travis/build</text>
<text text-anchor="start" x="650.5" y="-508.5" font-family="Helvetica,sans-Serif" font-size="10.00">/STORM&#45;IRIT/OpenGR/src</text>
<text text-anchor="middle" x="708.5" y="-497.5" font-family="Helvetica,sans-Serif" font-size="10.00">/gr/shared.h</text>
</g>
<!-- Node2 -->
<g id="node2" class="node"><title>Node2</title>
<g id="a_node2"><a xlink:href="a00079.html" target="_top" xlink:title="/home/travis/build\l/STORM&#45;IRIT/OpenGR/src\l/gr/algorithms/congruentSetExploration\lBase.h">
<polygon fill="white" stroke="black" points="67,-245.5 67,-297.5 272,-297.5 272,-245.5 67,-245.5"/>
<text text-anchor="start" x="75" y="-285.5" font-family="Helvetica,sans-Serif" font-size="10.00">/home/travis/build</text>
<text text-anchor="start" x="75" y="-274.5" font-family="Helvetica,sans-Serif" font-size="10.00">/STORM&#45;IRIT/OpenGR/src</text>
<text text-anchor="start" x="75" y="-263.5" font-family="Helvetica,sans-Serif" font-size="10.00">/gr/algorithms/congruentSetExploration</text>
<text text-anchor="middle" x="169.5" y="-252.5" font-family="Helvetica,sans-Serif" font-size="10.00">Base.h</text>
</a>
</g>
</g>
<!-- Node1&#45;&gt;Node2 -->
<g id="edge1" class="edge"><title>Node1&#45;&gt;Node2</title>
<path fill="none" stroke="midnightblue" d="M632.124,-505.803C503.15,-498.045 253.157,-479.859 222.5,-454 176.08,-414.845 169.073,-337.496 168.757,-297.603"/>
<polygon fill="midnightblue" stroke="midnightblue" points="632.139,-509.31 642.33,-506.41 632.555,-502.323 632.139,-509.31"/>
</g>
<!-- Node3 -->
<g id="node3" class="node"><title>Node3</title>
<g id="a_node3"><a xlink:href="a00080.html" target="_top" xlink:title="/home/travis/build\l/STORM&#45;IRIT/OpenGR/src\l/gr/algorithms/congruentSetExploration\lBase.hpp">
<polygon fill="white" stroke="black" points="0,-156.5 0,-208.5 205,-208.5 205,-156.5 0,-156.5"/>
<text text-anchor="start" x="8" y="-196.5" font-family="Helvetica,sans-Serif" font-size="10.00">/home/travis/build</text>
<text text-anchor="start" x="8" y="-185.5" font-family="Helvetica,sans-Serif" font-size="10.00">/STORM&#45;IRIT/OpenGR/src</text>
<text text-anchor="start" x="8" y="-174.5" font-family="Helvetica,sans-Serif" font-size="10.00">/gr/algorithms/congruentSetExploration</text>
<text text-anchor="middle" x="102.5" y="-163.5" font-family="Helvetica,sans-Serif" font-size="10.00">Base.hpp</text>
</a>
</g>
</g>
<!-- Node1&#45;&gt;Node3 -->
<g id="edge13" class="edge"><title>Node1&#45;&gt;Node3</title>
<path fill="none" stroke="midnightblue" d="M632.019,-508.364C506.753,-504.599 264.197,-492.433 188.5,-454 104.902,-411.555 80.3359,-385.437 46.5,-298 37.9989,-276.032 37.9971,-266.967 46.5,-245 51.8168,-231.264 61.7869,-218.711 71.8582,-208.578"/>
<polygon fill="midnightblue" stroke="midnightblue" points="632.202,-511.871 642.299,-508.663 632.405,-504.874 632.202,-511.871"/>
</g>
<!-- Node4 -->
<g id="node4" class="node"><title>Node4</title>
<g id="a_node4"><a xlink:href="a00084.html" target="_top" xlink:title="/home/travis/build\l/STORM&#45;IRIT/OpenGR/src\l/gr/algorithms/match3pcs.h">
<polygon fill="white" stroke="black" points="287,-162 287,-203 436,-203 436,-162 287,-162"/>
<text text-anchor="start" x="295" y="-191" font-family="Helvetica,sans-Serif" font-size="10.00">/home/travis/build</text>
<text text-anchor="start" x="295" y="-180" font-family="Helvetica,sans-Serif" font-size="10.00">/STORM&#45;IRIT/OpenGR/src</text>
<text text-anchor="middle" x="361.5" y="-169" font-family="Helvetica,sans-Serif" font-size="10.00">/gr/algorithms/match3pcs.h</text>
</a>
</g>
</g>
<!-- Node1&#45;&gt;Node4 -->
<g id="edge17" class="edge"><title>Node1&#45;&gt;Node4</title>
<path fill="none" stroke="midnightblue" d="M632.255,-503.289C572.019,-496.132 486.699,-481.82 416.5,-454 356.321,-430.151 324.694,-432.72 293.5,-376 260.962,-316.837 314.504,-239.129 344.033,-203.238"/>
<polygon fill="midnightblue" stroke="midnightblue" points="632.116,-506.796 642.45,-504.46 632.915,-499.841 632.116,-506.796"/>
</g>
<!-- Node5 -->
<g id="node5" class="node"><title>Node5</title>
<g id="a_node5"><a xlink:href="a00085.html" target="_top" xlink:title="/home/travis/build\l/STORM&#45;IRIT/OpenGR/src\l/gr/algorithms/match3pcs.hpp">
<polygon fill="white" stroke="black" points="328,-78.5 328,-119.5 489,-119.5 489,-78.5 328,-78.5"/>
<text text-anchor="start" x="336" y="-107.5" font-family="Helvetica,sans-Serif" font-size="10.00">/home/travis/build</text>
<text text-anchor="start" x="336" y="-96.5" font-family="Helvetica,sans-Serif" font-size="10.00">/STORM&#45;IRIT/OpenGR/src</text>
<text text-anchor="middle" x="408.5" y="-85.5" font-family="Helvetica,sans-Serif" font-size="10.00">/gr/algorithms/match3pcs.hpp</text>
</a>
</g>
</g>
<!-- Node1&#45;&gt;Node5 -->
<g id="edge24" class="edge"><title>Node1&#45;&gt;Node5</title>
<path fill="none" stroke="midnightblue" d="M696.834,-480.843C685.664,-450.258 670.5,-400.534 670.5,-356 670.5,-356 670.5,-356 670.5,-270.5 670.5,-182.855 566.228,-137.937 489.246,-116.718"/>
<polygon fill="midnightblue" stroke="midnightblue" points="693.648,-482.316 700.441,-490.447 700.201,-479.855 693.648,-482.316"/>
</g>
<!-- Node6 -->
<g id="node6" class="node"><title>Node6</title>
<g id="a_node6"><a xlink:href="a00086.html" target="_top" xlink:title="/home/travis/build\l/STORM&#45;IRIT/OpenGR/src\l/gr/algorithms/match4pcsBase.h">
<polygon fill="white" stroke="black" points="737,-162 737,-203 910,-203 910,-162 737,-162"/>
<text text-anchor="start" x="745" y="-191" font-family="Helvetica,sans-Serif" font-size="10.00">/home/travis/build</text>
<text text-anchor="start" x="745" y="-180" font-family="Helvetica,sans-Serif" font-size="10.00">/STORM&#45;IRIT/OpenGR/src</text>
<text text-anchor="middle" x="823.5" y="-169" font-family="Helvetica,sans-Serif" font-size="10.00">/gr/algorithms/match4pcsBase.h</text>
</a>
</g>
</g>
<!-- Node1&#45;&gt;Node6 -->
<g id="edge25" class="edge"><title>Node1&#45;&gt;Node6</title>
<path fill="none" stroke="midnightblue" d="M738.744,-483.117C746.855,-474.532 754.913,-464.51 760.5,-454 806.219,-367.995 819.013,-249.298 822.376,-203.05"/>
<polygon fill="midnightblue" stroke="midnightblue" points="736.213,-480.698 731.664,-490.267 741.187,-485.624 736.213,-480.698"/>
</g>
<!-- Node7 -->
<g id="node7" class="node"><title>Node7</title>
<g id="a_node7"><a xlink:href="a00082.html" target="_top" xlink:title="/home/travis/build\l/STORM&#45;IRIT/OpenGR/src\l/gr/algorithms/FunctorBrute4pcs.h">
<polygon fill="white" stroke="black" points="734,-78.5 734,-119.5 913,-119.5 913,-78.5 734,-78.5"/>
<text text-anchor="start" x="742" y="-107.5" font-family="Helvetica,sans-Serif" font-size="10.00">/home/travis/build</text>
<text text-anchor="start" x="742" y="-96.5" font-family="Helvetica,sans-Serif" font-size="10.00">/STORM&#45;IRIT/OpenGR/src</text>
<text text-anchor="middle" x="823.5" y="-85.5" font-family="Helvetica,sans-Serif" font-size="10.00">/gr/algorithms/FunctorBrute4pcs.h</text>
</a>
</g>
</g>
<!-- Node1&#45;&gt;Node7 -->
<g id="edge15" class="edge"><title>Node1&#45;&gt;Node7</title>
<path fill="none" stroke="midnightblue" d="M784.443,-492.764C851.438,-472.536 938.5,-431.688 938.5,-356 938.5,-356 938.5,-356 938.5,-270.5 938.5,-218.841 947.905,-198.474 918.5,-156 907.602,-140.259 890.723,-128.271 874.197,-119.505"/>
<polygon fill="midnightblue" stroke="midnightblue" points="783.337,-489.441 774.717,-495.601 785.297,-496.161 783.337,-489.441"/>
</g>
<!-- Node8 -->
<g id="node8" class="node"><title>Node8</title>
<g id="a_node8"><a xlink:href="a00087.html" target="_top" xlink:title="/home/travis/build\l/STORM&#45;IRIT/OpenGR/src\l/gr/algorithms/match4pcsBase.hpp">
<polygon fill="white" stroke="black" points="531,-78.5 531,-119.5 716,-119.5 716,-78.5 531,-78.5"/>
<text text-anchor="start" x="539" y="-107.5" font-family="Helvetica,sans-Serif" font-size="10.00">/home/travis/build</text>
<text text-anchor="start" x="539" y="-96.5" font-family="Helvetica,sans-Serif" font-size="10.00">/STORM&#45;IRIT/OpenGR/src</text>
<text text-anchor="middle" x="623.5" y="-85.5" font-family="Helvetica,sans-Serif" font-size="10.00">/gr/algorithms/match4pcsBase.hpp</text>
</a>
</g>
</g>
<!-- Node1&#45;&gt;Node8 -->
<g id="edge26" class="edge"><title>Node1&#45;&gt;Node8</title>
<path fill="none" stroke="midnightblue" d="M713.557,-480.238C722.854,-416.921 737.206,-265.697 684.5,-156 677.589,-141.616 665.203,-129.178 653.389,-119.702"/>
<polygon fill="midnightblue" stroke="midnightblue" points="710.067,-479.904 712.008,-490.319 716.986,-480.967 710.067,-479.904"/>
</g>
<!-- Node9 -->
<g id="node9" class="node"><title>Node9</title>
<g id="a_node9"><a xlink:href="a00090.html" target="_top" xlink:title="/home/travis/build\l/STORM&#45;IRIT/OpenGR/src\l/gr/algorithms/pairCreationFunctor.h">
<polygon fill="white" stroke="black" points="931.5,-78.5 931.5,-119.5 1119.5,-119.5 1119.5,-78.5 931.5,-78.5"/>
<text text-anchor="start" x="939.5" y="-107.5" font-family="Helvetica,sans-Serif" font-size="10.00">/home/travis/build</text>
<text text-anchor="start" x="939.5" y="-96.5" font-family="Helvetica,sans-Serif" font-size="10.00">/STORM&#45;IRIT/OpenGR/src</text>
<text text-anchor="middle" x="1025.5" y="-85.5" font-family="Helvetica,sans-Serif" font-size="10.00">/gr/algorithms/pairCreationFunctor.h</text>
</a>
</g>
</g>
<!-- Node1&#45;&gt;Node9 -->
<g id="edge35" class="edge"><title>Node1&#45;&gt;Node9</title>
<path fill="none" stroke="midnightblue" d="M784.719,-502.728C871.533,-489.758 1001.5,-453.98 1001.5,-356 1001.5,-356 1001.5,-356 1001.5,-270.5 1001.5,-215.348 1013.97,-151.133 1020.93,-119.564"/>
<polygon fill="midnightblue" stroke="midnightblue" points="784.028,-499.291 774.62,-504.164 785.013,-506.221 784.028,-499.291"/>
</g>
<!-- Node10 -->
<g id="node10" class="node"><title>Node10</title>
<g id="a_node10"><a xlink:href="a00083.html" target="_top" xlink:title="/home/travis/build\l/STORM&#45;IRIT/OpenGR/src\l/gr/algorithms/FunctorSuper4pcs.h">
<polygon fill="white" stroke="black" points="995.5,-0.5 995.5,-41.5 1177.5,-41.5 1177.5,-0.5 995.5,-0.5"/>
<text text-anchor="start" x="1003.5" y="-29.5" font-family="Helvetica,sans-Serif" font-size="10.00">/home/travis/build</text>
<text text-anchor="start" x="1003.5" y="-18.5" font-family="Helvetica,sans-Serif" font-size="10.00">/STORM&#45;IRIT/OpenGR/src</text>
<text text-anchor="middle" x="1086.5" y="-7.5" font-family="Helvetica,sans-Serif" font-size="10.00">/gr/algorithms/FunctorSuper4pcs.h</text>
</a>
</g>
</g>
<!-- Node1&#45;&gt;Node10 -->
<g id="edge16" class="edge"><title>Node1&#45;&gt;Node10</title>
<path fill="none" stroke="midnightblue" d="M784.658,-499.295C910.355,-479.465 1147.5,-431.985 1147.5,-356 1147.5,-356 1147.5,-356 1147.5,-181.5 1147.5,-134.731 1147.25,-120.845 1128.5,-78 1122.7,-64.7514 1113.22,-51.7194 1104.73,-41.5654"/>
<polygon fill="midnightblue" stroke="midnightblue" points="784.041,-495.849 774.698,-500.845 785.117,-502.765 784.041,-495.849"/>
</g>
<!-- Node11 -->
<g id="node11" class="node"><title>Node11</title>
<g id="a_node11"><a xlink:href="a00081.html" target="_top" xlink:title="/home/travis/build\l/STORM&#45;IRIT/OpenGR/src\l/gr/algorithms/Functor4pcs.h">
<polygon fill="white" stroke="black" points="1176,-412.5 1176,-453.5 1329,-453.5 1329,-412.5 1176,-412.5"/>
<text text-anchor="start" x="1184" y="-441.5" font-family="Helvetica,sans-Serif" font-size="10.00">/home/travis/build</text>
<text text-anchor="start" x="1184" y="-430.5" font-family="Helvetica,sans-Serif" font-size="10.00">/STORM&#45;IRIT/OpenGR/src</text>
<text text-anchor="middle" x="1252.5" y="-419.5" font-family="Helvetica,sans-Serif" font-size="10.00">/gr/algorithms/Functor4pcs.h</text>
</a>
</g>
</g>
<!-- Node1&#45;&gt;Node11 -->
<g id="edge14" class="edge"><title>Node1&#45;&gt;Node11</title>
<path fill="none" stroke="midnightblue" d="M784.953,-502.749C875.268,-493.675 1029.89,-476.548 1161.5,-454 1166.12,-453.208 1170.87,-452.339 1175.64,-451.42"/>
<polygon fill="midnightblue" stroke="midnightblue" points="784.405,-499.286 774.802,-503.762 785.101,-506.251 784.405,-499.286"/>
</g>
<!-- Node12 -->
<g id="node12" class="node"><title>Node12</title>
<g id="a_node12"><a xlink:href="a00088.html" target="_top" xlink:title="/home/travis/build\l/STORM&#45;IRIT/OpenGR/src\l/gr/algorithms/matchBase.h">
<polygon fill="white" stroke="black" points="302.5,-334.5 302.5,-375.5 452.5,-375.5 452.5,-334.5 302.5,-334.5"/>
<text text-anchor="start" x="310.5" y="-363.5" font-family="Helvetica,sans-Serif" font-size="10.00">/home/travis/build</text>
<text text-anchor="start" x="310.5" y="-352.5" font-family="Helvetica,sans-Serif" font-size="10.00">/STORM&#45;IRIT/OpenGR/src</text>
<text text-anchor="middle" x="377.5" y="-341.5" font-family="Helvetica,sans-Serif" font-size="10.00">/gr/algorithms/matchBase.h</text>
</a>
</g>
</g>
<!-- Node1&#45;&gt;Node12 -->
<g id="edge18" class="edge"><title>Node1&#45;&gt;Node12</title>
<path fill="none" stroke="midnightblue" d="M632.311,-504.198C582.343,-497.647 517.135,-483.698 466.5,-454 433.194,-434.466 405.273,-398.365 390.013,-375.854"/>
<polygon fill="midnightblue" stroke="midnightblue" points="632.057,-507.693 642.411,-505.449 632.918,-500.746 632.057,-507.693"/>
</g>
<!-- Node13 -->
<g id="node13" class="node"><title>Node13</title>
<g id="a_node13"><a xlink:href="a00089.html" target="_top" xlink:title="/home/travis/build\l/STORM&#45;IRIT/OpenGR/src\l/gr/algorithms/matchBase.hpp">
<polygon fill="white" stroke="black" points="366.5,-251 366.5,-292 528.5,-292 528.5,-251 366.5,-251"/>
<text text-anchor="start" x="374.5" y="-280" font-family="Helvetica,sans-Serif" font-size="10.00">/home/travis/build</text>
<text text-anchor="start" x="374.5" y="-269" font-family="Helvetica,sans-Serif" font-size="10.00">/STORM&#45;IRIT/OpenGR/src</text>
<text text-anchor="middle" x="447.5" y="-258" font-family="Helvetica,sans-Serif" font-size="10.00">/gr/algorithms/matchBase.hpp</text>
</a>
</g>
</g>
<!-- Node1&#45;&gt;Node13 -->
<g id="edge23" class="edge"><title>Node1&#45;&gt;Node13</title>
<path fill="none" stroke="midnightblue" d="M632.064,-507.359C588.237,-501.896 535.206,-487.981 500.5,-454 488.684,-442.431 462.633,-336.627 452.077,-292.103"/>
<polygon fill="midnightblue" stroke="midnightblue" points="631.798,-510.851 642.125,-508.488 632.578,-503.895 631.798,-510.851"/>
</g>
<!-- Node14 -->
<g id="node14" class="node"><title>Node14</title>
<g id="a_node14"><a xlink:href="a00092.html" target="_top" xlink:title="/home/travis/build\l/STORM&#45;IRIT/OpenGR/src\l/gr/sampling.h">
<polygon fill="white" stroke="black" points="509.5,-412.5 509.5,-453.5 641.5,-453.5 641.5,-412.5 509.5,-412.5"/>
<text text-anchor="start" x="517.5" y="-441.5" font-family="Helvetica,sans-Serif" font-size="10.00">/home/travis/build</text>
<text text-anchor="start" x="517.5" y="-430.5" font-family="Helvetica,sans-Serif" font-size="10.00">/STORM&#45;IRIT/OpenGR/src</text>
<text text-anchor="middle" x="575.5" y="-419.5" font-family="Helvetica,sans-Serif" font-size="10.00">/gr/sampling.h</text>
</a>
</g>
</g>
<!-- Node1&#45;&gt;Node14 -->
<g id="edge27" class="edge"><title>Node1&#45;&gt;Node14</title>
<path fill="none" stroke="midnightblue" d="M665.105,-485.203C647.106,-474.918 626.528,-463.159 609.635,-453.506"/>
<polygon fill="midnightblue" stroke="midnightblue" points="663.83,-488.506 674.249,-490.428 667.303,-482.428 663.83,-488.506"/>
</g>
<!-- Node15 -->
<g id="node15" class="node"><title>Node15</title>
<g id="a_node15"><a xlink:href="a00091.html" target="_top" xlink:title="/home/travis/build\l/STORM&#45;IRIT/OpenGR/src\l/gr/algorithms/PointPairFilter.h">
<polygon fill="white" stroke="black" points="1347.5,-412.5 1347.5,-453.5 1505.5,-453.5 1505.5,-412.5 1347.5,-412.5"/>
<text text-anchor="start" x="1355.5" y="-441.5" font-family="Helvetica,sans-Serif" font-size="10.00">/home/travis/build</text>
<text text-anchor="start" x="1355.5" y="-430.5" font-family="Helvetica,sans-Serif" font-size="10.00">/STORM&#45;IRIT/OpenGR/src</text>
<text text-anchor="middle" x="1426.5" y="-419.5" font-family="Helvetica,sans-Serif" font-size="10.00">/gr/algorithms/PointPairFilter.h</text>
</a>
</g>
</g>
<!-- Node1&#45;&gt;Node15 -->
<g id="edge36" class="edge"><title>Node1&#45;&gt;Node15</title>
<path fill="none" stroke="midnightblue" d="M784.703,-506.547C903.57,-500.416 1140.08,-485.22 1338.5,-454 1341.44,-453.537 1344.43,-453.033 1347.44,-452.496"/>
<polygon fill="midnightblue" stroke="midnightblue" points="784.422,-503.057 774.613,-507.06 784.778,-510.048 784.422,-503.057"/>
</g>
<!-- Node2&#45;&gt;Node3 -->
<g id="edge2" class="edge"><title>Node2&#45;&gt;Node3</title>
<path fill="none" stroke="midnightblue" d="M137.516,-237.503C129.808,-227.923 122.003,-217.62 115.653,-208.607"/>
<polygon fill="midnightblue" stroke="midnightblue" points="134.89,-239.819 143.935,-245.336 140.304,-235.383 134.89,-239.819"/>
</g>
<!-- Node2&#45;&gt;Node4 -->
<g id="edge4" class="edge"><title>Node2&#45;&gt;Node4</title>
<path fill="none" stroke="midnightblue" d="M234.005,-241.271C261.706,-228.719 293.342,-214.384 318.17,-203.134"/>
<polygon fill="midnightblue" stroke="midnightblue" points="232.441,-238.137 224.777,-245.453 235.33,-244.513 232.441,-238.137"/>
</g>
<!-- Node2&#45;&gt;Node6 -->
<g id="edge7" class="edge"><title>Node2&#45;&gt;Node6</title>
<path fill="none" stroke="midnightblue" d="M282.557,-255.098C307.253,-251.752 333.254,-248.244 357.5,-245 489.744,-227.305 643.149,-207.127 736.743,-194.855"/>
<polygon fill="midnightblue" stroke="midnightblue" points="281.87,-251.659 272.431,-256.471 282.811,-258.596 281.87,-251.659"/>
</g>
<!-- Node3&#45;&gt;Node2 -->
<g id="edge3" class="edge"><title>Node3&#45;&gt;Node2</title>
<path fill="none" stroke="midnightblue" d="M134.435,-216.437C142.143,-226.014 149.951,-236.318 156.307,-245.336"/>
<polygon fill="midnightblue" stroke="midnightblue" points="137.064,-214.123 128.018,-208.607 131.65,-218.56 137.064,-214.123"/>
</g>
<!-- Node4&#45;&gt;Node5 -->
<g id="edge5" class="edge"><title>Node4&#45;&gt;Node5</title>
<path fill="none" stroke="midnightblue" d="M371.696,-152.563C377.516,-141.619 384.755,-129.43 391.366,-119.547"/>
<polygon fill="midnightblue" stroke="midnightblue" points="368.425,-151.273 366.999,-161.771 374.661,-154.454 368.425,-151.273"/>
</g>
<!-- Node5&#45;&gt;Node4 -->
<g id="edge6" class="edge"><title>Node5&#45;&gt;Node4</title>
<path fill="none" stroke="midnightblue" d="M398.41,-128.736C392.608,-139.665 385.374,-151.86 378.756,-161.771"/>
<polygon fill="midnightblue" stroke="midnightblue" points="401.671,-130.047 403.089,-119.547 395.433,-126.871 401.671,-130.047"/>
</g>
<!-- Node6&#45;&gt;Node7 -->
<g id="edge8" class="edge"><title>Node6&#45;&gt;Node7</title>
<path fill="none" stroke="midnightblue" d="M823.5,-151.565C823.5,-140.882 823.5,-129.13 823.5,-119.547"/>
<polygon fill="midnightblue" stroke="midnightblue" points="820,-151.771 823.5,-161.771 827,-151.771 820,-151.771"/>
</g>
<!-- Node6&#45;&gt;Node8 -->
<g id="edge9" class="edge"><title>Node6&#45;&gt;Node8</title>
<path fill="none" stroke="midnightblue" d="M760.323,-158.266C729.379,-146.013 693.008,-131.151 665.503,-119.503"/>
<polygon fill="midnightblue" stroke="midnightblue" points="759.149,-161.566 769.736,-161.979 761.717,-155.054 759.149,-161.566"/>
</g>
<!-- Node6&#45;&gt;Node9 -->
<g id="edge11" class="edge"><title>Node6&#45;&gt;Node9</title>
<path fill="none" stroke="midnightblue" d="M881.479,-158.108C911.772,-145.885 948.417,-131.1 977.161,-119.503"/>
<polygon fill="midnightblue" stroke="midnightblue" points="879.848,-154.991 871.884,-161.979 882.467,-161.483 879.848,-154.991"/>
</g>
<!-- Node8&#45;&gt;Node6 -->
<g id="edge10" class="edge"><title>Node8&#45;&gt;Node6</title>
<path fill="none" stroke="midnightblue" d="M686.629,-123.215C717.567,-135.465 753.94,-150.328 781.454,-161.979"/>
<polygon fill="midnightblue" stroke="midnightblue" points="687.805,-119.916 677.218,-119.503 685.236,-126.428 687.805,-119.916"/>
</g>
<!-- Node9&#45;&gt;Node10 -->
<g id="edge12" class="edge"><title>Node9&#45;&gt;Node10</title>
<path fill="none" stroke="midnightblue" d="M1047.47,-70.627C1055.21,-60.9901 1063.74,-50.3617 1070.84,-41.5056"/>
<polygon fill="midnightblue" stroke="midnightblue" points="1044.74,-68.4386 1041.21,-78.4281 1050.2,-72.8202 1044.74,-68.4386"/>
</g>
<!-- Node12&#45;&gt;Node2 -->
<g id="edge19" class="edge"><title>Node12&#45;&gt;Node2</title>
<path fill="none" stroke="midnightblue" d="M318.163,-330.75C291.703,-320.382 260.482,-308.149 233.499,-297.576"/>
<polygon fill="midnightblue" stroke="midnightblue" points="317.091,-334.089 327.679,-334.479 319.645,-327.572 317.091,-334.089"/>
</g>
<!-- Node12&#45;&gt;Node4 -->
<g id="edge20" class="edge"><title>Node12&#45;&gt;Node4</title>
<path fill="none" stroke="midnightblue" d="M365.011,-324.985C361.925,-316.453 359.058,-306.993 357.5,-298 351.797,-265.074 355.302,-226.052 358.385,-203.116"/>
<polygon fill="midnightblue" stroke="midnightblue" points="361.811,-326.416 368.669,-334.491 368.344,-323.902 361.811,-326.416"/>
</g>
<!-- Node12&#45;&gt;Node13 -->
<g id="edge21" class="edge"><title>Node12&#45;&gt;Node13</title>
<path fill="none" stroke="midnightblue" d="M394.792,-326.383C403.906,-315.107 415.07,-302.329 424.849,-292.047"/>
<polygon fill="midnightblue" stroke="midnightblue" points="392.014,-324.253 388.567,-334.271 397.509,-328.589 392.014,-324.253"/>
</g>
<!-- Node13&#45;&gt;Node12 -->
<g id="edge22" class="edge"><title>Node13&#45;&gt;Node12</title>
<path fill="none" stroke="midnightblue" d="M430.369,-299.918C421.279,-311.176 410.119,-323.96 400.323,-334.271"/>
<polygon fill="midnightblue" stroke="midnightblue" points="433.131,-302.068 436.573,-292.047 427.633,-297.734 433.131,-302.068"/>
</g>
<!-- Node14&#45;&gt;Node3 -->
<g id="edge28" class="edge"><title>Node14&#45;&gt;Node3</title>
<path fill="none" stroke="midnightblue" d="M499.362,-424.027C368.288,-408.511 109.07,-369.358 57.5,-298 37.6081,-270.475 59.7848,-232.972 79.4464,-208.504"/>
<polygon fill="midnightblue" stroke="midnightblue" points="499.001,-427.509 509.34,-425.192 499.813,-420.556 499.001,-427.509"/>
</g>
<!-- Node14&#45;&gt;Node4 -->
<g id="edge29" class="edge"><title>Node14&#45;&gt;Node4</title>
<path fill="none" stroke="midnightblue" d="M577.888,-402.304C579.469,-361.798 576.094,-289.221 537.5,-245 511.961,-215.737 471.692,-200.395 436.115,-192.352"/>
<polygon fill="midnightblue" stroke="midnightblue" points="574.39,-402.183 577.367,-412.351 581.38,-402.546 574.39,-402.183"/>
</g>
<!-- Node14&#45;&gt;Node5 -->
<g id="edge32" class="edge"><title>Node14&#45;&gt;Node5</title>
<path fill="none" stroke="midnightblue" d="M581.353,-402.132C587.361,-363.363 592.444,-294.789 565.5,-245 535.568,-189.69 476.445,-144.056 439.909,-119.532"/>
<polygon fill="midnightblue" stroke="midnightblue" points="577.861,-401.796 579.66,-412.236 584.765,-402.952 577.861,-401.796"/>
</g>
<!-- Node14&#45;&gt;Node6 -->
<g id="edge33" class="edge"><title>Node14&#45;&gt;Node6</title>
<path fill="none" stroke="midnightblue" d="M610.246,-406.377C622.085,-397.186 635.182,-386.493 646.5,-376 710.091,-317.046 777.32,-238.906 807.361,-203.026"/>
<polygon fill="midnightblue" stroke="midnightblue" points="608.093,-403.617 602.287,-412.48 612.353,-409.172 608.093,-403.617"/>
</g>
<!-- Node14&#45;&gt;Node8 -->
<g id="edge34" class="edge"><title>Node14&#45;&gt;Node8</title>
<path fill="none" stroke="midnightblue" d="M595.589,-403.891C600.715,-395.326 605.593,-385.621 608.5,-376 636.465,-283.438 629.7,-165.595 625.552,-119.615"/>
<polygon fill="midnightblue" stroke="midnightblue" points="592.623,-402.033 590.229,-412.354 598.536,-405.778 592.623,-402.033"/>
</g>
<!-- Node14&#45;&gt;Node12 -->
<g id="edge30" class="edge"><title>Node14&#45;&gt;Node12</title>
<path fill="none" stroke="midnightblue" d="M514.923,-408.748C487.207,-398.11 454.735,-385.646 428.317,-375.506"/>
<polygon fill="midnightblue" stroke="midnightblue" points="513.92,-412.112 524.51,-412.428 516.428,-405.577 513.92,-412.112"/>
</g>
<!-- Node14&#45;&gt;Node13 -->
<g id="edge31" class="edge"><title>Node14&#45;&gt;Node13</title>
<path fill="none" stroke="midnightblue" d="M553.326,-404.369C527.635,-372.356 485.947,-320.409 463.324,-292.218"/>
<polygon fill="midnightblue" stroke="midnightblue" points="550.816,-406.834 559.805,-412.442 556.275,-402.452 550.816,-406.834"/>
</g>
</g>
</svg>
        <g id="navigator" transform="translate(0 0)" fill="#404254">
                <rect fill="#f2f5e9" fill-opacity="0.5" stroke="#606060" stroke-width=".5" x="0" y="0" width="60" height="60"/>
                <use id="zoomplus" xlink:href="#zoomPlus" x="17" y="9" onmousedown="handleZoom(evt,'in')"/>
                <use id="zoomminus" xlink:href="#zoomMin" x="42" y="9" onmousedown="handleZoom(evt,'out')"/>
                <use id="reset" xlink:href="#resetDef" x="30" y="36" onmousedown="handleReset()"/>
                <g id="arrowUp" xlink:href="#dirArrow" transform="translate(30 24)" onmousedown="handlePan(0,-1)">
                  <use xlink:href="#rim" fill="#404040">
                        <set attributeName="fill" to="#808080" begin="arrowUp.mouseover" end="arrowUp.mouseout"/>
                  </use>
                  <path fill="none" stroke="white" stroke-width="1.5" d="M0,-3.0v7 M-2.5,-0.5L0,-3.0L2.5,-0.5"/>
                </g>
                <g id="arrowRight" xlink:href="#dirArrow" transform="rotate(90) translate(36 -43)" onmousedown="handlePan(1,0)">
                  <use xlink:href="#rim" fill="#404040">
                        <set attributeName="fill" to="#808080" begin="arrowRight.mouseover" end="arrowRight.mouseout"/>
                  </use>
                  <path fill="none" stroke="white" stroke-width="1.5" d="M0,-3.0v7 M-2.5,-0.5L0,-3.0L2.5,-0.5"/>
                </g>
                <g id="arrowDown" xlink:href="#dirArrow" transform="rotate(180) translate(-30 -48)" onmousedown="handlePan(0,1)">
                  <use xlink:href="#rim" fill="#404040">
                        <set attributeName="fill" to="#808080" begin="arrowDown.mouseover" end="arrowDown.mouseout"/>
                  </use>
                  <path fill="none" stroke="white" stroke-width="1.5" d="M0,-3.0v7 M-2.5,-0.5L0,-3.0L2.5,-0.5"/>
                </g>
                <g id="arrowLeft" xlink:href="#dirArrow" transform="rotate(270) translate(-36 17)" onmousedown="handlePan(-1,0)">
                  <use xlink:href="#rim" fill="#404040">
                        <set attributeName="fill" to="#808080" begin="arrowLeft.mouseover" end="arrowLeft.mouseout"/>
                  </use>
                  <path fill="none" stroke="white" stroke-width="1.5" d="M0,-3.0v7 M-2.5,-0.5L0,-3.0L2.5,-0.5"/>
                </g>
        </g>
        <svg viewBox="0 0 15 15" width="100%" height="30px" preserveAspectRatio="xMaxYMin meet">
         <g id="arrow_out" transform="scale(0.3 0.3)">
          <a xlink:href="a00146_org.svg" target="_base">
           <rect id="button" ry="5" rx="5" y="6" x="6" height="38" width="38"
                fill="#f2f5e9" fill-opacity="0.5" stroke="#606060" stroke-width="1.0"/>
           <path id="arrow"
             d="M 11.500037,31.436501 C 11.940474,20.09759 22.043105,11.32322 32.158766,21.979434 L 37.068811,17.246167 C 37.068811,17.246167 37.088388,32 37.088388,32 L 22.160133,31.978069 C 22.160133,31.978069 26.997745,27.140456 26.997745,27.140456 C 18.528582,18.264221 13.291696,25.230495 11.500037,31.436501 z"
             style="fill:#404040;"/>
          </a>
         </g>
        </svg>
</svg>
