<?xml version="1.0" encoding="UTF-8" standalone="no"?>
<!DOCTYPE svg PUBLIC "-//W3C//DTD SVG 1.1//EN"
 "http://www.w3.org/Graphics/SVG/1.1/DTD/svg11.dtd">
<!-- Generated by graphviz version 2.38.0 (20140413.2041)
 -->
<!-- Title: gr::MatchBase&lt; PointType, _TransformVisitor, OptExts &gt;::PosMutablePoint Pages: 1 -->
<svg width="154pt" height="204pt"
 viewBox="0.00 0.00 154.00 204.00" xmlns="http://www.w3.org/2000/svg" xmlns:xlink="http://www.w3.org/1999/xlink">
<g id="graph0" class="graph" transform="scale(1 1) rotate(0) translate(4 200)">
<title>gr::MatchBase&lt; PointType, _TransformVisitor, OptExts &gt;::PosMutablePoint</title>
<polygon fill="white" stroke="none" points="-4,4 -4,-200 150,-200 150,4 -4,4"/>
<!-- Node1 -->
<g id="node1" class="node"><title>Node1</title>
<polygon fill="#bfbfbf" stroke="black" points="0,-0.5 0,-101.5 146,-101.5 146,-0.5 0,-0.5"/>
<text text-anchor="start" x="8" y="-89.5" font-family="Helvetica,sans-Serif" font-size="10.00">gr::MatchBase&lt; PointType,</text>
<text text-anchor="start" x="8" y="-78.5" font-family="Helvetica,sans-Serif" font-size="10.00"> _TransformVisitor, OptExts</text>
<text text-anchor="middle" x="73" y="-67.5" font-family="Helvetica,sans-Serif" font-size="10.00"> &gt;::PosMutablePoint</text>
<polyline fill="none" stroke="black" points="0,-60.5 146,-60.5 "/>
<text text-anchor="middle" x="73" y="-48.5" font-family="Helvetica,sans-Serif" font-size="10.00"> </text>
<polyline fill="none" stroke="black" points="0,-41.5 146,-41.5 "/>
<text text-anchor="start" x="8" y="-29.5" font-family="Helvetica,sans-Serif" font-size="10.00">+ pos()</text>
<text text-anchor="start" x="8" y="-18.5" font-family="Helvetica,sans-Serif" font-size="10.00">+ pos()</text>
<text text-anchor="start" x="8" y="-7.5" font-family="Helvetica,sans-Serif" font-size="10.00">+ PosMutablePoint()</text>
</g>
<!-- Node2 -->
<g id="node2" class="node"><title>Node2</title>
<polygon fill="white" stroke="#bfbfbf" points="42,-138.5 42,-195.5 104,-195.5 104,-138.5 42,-138.5"/>
<text text-anchor="middle" x="73" y="-183.5" font-family="Helvetica,sans-Serif" font-size="10.00">PointType</text>
<polyline fill="none" stroke="#bfbfbf" points="42,-176.5 104,-176.5 "/>
<text text-anchor="middle" x="73" y="-164.5" font-family="Helvetica,sans-Serif" font-size="10.00"> </text>
<polyline fill="none" stroke="#bfbfbf" points="42,-157.5 104,-157.5 "/>
<text text-anchor="middle" x="73" y="-145.5" font-family="Helvetica,sans-Serif" font-size="10.00"> </text>
</g>
<!-- Node2&#45;&gt;Node1 -->
<g id="edge1" class="edge"><title>Node2&#45;&gt;Node1</title>
<path fill="none" stroke="midnightblue" d="M73,-128.354C73,-119.796 73,-110.578 73,-101.608"/>
<polygon fill="none" stroke="midnightblue" points="69.5001,-128.404 73,-138.404 76.5001,-128.404 69.5001,-128.404"/>
</g>
</g>
</svg>
