<?xml version="1.0" encoding="UTF-8" standalone="no"?>
<!DOCTYPE svg PUBLIC "-//W3C//DTD SVG 1.1//EN"
 "http://www.w3.org/Graphics/SVG/1.1/DTD/svg11.dtd">
<!-- Generated by graphviz version 2.38.0 (20140413.2041)
 -->
<!-- Title: gr::MatchBase&lt; PointType, _TransformVisitor, OptExts &gt;::Options&lt; Derived, TBase &gt; Pages: 1 -->
<svg width="395pt" height="226pt"
 viewBox="0.00 0.00 395.00 226.00" xmlns="http://www.w3.org/2000/svg" xmlns:xlink="http://www.w3.org/1999/xlink">
<g id="graph0" class="graph" transform="scale(1 1) rotate(0) translate(4 222)">
<title>gr::MatchBase&lt; PointType, _TransformVisitor, OptExts &gt;::Options&lt; Derived, TBase &gt;</title>
<polygon fill="white" stroke="none" points="-4,4 -4,-222 391,-222 391,4 -4,4"/>
<!-- Node1 -->
<g id="node1" class="node"><title>Node1</title>
<polygon fill="#bfbfbf" stroke="black" points="50.5,-0.5 50.5,-79.5 215.5,-79.5 215.5,-0.5 50.5,-0.5"/>
<text text-anchor="start" x="58.5" y="-67.5" font-family="Helvetica,sans-Serif" font-size="10.00">gr::MatchBase&lt; PointType,</text>
<text text-anchor="start" x="58.5" y="-56.5" font-family="Helvetica,sans-Serif" font-size="10.00"> _TransformVisitor, OptExts</text>
<text text-anchor="middle" x="133" y="-45.5" font-family="Helvetica,sans-Serif" font-size="10.00"> &gt;::Options&lt; Derived, TBase &gt;</text>
<polyline fill="none" stroke="black" points="50.5,-38.5 215.5,-38.5 "/>
<text text-anchor="middle" x="133" y="-26.5" font-family="Helvetica,sans-Serif" font-size="10.00"> </text>
<polyline fill="none" stroke="black" points="50.5,-19.5 215.5,-19.5 "/>
<text text-anchor="middle" x="133" y="-7.5" font-family="Helvetica,sans-Serif" font-size="10.00"> </text>
</g>
<!-- Node2 -->
<g id="node2" class="node"><title>Node2</title>
<g id="a_node2"><a xlink:href="a00051.html" target="_top" xlink:title="{TBase\n||}">
<polygon fill="white" stroke="black" points="0,-160.5 0,-217.5 46,-217.5 46,-160.5 0,-160.5"/>
<text text-anchor="middle" x="23" y="-205.5" font-family="Helvetica,sans-Serif" font-size="10.00">TBase</text>
<polyline fill="none" stroke="black" points="0,-198.5 46,-198.5 "/>
<text text-anchor="middle" x="23" y="-186.5" font-family="Helvetica,sans-Serif" font-size="10.00"> </text>
<polyline fill="none" stroke="black" points="0,-179.5 46,-179.5 "/>
<text text-anchor="middle" x="23" y="-167.5" font-family="Helvetica,sans-Serif" font-size="10.00"> </text>
</a>
</g>
</g>
<!-- Node2&#45;&gt;Node1 -->
<g id="edge1" class="edge"><title>Node2&#45;&gt;Node1</title>
<path fill="none" stroke="midnightblue" d="M42.4917,-151.142C52.0309,-134.333 64.2051,-114.538 77,-98 81.7538,-91.8556 87.1075,-85.6718 92.5711,-79.76"/>
<polygon fill="none" stroke="midnightblue" points="39.291,-149.695 37.4761,-160.133 45.4042,-153.105 39.291,-149.695"/>
</g>
<!-- Node3 -->
<g id="node3" class="node"><title>Node3</title>
<polygon fill="white" stroke="#bfbfbf" points="64,-160.5 64,-217.5 108,-217.5 108,-160.5 64,-160.5"/>
<text text-anchor="middle" x="86" y="-205.5" font-family="Helvetica,sans-Serif" font-size="10.00">size_t</text>
<polyline fill="none" stroke="#bfbfbf" points="64,-198.5 108,-198.5 "/>
<text text-anchor="middle" x="86" y="-186.5" font-family="Helvetica,sans-Serif" font-size="10.00"> </text>
<polyline fill="none" stroke="#bfbfbf" points="64,-179.5 108,-179.5 "/>
<text text-anchor="middle" x="86" y="-167.5" font-family="Helvetica,sans-Serif" font-size="10.00"> </text>
</g>
<!-- Node3&#45;&gt;Node1 -->
<g id="edge2" class="edge"><title>Node3&#45;&gt;Node1</title>
<path fill="none" stroke="#404040" d="M81.7148,-160.396C79.9788,-142.149 79.8117,-117.999 87,-98 87.9261,-95.4234 89.0219,-92.877 90.2521,-90.374"/>
<polygon fill="none" stroke="#404040" points="90.4029,-90.1125 89.9361,-82.9165 96.399,-79.7179 96.8658,-86.9139 90.4029,-90.1125"/>
<text text-anchor="middle" x="122.5" y="-117.5" font-family="Helvetica,sans-Serif" font-size="10.00"> +sample_size</text>
</g>
<!-- Node4 -->
<g id="node4" class="node"><title>Node4</title>
<g id="a_node4"><a xlink:href="a00114.html" target="_top" xlink:title="{int\n||}">
<polygon fill="white" stroke="black" points="165.5,-160.5 165.5,-217.5 194.5,-217.5 194.5,-160.5 165.5,-160.5"/>
<text text-anchor="middle" x="180" y="-205.5" font-family="Helvetica,sans-Serif" font-size="10.00">int</text>
<polyline fill="none" stroke="black" points="165.5,-198.5 194.5,-198.5 "/>
<text text-anchor="middle" x="180" y="-186.5" font-family="Helvetica,sans-Serif" font-size="10.00"> </text>
<polyline fill="none" stroke="black" points="165.5,-179.5 194.5,-179.5 "/>
<text text-anchor="middle" x="180" y="-167.5" font-family="Helvetica,sans-Serif" font-size="10.00"> </text>
</a>
</g>
</g>
<!-- Node4&#45;&gt;Node1 -->
<g id="edge3" class="edge"><title>Node4&#45;&gt;Node1</title>
<path fill="none" stroke="#404040" d="M174.57,-160.472C170.702,-142.471 164.965,-118.567 158,-98 157.201,-95.6412 156.344,-93.2451 155.444,-90.8376"/>
<polygon fill="none" stroke="#404040" points="155.407,-90.7445 149.482,-86.6355 150.995,-79.585 156.921,-83.6941 155.407,-90.7445"/>
<text text-anchor="middle" x="222.5" y="-123" font-family="Helvetica,sans-Serif" font-size="10.00"> +max_time_seconds</text>
<text text-anchor="middle" x="222.5" y="-112" font-family="Helvetica,sans-Serif" font-size="10.00">+randomSeed</text>
</g>
<!-- Node5 -->
<g id="node5" class="node"><title>Node5</title>
<polygon fill="white" stroke="#bfbfbf" points="284.5,-160.5 284.5,-217.5 331.5,-217.5 331.5,-160.5 284.5,-160.5"/>
<text text-anchor="middle" x="308" y="-205.5" font-family="Helvetica,sans-Serif" font-size="10.00">Scalar</text>
<polyline fill="none" stroke="#bfbfbf" points="284.5,-198.5 331.5,-198.5 "/>
<text text-anchor="middle" x="308" y="-186.5" font-family="Helvetica,sans-Serif" font-size="10.00"> </text>
<polyline fill="none" stroke="#bfbfbf" points="284.5,-179.5 331.5,-179.5 "/>
<text text-anchor="middle" x="308" y="-167.5" font-family="Helvetica,sans-Serif" font-size="10.00"> </text>
</g>
<!-- Node5&#45;&gt;Node1 -->
<g id="edge4" class="edge"><title>Node5&#45;&gt;Node1</title>
<path fill="none" stroke="#404040" d="M305.374,-160.452C302.152,-140.809 294.977,-114.974 279,-98 264.813,-82.9276 246.166,-71.7797 226.962,-63.5549"/>
<polygon fill="none" stroke="#404040" points="226.77,-63.4786 219.716,-64.9772 215.62,-59.0424 222.674,-57.5439 226.77,-63.4786"/>
<text text-anchor="middle" x="344" y="-134" font-family="Helvetica,sans-Serif" font-size="10.00"> +max_angle</text>
<text text-anchor="middle" x="344" y="-123" font-family="Helvetica,sans-Serif" font-size="10.00">+delta</text>
<text text-anchor="start" x="301" y="-112" font-family="Helvetica,sans-Serif" font-size="10.00">+max_translation</text>
<text text-anchor="middle" x="344" y="-101" font-family="Helvetica,sans-Serif" font-size="10.00">_distance</text>
</g>
</g>
</svg>
