<?xml version="1.0" encoding="UTF-8" standalone="no"?>
<!DOCTYPE svg PUBLIC "-//W3C//DTD SVG 1.1//EN"
 "http://www.w3.org/Graphics/SVG/1.1/DTD/svg11.dtd">
<!-- Generated by graphviz version 2.38.0 (20140413.2041)
 -->
<!-- Title: gr::PointConcept Pages: 1 -->
<svg width="136pt" height="358pt"
 viewBox="0.00 0.00 136.00 358.00" xmlns="http://www.w3.org/2000/svg" xmlns:xlink="http://www.w3.org/1999/xlink">
<g id="graph0" class="graph" transform="scale(1 1) rotate(0) translate(4 354)">
<title>gr::PointConcept</title>
<polygon fill="white" stroke="none" points="-4,4 -4,-354 132,-354 132,4 -4,4"/>
<!-- Node1 -->
<g id="node1" class="node"><title>Node1</title>
<polygon fill="#bfbfbf" stroke="black" points="14.5,-281.5 14.5,-349.5 113.5,-349.5 113.5,-281.5 14.5,-281.5"/>
<text text-anchor="middle" x="64" y="-337.5" font-family="Helvetica,sans-Serif" font-size="10.00">gr::PointConcept</text>
<polyline fill="none" stroke="black" points="14.5,-330.5 113.5,-330.5 "/>
<text text-anchor="middle" x="64" y="-318.5" font-family="Helvetica,sans-Serif" font-size="10.00"> </text>
<polyline fill="none" stroke="black" points="14.5,-311.5 113.5,-311.5 "/>
<text text-anchor="start" x="22.5" y="-299.5" font-family="Helvetica,sans-Serif" font-size="10.00">+ PointConcept()</text>
<text text-anchor="start" x="22.5" y="-288.5" font-family="Helvetica,sans-Serif" font-size="10.00">+ pos()</text>
</g>
<!-- Node2 -->
<g id="node2" class="node"><title>Node2</title>
<g id="a_node2"><a xlink:href="a00045.html" target="_top" xlink:title="The basic 3D point structure. A point potentially contains also directional information and color...">
<polygon fill="white" stroke="black" points="0,-0.5 0,-244.5 128,-244.5 128,-0.5 0,-0.5"/>
<text text-anchor="middle" x="64" y="-232.5" font-family="Helvetica,sans-Serif" font-size="10.00">gr::Point3D&lt; _Scalar &gt;</text>
<polyline fill="none" stroke="black" points="0,-225.5 128,-225.5 "/>
<text text-anchor="middle" x="64" y="-213.5" font-family="Helvetica,sans-Serif" font-size="10.00"> </text>
<polyline fill="none" stroke="black" points="0,-206.5 128,-206.5 "/>
<text text-anchor="start" x="8" y="-194.5" font-family="Helvetica,sans-Serif" font-size="10.00">+ hasColor()</text>
<text text-anchor="start" x="8" y="-183.5" font-family="Helvetica,sans-Serif" font-size="10.00">+ normal()</text>
<text text-anchor="start" x="8" y="-172.5" font-family="Helvetica,sans-Serif" font-size="10.00">+ normalize()</text>
<text text-anchor="start" x="8" y="-161.5" font-family="Helvetica,sans-Serif" font-size="10.00">+ Point3D()</text>
<text text-anchor="start" x="8" y="-150.5" font-family="Helvetica,sans-Serif" font-size="10.00">+ Point3D()</text>
<text text-anchor="start" x="8" y="-139.5" font-family="Helvetica,sans-Serif" font-size="10.00">+ Point3D()</text>
<text text-anchor="start" x="8" y="-128.5" font-family="Helvetica,sans-Serif" font-size="10.00">+ Point3D()</text>
<text text-anchor="start" x="8" y="-117.5" font-family="Helvetica,sans-Serif" font-size="10.00">+ pos()</text>
<text text-anchor="start" x="8" y="-106.5" font-family="Helvetica,sans-Serif" font-size="10.00">+ pos()</text>
<text text-anchor="start" x="8" y="-95.5" font-family="Helvetica,sans-Serif" font-size="10.00">+ rgb()</text>
<text text-anchor="start" x="8" y="-84.5" font-family="Helvetica,sans-Serif" font-size="10.00">+ set_normal()</text>
<text text-anchor="start" x="8" y="-73.5" font-family="Helvetica,sans-Serif" font-size="10.00">+ set_rgb()</text>
<text text-anchor="start" x="8" y="-62.5" font-family="Helvetica,sans-Serif" font-size="10.00">+ x()</text>
<text text-anchor="start" x="8" y="-51.5" font-family="Helvetica,sans-Serif" font-size="10.00">+ x()</text>
<text text-anchor="start" x="8" y="-40.5" font-family="Helvetica,sans-Serif" font-size="10.00">+ y()</text>
<text text-anchor="start" x="8" y="-29.5" font-family="Helvetica,sans-Serif" font-size="10.00">+ y()</text>
<text text-anchor="start" x="8" y="-18.5" font-family="Helvetica,sans-Serif" font-size="10.00">+ z()</text>
<text text-anchor="start" x="8" y="-7.5" font-family="Helvetica,sans-Serif" font-size="10.00">+ z()</text>
</a>
</g>
</g>
<!-- Node1&#45;&gt;Node2 -->
<g id="edge1" class="edge"><title>Node1&#45;&gt;Node2</title>
<path fill="none" stroke="midnightblue" d="M58.2316,-270.98C57.8893,-262.841 57.6366,-253.977 57.4733,-244.768"/>
<polygon fill="none" stroke="midnightblue" points="54.7486,-271.413 58.7332,-281.23 61.7402,-271.071 54.7486,-271.413"/>
</g>
<!-- Node1&#45;&gt;Node2 -->
<g id="edge2" class="edge"><title>Node1&#45;&gt;Node2</title>
<path fill="none" stroke="midnightblue" d="M69.7684,-270.98C70.1107,-262.841 70.3634,-253.977 70.5267,-244.768"/>
<polygon fill="none" stroke="midnightblue" points="66.2598,-271.071 69.2668,-281.23 73.2514,-271.413 66.2598,-271.071"/>
</g>
</g>
</svg>
