<?xml version="1.0" encoding="UTF-8" standalone="no"?>
<!DOCTYPE svg PUBLIC "-//W3C//DTD SVG 1.1//EN"
 "http://www.w3.org/Graphics/SVG/1.1/DTD/svg11.dtd">
<!-- Generated by graphviz version 2.38.0 (20140413.2041)
 -->
<!-- Title: gr::MatchBase&lt; PointType, _TransformVisitor, OptExts &gt;::Options&lt; Derived, TBase &gt; Pages: 1 -->
<svg width="173pt" height="237pt"
 viewBox="0.00 0.00 173.00 237.00" xmlns="http://www.w3.org/2000/svg" xmlns:xlink="http://www.w3.org/1999/xlink">
<g id="graph0" class="graph" transform="scale(1 1) rotate(0) translate(4 233)">
<title>gr::MatchBase&lt; PointType, _TransformVisitor, OptExts &gt;::Options&lt; Derived, TBase &gt;</title>
<polygon fill="white" stroke="none" points="-4,4 -4,-233 169,-233 169,4 -4,4"/>
<!-- Node1 -->
<g id="node1" class="node"><title>Node1</title>
<polygon fill="#bfbfbf" stroke="black" points="0,-0.5 0,-134.5 165,-134.5 165,-0.5 0,-0.5"/>
<text text-anchor="start" x="8" y="-122.5" font-family="Helvetica,sans-Serif" font-size="10.00">gr::MatchBase&lt; PointType,</text>
<text text-anchor="start" x="8" y="-111.5" font-family="Helvetica,sans-Serif" font-size="10.00"> _TransformVisitor, OptExts</text>
<text text-anchor="middle" x="82.5" y="-100.5" font-family="Helvetica,sans-Serif" font-size="10.00"> &gt;::Options&lt; Derived, TBase &gt;</text>
<polyline fill="none" stroke="black" points="0,-93.5 165,-93.5 "/>
<text text-anchor="start" x="8" y="-81.5" font-family="Helvetica,sans-Serif" font-size="10.00">+ delta</text>
<text text-anchor="start" x="8" y="-70.5" font-family="Helvetica,sans-Serif" font-size="10.00">+ max_angle</text>
<text text-anchor="start" x="8" y="-59.5" font-family="Helvetica,sans-Serif" font-size="10.00">+ max_time_seconds</text>
<text text-anchor="start" x="8" y="-48.5" font-family="Helvetica,sans-Serif" font-size="10.00">+ max_translation_distance</text>
<text text-anchor="start" x="8" y="-37.5" font-family="Helvetica,sans-Serif" font-size="10.00">+ randomSeed</text>
<text text-anchor="start" x="8" y="-26.5" font-family="Helvetica,sans-Serif" font-size="10.00">+ sample_size</text>
<polyline fill="none" stroke="black" points="0,-19.5 165,-19.5 "/>
<text text-anchor="middle" x="82.5" y="-7.5" font-family="Helvetica,sans-Serif" font-size="10.00"> </text>
</g>
<!-- Node2 -->
<g id="node2" class="node"><title>Node2</title>
<g id="a_node2"><a xlink:href="a00051.html" target="_top" xlink:title="{TBase\n||}">
<polygon fill="white" stroke="black" points="59.5,-171.5 59.5,-228.5 105.5,-228.5 105.5,-171.5 59.5,-171.5"/>
<text text-anchor="middle" x="82.5" y="-216.5" font-family="Helvetica,sans-Serif" font-size="10.00">TBase</text>
<polyline fill="none" stroke="black" points="59.5,-209.5 105.5,-209.5 "/>
<text text-anchor="middle" x="82.5" y="-197.5" font-family="Helvetica,sans-Serif" font-size="10.00"> </text>
<polyline fill="none" stroke="black" points="59.5,-190.5 105.5,-190.5 "/>
<text text-anchor="middle" x="82.5" y="-178.5" font-family="Helvetica,sans-Serif" font-size="10.00"> </text>
</a>
</g>
</g>
<!-- Node2&#45;&gt;Node1 -->
<g id="edge1" class="edge"><title>Node2&#45;&gt;Node1</title>
<path fill="none" stroke="midnightblue" d="M82.5,-161.16C82.5,-152.782 82.5,-143.668 82.5,-134.533"/>
<polygon fill="none" stroke="midnightblue" points="79.0001,-161.324 82.5,-171.324 86.0001,-161.324 79.0001,-161.324"/>
</g>
</g>
</svg>
