<?xml version="1.0" encoding="UTF-8" standalone="no"?>
<!DOCTYPE svg PUBLIC "-//W3C//DTD SVG 1.1//EN"
 "http://www.w3.org/Graphics/SVG/1.1/DTD/svg11.dtd">
<!-- Generated by graphviz version 2.38.0 (20140413.2041)
 -->
<!-- Title: gr::SamplerConcept&lt; PointType &gt; Pages: 1 -->
<svg width="138pt" height="182pt"
 viewBox="0.00 0.00 138.00 182.00" xmlns="http://www.w3.org/2000/svg" xmlns:xlink="http://www.w3.org/1999/xlink">
<g id="graph0" class="graph" transform="scale(1 1) rotate(0) translate(4 178)">
<title>gr::SamplerConcept&lt; PointType &gt;</title>
<polygon fill="white" stroke="none" points="-4,4 -4,-178 134,-178 134,4 -4,4"/>
<!-- Node1 -->
<g id="node1" class="node"><title>Node1</title>
<polygon fill="#bfbfbf" stroke="black" points="8.5,-105.5 8.5,-173.5 121.5,-173.5 121.5,-105.5 8.5,-105.5"/>
<text text-anchor="start" x="16.5" y="-161.5" font-family="Helvetica,sans-Serif" font-size="10.00">gr::SamplerConcept</text>
<text text-anchor="middle" x="65" y="-150.5" font-family="Helvetica,sans-Serif" font-size="10.00">&lt; PointType &gt;</text>
<polyline fill="none" stroke="black" points="8.5,-143.5 121.5,-143.5 "/>
<text text-anchor="middle" x="65" y="-131.5" font-family="Helvetica,sans-Serif" font-size="10.00"> </text>
<polyline fill="none" stroke="black" points="8.5,-124.5 121.5,-124.5 "/>
<text text-anchor="start" x="16.5" y="-112.5" font-family="Helvetica,sans-Serif" font-size="10.00">+ operator()()</text>
</g>
<!-- Node2 -->
<g id="node2" class="node"><title>Node2</title>
<g id="a_node2"><a xlink:href="a00055.html" target="_top" xlink:title="{gr::UniformDistSampler\l\&lt; PointType \&gt;\n||+ operator()()\l}">
<polygon fill="white" stroke="black" points="0,-0.5 0,-68.5 130,-68.5 130,-0.5 0,-0.5"/>
<text text-anchor="start" x="8" y="-56.5" font-family="Helvetica,sans-Serif" font-size="10.00">gr::UniformDistSampler</text>
<text text-anchor="middle" x="65" y="-45.5" font-family="Helvetica,sans-Serif" font-size="10.00">&lt; PointType &gt;</text>
<polyline fill="none" stroke="black" points="0,-38.5 130,-38.5 "/>
<text text-anchor="middle" x="65" y="-26.5" font-family="Helvetica,sans-Serif" font-size="10.00"> </text>
<polyline fill="none" stroke="black" points="0,-19.5 130,-19.5 "/>
<text text-anchor="start" x="8" y="-7.5" font-family="Helvetica,sans-Serif" font-size="10.00">+ operator()()</text>
</a>
</g>
</g>
<!-- Node1&#45;&gt;Node2 -->
<g id="edge1" class="edge"><title>Node1&#45;&gt;Node2</title>
<path fill="none" stroke="midnightblue" d="M65,-95.1362C65,-86.256 65,-77.0447 65,-68.5947"/>
<polygon fill="none" stroke="midnightblue" points="61.5001,-95.3432 65,-105.343 68.5001,-95.3432 61.5001,-95.3432"/>
</g>
</g>
</svg>
