<?xml version="1.0" encoding="UTF-8" standalone="no"?>
<!DOCTYPE svg PUBLIC "-//W3C//DTD SVG 1.1//EN"
 "http://www.w3.org/Graphics/SVG/1.1/DTD/svg11.dtd">
<!-- Generated by graphviz version 2.38.0 (20140413.2041)
 -->
<!-- Title: gr::PairCreationFunctor&lt; PointType, _Scalar, FilterFunctor, Options &gt; Pages: 1 -->
<!--zoomable 700 -->
<svg id="main" version="1.1" xmlns="http://www.w3.org/2000/svg" xmlns:xlink="http://www.w3.org/1999/xlink" xml:space="preserve" onload="init(evt)">
<style type="text/css"><![CDATA[
.edge:hover path { stroke: red; }
.edge:hover polygon { stroke: red; fill: red; }
]]></style>
<script type="text/javascript"><![CDATA[
var edges = document.getElementsByTagName('g');
if (edges && edges.length) {
  for (var i=0;i<edges.length;i++) {
    if (edges[i].id.substr(0,4)=='edge') {
      edges[i].setAttribute('class','edge');
    }
  }
}
]]></script>
        <defs>
                <circle id="rim" cx="0" cy="0" r="7"/>
                <circle id="rim2" cx="0" cy="0" r="3.5"/>
                <g id="zoomPlus">
                        <use xlink:href="#rim" fill="#404040">
                                <set attributeName="fill" to="#808080" begin="zoomplus.mouseover" end="zoomplus.mouseout"/>
                        </use>
                        <path d="M-4,0h8M0,-4v8" fill="none" stroke="white" stroke-width="1.5" pointer-events="none"/>
                </g>
                <g id="zoomMin">
                        <use xlink:href="#rim" fill="#404040">
                                <set attributeName="fill" to="#808080" begin="zoomminus.mouseover" end="zoomminus.mouseout"/>
                        </use>
                        <path d="M-4,0h8" fill="none" stroke="white" stroke-width="1.5" pointer-events="none"/>
                </g>
                <g id="dirArrow">
                        <path fill="none" stroke="white" stroke-width="1.5" d="M0,-3.0v7 M-2.5,-0.5L0,-3.0L2.5,-0.5"/>
                </g>
               <g id="resetDef">
                       <use xlink:href="#rim2" fill="#404040">
                               <set attributeName="fill" to="#808080" begin="reset.mouseover" end="reset.mouseout"/>
                       </use>
               </g>
        </defs>

<script type="text/javascript">
var viewWidth = 887;
var viewHeight = 700;
var sectionId = 'dynsection-1';
</script>
<script xlink:href="svgpan.js"/>
<svg id="graph" class="graph">
<g id="viewport">
<title>gr::PairCreationFunctor&lt; PointType, _Scalar, FilterFunctor, Options &gt;</title>
<polygon fill="white" stroke="none" points="-4,4 -4,-696 882.5,-696 882.5,4 -4,4"/>
<!-- Node1 -->
<g id="node1" class="node"><title>Node1</title>
<polygon fill="#bfbfbf" stroke="black" points="332.5,-0.5 332.5,-189.5 472.5,-189.5 472.5,-0.5 332.5,-0.5"/>
<text text-anchor="start" x="340.5" y="-177.5" font-family="Helvetica,sans-Serif" font-size="10.00">gr::PairCreationFunctor</text>
<text text-anchor="start" x="340.5" y="-166.5" font-family="Helvetica,sans-Serif" font-size="10.00">&lt; PointType, _Scalar,</text>
<text text-anchor="middle" x="402.5" y="-155.5" font-family="Helvetica,sans-Serif" font-size="10.00"> FilterFunctor, Options &gt;</text>
<polyline fill="none" stroke="black" points="332.5,-148.5 472.5,-148.5 "/>
<text text-anchor="middle" x="402.5" y="-136.5" font-family="Helvetica,sans-Serif" font-size="10.00"> </text>
<polyline fill="none" stroke="black" points="332.5,-129.5 472.5,-129.5 "/>
<text text-anchor="start" x="340.5" y="-117.5" font-family="Helvetica,sans-Serif" font-size="10.00">+ beginPrimitiveCollect()</text>
<text text-anchor="start" x="340.5" y="-106.5" font-family="Helvetica,sans-Serif" font-size="10.00">+ endPrimitiveCollect()</text>
<text text-anchor="start" x="340.5" y="-95.5" font-family="Helvetica,sans-Serif" font-size="10.00">+ getNormalizedEpsilon()</text>
<text text-anchor="start" x="340.5" y="-84.5" font-family="Helvetica,sans-Serif" font-size="10.00">+ getPointInWorldCoord()</text>
<text text-anchor="start" x="340.5" y="-73.5" font-family="Helvetica,sans-Serif" font-size="10.00">+ PairCreationFunctor()</text>
<text text-anchor="start" x="340.5" y="-62.5" font-family="Helvetica,sans-Serif" font-size="10.00">+ process()</text>
<text text-anchor="start" x="340.5" y="-51.5" font-family="Helvetica,sans-Serif" font-size="10.00">+ setBase()</text>
<text text-anchor="start" x="340.5" y="-40.5" font-family="Helvetica,sans-Serif" font-size="10.00">+ setRadius()</text>
<text text-anchor="start" x="340.5" y="-29.5" font-family="Helvetica,sans-Serif" font-size="10.00">+ synch3DContent()</text>
<text text-anchor="start" x="340.5" y="-18.5" font-family="Helvetica,sans-Serif" font-size="10.00">+ unitToWorld()</text>
<text text-anchor="start" x="340.5" y="-7.5" font-family="Helvetica,sans-Serif" font-size="10.00">+ unitToWorld()</text>
</g>
<!-- Node2 -->
<g id="node2" class="node"><title>Node2</title>
<polygon fill="white" stroke="#bfbfbf" points="0,-270.5 0,-327.5 49,-327.5 49,-270.5 0,-270.5"/>
<text text-anchor="middle" x="24.5" y="-315.5" font-family="Helvetica,sans-Serif" font-size="10.00">double</text>
<polyline fill="none" stroke="#bfbfbf" points="0,-308.5 49,-308.5 "/>
<text text-anchor="middle" x="24.5" y="-296.5" font-family="Helvetica,sans-Serif" font-size="10.00"> </text>
<polyline fill="none" stroke="#bfbfbf" points="0,-289.5 49,-289.5 "/>
<text text-anchor="middle" x="24.5" y="-277.5" font-family="Helvetica,sans-Serif" font-size="10.00"> </text>
</g>
<!-- Node2&#45;&gt;Node1 -->
<g id="edge1" class="edge"><title>Node2&#45;&gt;Node1</title>
<path fill="none" stroke="#404040" d="M32.3699,-270.455C39.3736,-250.553 51.5003,-224.391 70.5,-208 141.508,-146.741 247.396,-118.646 320.402,-105.987"/>
<polygon fill="none" stroke="#404040" points="320.439,-105.981 325.702,-101.052 332.277,-104.014 327.014,-108.943 320.439,-105.981"/>
<text text-anchor="middle" x="126.5" y="-233" font-family="Helvetica,sans-Serif" font-size="10.00"> +pair_distance</text>
<text text-anchor="middle" x="126.5" y="-222" font-family="Helvetica,sans-Serif" font-size="10.00">+pair_distance_epsilon</text>
<text text-anchor="middle" x="126.5" y="-211" font-family="Helvetica,sans-Serif" font-size="10.00">+pair_normals_angle</text>
</g>
<!-- Node3 -->
<g id="node3" class="node"><title>Node3</title>
<polygon fill="white" stroke="#bfbfbf" points="100,-270.5 100,-327.5 153,-327.5 153,-270.5 100,-270.5"/>
<text text-anchor="middle" x="126.5" y="-315.5" font-family="Helvetica,sans-Serif" font-size="10.00">Options</text>
<polyline fill="none" stroke="#bfbfbf" points="100,-308.5 153,-308.5 "/>
<text text-anchor="middle" x="126.5" y="-296.5" font-family="Helvetica,sans-Serif" font-size="10.00"> </text>
<polyline fill="none" stroke="#bfbfbf" points="100,-289.5 153,-289.5 "/>
<text text-anchor="middle" x="126.5" y="-277.5" font-family="Helvetica,sans-Serif" font-size="10.00"> </text>
</g>
<!-- Node3&#45;&gt;Node1 -->
<g id="edge2" class="edge"><title>Node3&#45;&gt;Node1</title>
<path fill="none" stroke="#404040" d="M151.096,-270.139C154.812,-266.291 158.682,-262.472 162.5,-259 211.362,-214.563 273.137,-172.883 321.776,-142.794"/>
<polygon fill="none" stroke="#404040" points="322.032,-142.637 325.054,-136.09 332.26,-136.362 329.238,-142.909 322.032,-142.637"/>
<text text-anchor="middle" x="250.5" y="-222" font-family="Helvetica,sans-Serif" font-size="10.00"> +options_</text>
</g>
<!-- Node4 -->
<g id="node4" class="node"><title>Node4</title>
<polygon fill="white" stroke="#bfbfbf" points="171.5,-259.5 171.5,-338.5 299.5,-338.5 299.5,-259.5 171.5,-259.5"/>
<text text-anchor="start" x="179.5" y="-326.5" font-family="Helvetica,sans-Serif" font-size="10.00">std::vector&lt; typename</text>
<text text-anchor="start" x="179.5" y="-315.5" font-family="Helvetica,sans-Serif" font-size="10.00"> gr::PairCreationFunctor</text>
<text text-anchor="middle" x="235.5" y="-304.5" font-family="Helvetica,sans-Serif" font-size="10.00">::Point &gt;</text>
<polyline fill="none" stroke="#bfbfbf" points="171.5,-297.5 299.5,-297.5 "/>
<text text-anchor="middle" x="235.5" y="-285.5" font-family="Helvetica,sans-Serif" font-size="10.00"> </text>
<polyline fill="none" stroke="#bfbfbf" points="171.5,-278.5 299.5,-278.5 "/>
<text text-anchor="middle" x="235.5" y="-266.5" font-family="Helvetica,sans-Serif" font-size="10.00"> </text>
</g>
<!-- Node4&#45;&gt;Node1 -->
<g id="edge3" class="edge"><title>Node4&#45;&gt;Node1</title>
<path fill="none" stroke="#404040" d="M267.699,-259.052C284.004,-239.331 304.569,-214.455 324.692,-190.115"/>
<polygon fill="none" stroke="#404040" points="324.726,-190.073 325.467,-182.9 332.373,-180.825 331.632,-187.998 324.726,-190.073"/>
<text text-anchor="middle" x="330" y="-222" font-family="Helvetica,sans-Serif" font-size="10.00"> +points</text>
</g>
<!-- Node5 -->
<g id="node5" class="node"><title>Node5</title>
<polygon fill="white" stroke="#bfbfbf" points="33,-463.5 33,-520.5 74,-520.5 74,-463.5 33,-463.5"/>
<text text-anchor="middle" x="53.5" y="-508.5" font-family="Helvetica,sans-Serif" font-size="10.00">Point</text>
<polyline fill="none" stroke="#bfbfbf" points="33,-501.5 74,-501.5 "/>
<text text-anchor="middle" x="53.5" y="-489.5" font-family="Helvetica,sans-Serif" font-size="10.00"> </text>
<polyline fill="none" stroke="#bfbfbf" points="33,-482.5 74,-482.5 "/>
<text text-anchor="middle" x="53.5" y="-470.5" font-family="Helvetica,sans-Serif" font-size="10.00"> </text>
</g>
<!-- Node5&#45;&gt;Node4 -->
<g id="edge4" class="edge"><title>Node5&#45;&gt;Node4</title>
<path fill="none" stroke="#404040" d="M50.9392,-463.39C49.7563,-433.123 52.9218,-385.131 80.5,-357 103.997,-333.032 123.144,-348.311 159.953,-338.709"/>
<polygon fill="none" stroke="#404040" points="159.953,-338.709 164.461,-333.08 171.391,-335.076 166.883,-340.705 159.953,-338.709"/>
<text text-anchor="middle" x="109" y="-365.5" font-family="Helvetica,sans-Serif" font-size="10.00"> +elements</text>
</g>
<!-- Node6 -->
<g id="node6" class="node"><title>Node6</title>
<g id="a_node6"><a xlink:title="STL class. ">
<polygon fill="white" stroke="#bfbfbf" points="475,-463.5 475,-520.5 570,-520.5 570,-463.5 475,-463.5"/>
<text text-anchor="middle" x="522.5" y="-508.5" font-family="Helvetica,sans-Serif" font-size="10.00">std::vector&lt; T &gt;</text>
<polyline fill="none" stroke="#bfbfbf" points="475,-501.5 570,-501.5 "/>
<text text-anchor="middle" x="522.5" y="-489.5" font-family="Helvetica,sans-Serif" font-size="10.00"> </text>
<polyline fill="none" stroke="#bfbfbf" points="475,-482.5 570,-482.5 "/>
<text text-anchor="middle" x="522.5" y="-470.5" font-family="Helvetica,sans-Serif" font-size="10.00"> </text>
</a>
</g>
</g>
<!-- Node6&#45;&gt;Node1 -->
<g id="edge13" class="edge"><title>Node6&#45;&gt;Node1</title>
<path fill="none" stroke="#404040" d="M522.951,-463.407C522.876,-419.104 519.402,-329.893 495.5,-259 488.856,-239.294 479.744,-219.282 469.807,-200.341"/>
<polygon fill="none" stroke="#404040" points="469.731,-200.199 463.365,-196.811 464.044,-189.632 470.41,-193.02 469.731,-200.199"/>
<text text-anchor="middle" x="532" y="-296.5" font-family="Helvetica,sans-Serif" font-size="10.00"> +pairs</text>
</g>
<!-- Node6&#45;&gt;Node4 -->
<g id="edge5" class="edge"><title>Node6&#45;&gt;Node4</title>
<path fill="none" stroke="orange" d="M464.974,-482.526C403.71,-470.419 308.316,-442.185 254.5,-379 244.988,-367.831 240.068,-352.699 237.58,-338.667"/>
<polygon fill="orange" stroke="orange" points="464.399,-485.979 474.876,-484.402 465.702,-479.102 464.399,-485.979"/>
<text text-anchor="start" x="254.5" y="-371" font-family="Helvetica,sans-Serif" font-size="10.00"> &lt; typename gr::PairCreation</text>
<text text-anchor="middle" x="324.5" y="-360" font-family="Helvetica,sans-Serif" font-size="10.00">Functor::Point &gt;</text>
</g>
<!-- Node8 -->
<g id="node8" class="node"><title>Node8</title>
<polygon fill="white" stroke="#bfbfbf" points="318,-270.5 318,-327.5 487,-327.5 487,-270.5 318,-270.5"/>
<text text-anchor="middle" x="402.5" y="-315.5" font-family="Helvetica,sans-Serif" font-size="10.00">std::vector&lt; gr::HyperSphere &gt;</text>
<polyline fill="none" stroke="#bfbfbf" points="318,-308.5 487,-308.5 "/>
<text text-anchor="middle" x="402.5" y="-296.5" font-family="Helvetica,sans-Serif" font-size="10.00"> </text>
<polyline fill="none" stroke="#bfbfbf" points="318,-289.5 487,-289.5 "/>
<text text-anchor="middle" x="402.5" y="-277.5" font-family="Helvetica,sans-Serif" font-size="10.00"> </text>
</g>
<!-- Node6&#45;&gt;Node8 -->
<g id="edge9" class="edge"><title>Node6&#45;&gt;Node8</title>
<path fill="none" stroke="orange" d="M470.434,-457.238C445.23,-437.726 417.46,-410.756 403.5,-379 396.49,-363.053 396.189,-343.486 397.666,-327.815"/>
<polygon fill="orange" stroke="orange" points="468.411,-460.096 478.507,-463.308 472.617,-454.501 468.411,-460.096"/>
<text text-anchor="middle" x="456" y="-365.5" font-family="Helvetica,sans-Serif" font-size="10.00"> &lt; gr::HyperSphere &gt;</text>
</g>
<!-- Node10 -->
<g id="node10" class="node"><title>Node10</title>
<polygon fill="white" stroke="#bfbfbf" points="575.5,-265 575.5,-333 697.5,-333 697.5,-265 575.5,-265"/>
<text text-anchor="start" x="583.5" y="-321" font-family="Helvetica,sans-Serif" font-size="10.00">std::vector&lt; unsigned</text>
<text text-anchor="middle" x="636.5" y="-310" font-family="Helvetica,sans-Serif" font-size="10.00"> int &gt;</text>
<polyline fill="none" stroke="#bfbfbf" points="575.5,-303 697.5,-303 "/>
<text text-anchor="middle" x="636.5" y="-291" font-family="Helvetica,sans-Serif" font-size="10.00"> </text>
<polyline fill="none" stroke="#bfbfbf" points="575.5,-284 697.5,-284 "/>
<text text-anchor="middle" x="636.5" y="-272" font-family="Helvetica,sans-Serif" font-size="10.00"> </text>
</g>
<!-- Node6&#45;&gt;Node10 -->
<g id="edge12" class="edge"><title>Node6&#45;&gt;Node10</title>
<path fill="none" stroke="orange" d="M525.068,-453.306C528.58,-424.748 536.884,-385.667 556.5,-357 562.567,-348.133 570.493,-340.179 578.996,-333.224"/>
<polygon fill="orange" stroke="orange" points="521.582,-452.993 523.979,-463.313 528.541,-453.75 521.582,-452.993"/>
<text text-anchor="middle" x="599" y="-365.5" font-family="Helvetica,sans-Serif" font-size="10.00"> &lt; unsigned int &gt;</text>
</g>
<!-- Node12 -->
<g id="node12" class="node"><title>Node12</title>
<polygon fill="white" stroke="#bfbfbf" points="716,-270.5 716,-327.5 851,-327.5 851,-270.5 716,-270.5"/>
<text text-anchor="middle" x="783.5" y="-315.5" font-family="Helvetica,sans-Serif" font-size="10.00">std::vector&lt; PointType &gt;</text>
<polyline fill="none" stroke="#bfbfbf" points="716,-308.5 851,-308.5 "/>
<text text-anchor="middle" x="783.5" y="-296.5" font-family="Helvetica,sans-Serif" font-size="10.00"> </text>
<polyline fill="none" stroke="#bfbfbf" points="716,-289.5 851,-289.5 "/>
<text text-anchor="middle" x="783.5" y="-277.5" font-family="Helvetica,sans-Serif" font-size="10.00"> </text>
</g>
<!-- Node6&#45;&gt;Node12 -->
<g id="edge16" class="edge"><title>Node6&#45;&gt;Node12</title>
<path fill="none" stroke="orange" d="M561.115,-456.53C584.883,-434.86 615.642,-405.988 641.5,-379 650.438,-369.671 649.953,-364.462 660.5,-357 678.422,-344.321 686.462,-347.97 706.5,-339 714.433,-335.449 722.723,-331.505 730.803,-327.528"/>
<polygon fill="orange" stroke="orange" points="558.709,-453.987 553.659,-463.301 563.415,-459.169 558.709,-453.987"/>
<text text-anchor="middle" x="696" y="-365.5" font-family="Helvetica,sans-Serif" font-size="10.00"> &lt; PointType &gt;</text>
</g>
<!-- Node7 -->
<g id="node7" class="node"><title>Node7</title>
<polygon fill="white" stroke="#bfbfbf" points="508,-634.5 508,-691.5 537,-691.5 537,-634.5 508,-634.5"/>
<text text-anchor="middle" x="522.5" y="-679.5" font-family="Helvetica,sans-Serif" font-size="10.00">T</text>
<polyline fill="none" stroke="#bfbfbf" points="508,-672.5 537,-672.5 "/>
<text text-anchor="middle" x="522.5" y="-660.5" font-family="Helvetica,sans-Serif" font-size="10.00"> </text>
<polyline fill="none" stroke="#bfbfbf" points="508,-653.5 537,-653.5 "/>
<text text-anchor="middle" x="522.5" y="-641.5" font-family="Helvetica,sans-Serif" font-size="10.00"> </text>
</g>
<!-- Node7&#45;&gt;Node6 -->
<g id="edge6" class="edge"><title>Node7&#45;&gt;Node6</title>
<path fill="none" stroke="#404040" d="M522.5,-634.471C522.5,-606.85 522.5,-564.027 522.5,-532.728"/>
<polygon fill="none" stroke="#404040" points="522.5,-532.517 518.5,-526.517 522.5,-520.517 526.5,-526.517 522.5,-532.517"/>
<text text-anchor="middle" x="551" y="-608" font-family="Helvetica,sans-Serif" font-size="10.00"> +elements</text>
</g>
<!-- Node8&#45;&gt;Node1 -->
<g id="edge7" class="edge"><title>Node8&#45;&gt;Node1</title>
<path fill="none" stroke="#404040" d="M402.5,-270.336C402.5,-252.147 402.5,-227.072 402.5,-201.606"/>
<polygon fill="none" stroke="#404040" points="402.5,-201.503 398.5,-195.504 402.5,-189.503 406.5,-195.503 402.5,-201.503"/>
<text text-anchor="middle" x="431.5" y="-222" font-family="Helvetica,sans-Serif" font-size="10.00"> +primitives</text>
</g>
<!-- Node9 -->
<g id="node9" class="node"><title>Node9</title>
<g id="a_node9"><a xlink:href="a00026.html" target="_top" xlink:title="{gr::HyperSphere\&lt; Point,\l _dim, Scalar \&gt;\n||+ center()\l+ HyperSphere()\l+ HyperSphere()\l+ intersect()\l+ intersectFast()\l+ intersectPoint()\l+ operator Point()\l+ operator\&lt;()\l+ quantified()\l+ radius()\l+ radius()\l+ intersectPoint()\l}">
<polygon fill="white" stroke="black" points="92.5,-397.5 92.5,-586.5 226.5,-586.5 226.5,-397.5 92.5,-397.5"/>
<text text-anchor="start" x="100.5" y="-574.5" font-family="Helvetica,sans-Serif" font-size="10.00">gr::HyperSphere&lt; Point,</text>
<text text-anchor="middle" x="159.5" y="-563.5" font-family="Helvetica,sans-Serif" font-size="10.00"> _dim, Scalar &gt;</text>
<polyline fill="none" stroke="black" points="92.5,-556.5 226.5,-556.5 "/>
<text text-anchor="middle" x="159.5" y="-544.5" font-family="Helvetica,sans-Serif" font-size="10.00"> </text>
<polyline fill="none" stroke="black" points="92.5,-537.5 226.5,-537.5 "/>
<text text-anchor="start" x="100.5" y="-525.5" font-family="Helvetica,sans-Serif" font-size="10.00">+ center()</text>
<text text-anchor="start" x="100.5" y="-514.5" font-family="Helvetica,sans-Serif" font-size="10.00">+ HyperSphere()</text>
<text text-anchor="start" x="100.5" y="-503.5" font-family="Helvetica,sans-Serif" font-size="10.00">+ HyperSphere()</text>
<text text-anchor="start" x="100.5" y="-492.5" font-family="Helvetica,sans-Serif" font-size="10.00">+ intersect()</text>
<text text-anchor="start" x="100.5" y="-481.5" font-family="Helvetica,sans-Serif" font-size="10.00">+ intersectFast()</text>
<text text-anchor="start" x="100.5" y="-470.5" font-family="Helvetica,sans-Serif" font-size="10.00">+ intersectPoint()</text>
<text text-anchor="start" x="100.5" y="-459.5" font-family="Helvetica,sans-Serif" font-size="10.00">+ operator Point()</text>
<text text-anchor="start" x="100.5" y="-448.5" font-family="Helvetica,sans-Serif" font-size="10.00">+ operator&lt;()</text>
<text text-anchor="start" x="100.5" y="-437.5" font-family="Helvetica,sans-Serif" font-size="10.00">+ quantified()</text>
<text text-anchor="start" x="100.5" y="-426.5" font-family="Helvetica,sans-Serif" font-size="10.00">+ radius()</text>
<text text-anchor="start" x="100.5" y="-415.5" font-family="Helvetica,sans-Serif" font-size="10.00">+ radius()</text>
<text text-anchor="start" x="100.5" y="-404.5" font-family="Helvetica,sans-Serif" font-size="10.00">+ intersectPoint()</text>
</a>
</g>
</g>
<!-- Node9&#45;&gt;Node8 -->
<g id="edge8" class="edge"><title>Node9&#45;&gt;Node8</title>
<path fill="none" stroke="#404040" d="M143.525,-397.371C145.411,-382.474 150.431,-368.282 160.5,-357 182.56,-332.281 276.458,-347.426 308.5,-339 316.046,-337.016 323.785,-334.555 331.427,-331.842"/>
<polygon fill="none" stroke="#404040" points="331.669,-331.753 335.893,-325.908 342.913,-327.56 338.688,-333.404 331.669,-331.753"/>
<text text-anchor="middle" x="189" y="-365.5" font-family="Helvetica,sans-Serif" font-size="10.00"> +elements</text>
</g>
<!-- Node10&#45;&gt;Node1 -->
<g id="edge10" class="edge"><title>Node10&#45;&gt;Node1</title>
<path fill="none" stroke="#404040" d="M600.214,-264.762C581.357,-247.638 557.849,-226.519 536.5,-208 519.044,-192.858 500.104,-176.806 482.112,-161.726"/>
<polygon fill="none" stroke="#404040" points="482.008,-161.638 474.839,-160.857 472.803,-153.939 479.972,-154.721 482.008,-161.638"/>
<text text-anchor="middle" x="586" y="-222" font-family="Helvetica,sans-Serif" font-size="10.00"> +ids</text>
</g>
<!-- Node11 -->
<g id="node11" class="node"><title>Node11</title>
<g id="a_node11"><a xlink:href="a00114.html" target="_top" xlink:title="{int\n||}">
<polygon fill="white" stroke="black" points="743,-463.5 743,-520.5 772,-520.5 772,-463.5 743,-463.5"/>
<text text-anchor="middle" x="757.5" y="-508.5" font-family="Helvetica,sans-Serif" font-size="10.00">int</text>
<polyline fill="none" stroke="black" points="743,-501.5 772,-501.5 "/>
<text text-anchor="middle" x="757.5" y="-489.5" font-family="Helvetica,sans-Serif" font-size="10.00"> </text>
<polyline fill="none" stroke="black" points="743,-482.5 772,-482.5 "/>
<text text-anchor="middle" x="757.5" y="-470.5" font-family="Helvetica,sans-Serif" font-size="10.00"> </text>
</a>
</g>
</g>
<!-- Node11&#45;&gt;Node10 -->
<g id="edge11" class="edge"><title>Node11&#45;&gt;Node10</title>
<path fill="none" stroke="#404040" d="M759.56,-463.305C760.312,-434.281 757.374,-388.595 735.5,-357 734.851,-356.063 721.904,-348.45 705.575,-339.076"/>
<polygon fill="none" stroke="#404040" points="705.466,-339.014 698.272,-339.507 695.05,-333.056 702.244,-332.563 705.466,-339.014"/>
<text text-anchor="middle" x="775" y="-365.5" font-family="Helvetica,sans-Serif" font-size="10.00"> +elements</text>
</g>
<!-- Node12&#45;&gt;Node1 -->
<g id="edge14" class="edge"><title>Node12&#45;&gt;Node1</title>
<path fill="none" stroke="#404040" d="M731.322,-270.336C667.415,-236.454 558.446,-178.68 483.584,-138.989"/>
<polygon fill="none" stroke="#404040" points="483.398,-138.891 476.223,-139.614 472.796,-133.27 479.971,-132.546 483.398,-138.891"/>
<text text-anchor="middle" x="684" y="-222" font-family="Helvetica,sans-Serif" font-size="10.00"> +Q_</text>
</g>
<!-- Node13 -->
<g id="node13" class="node"><title>Node13</title>
<polygon fill="white" stroke="#bfbfbf" points="806.5,-463.5 806.5,-520.5 868.5,-520.5 868.5,-463.5 806.5,-463.5"/>
<text text-anchor="middle" x="837.5" y="-508.5" font-family="Helvetica,sans-Serif" font-size="10.00">PointType</text>
<polyline fill="none" stroke="#bfbfbf" points="806.5,-501.5 868.5,-501.5 "/>
<text text-anchor="middle" x="837.5" y="-489.5" font-family="Helvetica,sans-Serif" font-size="10.00"> </text>
<polyline fill="none" stroke="#bfbfbf" points="806.5,-482.5 868.5,-482.5 "/>
<text text-anchor="middle" x="837.5" y="-470.5" font-family="Helvetica,sans-Serif" font-size="10.00"> </text>
</g>
<!-- Node13&#45;&gt;Node12 -->
<g id="edge15" class="edge"><title>Node13&#45;&gt;Node12</title>
<path fill="none" stroke="#404040" d="M835.781,-463.36C833.418,-435.77 827.939,-392.486 815.5,-357 813.318,-350.775 810.477,-344.438 807.389,-338.361"/>
<polygon fill="none" stroke="#404040" points="807.374,-338.333 800.997,-334.966 801.653,-327.784 808.029,-331.152 807.374,-338.333"/>
<text text-anchor="middle" x="850" y="-365.5" font-family="Helvetica,sans-Serif" font-size="10.00"> +elements</text>
</g>
</g>
</svg>
        <g id="navigator" transform="translate(0 0)" fill="#404254">
                <rect fill="#f2f5e9" fill-opacity="0.5" stroke="#606060" stroke-width=".5" x="0" y="0" width="60" height="60"/>
                <use id="zoomplus" xlink:href="#zoomPlus" x="17" y="9" onmousedown="handleZoom(evt,'in')"/>
                <use id="zoomminus" xlink:href="#zoomMin" x="42" y="9" onmousedown="handleZoom(evt,'out')"/>
                <use id="reset" xlink:href="#resetDef" x="30" y="36" onmousedown="handleReset()"/>
                <g id="arrowUp" xlink:href="#dirArrow" transform="translate(30 24)" onmousedown="handlePan(0,-1)">
                  <use xlink:href="#rim" fill="#404040">
                        <set attributeName="fill" to="#808080" begin="arrowUp.mouseover" end="arrowUp.mouseout"/>
                  </use>
                  <path fill="none" stroke="white" stroke-width="1.5" d="M0,-3.0v7 M-2.5,-0.5L0,-3.0L2.5,-0.5"/>
                </g>
                <g id="arrowRight" xlink:href="#dirArrow" transform="rotate(90) translate(36 -43)" onmousedown="handlePan(1,0)">
                  <use xlink:href="#rim" fill="#404040">
                        <set attributeName="fill" to="#808080" begin="arrowRight.mouseover" end="arrowRight.mouseout"/>
                  </use>
                  <path fill="none" stroke="white" stroke-width="1.5" d="M0,-3.0v7 M-2.5,-0.5L0,-3.0L2.5,-0.5"/>
                </g>
                <g id="arrowDown" xlink:href="#dirArrow" transform="rotate(180) translate(-30 -48)" onmousedown="handlePan(0,1)">
                  <use xlink:href="#rim" fill="#404040">
                        <set attributeName="fill" to="#808080" begin="arrowDown.mouseover" end="arrowDown.mouseout"/>
                  </use>
                  <path fill="none" stroke="white" stroke-width="1.5" d="M0,-3.0v7 M-2.5,-0.5L0,-3.0L2.5,-0.5"/>
                </g>
                <g id="arrowLeft" xlink:href="#dirArrow" transform="rotate(270) translate(-36 17)" onmousedown="handlePan(-1,0)">
                  <use xlink:href="#rim" fill="#404040">
                        <set attributeName="fill" to="#808080" begin="arrowLeft.mouseover" end="arrowLeft.mouseout"/>
                  </use>
                  <path fill="none" stroke="white" stroke-width="1.5" d="M0,-3.0v7 M-2.5,-0.5L0,-3.0L2.5,-0.5"/>
                </g>
        </g>
        <svg viewBox="0 0 15 15" width="100%" height="30px" preserveAspectRatio="xMaxYMin meet">
         <g id="arrow_out" transform="scale(0.3 0.3)">
          <a xlink:href="a00241_org.svg" target="_base">
           <rect id="button" ry="5" rx="5" y="6" x="6" height="38" width="38"
                fill="#f2f5e9" fill-opacity="0.5" stroke="#606060" stroke-width="1.0"/>
           <path id="arrow"
             d="M 11.500037,31.436501 C 11.940474,20.09759 22.043105,11.32322 32.158766,21.979434 L 37.068811,17.246167 C 37.068811,17.246167 37.088388,32 37.088388,32 L 22.160133,31.978069 C 22.160133,31.978069 26.997745,27.140456 26.997745,27.140456 C 18.528582,18.264221 13.291696,25.230495 11.500037,31.436501 z"
             style="fill:#404040;"/>
          </a>
         </g>
        </svg>
</svg>
