<?xml version="1.0" encoding="UTF-8" standalone="no"?>
<!DOCTYPE svg PUBLIC "-//W3C//DTD SVG 1.1//EN"
 "http://www.w3.org/Graphics/SVG/1.1/DTD/svg11.dtd">
<!-- Generated by graphviz version 2.38.0 (20140413.2041)
 -->
<!-- Title: gr::MatchBase&lt; PointType, _TransformVisitor, OptExts &gt; Pages: 1 -->
<!--zoomable 1218 -->
<svg id="main" version="1.1" xmlns="http://www.w3.org/2000/svg" xmlns:xlink="http://www.w3.org/1999/xlink" xml:space="preserve" onload="init(evt)">
<style type="text/css"><![CDATA[
.edge:hover path { stroke: red; }
.edge:hover polygon { stroke: red; fill: red; }
]]></style>
<script type="text/javascript"><![CDATA[
var edges = document.getElementsByTagName('g');
if (edges && edges.length) {
  for (var i=0;i<edges.length;i++) {
    if (edges[i].id.substr(0,4)=='edge') {
      edges[i].setAttribute('class','edge');
    }
  }
}
]]></script>
        <defs>
                <circle id="rim" cx="0" cy="0" r="7"/>
                <circle id="rim2" cx="0" cy="0" r="3.5"/>
                <g id="zoomPlus">
                        <use xlink:href="#rim" fill="#404040">
                                <set attributeName="fill" to="#808080" begin="zoomplus.mouseover" end="zoomplus.mouseout"/>
                        </use>
                        <path d="M-4,0h8M0,-4v8" fill="none" stroke="white" stroke-width="1.5" pointer-events="none"/>
                </g>
                <g id="zoomMin">
                        <use xlink:href="#rim" fill="#404040">
                                <set attributeName="fill" to="#808080" begin="zoomminus.mouseover" end="zoomminus.mouseout"/>
                        </use>
                        <path d="M-4,0h8" fill="none" stroke="white" stroke-width="1.5" pointer-events="none"/>
                </g>
                <g id="dirArrow">
                        <path fill="none" stroke="white" stroke-width="1.5" d="M0,-3.0v7 M-2.5,-0.5L0,-3.0L2.5,-0.5"/>
                </g>
               <g id="resetDef">
                       <use xlink:href="#rim2" fill="#404040">
                               <set attributeName="fill" to="#808080" begin="reset.mouseover" end="reset.mouseout"/>
                       </use>
               </g>
        </defs>

<script type="text/javascript">
var viewWidth = 1647;
var viewHeight = 1218;
var sectionId = 'dynsection-1';
</script>
<script xlink:href="svgpan.js"/>
<svg id="graph" class="graph">
<g id="viewport">
<title>gr::MatchBase&lt; PointType, _TransformVisitor, OptExts &gt;</title>
<polygon fill="white" stroke="none" points="-4,4 -4,-1214 1643,-1214 1643,4 -4,4"/>
<!-- Node1 -->
<g id="node1" class="node"><title>Node1</title>
<polygon fill="#bfbfbf" stroke="black" points="927.5,-0.5 927.5,-178.5 1100.5,-178.5 1100.5,-0.5 927.5,-0.5"/>
<text text-anchor="start" x="935.5" y="-166.5" font-family="Helvetica,sans-Serif" font-size="10.00">gr::MatchBase&lt; PointType,</text>
<text text-anchor="middle" x="1014" y="-155.5" font-family="Helvetica,sans-Serif" font-size="10.00"> _TransformVisitor, OptExts &gt;</text>
<polyline fill="none" stroke="black" points="927.5,-148.5 1100.5,-148.5 "/>
<text text-anchor="middle" x="1014" y="-136.5" font-family="Helvetica,sans-Serif" font-size="10.00"> </text>
<polyline fill="none" stroke="black" points="927.5,-129.5 1100.5,-129.5 "/>
<text text-anchor="start" x="935.5" y="-117.5" font-family="Helvetica,sans-Serif" font-size="10.00">+ ComputeTransformation()</text>
<text text-anchor="start" x="935.5" y="-106.5" font-family="Helvetica,sans-Serif" font-size="10.00">+ getFirstSampled()</text>
<text text-anchor="start" x="935.5" y="-95.5" font-family="Helvetica,sans-Serif" font-size="10.00">+ getSecondSampled()</text>
<text text-anchor="start" x="935.5" y="-84.5" font-family="Helvetica,sans-Serif" font-size="10.00">+ MatchBase()</text>
<text text-anchor="start" x="935.5" y="-73.5" font-family="Helvetica,sans-Serif" font-size="10.00">+ ~MatchBase()</text>
<text text-anchor="start" x="935.5" y="-62.5" font-family="Helvetica,sans-Serif" font-size="10.00"># ComputeRigidTransformation()</text>
<text text-anchor="start" x="935.5" y="-51.5" font-family="Helvetica,sans-Serif" font-size="10.00"># init()</text>
<text text-anchor="start" x="935.5" y="-40.5" font-family="Helvetica,sans-Serif" font-size="10.00"># Initialize()</text>
<text text-anchor="start" x="935.5" y="-29.5" font-family="Helvetica,sans-Serif" font-size="10.00"># Log()</text>
<text text-anchor="start" x="935.5" y="-18.5" font-family="Helvetica,sans-Serif" font-size="10.00"># MeanDistance()</text>
<text text-anchor="start" x="935.5" y="-7.5" font-family="Helvetica,sans-Serif" font-size="10.00"># SelectRandomTriangle()</text>
</g>
<!-- Node2 -->
<g id="node2" class="node"><title>Node2</title>
<g id="a_node2"><a xlink:href="a00031.html" target="_top" xlink:title="{gr::KdTree\&lt; Scalar \&gt;\n||+ _getIndices()\l+ _getNodes()\l+ _getPoints()\l+ aabb()\l+ add()\l+ add()\l+ doQueryDist()\l+ doQueryDistIndices()\l+ doQueryDistProcessIndices()\l+ doQueryRestrictedClosest\lIndex()\l+ finalize()\l+ KdTree()\l+ KdTree()\l+ ~KdTree()\l+ invalidIndex()\l# _doQueryDistIndicesWithFunctor()\l# createTree()\l# split()\l}">
<polygon fill="white" stroke="black" points="449,-237.5 449,-492.5 637,-492.5 637,-237.5 449,-237.5"/>
<text text-anchor="middle" x="543" y="-480.5" font-family="Helvetica,sans-Serif" font-size="10.00">gr::KdTree&lt; Scalar &gt;</text>
<polyline fill="none" stroke="black" points="449,-473.5 637,-473.5 "/>
<text text-anchor="middle" x="543" y="-461.5" font-family="Helvetica,sans-Serif" font-size="10.00"> </text>
<polyline fill="none" stroke="black" points="449,-454.5 637,-454.5 "/>
<text text-anchor="start" x="457" y="-442.5" font-family="Helvetica,sans-Serif" font-size="10.00">+ _getIndices()</text>
<text text-anchor="start" x="457" y="-431.5" font-family="Helvetica,sans-Serif" font-size="10.00">+ _getNodes()</text>
<text text-anchor="start" x="457" y="-420.5" font-family="Helvetica,sans-Serif" font-size="10.00">+ _getPoints()</text>
<text text-anchor="start" x="457" y="-409.5" font-family="Helvetica,sans-Serif" font-size="10.00">+ aabb()</text>
<text text-anchor="start" x="457" y="-398.5" font-family="Helvetica,sans-Serif" font-size="10.00">+ add()</text>
<text text-anchor="start" x="457" y="-387.5" font-family="Helvetica,sans-Serif" font-size="10.00">+ add()</text>
<text text-anchor="start" x="457" y="-376.5" font-family="Helvetica,sans-Serif" font-size="10.00">+ doQueryDist()</text>
<text text-anchor="start" x="457" y="-365.5" font-family="Helvetica,sans-Serif" font-size="10.00">+ doQueryDistIndices()</text>
<text text-anchor="start" x="457" y="-354.5" font-family="Helvetica,sans-Serif" font-size="10.00">+ doQueryDistProcessIndices()</text>
<text text-anchor="start" x="457" y="-343.5" font-family="Helvetica,sans-Serif" font-size="10.00">+ doQueryRestrictedClosest</text>
<text text-anchor="start" x="457" y="-332.5" font-family="Helvetica,sans-Serif" font-size="10.00">Index()</text>
<text text-anchor="start" x="457" y="-321.5" font-family="Helvetica,sans-Serif" font-size="10.00">+ finalize()</text>
<text text-anchor="start" x="457" y="-310.5" font-family="Helvetica,sans-Serif" font-size="10.00">+ KdTree()</text>
<text text-anchor="start" x="457" y="-299.5" font-family="Helvetica,sans-Serif" font-size="10.00">+ KdTree()</text>
<text text-anchor="start" x="457" y="-288.5" font-family="Helvetica,sans-Serif" font-size="10.00">+ ~KdTree()</text>
<text text-anchor="start" x="457" y="-277.5" font-family="Helvetica,sans-Serif" font-size="10.00">+ invalidIndex()</text>
<text text-anchor="start" x="457" y="-266.5" font-family="Helvetica,sans-Serif" font-size="10.00"># _doQueryDistIndicesWithFunctor()</text>
<text text-anchor="start" x="457" y="-255.5" font-family="Helvetica,sans-Serif" font-size="10.00"># createTree()</text>
<text text-anchor="start" x="457" y="-244.5" font-family="Helvetica,sans-Serif" font-size="10.00"># split()</text>
</a>
</g>
</g>
<!-- Node2&#45;&gt;Node1 -->
<g id="edge1" class="edge"><title>Node2&#45;&gt;Node1</title>
<path fill="none" stroke="#404040" d="M637.088,-281.205C672.793,-252.266 714.805,-221.038 756,-197 806.381,-167.602 866.425,-142.304 915.907,-123.75"/>
<polygon fill="none" stroke="#404040" points="916.016,-123.709 920.252,-117.873 927.268,-119.538 923.033,-125.374 916.016,-123.709"/>
<text text-anchor="middle" x="782.5" y="-205.5" font-family="Helvetica,sans-Serif" font-size="10.00"> #kd_tree_</text>
</g>
<!-- Node3 -->
<g id="node3" class="node"><title>Node3</title>
<polygon fill="white" stroke="#bfbfbf" points="36,-882 36,-939 178,-939 178,-882 36,-882"/>
<text text-anchor="middle" x="107" y="-927" font-family="Helvetica,sans-Serif" font-size="10.00">std::vector&lt; VectorType &gt;</text>
<polyline fill="none" stroke="#bfbfbf" points="36,-920 178,-920 "/>
<text text-anchor="middle" x="107" y="-908" font-family="Helvetica,sans-Serif" font-size="10.00"> </text>
<polyline fill="none" stroke="#bfbfbf" points="36,-901 178,-901 "/>
<text text-anchor="middle" x="107" y="-889" font-family="Helvetica,sans-Serif" font-size="10.00"> </text>
</g>
<!-- Node3&#45;&gt;Node2 -->
<g id="edge2" class="edge"><title>Node3&#45;&gt;Node2</title>
<path fill="none" stroke="#404040" d="M98.919,-881.782C81.8909,-817.285 49.4119,-654.761 120,-551 191.484,-445.922 336.683,-400.039 436.864,-380.334"/>
<polygon fill="none" stroke="#404040" points="437.061,-380.297 442.209,-375.248 448.85,-378.058 443.701,-383.107 437.061,-380.297"/>
<text text-anchor="middle" x="145.5" y="-682" font-family="Helvetica,sans-Serif" font-size="10.00"> #mPoints</text>
</g>
<!-- Node13 -->
<g id="node13" class="node"><title>Node13</title>
<g id="a_node13"><a xlink:href="a00031.html" target="_top" xlink:title="3D Kdtree with reentrant queries ">
<polygon fill="white" stroke="black" points="270,-551.5 270,-817.5 458,-817.5 458,-551.5 270,-551.5"/>
<text text-anchor="start" x="278" y="-805.5" font-family="Helvetica,sans-Serif" font-size="10.00">gr::KdTree&lt; _Scalar,</text>
<text text-anchor="middle" x="364" y="-794.5" font-family="Helvetica,sans-Serif" font-size="10.00"> _Index &gt;</text>
<polyline fill="none" stroke="black" points="270,-787.5 458,-787.5 "/>
<text text-anchor="middle" x="364" y="-775.5" font-family="Helvetica,sans-Serif" font-size="10.00"> </text>
<polyline fill="none" stroke="black" points="270,-768.5 458,-768.5 "/>
<text text-anchor="start" x="278" y="-756.5" font-family="Helvetica,sans-Serif" font-size="10.00">+ _getIndices()</text>
<text text-anchor="start" x="278" y="-745.5" font-family="Helvetica,sans-Serif" font-size="10.00">+ _getNodes()</text>
<text text-anchor="start" x="278" y="-734.5" font-family="Helvetica,sans-Serif" font-size="10.00">+ _getPoints()</text>
<text text-anchor="start" x="278" y="-723.5" font-family="Helvetica,sans-Serif" font-size="10.00">+ aabb()</text>
<text text-anchor="start" x="278" y="-712.5" font-family="Helvetica,sans-Serif" font-size="10.00">+ add()</text>
<text text-anchor="start" x="278" y="-701.5" font-family="Helvetica,sans-Serif" font-size="10.00">+ add()</text>
<text text-anchor="start" x="278" y="-690.5" font-family="Helvetica,sans-Serif" font-size="10.00">+ doQueryDist()</text>
<text text-anchor="start" x="278" y="-679.5" font-family="Helvetica,sans-Serif" font-size="10.00">+ doQueryDistIndices()</text>
<text text-anchor="start" x="278" y="-668.5" font-family="Helvetica,sans-Serif" font-size="10.00">+ doQueryDistProcessIndices()</text>
<text text-anchor="start" x="278" y="-657.5" font-family="Helvetica,sans-Serif" font-size="10.00">+ doQueryRestrictedClosest</text>
<text text-anchor="start" x="278" y="-646.5" font-family="Helvetica,sans-Serif" font-size="10.00">Index()</text>
<text text-anchor="start" x="278" y="-635.5" font-family="Helvetica,sans-Serif" font-size="10.00">+ finalize()</text>
<text text-anchor="start" x="278" y="-624.5" font-family="Helvetica,sans-Serif" font-size="10.00">+ KdTree()</text>
<text text-anchor="start" x="278" y="-613.5" font-family="Helvetica,sans-Serif" font-size="10.00">+ KdTree()</text>
<text text-anchor="start" x="278" y="-602.5" font-family="Helvetica,sans-Serif" font-size="10.00">+ ~KdTree()</text>
<text text-anchor="start" x="278" y="-591.5" font-family="Helvetica,sans-Serif" font-size="10.00">+ invalidIndex()</text>
<text text-anchor="start" x="278" y="-580.5" font-family="Helvetica,sans-Serif" font-size="10.00"># _doQueryDistIndicesWithFunctor()</text>
<text text-anchor="start" x="278" y="-569.5" font-family="Helvetica,sans-Serif" font-size="10.00"># createTree()</text>
<text text-anchor="start" x="278" y="-558.5" font-family="Helvetica,sans-Serif" font-size="10.00"># split()</text>
</a>
</g>
</g>
<!-- Node3&#45;&gt;Node13 -->
<g id="edge16" class="edge"><title>Node3&#45;&gt;Node13</title>
<path fill="none" stroke="#404040" d="M153.754,-881.86C194.052,-857.861 247.119,-825.771 256,-818 257.612,-816.589 259.219,-815.153 260.821,-813.693"/>
<polygon fill="none" stroke="#404040" points="261.196,-813.339 262.81,-806.31 269.918,-805.097 268.304,-812.125 261.196,-813.339"/>
<text text-anchor="middle" x="254.5" y="-844.5" font-family="Helvetica,sans-Serif" font-size="10.00"> #mPoints</text>
</g>
<!-- Node4 -->
<g id="node4" class="node"><title>Node4</title>
<g id="a_node4"><a xlink:href="a00169.html" target="_top" xlink:title="{VectorType\n||}">
<polygon fill="white" stroke="black" points="0,-1025.5 0,-1082.5 68,-1082.5 68,-1025.5 0,-1025.5"/>
<text text-anchor="middle" x="34" y="-1070.5" font-family="Helvetica,sans-Serif" font-size="10.00">VectorType</text>
<polyline fill="none" stroke="black" points="0,-1063.5 68,-1063.5 "/>
<text text-anchor="middle" x="34" y="-1051.5" font-family="Helvetica,sans-Serif" font-size="10.00"> </text>
<polyline fill="none" stroke="black" points="0,-1044.5 68,-1044.5 "/>
<text text-anchor="middle" x="34" y="-1032.5" font-family="Helvetica,sans-Serif" font-size="10.00"> </text>
</a>
</g>
</g>
<!-- Node4&#45;&gt;Node1 -->
<g id="edge33" class="edge"><title>Node4&#45;&gt;Node1</title>
<path fill="none" stroke="#404040" d="M24.5901,-1025.44C15.7921,-997.191 4,-951.805 4,-911.5 4,-911.5 4,-911.5 4,-364 4,-176.44 661.133,-113.511 915.293,-96.1859"/>
<polygon fill="none" stroke="#404040" points="915.478,-96.1736 921.197,-91.7813 927.451,-95.371 921.732,-99.7634 915.478,-96.1736"/>
<text text-anchor="middle" x="37.5" y="-698.5" font-family="Helvetica,sans-Serif" font-size="10.00"> #centroid_P_</text>
<text text-anchor="middle" x="37.5" y="-687.5" font-family="Helvetica,sans-Serif" font-size="10.00">#centroid_Q_</text>
<text text-anchor="middle" x="37.5" y="-676.5" font-family="Helvetica,sans-Serif" font-size="10.00">#qcentroid1_</text>
<text text-anchor="middle" x="37.5" y="-665.5" font-family="Helvetica,sans-Serif" font-size="10.00">#qcentroid2_</text>
</g>
<!-- Node4&#45;&gt;Node3 -->
<g id="edge3" class="edge"><title>Node4&#45;&gt;Node3</title>
<path fill="none" stroke="#404040" d="M46.5964,-1025.14C54.8764,-1007.21 66.1492,-983.511 77,-963 79.2756,-958.698 81.7277,-954.239 84.2145,-949.825"/>
<polygon fill="none" stroke="#404040" points="84.4169,-949.472 83.9322,-942.278 90.3871,-939.063 90.8718,-946.258 84.4169,-949.472"/>
<text text-anchor="middle" x="105.5" y="-971.5" font-family="Helvetica,sans-Serif" font-size="10.00"> +elements</text>
</g>
<!-- Node5 -->
<g id="node5" class="node"><title>Node5</title>
<g id="a_node5"><a xlink:title="STL class. ">
<polygon fill="white" stroke="#bfbfbf" points="333.5,-1025.5 333.5,-1082.5 428.5,-1082.5 428.5,-1025.5 333.5,-1025.5"/>
<text text-anchor="middle" x="381" y="-1070.5" font-family="Helvetica,sans-Serif" font-size="10.00">std::vector&lt; T &gt;</text>
<polyline fill="none" stroke="#bfbfbf" points="333.5,-1063.5 428.5,-1063.5 "/>
<text text-anchor="middle" x="381" y="-1051.5" font-family="Helvetica,sans-Serif" font-size="10.00"> </text>
<polyline fill="none" stroke="#bfbfbf" points="333.5,-1044.5 428.5,-1044.5 "/>
<text text-anchor="middle" x="381" y="-1032.5" font-family="Helvetica,sans-Serif" font-size="10.00"> </text>
</a>
</g>
</g>
<!-- Node5&#45;&gt;Node3 -->
<g id="edge4" class="edge"><title>Node5&#45;&gt;Node3</title>
<path fill="none" stroke="orange" d="M323.639,-1033.32C294.818,-1021.83 260.314,-1005.53 233,-985 222.673,-977.237 224.257,-970.855 214,-963 202.215,-953.975 188.595,-945.953 175.105,-939.084"/>
<polygon fill="orange" stroke="orange" points="322.587,-1036.67 333.176,-1037.03 325.126,-1030.14 322.587,-1036.67"/>
<text text-anchor="middle" x="272" y="-971.5" font-family="Helvetica,sans-Serif" font-size="10.00"> &lt; VectorType &gt;</text>
</g>
<!-- Node8 -->
<g id="node8" class="node"><title>Node8</title>
<polygon fill="white" stroke="#bfbfbf" points="196,-882 196,-939 324,-939 324,-882 196,-882"/>
<text text-anchor="middle" x="260" y="-927" font-family="Helvetica,sans-Serif" font-size="10.00">std::vector&lt; KdNode &gt;</text>
<polyline fill="none" stroke="#bfbfbf" points="196,-920 324,-920 "/>
<text text-anchor="middle" x="260" y="-908" font-family="Helvetica,sans-Serif" font-size="10.00"> </text>
<polyline fill="none" stroke="#bfbfbf" points="196,-901 324,-901 "/>
<text text-anchor="middle" x="260" y="-889" font-family="Helvetica,sans-Serif" font-size="10.00"> </text>
</g>
<!-- Node5&#45;&gt;Node8 -->
<g id="edge9" class="edge"><title>Node5&#45;&gt;Node8</title>
<path fill="none" stroke="orange" d="M356.696,-1016.7C344.814,-999.807 329.889,-979.789 315,-963 307.796,-954.877 299.482,-946.608 291.535,-939.141"/>
<polygon fill="orange" stroke="orange" points="354.033,-1019 362.615,-1025.21 359.78,-1015 354.033,-1019"/>
<text text-anchor="middle" x="365" y="-971.5" font-family="Helvetica,sans-Serif" font-size="10.00"> &lt; KdNode &gt;</text>
</g>
<!-- Node11 -->
<g id="node11" class="node"><title>Node11</title>
<polygon fill="white" stroke="#bfbfbf" points="555,-882 555,-939 671,-939 671,-882 555,-882"/>
<text text-anchor="middle" x="613" y="-927" font-family="Helvetica,sans-Serif" font-size="10.00">std::vector&lt; Index &gt;</text>
<polyline fill="none" stroke="#bfbfbf" points="555,-920 671,-920 "/>
<text text-anchor="middle" x="613" y="-908" font-family="Helvetica,sans-Serif" font-size="10.00"> </text>
<polyline fill="none" stroke="#bfbfbf" points="555,-901 671,-901 "/>
<text text-anchor="middle" x="613" y="-889" font-family="Helvetica,sans-Serif" font-size="10.00"> </text>
</g>
<!-- Node5&#45;&gt;Node11 -->
<g id="edge13" class="edge"><title>Node5&#45;&gt;Node11</title>
<path fill="none" stroke="orange" d="M391.239,-1015.6C398.03,-997.329 408.756,-976.438 425,-963 448.427,-943.619 461.674,-953.025 491,-945 511.868,-939.289 534.739,-933.014 554.982,-927.453"/>
<polygon fill="orange" stroke="orange" points="387.901,-1014.55 387.949,-1025.14 394.518,-1016.83 387.901,-1014.55"/>
<text text-anchor="middle" x="451" y="-971.5" font-family="Helvetica,sans-Serif" font-size="10.00"> &lt; Index &gt;</text>
</g>
<!-- Node16 -->
<g id="node16" class="node"><title>Node16</title>
<polygon fill="white" stroke="#bfbfbf" points="856,-876.5 856,-944.5 1004,-944.5 1004,-876.5 856,-876.5"/>
<text text-anchor="start" x="864" y="-932.5" font-family="Helvetica,sans-Serif" font-size="10.00">std::vector&lt; gr::MatchBase</text>
<text text-anchor="middle" x="930" y="-921.5" font-family="Helvetica,sans-Serif" font-size="10.00">::PosMutablePoint &gt;</text>
<polyline fill="none" stroke="#bfbfbf" points="856,-914.5 1004,-914.5 "/>
<text text-anchor="middle" x="930" y="-902.5" font-family="Helvetica,sans-Serif" font-size="10.00"> </text>
<polyline fill="none" stroke="#bfbfbf" points="856,-895.5 1004,-895.5 "/>
<text text-anchor="middle" x="930" y="-883.5" font-family="Helvetica,sans-Serif" font-size="10.00"> </text>
</g>
<!-- Node5&#45;&gt;Node16 -->
<g id="edge23" class="edge"><title>Node5&#45;&gt;Node16</title>
<path fill="none" stroke="orange" d="M433.275,-1019.41C447.979,-1009.06 463.603,-997.168 477,-985 486.564,-976.314 484.42,-968.728 496,-963 555.465,-933.584 728.411,-954.975 794,-945 814.194,-941.929 835.778,-937.266 855.666,-932.388"/>
<polygon fill="orange" stroke="orange" points="430.976,-1016.74 424.747,-1025.31 434.961,-1022.5 430.976,-1016.74"/>
<text text-anchor="start" x="496" y="-977" font-family="Helvetica,sans-Serif" font-size="10.00"> &lt; gr::MatchBase::PosMutable</text>
<text text-anchor="middle" x="568.5" y="-966" font-family="Helvetica,sans-Serif" font-size="10.00">Point &gt;</text>
</g>
<!-- Node6 -->
<g id="node6" class="node"><title>Node6</title>
<polygon fill="white" stroke="#bfbfbf" points="366.5,-1152.5 366.5,-1209.5 395.5,-1209.5 395.5,-1152.5 366.5,-1152.5"/>
<text text-anchor="middle" x="381" y="-1197.5" font-family="Helvetica,sans-Serif" font-size="10.00">T</text>
<polyline fill="none" stroke="#bfbfbf" points="366.5,-1190.5 395.5,-1190.5 "/>
<text text-anchor="middle" x="381" y="-1178.5" font-family="Helvetica,sans-Serif" font-size="10.00"> </text>
<polyline fill="none" stroke="#bfbfbf" points="366.5,-1171.5 395.5,-1171.5 "/>
<text text-anchor="middle" x="381" y="-1159.5" font-family="Helvetica,sans-Serif" font-size="10.00"> </text>
</g>
<!-- Node6&#45;&gt;Node5 -->
<g id="edge5" class="edge"><title>Node6&#45;&gt;Node5</title>
<path fill="none" stroke="#404040" d="M381,-1152.26C381,-1135.35 381,-1113.46 381,-1094.73"/>
<polygon fill="none" stroke="#404040" points="381,-1094.66 377,-1088.66 381,-1082.66 385,-1088.66 381,-1094.66"/>
<text text-anchor="middle" x="409.5" y="-1126" font-family="Helvetica,sans-Serif" font-size="10.00"> +elements</text>
</g>
<!-- Node7 -->
<g id="node7" class="node"><title>Node7</title>
<g id="a_node7"><a xlink:href="a00166.html" target="_top" xlink:title="{unsigned int\n||}">
<polygon fill="white" stroke="black" points="628.5,-656 628.5,-713 703.5,-713 703.5,-656 628.5,-656"/>
<text text-anchor="middle" x="666" y="-701" font-family="Helvetica,sans-Serif" font-size="10.00">unsigned int</text>
<polyline fill="none" stroke="black" points="628.5,-694 703.5,-694 "/>
<text text-anchor="middle" x="666" y="-682" font-family="Helvetica,sans-Serif" font-size="10.00"> </text>
<polyline fill="none" stroke="black" points="628.5,-675 703.5,-675 "/>
<text text-anchor="middle" x="666" y="-663" font-family="Helvetica,sans-Serif" font-size="10.00"> </text>
</a>
</g>
</g>
<!-- Node7&#45;&gt;Node2 -->
<g id="edge6" class="edge"><title>Node7&#45;&gt;Node2</title>
<path fill="none" stroke="#404040" d="M656.668,-655.95C647.452,-629.049 632.777,-587.019 619,-551 613.16,-535.733 606.899,-519.826 600.567,-504.029"/>
<polygon fill="none" stroke="#404040" points="600.431,-503.689 594.48,-499.617 595.95,-492.557 601.901,-496.63 600.431,-503.689"/>
<text text-anchor="middle" x="659" y="-525" font-family="Helvetica,sans-Serif" font-size="10.00"> #_nofPointsPerCell</text>
<text text-anchor="middle" x="659" y="-514" font-family="Helvetica,sans-Serif" font-size="10.00">#_maxDepth</text>
</g>
<!-- Node8&#45;&gt;Node2 -->
<g id="edge7" class="edge"><title>Node8&#45;&gt;Node2</title>
<path fill="none" stroke="#404040" d="M239.682,-881.851C228.206,-864.478 214.992,-841.058 209,-818 179.154,-703.148 148.756,-653.237 209,-551 257.894,-468.025 358.873,-419.644 437.066,-393.317"/>
<polygon fill="none" stroke="#404040" points="437.514,-393.17 441.971,-387.501 448.918,-389.435 444.461,-395.104 437.514,-393.17"/>
<text text-anchor="middle" x="235" y="-682" font-family="Helvetica,sans-Serif" font-size="10.00"> #mNodes</text>
</g>
<!-- Node8&#45;&gt;Node13 -->
<g id="edge18" class="edge"><title>Node8&#45;&gt;Node13</title>
<path fill="none" stroke="#404040" d="M272.961,-881.583C279.608,-867.268 288.26,-848.633 297.583,-828.553"/>
<polygon fill="none" stroke="#404040" points="297.613,-828.487 296.512,-821.36 302.667,-817.603 303.768,-824.729 297.613,-828.487"/>
<text text-anchor="middle" x="320" y="-844.5" font-family="Helvetica,sans-Serif" font-size="10.00"> #mNodes</text>
</g>
<!-- Node9 -->
<g id="node9" class="node"><title>Node9</title>
<g id="a_node9"><a xlink:href="a00161.html" target="_top" xlink:title="{KdNode\n||}">
<polygon fill="white" stroke="black" points="129,-1025.5 129,-1082.5 183,-1082.5 183,-1025.5 129,-1025.5"/>
<text text-anchor="middle" x="156" y="-1070.5" font-family="Helvetica,sans-Serif" font-size="10.00">KdNode</text>
<polyline fill="none" stroke="black" points="129,-1063.5 183,-1063.5 "/>
<text text-anchor="middle" x="156" y="-1051.5" font-family="Helvetica,sans-Serif" font-size="10.00"> </text>
<polyline fill="none" stroke="black" points="129,-1044.5 183,-1044.5 "/>
<text text-anchor="middle" x="156" y="-1032.5" font-family="Helvetica,sans-Serif" font-size="10.00"> </text>
</a>
</g>
</g>
<!-- Node9&#45;&gt;Node8 -->
<g id="edge8" class="edge"><title>Node9&#45;&gt;Node8</title>
<path fill="none" stroke="#404040" d="M149.216,-1025.32C146.174,-1006.36 145.479,-981.412 157,-963 158.269,-960.972 172.987,-953.262 190.921,-944.401"/>
<polygon fill="none" stroke="#404040" points="190.997,-944.364 194.626,-938.132 201.774,-939.085 198.145,-945.317 190.997,-944.364"/>
<text text-anchor="middle" x="185.5" y="-971.5" font-family="Helvetica,sans-Serif" font-size="10.00"> +elements</text>
</g>
<!-- Node10 -->
<g id="node10" class="node"><title>Node10</title>
<g id="a_node10"><a xlink:href="a00156.html" target="_top" xlink:title="{AlignedBox\&lt; Scalar, 3 \&gt;\n||}">
<polygon fill="white" stroke="black" points="476,-656 476,-713 610,-713 610,-656 476,-656"/>
<text text-anchor="middle" x="543" y="-701" font-family="Helvetica,sans-Serif" font-size="10.00">AlignedBox&lt; Scalar, 3 &gt;</text>
<polyline fill="none" stroke="black" points="476,-694 610,-694 "/>
<text text-anchor="middle" x="543" y="-682" font-family="Helvetica,sans-Serif" font-size="10.00"> </text>
<polyline fill="none" stroke="black" points="476,-675 610,-675 "/>
<text text-anchor="middle" x="543" y="-663" font-family="Helvetica,sans-Serif" font-size="10.00"> </text>
</a>
</g>
</g>
<!-- Node10&#45;&gt;Node2 -->
<g id="edge10" class="edge"><title>Node10&#45;&gt;Node2</title>
<path fill="none" stroke="#404040" d="M543,-655.879C543,-621.864 543,-561.594 543,-504.789"/>
<polygon fill="none" stroke="#404040" points="543,-504.731 539,-498.731 543,-492.731 547,-498.731 543,-504.731"/>
<text text-anchor="middle" x="567.5" y="-519.5" font-family="Helvetica,sans-Serif" font-size="10.00"> #mAABB</text>
</g>
<!-- Node11&#45;&gt;Node2 -->
<g id="edge11" class="edge"><title>Node11&#45;&gt;Node2</title>
<path fill="none" stroke="#404040" d="M644.066,-881.881C672.397,-856.526 710.136,-822.262 712,-818 766.686,-692.991 769.703,-633.692 710,-511 695.486,-481.173 671.749,-454.964 646.668,-433.328"/>
<polygon fill="none" stroke="#404040" points="646.589,-433.262 639.42,-432.483 637.381,-425.566 644.55,-426.345 646.589,-433.262"/>
<text text-anchor="middle" x="781.5" y="-682" font-family="Helvetica,sans-Serif" font-size="10.00"> #mIndices</text>
</g>
<!-- Node11&#45;&gt;Node13 -->
<g id="edge19" class="edge"><title>Node11&#45;&gt;Node13</title>
<path fill="none" stroke="#404040" d="M559.226,-881.838C532.694,-866.882 500.788,-846.878 467.681,-818.166"/>
<polygon fill="none" stroke="#404040" points="467.281,-817.81 460.14,-816.81 458.316,-809.834 465.457,-810.833 467.281,-817.81"/>
<text text-anchor="middle" x="547.5" y="-844.5" font-family="Helvetica,sans-Serif" font-size="10.00"> #mIndices</text>
</g>
<!-- Node12 -->
<g id="node12" class="node"><title>Node12</title>
<g id="a_node12"><a xlink:href="a00158.html" target="_top" xlink:title="{Index\n||}">
<polygon fill="white" stroke="black" points="646,-1025.5 646,-1082.5 688,-1082.5 688,-1025.5 646,-1025.5"/>
<text text-anchor="middle" x="667" y="-1070.5" font-family="Helvetica,sans-Serif" font-size="10.00">Index</text>
<polyline fill="none" stroke="black" points="646,-1063.5 688,-1063.5 "/>
<text text-anchor="middle" x="667" y="-1051.5" font-family="Helvetica,sans-Serif" font-size="10.00"> </text>
<polyline fill="none" stroke="black" points="646,-1044.5 688,-1044.5 "/>
<text text-anchor="middle" x="667" y="-1032.5" font-family="Helvetica,sans-Serif" font-size="10.00"> </text>
</a>
</g>
</g>
<!-- Node12&#45;&gt;Node11 -->
<g id="edge12" class="edge"><title>Node12&#45;&gt;Node11</title>
<path fill="none" stroke="#404040" d="M662.54,-1025.1C659.071,-1006.95 653.413,-983.019 645,-963 643.149,-958.595 640.948,-954.133 638.58,-949.773"/>
<polygon fill="none" stroke="#404040" points="638.484,-949.608 632.01,-946.432 632.452,-939.235 638.926,-942.411 638.484,-949.608"/>
<text text-anchor="middle" x="681.5" y="-971.5" font-family="Helvetica,sans-Serif" font-size="10.00"> +elements</text>
</g>
<!-- Node13&#45;&gt;Node2 -->
<g id="edge14" class="edge"><title>Node13&#45;&gt;Node2</title>
<path fill="none" stroke="orange" d="M443.762,-542.023C453.056,-525.538 462.491,-508.803 471.661,-492.538"/>
<polygon fill="orange" stroke="orange" points="440.478,-540.721 438.616,-551.15 446.576,-544.158 440.478,-540.721"/>
<text text-anchor="middle" x="487" y="-519.5" font-family="Helvetica,sans-Serif" font-size="10.00"> &lt; Scalar &gt;</text>
</g>
<!-- Node14 -->
<g id="node14" class="node"><title>Node14</title>
<polygon fill="white" stroke="#bfbfbf" points="342,-882 342,-939 482,-939 482,-882 342,-882"/>
<text text-anchor="middle" x="412" y="-927" font-family="Helvetica,sans-Serif" font-size="10.00">AlignedBox&lt; _Scalar, 3 &gt;</text>
<polyline fill="none" stroke="#bfbfbf" points="342,-920 482,-920 "/>
<text text-anchor="middle" x="412" y="-908" font-family="Helvetica,sans-Serif" font-size="10.00"> </text>
<polyline fill="none" stroke="#bfbfbf" points="342,-901 482,-901 "/>
<text text-anchor="middle" x="412" y="-889" font-family="Helvetica,sans-Serif" font-size="10.00"> </text>
</g>
<!-- Node14&#45;&gt;Node13 -->
<g id="edge15" class="edge"><title>Node14&#45;&gt;Node13</title>
<path fill="none" stroke="#404040" d="M406.018,-881.583C402.993,-867.466 399.067,-849.148 394.833,-829.385"/>
<polygon fill="none" stroke="#404040" points="394.822,-829.336 389.654,-824.308 392.308,-817.603 397.476,-822.632 394.822,-829.336"/>
<text text-anchor="middle" x="425.5" y="-844.5" font-family="Helvetica,sans-Serif" font-size="10.00"> #mAABB</text>
</g>
<!-- Node15 -->
<g id="node15" class="node"><title>Node15</title>
<g id="a_node15"><a xlink:href="a00114.html" target="_top" xlink:title="{int\n||}">
<polygon fill="white" stroke="black" points="756.5,-882 756.5,-939 785.5,-939 785.5,-882 756.5,-882"/>
<text text-anchor="middle" x="771" y="-927" font-family="Helvetica,sans-Serif" font-size="10.00">int</text>
<polyline fill="none" stroke="black" points="756.5,-920 785.5,-920 "/>
<text text-anchor="middle" x="771" y="-908" font-family="Helvetica,sans-Serif" font-size="10.00"> </text>
<polyline fill="none" stroke="black" points="756.5,-901 785.5,-901 "/>
<text text-anchor="middle" x="771" y="-889" font-family="Helvetica,sans-Serif" font-size="10.00"> </text>
</a>
</g>
</g>
<!-- Node15&#45;&gt;Node1 -->
<g id="edge24" class="edge"><title>Node15&#45;&gt;Node1</title>
<path fill="none" stroke="#404040" d="M785.235,-881.846C793.676,-864.089 803.727,-840.261 809,-818 840.53,-684.889 798.35,-643.841 831,-511 859.263,-396.007 916.455,-272.697 959.422,-189.548"/>
<polygon fill="none" stroke="#404040" points="959.449,-189.496 958.669,-182.327 964.986,-178.85 965.766,-186.019 959.449,-189.496"/>
<text text-anchor="middle" x="898.5" y="-519.5" font-family="Helvetica,sans-Serif" font-size="10.00"> #kNumberOfDiameterTrials</text>
</g>
<!-- Node15&#45;&gt;Node13 -->
<g id="edge17" class="edge"><title>Node15&#45;&gt;Node13</title>
<path fill="none" stroke="#404040" d="M756.409,-902.715C724.781,-888.277 647.25,-854.337 579,-836 533.734,-823.838 513.325,-840.937 468.704,-818.176"/>
<polygon fill="none" stroke="#404040" points="468.629,-818.134 461.441,-818.711 458.143,-812.298 465.331,-811.721 468.629,-818.134"/>
<text text-anchor="middle" x="691" y="-850" font-family="Helvetica,sans-Serif" font-size="10.00"> #_nofPointsPerCell</text>
<text text-anchor="middle" x="691" y="-839" font-family="Helvetica,sans-Serif" font-size="10.00">#_maxDepth</text>
</g>
<!-- Node16&#45;&gt;Node1 -->
<g id="edge20" class="edge"><title>Node16&#45;&gt;Node1</title>
<path fill="none" stroke="#404040" d="M933.397,-876.38C945.202,-761.281 984.755,-375.643 1003.71,-190.867"/>
<polygon fill="none" stroke="#404040" points="1003.73,-190.66 1000.36,-184.284 1004.95,-178.723 1008.32,-185.1 1003.73,-190.66"/>
<text text-anchor="middle" x="1015" y="-525" font-family="Helvetica,sans-Serif" font-size="10.00"> #sampled_P_3D_</text>
<text text-anchor="middle" x="1015" y="-514" font-family="Helvetica,sans-Serif" font-size="10.00">#sampled_Q_3D_</text>
</g>
<!-- Node17 -->
<g id="node17" class="node"><title>Node17</title>
<g id="a_node17"><a xlink:href="a00047.html" target="_top" xlink:title="A convenience class used to wrap (any) PointType to allow mutation of position of point samples for i...">
<polygon fill="white" stroke="black" points="857,-1003.5 857,-1104.5 1003,-1104.5 1003,-1003.5 857,-1003.5"/>
<text text-anchor="start" x="865" y="-1092.5" font-family="Helvetica,sans-Serif" font-size="10.00">gr::MatchBase&lt; PointType,</text>
<text text-anchor="start" x="865" y="-1081.5" font-family="Helvetica,sans-Serif" font-size="10.00"> _TransformVisitor, OptExts</text>
<text text-anchor="middle" x="930" y="-1070.5" font-family="Helvetica,sans-Serif" font-size="10.00"> &gt;::PosMutablePoint</text>
<polyline fill="none" stroke="black" points="857,-1063.5 1003,-1063.5 "/>
<text text-anchor="middle" x="930" y="-1051.5" font-family="Helvetica,sans-Serif" font-size="10.00"> </text>
<polyline fill="none" stroke="black" points="857,-1044.5 1003,-1044.5 "/>
<text text-anchor="start" x="865" y="-1032.5" font-family="Helvetica,sans-Serif" font-size="10.00">+ pos()</text>
<text text-anchor="start" x="865" y="-1021.5" font-family="Helvetica,sans-Serif" font-size="10.00">+ pos()</text>
<text text-anchor="start" x="865" y="-1010.5" font-family="Helvetica,sans-Serif" font-size="10.00">+ PosMutablePoint()</text>
</a>
</g>
</g>
<!-- Node17&#45;&gt;Node16 -->
<g id="edge21" class="edge"><title>Node17&#45;&gt;Node16</title>
<path fill="none" stroke="#404040" d="M930,-1003.11C930,-988.096 930,-971.704 930,-956.989"/>
<polygon fill="none" stroke="#404040" points="930,-956.567 926,-950.567 930,-944.567 934,-950.567 930,-956.567"/>
<text text-anchor="middle" x="958.5" y="-971.5" font-family="Helvetica,sans-Serif" font-size="10.00"> +elements</text>
</g>
<!-- Node18 -->
<g id="node18" class="node"><title>Node18</title>
<polygon fill="white" stroke="#bfbfbf" points="899,-1152.5 899,-1209.5 961,-1209.5 961,-1152.5 899,-1152.5"/>
<text text-anchor="middle" x="930" y="-1197.5" font-family="Helvetica,sans-Serif" font-size="10.00">PointType</text>
<polyline fill="none" stroke="#bfbfbf" points="899,-1190.5 961,-1190.5 "/>
<text text-anchor="middle" x="930" y="-1178.5" font-family="Helvetica,sans-Serif" font-size="10.00"> </text>
<polyline fill="none" stroke="#bfbfbf" points="899,-1171.5 961,-1171.5 "/>
<text text-anchor="middle" x="930" y="-1159.5" font-family="Helvetica,sans-Serif" font-size="10.00"> </text>
</g>
<!-- Node18&#45;&gt;Node17 -->
<g id="edge22" class="edge"><title>Node18&#45;&gt;Node17</title>
<path fill="none" stroke="midnightblue" d="M930,-1141.95C930,-1130.24 930,-1117.17 930,-1104.8"/>
<polygon fill="none" stroke="midnightblue" points="926.5,-1142.26 930,-1152.26 933.5,-1142.26 926.5,-1142.26"/>
</g>
<!-- Node19 -->
<g id="node19" class="node"><title>Node19</title>
<polygon fill="white" stroke="#bfbfbf" points="1009.5,-336.5 1009.5,-393.5 1056.5,-393.5 1056.5,-336.5 1009.5,-336.5"/>
<text text-anchor="middle" x="1033" y="-381.5" font-family="Helvetica,sans-Serif" font-size="10.00">Scalar</text>
<polyline fill="none" stroke="#bfbfbf" points="1009.5,-374.5 1056.5,-374.5 "/>
<text text-anchor="middle" x="1033" y="-362.5" font-family="Helvetica,sans-Serif" font-size="10.00"> </text>
<polyline fill="none" stroke="#bfbfbf" points="1009.5,-355.5 1056.5,-355.5 "/>
<text text-anchor="middle" x="1033" y="-343.5" font-family="Helvetica,sans-Serif" font-size="10.00"> </text>
</g>
<!-- Node19&#45;&gt;Node1 -->
<g id="edge25" class="edge"><title>Node19&#45;&gt;Node1</title>
<path fill="none" stroke="#404040" d="M1028.59,-336.293C1024.19,-307.179 1017.7,-260.006 1015,-219 1014.4,-209.843 1013.96,-200.311 1013.66,-190.762"/>
<polygon fill="none" stroke="#404040" points="1013.66,-190.678 1009.5,-184.787 1013.34,-178.683 1017.5,-184.575 1013.66,-190.678"/>
<text text-anchor="middle" x="1064.5" y="-211" font-family="Helvetica,sans-Serif" font-size="10.00"> #P_diameter_</text>
<text text-anchor="middle" x="1064.5" y="-200" font-family="Helvetica,sans-Serif" font-size="10.00">#P_mean_distance_</text>
</g>
<!-- Node20 -->
<g id="node20" class="node"><title>Node20</title>
<g id="a_node20"><a xlink:href="a00032.html" target="_top" xlink:title="{gr::Utils::Logger\n||+ Log()\l+ Logger()\l+ logLevel()\l+ setLogLevel()\l# LOG()\l# print_err_impl()\l# print_err_impl()\l# print_msg_impl()\l# print_msg_impl()\l}">
<polygon fill="white" stroke="black" points="1074.5,-292.5 1074.5,-437.5 1183.5,-437.5 1183.5,-292.5 1074.5,-292.5"/>
<text text-anchor="middle" x="1129" y="-425.5" font-family="Helvetica,sans-Serif" font-size="10.00">gr::Utils::Logger</text>
<polyline fill="none" stroke="black" points="1074.5,-418.5 1183.5,-418.5 "/>
<text text-anchor="middle" x="1129" y="-406.5" font-family="Helvetica,sans-Serif" font-size="10.00"> </text>
<polyline fill="none" stroke="black" points="1074.5,-399.5 1183.5,-399.5 "/>
<text text-anchor="start" x="1082.5" y="-387.5" font-family="Helvetica,sans-Serif" font-size="10.00">+ Log()</text>
<text text-anchor="start" x="1082.5" y="-376.5" font-family="Helvetica,sans-Serif" font-size="10.00">+ Logger()</text>
<text text-anchor="start" x="1082.5" y="-365.5" font-family="Helvetica,sans-Serif" font-size="10.00">+ logLevel()</text>
<text text-anchor="start" x="1082.5" y="-354.5" font-family="Helvetica,sans-Serif" font-size="10.00">+ setLogLevel()</text>
<text text-anchor="start" x="1082.5" y="-343.5" font-family="Helvetica,sans-Serif" font-size="10.00"># LOG()</text>
<text text-anchor="start" x="1082.5" y="-332.5" font-family="Helvetica,sans-Serif" font-size="10.00"># print_err_impl()</text>
<text text-anchor="start" x="1082.5" y="-321.5" font-family="Helvetica,sans-Serif" font-size="10.00"># print_err_impl()</text>
<text text-anchor="start" x="1082.5" y="-310.5" font-family="Helvetica,sans-Serif" font-size="10.00"># print_msg_impl()</text>
<text text-anchor="start" x="1082.5" y="-299.5" font-family="Helvetica,sans-Serif" font-size="10.00"># print_msg_impl()</text>
</a>
</g>
</g>
<!-- Node20&#45;&gt;Node1 -->
<g id="edge26" class="edge"><title>Node20&#45;&gt;Node1</title>
<path fill="none" stroke="#404040" d="M1132.75,-292.336C1131.8,-261.792 1127.23,-226.48 1114,-197 1111.93,-192.379 1109.57,-187.831 1106.98,-183.373"/>
<polygon fill="none" stroke="#404040" points="1106.94,-183.305 1100.36,-180.349 1100.56,-173.141 1107.14,-176.097 1106.94,-183.305"/>
<text text-anchor="middle" x="1145.5" y="-205.5" font-family="Helvetica,sans-Serif" font-size="10.00"> #logger_</text>
</g>
<!-- Node21 -->
<g id="node21" class="node"><title>Node21</title>
<polygon fill="white" stroke="#bfbfbf" points="1202,-336.5 1202,-393.5 1262,-393.5 1262,-336.5 1202,-336.5"/>
<text text-anchor="middle" x="1232" y="-381.5" font-family="Helvetica,sans-Serif" font-size="10.00">mt19937</text>
<polyline fill="none" stroke="#bfbfbf" points="1202,-374.5 1262,-374.5 "/>
<text text-anchor="middle" x="1232" y="-362.5" font-family="Helvetica,sans-Serif" font-size="10.00"> </text>
<polyline fill="none" stroke="#bfbfbf" points="1202,-355.5 1262,-355.5 "/>
<text text-anchor="middle" x="1232" y="-343.5" font-family="Helvetica,sans-Serif" font-size="10.00"> </text>
</g>
<!-- Node21&#45;&gt;Node1 -->
<g id="edge27" class="edge"><title>Node21&#45;&gt;Node1</title>
<path fill="none" stroke="#404040" d="M1228.53,-336.35C1222.74,-300.458 1208.06,-237.621 1173,-197 1155.49,-176.715 1133.24,-158.642 1110.96,-143.399"/>
<polygon fill="none" stroke="#404040" points="1110.73,-143.246 1103.52,-143.252 1100.74,-136.597 1107.95,-136.592 1110.73,-143.246"/>
<text text-anchor="middle" x="1239.5" y="-205.5" font-family="Helvetica,sans-Serif" font-size="10.00"> #randomGenerator_</text>
</g>
<!-- Node22 -->
<g id="node22" class="node"><title>Node22</title>
<polygon fill="white" stroke="#bfbfbf" points="1280,-336.5 1280,-393.5 1402,-393.5 1402,-336.5 1280,-336.5"/>
<text text-anchor="middle" x="1341" y="-381.5" font-family="Helvetica,sans-Serif" font-size="10.00">Matrix&lt; Scalar, 4, 4 &gt;</text>
<polyline fill="none" stroke="#bfbfbf" points="1280,-374.5 1402,-374.5 "/>
<text text-anchor="middle" x="1341" y="-362.5" font-family="Helvetica,sans-Serif" font-size="10.00"> </text>
<polyline fill="none" stroke="#bfbfbf" points="1280,-355.5 1402,-355.5 "/>
<text text-anchor="middle" x="1341" y="-343.5" font-family="Helvetica,sans-Serif" font-size="10.00"> </text>
</g>
<!-- Node22&#45;&gt;Node1 -->
<g id="edge28" class="edge"><title>Node22&#45;&gt;Node1</title>
<path fill="none" stroke="#404040" d="M1340.76,-336.422C1338.97,-300.027 1330.53,-236.023 1295,-197 1247.91,-145.287 1173.08,-118.529 1112.47,-104.772"/>
<polygon fill="none" stroke="#404040" points="1112.28,-104.73 1105.57,-107.37 1100.56,-102.19 1107.27,-99.5509 1112.28,-104.73"/>
<text text-anchor="middle" x="1341" y="-205.5" font-family="Helvetica,sans-Serif" font-size="10.00"> #transform_</text>
</g>
<!-- Node23 -->
<g id="node23" class="node"><title>Node23</title>
<g id="a_node23"><a xlink:href="a00019.html" target="_top" xlink:title="{gr::Utils::CRTP\&lt; OptExts...,\l Options \&gt;\n||}">
<polygon fill="white" stroke="black" points="1420.5,-331 1420.5,-399 1563.5,-399 1563.5,-331 1420.5,-331"/>
<text text-anchor="start" x="1428.5" y="-387" font-family="Helvetica,sans-Serif" font-size="10.00">gr::Utils::CRTP&lt; OptExts...,</text>
<text text-anchor="middle" x="1492" y="-376" font-family="Helvetica,sans-Serif" font-size="10.00"> Options &gt;</text>
<polyline fill="none" stroke="black" points="1420.5,-369 1563.5,-369 "/>
<text text-anchor="middle" x="1492" y="-357" font-family="Helvetica,sans-Serif" font-size="10.00"> </text>
<polyline fill="none" stroke="black" points="1420.5,-350 1563.5,-350 "/>
<text text-anchor="middle" x="1492" y="-338" font-family="Helvetica,sans-Serif" font-size="10.00"> </text>
</a>
</g>
</g>
<!-- Node23&#45;&gt;Node1 -->
<g id="edge29" class="edge"><title>Node23&#45;&gt;Node1</title>
<path fill="none" stroke="#404040" d="M1478.63,-330.814C1461.23,-292.168 1427.05,-229.492 1377,-197 1296.48,-144.72 1189.55,-117.421 1112.64,-103.619"/>
<polygon fill="none" stroke="#404040" points="1112.38,-103.574 1105.78,-106.487 1100.56,-101.518 1107.15,-98.6054 1112.38,-103.574"/>
<text text-anchor="middle" x="1429" y="-205.5" font-family="Helvetica,sans-Serif" font-size="10.00"> #options_</text>
</g>
<!-- Node24 -->
<g id="node24" class="node"><title>Node24</title>
<polygon fill="white" stroke="#bfbfbf" points="1489,-645 1489,-724 1639,-724 1639,-645 1489,-645"/>
<text text-anchor="start" x="1497" y="-712" font-family="Helvetica,sans-Serif" font-size="10.00">crtp::make_base&lt; CRTP</text>
<text text-anchor="start" x="1497" y="-701" font-family="Helvetica,sans-Serif" font-size="10.00">&lt; OptExts... ... &gt;, OptExts...</text>
<text text-anchor="middle" x="1564" y="-690" font-family="Helvetica,sans-Serif" font-size="10.00"> ... &gt;::type</text>
<polyline fill="none" stroke="#bfbfbf" points="1489,-683 1639,-683 "/>
<text text-anchor="middle" x="1564" y="-671" font-family="Helvetica,sans-Serif" font-size="10.00"> </text>
<polyline fill="none" stroke="#bfbfbf" points="1489,-664 1639,-664 "/>
<text text-anchor="middle" x="1564" y="-652" font-family="Helvetica,sans-Serif" font-size="10.00"> </text>
</g>
<!-- Node24&#45;&gt;Node23 -->
<g id="edge30" class="edge"><title>Node24&#45;&gt;Node23</title>
<path fill="none" stroke="midnightblue" d="M1558.7,-634.456C1554.43,-599.719 1547.57,-552.17 1538,-511 1528.94,-472.028 1514.49,-428.401 1504.21,-399.277"/>
<polygon fill="none" stroke="midnightblue" points="1555.27,-635.291 1559.94,-644.804 1562.22,-634.459 1555.27,-635.291"/>
</g>
<!-- Node25 -->
<g id="node25" class="node"><title>Node25</title>
<g id="a_node25"><a xlink:href="a00019.html" target="_top" xlink:title="CRTP class designed by Gael Guennebaud Source: http://disq.us/p/1tf4a7l https://www.onlinegdb.com/rJEhwUc&#45;m. ">
<polygon fill="white" stroke="black" points="1337,-656 1337,-713 1471,-713 1471,-656 1337,-656"/>
<text text-anchor="middle" x="1404" y="-701" font-family="Helvetica,sans-Serif" font-size="10.00">gr::Utils::CRTP&lt; Bases &gt;</text>
<polyline fill="none" stroke="black" points="1337,-694 1471,-694 "/>
<text text-anchor="middle" x="1404" y="-682" font-family="Helvetica,sans-Serif" font-size="10.00"> </text>
<polyline fill="none" stroke="black" points="1337,-675 1471,-675 "/>
<text text-anchor="middle" x="1404" y="-663" font-family="Helvetica,sans-Serif" font-size="10.00"> </text>
</a>
</g>
</g>
<!-- Node25&#45;&gt;Node23 -->
<g id="edge31" class="edge"><title>Node25&#45;&gt;Node23</title>
<path fill="none" stroke="orange" d="M1403.22,-645.356C1403.45,-609.899 1406.24,-555.946 1419,-511 1430.54,-470.331 1453.62,-427.539 1470.75,-399.075"/>
<polygon fill="orange" stroke="orange" points="1399.72,-645.736 1403.22,-655.735 1406.72,-645.734 1399.72,-645.736"/>
<text text-anchor="middle" x="1476.5" y="-519.5" font-family="Helvetica,sans-Serif" font-size="10.00"> &lt; OptExts..., Options &gt;</text>
</g>
<!-- Node26 -->
<g id="node26" class="node"><title>Node26</title>
<polygon fill="white" stroke="#bfbfbf" points="1320.5,-876.5 1320.5,-944.5 1487.5,-944.5 1487.5,-876.5 1320.5,-876.5"/>
<text text-anchor="start" x="1328.5" y="-932.5" font-family="Helvetica,sans-Serif" font-size="10.00">crtp::make_base::type</text>
<text text-anchor="middle" x="1404" y="-921.5" font-family="Helvetica,sans-Serif" font-size="10.00">&lt; CRTP&lt; Bases... &gt;, Bases... &gt;</text>
<polyline fill="none" stroke="#bfbfbf" points="1320.5,-914.5 1487.5,-914.5 "/>
<text text-anchor="middle" x="1404" y="-902.5" font-family="Helvetica,sans-Serif" font-size="10.00"> </text>
<polyline fill="none" stroke="#bfbfbf" points="1320.5,-895.5 1487.5,-895.5 "/>
<text text-anchor="middle" x="1404" y="-883.5" font-family="Helvetica,sans-Serif" font-size="10.00"> </text>
</g>
<!-- Node26&#45;&gt;Node25 -->
<g id="edge32" class="edge"><title>Node26&#45;&gt;Node25</title>
<path fill="none" stroke="midnightblue" d="M1404,-866.346C1404,-821.093 1404,-751.343 1404,-713.037"/>
<polygon fill="none" stroke="midnightblue" points="1400.5,-866.448 1404,-876.448 1407.5,-866.448 1400.5,-866.448"/>
</g>
</g>
</svg>
        <g id="navigator" transform="translate(0 0)" fill="#404254">
                <rect fill="#f2f5e9" fill-opacity="0.5" stroke="#606060" stroke-width=".5" x="0" y="0" width="60" height="60"/>
                <use id="zoomplus" xlink:href="#zoomPlus" x="17" y="9" onmousedown="handleZoom(evt,'in')"/>
                <use id="zoomminus" xlink:href="#zoomMin" x="42" y="9" onmousedown="handleZoom(evt,'out')"/>
                <use id="reset" xlink:href="#resetDef" x="30" y="36" onmousedown="handleReset()"/>
                <g id="arrowUp" xlink:href="#dirArrow" transform="translate(30 24)" onmousedown="handlePan(0,-1)">
                  <use xlink:href="#rim" fill="#404040">
                        <set attributeName="fill" to="#808080" begin="arrowUp.mouseover" end="arrowUp.mouseout"/>
                  </use>
                  <path fill="none" stroke="white" stroke-width="1.5" d="M0,-3.0v7 M-2.5,-0.5L0,-3.0L2.5,-0.5"/>
                </g>
                <g id="arrowRight" xlink:href="#dirArrow" transform="rotate(90) translate(36 -43)" onmousedown="handlePan(1,0)">
                  <use xlink:href="#rim" fill="#404040">
                        <set attributeName="fill" to="#808080" begin="arrowRight.mouseover" end="arrowRight.mouseout"/>
                  </use>
                  <path fill="none" stroke="white" stroke-width="1.5" d="M0,-3.0v7 M-2.5,-0.5L0,-3.0L2.5,-0.5"/>
                </g>
                <g id="arrowDown" xlink:href="#dirArrow" transform="rotate(180) translate(-30 -48)" onmousedown="handlePan(0,1)">
                  <use xlink:href="#rim" fill="#404040">
                        <set attributeName="fill" to="#808080" begin="arrowDown.mouseover" end="arrowDown.mouseout"/>
                  </use>
                  <path fill="none" stroke="white" stroke-width="1.5" d="M0,-3.0v7 M-2.5,-0.5L0,-3.0L2.5,-0.5"/>
                </g>
                <g id="arrowLeft" xlink:href="#dirArrow" transform="rotate(270) translate(-36 17)" onmousedown="handlePan(-1,0)">
                  <use xlink:href="#rim" fill="#404040">
                        <set attributeName="fill" to="#808080" begin="arrowLeft.mouseover" end="arrowLeft.mouseout"/>
                  </use>
                  <path fill="none" stroke="white" stroke-width="1.5" d="M0,-3.0v7 M-2.5,-0.5L0,-3.0L2.5,-0.5"/>
                </g>
        </g>
        <svg viewBox="0 0 15 15" width="100%" height="30px" preserveAspectRatio="xMaxYMin meet">
         <g id="arrow_out" transform="scale(0.3 0.3)">
          <a xlink:href="a00230_org.svg" target="_base">
           <rect id="button" ry="5" rx="5" y="6" x="6" height="38" width="38"
                fill="#f2f5e9" fill-opacity="0.5" stroke="#606060" stroke-width="1.0"/>
           <path id="arrow"
             d="M 11.500037,31.436501 C 11.940474,20.09759 22.043105,11.32322 32.158766,21.979434 L 37.068811,17.246167 C 37.068811,17.246167 37.088388,32 37.088388,32 L 22.160133,31.978069 C 22.160133,31.978069 26.997745,27.140456 26.997745,27.140456 C 18.528582,18.264221 13.291696,25.230495 11.500037,31.436501 z"
             style="fill:#404040;"/>
          </a>
         </g>
        </svg>
</svg>
