<?xml version="1.0" encoding="UTF-8" standalone="no"?>
<!DOCTYPE svg PUBLIC "-//W3C//DTD SVG 1.1//EN"
 "http://www.w3.org/Graphics/SVG/1.1/DTD/svg11.dtd">
<!-- Generated by graphviz version 2.38.0 (20140413.2041)
 -->
<!-- Title: /home/travis/build/STORM&#45;IRIT/OpenGR/src/gr Pages: 1 -->
<svg width="196pt" height="255pt"
 viewBox="0.00 0.00 196.00 255.00" xmlns="http://www.w3.org/2000/svg" xmlns:xlink="http://www.w3.org/1999/xlink">
<g id="graph0" class="graph" transform="scale(1 1) rotate(0) translate(4 251)">
<title>/home/travis/build/STORM&#45;IRIT/OpenGR/src/gr</title>
<polygon fill="white" stroke="none" points="-4,4 -4,-251 192,-251 192,4 -4,4"/>
<g id="clust1" class="cluster"><title>clusterdir_68267d1309a1af8e8297ef4c3efbcdba</title>
<g id="a_clust1"><a xlink:href="dir_68267d1309a1af8e8297ef4c3efbcdba.html" target="_top" xlink:title="src">
<polygon fill="#ddddee" stroke="black" points="8,-8 8,-239 180,-239 180,-8 8,-8"/>
<text text-anchor="middle" x="94" y="-227" font-family="Helvetica,sans-Serif" font-size="10.00">src</text>
</a>
</g>
</g>
<g id="clust2" class="cluster"><title>clusterdir_c4f313d5a5a06d3df1775d2f8ed15e3e</title>
<g id="a_clust2"><a xlink:href="dir_c4f313d5a5a06d3df1775d2f8ed15e3e.html" target="_top">
<polygon fill="#eeeeff" stroke="black" points="16,-16 16,-212 172,-212 172,-16 16,-16"/>
</a>
</g>
</g>
<!-- dir_c4f313d5a5a06d3df1775d2f8ed15e3e -->
<g id="node1" class="node"><title>dir_c4f313d5a5a06d3df1775d2f8ed15e3e</title>
<text text-anchor="middle" x="137" y="-183.5" font-family="Helvetica,sans-Serif" font-size="10.00">gr</text>
</g>
<!-- dir_0523569e8d6ef94c93eef6d8c11eddae -->
<g id="node2" class="node"><title>dir_0523569e8d6ef94c93eef6d8c11eddae</title>
<g id="a_node2"><a xlink:href="dir_0523569e8d6ef94c93eef6d8c11eddae.html" target="_top" xlink:title="accelerators">
<polygon fill="white" stroke="red" points="100,-132 24,-132 24,-96 100,-96 100,-132"/>
<text text-anchor="middle" x="62" y="-111.5" font-family="Helvetica,sans-Serif" font-size="10.00">accelerators</text>
</a>
</g>
</g>
<!-- dir_d61df41b5dcd84227f20867a2f945b90 -->
<g id="node4" class="node"><title>dir_d61df41b5dcd84227f20867a2f945b90</title>
<g id="a_node4"><a xlink:href="dir_d61df41b5dcd84227f20867a2f945b90.html" target="_top" xlink:title="utils">
<polygon fill="white" stroke="black" points="117,-60 63,-60 63,-24 117,-24 117,-60"/>
<text text-anchor="middle" x="90" y="-39.5" font-family="Helvetica,sans-Serif" font-size="10.00">utils</text>
</a>
</g>
</g>
<!-- dir_0523569e8d6ef94c93eef6d8c11eddae&#45;&gt;dir_d61df41b5dcd84227f20867a2f945b90 -->
<g id="edge3" class="edge"><title>dir_0523569e8d6ef94c93eef6d8c11eddae&#45;&gt;dir_d61df41b5dcd84227f20867a2f945b90</title>
<path fill="none" stroke="black" d="M68.9214,-95.6966C72.0747,-87.8132 75.8783,-78.3042 79.3814,-69.5464"/>
<polygon fill="black" stroke="black" points="82.694,-70.689 83.1583,-60.1043 76.1946,-68.0892 82.694,-70.689"/>
<g id="a_edge3&#45;headlabel"><a xlink:href="dir_000002_000005.html" target="_top" xlink:title="3">
<text text-anchor="middle" x="83.9952" y="-72.581" font-family="Helvetica,sans-Serif" font-size="10.00">3</text>
</a>
</g>
</g>
<!-- dir_ff87653ee392cb107f1e1f663e7b33fa -->
<g id="node3" class="node"><title>dir_ff87653ee392cb107f1e1f663e7b33fa</title>
<g id="a_node3"><a xlink:href="dir_ff87653ee392cb107f1e1f663e7b33fa.html" target="_top" xlink:title="algorithms">
<polygon fill="white" stroke="black" points="92,-204 24,-204 24,-168 92,-168 92,-204"/>
<text text-anchor="middle" x="58" y="-183.5" font-family="Helvetica,sans-Serif" font-size="10.00">algorithms</text>
</a>
</g>
</g>
<!-- dir_ff87653ee392cb107f1e1f663e7b33fa&#45;&gt;dir_0523569e8d6ef94c93eef6d8c11eddae -->
<g id="edge1" class="edge"><title>dir_ff87653ee392cb107f1e1f663e7b33fa&#45;&gt;dir_0523569e8d6ef94c93eef6d8c11eddae</title>
<path fill="none" stroke="black" d="M58.9888,-167.697C59.4296,-159.983 59.9593,-150.712 60.4507,-142.112"/>
<polygon fill="black" stroke="black" points="63.9463,-142.288 61.0226,-132.104 56.9577,-141.888 63.9463,-142.288"/>
<g id="a_edge1&#45;headlabel"><a xlink:href="dir_000004_000002.html" target="_top" xlink:title="10">
<text text-anchor="middle" x="66.576" y="-143.538" font-family="Helvetica,sans-Serif" font-size="10.00">10</text>
</a>
</g>
</g>
<!-- dir_ff87653ee392cb107f1e1f663e7b33fa&#45;&gt;dir_d61df41b5dcd84227f20867a2f945b90 -->
<g id="edge2" class="edge"><title>dir_ff87653ee392cb107f1e1f663e7b33fa&#45;&gt;dir_d61df41b5dcd84227f20867a2f945b90</title>
<path fill="none" stroke="black" d="M81.305,-167.819C91.9006,-158.538 103.32,-146.094 109,-132 117.122,-111.846 111.034,-87.6595 103.659,-69.5904"/>
<polygon fill="black" stroke="black" points="106.767,-67.9663 99.5118,-60.2458 100.369,-70.8058 106.767,-67.9663"/>
<g id="a_edge2&#45;headlabel"><a xlink:href="dir_000004_000005.html" target="_top" xlink:title="7">
<text text-anchor="middle" x="110.821" y="-67.6001" font-family="Helvetica,sans-Serif" font-size="10.00">7</text>
</a>
</g>
</g>
</g>
</svg>
