<?xml version="1.0" encoding="UTF-8" standalone="no"?>
<!DOCTYPE svg PUBLIC "-//W3C//DTD SVG 1.1//EN"
 "http://www.w3.org/Graphics/SVG/1.1/DTD/svg11.dtd">
<!-- Generated by graphviz version 2.38.0 (20140413.2041)
 -->
<!-- Title: /home/travis/build/STORM&#45;IRIT/OpenGR/src/gr/algorithms Pages: 1 -->
<svg width="129pt" height="223pt"
 viewBox="0.00 0.00 129.00 223.00" xmlns="http://www.w3.org/2000/svg" xmlns:xlink="http://www.w3.org/1999/xlink">
<g id="graph0" class="graph" transform="scale(1 1) rotate(0) translate(4 219)">
<title>/home/travis/build/STORM&#45;IRIT/OpenGR/src/gr/algorithms</title>
<polygon fill="white" stroke="none" points="-4,4 -4,-219 125,-219 125,4 -4,4"/>
<g id="clust1" class="cluster"><title>clusterdir_c4f313d5a5a06d3df1775d2f8ed15e3e</title>
<g id="a_clust1"><a xlink:href="dir_c4f313d5a5a06d3df1775d2f8ed15e3e.html" target="_top" xlink:title="gr">
<polygon fill="#ddddee" stroke="black" points="29,-136 29,-207 113,-207 113,-136 29,-136"/>
<text text-anchor="middle" x="71" y="-195" font-family="Helvetica,sans-Serif" font-size="10.00">gr</text>
</a>
</g>
</g>
<!-- dir_ff87653ee392cb107f1e1f663e7b33fa -->
<g id="node1" class="node"><title>dir_ff87653ee392cb107f1e1f663e7b33fa</title>
<g id="a_node1"><a xlink:href="dir_ff87653ee392cb107f1e1f663e7b33fa.html" target="_top" xlink:title="algorithms">
<polygon fill="#eeeeff" stroke="black" points="105,-180 37,-180 37,-144 105,-144 105,-180"/>
<text text-anchor="middle" x="71" y="-159.5" font-family="Helvetica,sans-Serif" font-size="10.00">algorithms</text>
</a>
</g>
</g>
<!-- dir_0523569e8d6ef94c93eef6d8c11eddae -->
<g id="node2" class="node"><title>dir_0523569e8d6ef94c93eef6d8c11eddae</title>
<g id="a_node2"><a xlink:href="dir_0523569e8d6ef94c93eef6d8c11eddae.html" target="_top" xlink:title="accelerators">
<polygon fill="white" stroke="red" points="76,-108 0,-108 0,-72 76,-72 76,-108"/>
<text text-anchor="middle" x="38" y="-87.5" font-family="Helvetica,sans-Serif" font-size="10.00">accelerators</text>
</a>
</g>
</g>
<!-- dir_ff87653ee392cb107f1e1f663e7b33fa&#45;&gt;dir_0523569e8d6ef94c93eef6d8c11eddae -->
<g id="edge1" class="edge"><title>dir_ff87653ee392cb107f1e1f663e7b33fa&#45;&gt;dir_0523569e8d6ef94c93eef6d8c11eddae</title>
<path fill="none" stroke="black" d="M62.8427,-143.697C59.0862,-135.728 54.5469,-126.1 50.3817,-117.264"/>
<polygon fill="black" stroke="black" points="53.4936,-115.657 46.0635,-108.104 47.1619,-118.642 53.4936,-115.657"/>
<g id="a_edge1&#45;headlabel"><a xlink:href="dir_000004_000002.html" target="_top" xlink:title="10">
<text text-anchor="middle" x="57.5945" y="-115.198" font-family="Helvetica,sans-Serif" font-size="10.00">10</text>
</a>
</g>
</g>
<!-- dir_d61df41b5dcd84227f20867a2f945b90 -->
<g id="node3" class="node"><title>dir_d61df41b5dcd84227f20867a2f945b90</title>
<g id="a_node3"><a xlink:href="dir_d61df41b5dcd84227f20867a2f945b90.html" target="_top" xlink:title="utils">
<polygon fill="none" stroke="black" points="98,-36 44,-36 44,-0 98,-0 98,-36"/>
<text text-anchor="middle" x="71" y="-15.5" font-family="Helvetica,sans-Serif" font-size="10.00">utils</text>
</a>
</g>
</g>
<!-- dir_ff87653ee392cb107f1e1f663e7b33fa&#45;&gt;dir_d61df41b5dcd84227f20867a2f945b90 -->
<g id="edge2" class="edge"><title>dir_ff87653ee392cb107f1e1f663e7b33fa&#45;&gt;dir_d61df41b5dcd84227f20867a2f945b90</title>
<path fill="none" stroke="black" d="M76.8235,-143.56C79.9314,-133.33 83.4314,-120.08 85,-108 87.0603,-92.1332 87.0603,-87.8668 85,-72 83.8971,-63.506 81.8393,-54.4338 79.6344,-46.2397"/>
<polygon fill="black" stroke="black" points="82.945,-45.0872 76.8235,-36.4397 76.2163,-47.0172 82.945,-45.0872"/>
<g id="a_edge2&#45;headlabel"><a xlink:href="dir_000004_000005.html" target="_top" xlink:title="7">
<text text-anchor="middle" x="86.6652" y="-45.2597" font-family="Helvetica,sans-Serif" font-size="10.00">7</text>
</a>
</g>
</g>
<!-- dir_0523569e8d6ef94c93eef6d8c11eddae&#45;&gt;dir_d61df41b5dcd84227f20867a2f945b90 -->
<g id="edge3" class="edge"><title>dir_0523569e8d6ef94c93eef6d8c11eddae&#45;&gt;dir_d61df41b5dcd84227f20867a2f945b90</title>
<path fill="none" stroke="black" d="M46.1573,-71.6966C49.9138,-63.7284 54.4531,-54.0995 58.6183,-45.2641"/>
<polygon fill="black" stroke="black" points="61.8381,-46.6421 62.9365,-36.1043 55.5064,-43.6571 61.8381,-46.6421"/>
<g id="a_edge3&#45;headlabel"><a xlink:href="dir_000002_000005.html" target="_top" xlink:title="3">
<text text-anchor="middle" x="62.8736" y="-48.6042" font-family="Helvetica,sans-Serif" font-size="10.00">3</text>
</a>
</g>
</g>
</g>
</svg>
