<?xml version="1.0" encoding="UTF-8" standalone="no"?>
<!DOCTYPE svg PUBLIC "-//W3C//DTD SVG 1.1//EN"
 "http://www.w3.org/Graphics/SVG/1.1/DTD/svg11.dtd">
<!-- Generated by graphviz version 2.38.0 (20140413.2041)
 -->
<!-- Title: /home/travis/build/STORM&#45;IRIT/OpenGR/src/gr/accelerators Pages: 1 -->
<svg width="234pt" height="159pt"
 viewBox="0.00 0.00 234.00 159.00" xmlns="http://www.w3.org/2000/svg" xmlns:xlink="http://www.w3.org/1999/xlink">
<g id="graph0" class="graph" transform="scale(1 1) rotate(0) translate(4 155)">
<title>/home/travis/build/STORM&#45;IRIT/OpenGR/src/gr/accelerators</title>
<polygon fill="white" stroke="none" points="-4,4 -4,-155 230,-155 230,4 -4,4"/>
<g id="clust1" class="cluster"><title>clusterdir_c4f313d5a5a06d3df1775d2f8ed15e3e</title>
<g id="a_clust1"><a xlink:href="dir_c4f313d5a5a06d3df1775d2f8ed15e3e.html" target="_top" xlink:title="gr">
<polygon fill="#ddddee" stroke="black" points="8,-56 8,-143 218,-143 218,-56 8,-56"/>
<text text-anchor="middle" x="113" y="-131" font-family="Helvetica,sans-Serif" font-size="10.00">gr</text>
</a>
</g>
</g>
<g id="clust2" class="cluster"><title>clusterdir_0523569e8d6ef94c93eef6d8c11eddae</title>
<g id="a_clust2"><a xlink:href="dir_0523569e8d6ef94c93eef6d8c11eddae.html" target="_top">
<polygon fill="#eeeeff" stroke="black" points="16,-64 16,-116 210,-116 210,-64 16,-64"/>
</a>
</g>
</g>
<!-- dir_0523569e8d6ef94c93eef6d8c11eddae -->
<g id="node1" class="node"><title>dir_0523569e8d6ef94c93eef6d8c11eddae</title>
<text text-anchor="middle" x="164" y="-87.5" font-family="Helvetica,sans-Serif" font-size="10.00">accelerators</text>
</g>
<!-- dir_d61df41b5dcd84227f20867a2f945b90 -->
<g id="node3" class="node"><title>dir_d61df41b5dcd84227f20867a2f945b90</title>
<g id="a_node3"><a xlink:href="dir_d61df41b5dcd84227f20867a2f945b90.html" target="_top" xlink:title="utils">
<polygon fill="none" stroke="black" points="191,-36 137,-36 137,-0 191,-0 191,-36"/>
<text text-anchor="middle" x="164" y="-15.5" font-family="Helvetica,sans-Serif" font-size="10.00">utils</text>
</a>
</g>
</g>
<!-- dir_0523569e8d6ef94c93eef6d8c11eddae&#45;&gt;dir_d61df41b5dcd84227f20867a2f945b90 -->
<g id="edge1" class="edge"><title>dir_0523569e8d6ef94c93eef6d8c11eddae&#45;&gt;dir_d61df41b5dcd84227f20867a2f945b90</title>
<path fill="none" stroke="black" d="M164,-71.6966C164,-63.9827 164,-54.7125 164,-46.1124"/>
<polygon fill="black" stroke="black" points="167.5,-46.1043 164,-36.1043 160.5,-46.1044 167.5,-46.1043"/>
<g id="a_edge1&#45;headlabel"><a xlink:href="dir_000002_000005.html" target="_top" xlink:title="3">
<text text-anchor="middle" x="170.339" y="-47.199" font-family="Helvetica,sans-Serif" font-size="10.00">3</text>
</a>
</g>
</g>
<!-- dir_49ac1cf49c108e3a2e16b2486ada7340 -->
<g id="node2" class="node"><title>dir_49ac1cf49c108e3a2e16b2486ada7340</title>
<g id="a_node2"><a xlink:href="dir_49ac1cf49c108e3a2e16b2486ada7340.html" target="_top" xlink:title="pairExtraction">
<polygon fill="white" stroke="black" points="107.5,-108 24.5,-108 24.5,-72 107.5,-72 107.5,-108"/>
<text text-anchor="middle" x="66" y="-87.5" font-family="Helvetica,sans-Serif" font-size="10.00">pairExtraction</text>
</a>
</g>
</g>
</g>
</svg>
