<?xml version="1.0" encoding="UTF-8" standalone="no"?>
<!DOCTYPE svg PUBLIC "-//W3C//DTD SVG 1.1//EN"
 "http://www.w3.org/Graphics/SVG/1.1/DTD/svg11.dtd">
<!-- Generated by graphviz version 2.38.0 (20140413.2041)
 -->
<!-- Title: Graphical Class Hierarchy Pages: 1 -->
<svg width="255pt" height="245pt"
 viewBox="0.00 0.00 255.00 245.00" xmlns="http://www.w3.org/2000/svg" xmlns:xlink="http://www.w3.org/1999/xlink">
<g id="graph0" class="graph" transform="scale(1 1) rotate(0) translate(4 241)">
<title>Graphical Class Hierarchy</title>
<polygon fill="white" stroke="none" points="-4,4 -4,-241 251,-241 251,4 -4,4"/>
<!-- Node1 -->
<g id="node1" class="node"><title>Node1</title>
<g id="a_node1"><a xlink:href="a00051.html" target="_top" xlink:title="TBase">
<polygon fill="white" stroke="black" points="0,-114 0,-133 46,-133 46,-114 0,-114"/>
<text text-anchor="middle" x="23" y="-121" font-family="Helvetica,sans-Serif" font-size="10.00">TBase</text>
</a>
</g>
</g>
<!-- Node2 -->
<g id="node2" class="node"><title>Node2</title>
<g id="a_node2"><a xlink:href="a00040.html" target="_top" xlink:title="gr::AdaptivePointFilter\l::Options\&lt; Derived, TBase \&gt;">
<polygon fill="white" stroke="black" points="87.5,-206.5 87.5,-236.5 241.5,-236.5 241.5,-206.5 87.5,-206.5"/>
<text text-anchor="start" x="95.5" y="-224.5" font-family="Helvetica,sans-Serif" font-size="10.00">gr::AdaptivePointFilter</text>
<text text-anchor="middle" x="164.5" y="-213.5" font-family="Helvetica,sans-Serif" font-size="10.00">::Options&lt; Derived, TBase &gt;</text>
</a>
</g>
</g>
<!-- Node1&#45;&gt;Node2 -->
<g id="edge1" class="edge"><title>Node1&#45;&gt;Node2</title>
<path fill="none" stroke="midnightblue" d="M34.0902,-142.175C44.1127,-159.011 60.9988,-183.249 82,-197.5 87.0042,-200.896 92.4959,-203.819 98.1907,-206.335"/>
<polygon fill="midnightblue" stroke="midnightblue" points="36.9953,-140.204 29.0029,-133.249 30.9136,-143.67 36.9953,-140.204"/>
</g>
<!-- Node3 -->
<g id="node3" class="node"><title>Node3</title>
<g id="a_node3"><a xlink:href="a00018.html" target="_top" xlink:title="gr::CongruentSetExploration\lOptions\&lt; Derived, TBase \&gt;">
<polygon fill="white" stroke="black" points="88.5,-157.5 88.5,-187.5 240.5,-187.5 240.5,-157.5 88.5,-157.5"/>
<text text-anchor="start" x="96.5" y="-175.5" font-family="Helvetica,sans-Serif" font-size="10.00">gr::CongruentSetExploration</text>
<text text-anchor="middle" x="164.5" y="-164.5" font-family="Helvetica,sans-Serif" font-size="10.00">Options&lt; Derived, TBase &gt;</text>
</a>
</g>
</g>
<!-- Node1&#45;&gt;Node3 -->
<g id="edge2" class="edge"><title>Node1&#45;&gt;Node3</title>
<path fill="none" stroke="midnightblue" d="M53.7289,-137.131C62.7222,-141.032 72.6847,-145.135 82,-148.5 90.601,-151.607 99.8162,-154.617 108.844,-157.395"/>
<polygon fill="midnightblue" stroke="midnightblue" points="54.9887,-133.861 44.4272,-133.021 52.1599,-140.264 54.9887,-133.861"/>
</g>
<!-- Node4 -->
<g id="node4" class="node"><title>Node4</title>
<g id="a_node4"><a xlink:href="a00041.html" target="_top" xlink:title="gr::DummyPointFilter\l::Options\&lt; Derived, TBase \&gt;">
<polygon fill="white" stroke="black" points="87.5,-108.5 87.5,-138.5 241.5,-138.5 241.5,-108.5 87.5,-108.5"/>
<text text-anchor="start" x="95.5" y="-126.5" font-family="Helvetica,sans-Serif" font-size="10.00">gr::DummyPointFilter</text>
<text text-anchor="middle" x="164.5" y="-115.5" font-family="Helvetica,sans-Serif" font-size="10.00">::Options&lt; Derived, TBase &gt;</text>
</a>
</g>
</g>
<!-- Node1&#45;&gt;Node4 -->
<g id="edge3" class="edge"><title>Node1&#45;&gt;Node4</title>
<path fill="none" stroke="midnightblue" d="M56.1712,-123.5C65.6351,-123.5 76.4148,-123.5 87.4063,-123.5"/>
<polygon fill="midnightblue" stroke="midnightblue" points="56.1042,-120 46.1042,-123.5 56.1042,-127 56.1042,-120"/>
</g>
<!-- Node5 -->
<g id="node5" class="node"><title>Node5</title>
<g id="a_node5"><a xlink:href="a00039.html" target="_top" xlink:title="gr::MatchBase\&lt; PointType,\l _TransformVisitor, OptExts\l \&gt;::Options\&lt; Derived, TBase \&gt;">
<polygon fill="white" stroke="black" points="82,-49 82,-90 247,-90 247,-49 82,-49"/>
<text text-anchor="start" x="90" y="-78" font-family="Helvetica,sans-Serif" font-size="10.00">gr::MatchBase&lt; PointType,</text>
<text text-anchor="start" x="90" y="-67" font-family="Helvetica,sans-Serif" font-size="10.00"> _TransformVisitor, OptExts</text>
<text text-anchor="middle" x="164.5" y="-56" font-family="Helvetica,sans-Serif" font-size="10.00"> &gt;::Options&lt; Derived, TBase &gt;</text>
</a>
</g>
</g>
<!-- Node1&#45;&gt;Node5 -->
<g id="edge4" class="edge"><title>Node1&#45;&gt;Node5</title>
<path fill="none" stroke="midnightblue" d="M55.5128,-110.194C64.0783,-106.651 73.3717,-102.872 82,-99.5 90.0047,-96.372 98.4852,-93.1497 106.833,-90.0301"/>
<polygon fill="midnightblue" stroke="midnightblue" points="54.1121,-106.986 46.2258,-114.061 56.8029,-113.448 54.1121,-106.986"/>
</g>
<!-- Node6 -->
<g id="node6" class="node"><title>Node6</title>
<g id="a_node6"><a xlink:href="a00042.html" target="_top" xlink:title="gr::PairFilterConcept\l::Options\&lt; Derived, TBase \&gt;">
<polygon fill="white" stroke="black" points="87.5,-0.5 87.5,-30.5 241.5,-30.5 241.5,-0.5 87.5,-0.5"/>
<text text-anchor="start" x="95.5" y="-18.5" font-family="Helvetica,sans-Serif" font-size="10.00">gr::PairFilterConcept</text>
<text text-anchor="middle" x="164.5" y="-7.5" font-family="Helvetica,sans-Serif" font-size="10.00">::Options&lt; Derived, TBase &gt;</text>
</a>
</g>
</g>
<!-- Node1&#45;&gt;Node6 -->
<g id="edge5" class="edge"><title>Node1&#45;&gt;Node6</title>
<path fill="none" stroke="midnightblue" d="M32.3266,-104.614C41.7141,-85.4633 58.7558,-56.3212 82,-39.5 86.7797,-36.041 92.0555,-33.0771 97.5557,-30.5378"/>
<polygon fill="midnightblue" stroke="midnightblue" points="29.0772,-103.3 28.0152,-113.842 35.4191,-106.264 29.0772,-103.3"/>
</g>
</g>
</svg>
