<?xml version="1.0" encoding="UTF-8" standalone="no"?>
<!DOCTYPE svg PUBLIC "-//W3C//DTD SVG 1.1//EN"
 "http://www.w3.org/Graphics/SVG/1.1/DTD/svg11.dtd">
<!-- Generated by graphviz version 2.38.0 (20140413.2041)
 -->
<!-- Title: Graphical Class Hierarchy Pages: 1 -->
<svg width="399pt" height="61pt"
 viewBox="0.00 0.00 399.00 61.00" xmlns="http://www.w3.org/2000/svg" xmlns:xlink="http://www.w3.org/1999/xlink">
<g id="graph0" class="graph" transform="scale(1 1) rotate(0) translate(4 57)">
<title>Graphical Class Hierarchy</title>
<polygon fill="white" stroke="none" points="-4,4 -4,-57 395,-57 395,4 -4,4"/>
<!-- Node1 -->
<g id="node1" class="node"><title>Node1</title>
<g id="a_node1"><a xlink:href="a00035.html" target="_top" xlink:title="gr::MatchBase\&lt; _PointType,\l _TransformVisitor, OptExts...,\l CongruentSetExplorationOptions \&gt;">
<polygon fill="white" stroke="black" points="0,-6 0,-47 188,-47 188,-6 0,-6"/>
<text text-anchor="start" x="8" y="-35" font-family="Helvetica,sans-Serif" font-size="10.00">gr::MatchBase&lt; _PointType,</text>
<text text-anchor="start" x="8" y="-24" font-family="Helvetica,sans-Serif" font-size="10.00"> _TransformVisitor, OptExts...,</text>
<text text-anchor="middle" x="94" y="-13" font-family="Helvetica,sans-Serif" font-size="10.00"> CongruentSetExplorationOptions &gt;</text>
</a>
</g>
</g>
<!-- Node2 -->
<g id="node2" class="node"><title>Node2</title>
<g id="a_node2"><a xlink:href="a00017.html" target="_top" xlink:title="Base class for Congruent Sec Exploration algorithms. ">
<polygon fill="white" stroke="black" points="224,-0.5 224,-52.5 391,-52.5 391,-0.5 224,-0.5"/>
<text text-anchor="start" x="232" y="-40.5" font-family="Helvetica,sans-Serif" font-size="10.00">gr::CongruentSetExploration</text>
<text text-anchor="start" x="232" y="-29.5" font-family="Helvetica,sans-Serif" font-size="10.00">Base&lt; _Traits, _PointType,</text>
<text text-anchor="start" x="232" y="-18.5" font-family="Helvetica,sans-Serif" font-size="10.00"> _TransformVisitor, _PairFiltering</text>
<text text-anchor="middle" x="307.5" y="-7.5" font-family="Helvetica,sans-Serif" font-size="10.00">Functor, OptExts &gt;</text>
</a>
</g>
</g>
<!-- Node1&#45;&gt;Node2 -->
<g id="edge1" class="edge"><title>Node1&#45;&gt;Node2</title>
<path fill="none" stroke="midnightblue" d="M198.118,-26.5C206.694,-26.5 215.293,-26.5 223.689,-26.5"/>
<polygon fill="midnightblue" stroke="midnightblue" points="198.075,-23.0001 188.075,-26.5 198.075,-30.0001 198.075,-23.0001"/>
</g>
</g>
</svg>
